$MeshFormat
4.1 0 8
$EndMeshFormat
$PhysicalNames
3
0 3 "point1"
1 1 "AIR"
1 2 "Ag"
$EndPhysicalNames
$Entities
4 3 0 0
1 0 0 0 1 3 
2 0.005 0 0 0 
3 0.025 0 0 0 
4 0.03 0 0 0 
1 0 0 0 0.005 0 0 1 1 2 1 -2 
2 0.004999999999999999 0 0 0.025 0 0 1 2 2 2 -3 
3 0.025 0 0 0.03 0 0 1 1 2 3 -4 
$EndEntities
$Nodes
7 31 1 31
0 1 0 1
1
0 0 0
0 2 0 1
2
0.005 0 0
0 3 0 1
3
0.025 0 0
0 4 0 1
4
0.03 0 0
1 1 0 4
5
6
7
8
0.0009999999999977614 0 0
0.001999999999994856 0 0
0.002999999999994753 0 0
0.003999999999997292 0 0
1 2 0 19
9
10
11
12
13
14
15
16
17
18
19
20
21
22
23
24
25
26
27
0.005999999999997665 0 0
0.006999999999995939 0 0
0.007999999999993434 0 0
0.008999999999991338 0 0
0.009999999999986801 0 0
0.01099999999998213 0 0
0.01199999999998078 0 0
0.01299999999997956 0 0
0.01399999999997488 0 0
0.01499999999997088 0 0
0.01599999999997487 0 0
0.01699999999997887 0 0
0.01799999999998056 0 0
0.01899999999998144 0 0
0.01999999999998544 0 0
0.02099999999998943 0 0
0.02199999999999343 0 0
0.02299999999999513 0 0
0.02399999999999601 0 0
1 3 0 4
28
29
30
31
0.02599999999999933 0 0
0.02699999999999608 0 0
0.02799999999999445 0 0
0.02899999999999716 0 0
$EndNodes
$Elements
4 31 1 31
0 1 15 1
1 1 
1 1 1 5
2 1 5 
3 5 6 
4 6 7 
5 7 8 
6 8 2 
1 2 1 20
7 2 9 
8 9 10 
9 10 11 
10 11 12 
11 12 13 
12 13 14 
13 14 15 
14 15 16 
15 16 17 
16 17 18 
17 18 19 
18 19 20 
19 20 21 
20 21 22 
21 22 23 
22 23 24 
23 24 25 
24 25 26 
25 26 27 
26 27 3 
1 3 1 5
27 3 28 
28 28 29 
29 29 30 
30 30 31 
31 31 4 
$EndElements
