$MeshFormat
4.1 0 8
$EndMeshFormat
$PhysicalNames
8
0 8 "point1"
1 1 "AIR"
1 2 "Glass"
1 3 "ITO"
1 4 "PTAA"
1 5 "PSK"
1 6 "SnO2"
1 7 "Ag"
$EndPhysicalNames
$Entities
10 9 0 0
1 0 0 0 1 8 
2 20 0 0 0 
3 500020 0 0 0 
4 1000020 0 0 0 
5 1000160 0 0 0 
6 1000180 0 0 0 
7 1000580 0 0 0 
8 1000600 0 0 0 
9 1000700 0 0 0 
10 1000720 0 0 0 
1 0 0 0 20 0 0 1 1 2 1 -2 
2 20 0 0 500020 0 0 1 2 2 2 -3 
3 500020 0 0 1000020 0 0 1 2 2 3 -4 
4 1000020 0 0 1000160 0 0 1 3 2 4 -5 
5 1000160 0 0 1000180 0 0 1 4 2 5 -6 
6 1000180 0 0 1000580 0 0 1 5 2 6 -7 
7 1000580 0 0 1000600 0 0 1 6 2 7 -8 
8 1000600 0 0 1000700 0 0 1 7 2 8 -9 
9 1000700 0 0 1000720 0 0 1 1 2 9 -10 
$EndEntities
$Nodes
19 1643 1 1643
0 1 0 1
1
0 0 0
0 2 0 1
2
20 0 0
0 3 0 1
3
500020 0 0
0 4 0 1
4
1000020 0 0
0 5 0 1
5
1000160 0 0
0 6 0 1
6
1000180 0 0
0 7 0 1
7
1000580 0 0
0 8 0 1
8
1000600 0 0
0 9 0 1
9
1000700 0 0
0 10 0 1
10
1000720 0 0
1 1 0 19
11
12
13
14
15
16
17
18
19
20
21
22
23
24
25
26
27
28
29
0.9999999999991025 0 0
1.999999999998379 0 0
2.99999999999657 0 0
3.999999999993654 0 0
4.999999999990736 0 0
5.99999999998782 0 0
6.999999999984902 0 0
7.999999999982053 0 0
8.999999999983299 0 0
9.999999999984821 0 0
10.99999999998634 0 0
11.99999999998786 0 0
12.99999999998939 0 0
13.99999999999091 0 0
14.99999999999243 0 0
15.99999999999396 0 0
16.99999999999547 0 0
17.99999999999698 0 0
18.99999999999849 0 0
1 2 0 460
30
31
32
33
34
35
36
37
38
39
40
41
42
43
44
45
46
47
48
49
50
51
52
53
54
55
56
57
58
59
60
61
62
63
64
65
66
67
68
69
70
71
72
73
74
75
76
77
78
79
80
81
82
83
84
85
86
87
88
89
90
91
92
93
94
95
96
97
98
99
100
101
102
103
104
105
106
107
108
109
110
111
112
113
114
115
116
117
118
119
120
121
122
123
124
125
126
127
128
129
130
131
132
133
134
135
136
137
138
139
140
141
142
143
144
145
146
147
148
149
150
151
152
153
154
155
156
157
158
159
160
161
162
163
164
165
166
167
168
169
170
171
172
173
174
175
176
177
178
179
180
181
182
183
184
185
186
187
188
189
190
191
192
193
194
195
196
197
198
199
200
201
202
203
204
205
206
207
208
209
210
211
212
213
214
215
216
217
218
219
220
221
222
223
224
225
226
227
228
229
230
231
232
233
234
235
236
237
238
239
240
241
242
243
244
245
246
247
248
249
250
251
252
253
254
255
256
257
258
259
260
261
262
263
264
265
266
267
268
269
270
271
272
273
274
275
276
277
278
279
280
281
282
283
284
285
286
287
288
289
290
291
292
293
294
295
296
297
298
299
300
301
302
303
304
305
306
307
308
309
310
311
312
313
314
315
316
317
318
319
320
321
322
323
324
325
326
327
328
329
330
331
332
333
334
335
336
337
338
339
340
341
342
343
344
345
346
347
348
349
350
351
352
353
354
355
356
357
358
359
360
361
362
363
364
365
366
367
368
369
370
371
372
373
374
375
376
377
378
379
380
381
382
383
384
385
386
387
388
389
390
391
392
393
394
395
396
397
398
399
400
401
402
403
404
405
406
407
408
409
410
411
412
413
414
415
416
417
418
419
420
421
422
423
424
425
426
427
428
429
430
431
432
433
434
435
436
437
438
439
440
441
442
443
444
445
446
447
448
449
450
451
452
453
454
455
456
457
458
459
460
461
462
463
464
465
466
467
468
469
470
471
472
473
474
475
476
477
478
479
480
481
482
483
484
485
486
487
488
489
21.00909921295011 0 0
22.03856186726595 0 0
23.08879904906211 0 0
24.16022996986884 0 0
25.25328271055744 0 0
26.36839278596005 0 0
27.50600570762591 0 0
28.66657575340766 0 0
29.85056564875194 0 0
31.05844885858592 0 0
32.29070709549825 0 0
33.54783216999709 0 0
34.83032605438577 0 0
36.1387003186215 0 0
37.47347807717054 0 0
38.83519091780965 0 0
40.22438372514991 0 0
41.64161018108813 0 0
43.08743615400014 0 0
44.56243882446972 0 0
46.06720699401622 0 0
47.60234134735563 0 0
49.1684546717034 0 0
50.76617203645918 0 0
52.3961311184717 0 0
54.05898314413965 0 0
55.75539127428337 0 0
57.48603279793211 0 0
59.2515984885008 0 0
61.05279324988912 0 0
62.8903364449201 0 0
64.76496080428251 0 0
66.6774153068454 0 0
68.62846289555958 0 0
70.61888232519237 0 0
72.64946876986248 0 0
74.72103220347108 0 0
76.83439958463258 0 0
78.99041485337497 0 0
81.18993877735237 0 0
83.43384890363058 0 0
85.72304051984953 0 0
88.05842815365448 0 0
90.44094382586648 0 0
92.87153815105508 0 0
95.35118250541095 0 0
97.88086548291469 0 0
100.4615973508144 0 0
103.0944085501347 0 0
105.7803499244532 0 0
108.5204932059252 0 0
111.3159321252334 0 0
114.1677837786226 0 0
117.0771853849707 0 0
120.0452978881232 0 0
123.0733080116166 0 0
126.1624224244936 0 0
129.3138748897867 0 0
132.52892421768 0 0
135.8088527341721 0 0
139.1549703525775 0 0
142.568612492828 0 0
146.0511417667182 0 0
149.6039480524951 0 0
153.2284502149367 0 0
156.9260945348428 0 0
160.6983566985413 0 0
164.5467436843921 0 0
168.4727905718778 0 0
172.4780654328251 0 0
176.5641663305685 0 0
180.7327244574485 0 0
184.9854036016887 0 0
189.3239025651171 0 0
193.7499515637359 0 0
198.2653192167813 0 0
202.8718051441946 0 0
207.571250478636 0 0
212.3655316361954 0 0
217.256560095066 0 0
222.2462883180319 0 0
227.3367109685665 0 0
232.529857022378 0 0
237.827800902434 0 0
243.2326564487124 0 0
248.7465824435957 0 0
254.3717784705994 0 0
260.1104922830139 0 0
265.965012234792 0 0
271.9376756715931 0 0
278.0308671090065 0 0
284.2470206465562 0 0
290.5886147457569 0 0
297.0581820755939 0 0
303.6583040500233 0 0
310.3916174749123 0 0
317.2608094058363 0 0
324.2686207221583 0 0
331.4178495222965 0 0
338.7113487851182 0 0
346.1520311431604 0 0
353.742866846733 0 0
361.4868845347307 0 0
369.3871765458557 0 0
377.4468953414617 0 0
385.669259867273 0 0
394.0575518327926 0 0
402.6151183306454 0 0
411.3453778914116 0 0
420.2518140131043 0 0
429.3379786854393 0 0
438.6075041438491 0 0
448.0640851823081 0 0
457.7115023707163 0 0
467.5536042699345 0 0
477.5943187253804 0 0
487.8376542932644 0 0
498.2876984319837 0 0
508.9486269509929 0 0
519.8246899311472 0 0
530.9202321159541 0 0
542.2396831227099 0 0
553.787560727083 0 0
565.5684737154876 0 0
577.5871243360693 0 0
589.84831037782 0 0
602.3569269060253 0 0
615.1179676808758 0 0
628.1365262846565 0 0
641.4177969815586 0 0
654.9670854980219 0 0
668.7897969567009 0 0
682.8914497384969 0 0
697.2776743867188 0 0
711.9542120833055 0 0
726.9269204635418 0 0
742.2017796044031 0 0
757.7848824109215 0 0
773.6824552928886 0 0
789.9008387516815 0 0
806.4465077662928 0 0
823.3260686303889 0 0
840.5462584357566 0 0
858.11395613916 0 0
876.036164922142 0 0
894.3200385541783 0 0
912.972886788828 0 0
932.0021434874852 0 0
951.4154139038999 0 0
971.2204408678489 0 0
991.4251343976924 0 0
1012.037552273558 0 0
1033.065932923288 0 0
1054.518664791456 0 0
1076.404313148857 0 0
1098.731616017189 0 0
1121.509474632173 0 0
1144.746998976072 0 0
1168.45344593355 0 0
1192.638298147925 0 0
1217.311191661607 0 0
1242.481989906376 0 0
1268.16072808282 0 0
1294.357662704896 0 0
1321.083254309572 0 0
1348.34816836707 0 0
1376.163282277848 0 0
1404.539706844456 0 0
1433.488768147247 0 0
1463.022018782188 0 0
1493.151246955591 0 0
1523.888485020342 0 0
1555.245998978789 0 0
1587.236306714518 0 0
1619.872176534298 0 0
1653.166633602505 0 0
1687.1329796236 0 0
1721.784759571967 0 0
1757.135812222047 0 0
1793.200259502916 0 0
1829.992469202036 0 0
1867.527155788429 0 0
1905.819277304598 0 0
1944.88414249175 0 0
1984.737335472019 0 0
2025.394761725918 0 0
2066.87265309661 0 0
2109.1875659043 0 0
2152.356386811401 0 0
2196.396362862505 0 0
2241.325063752211 0 0
2287.160420393316 0 0
2333.920732419369 0 0
2381.624665900318 0 0
2430.291262489673 0 0
2479.939947141599 0 0
2530.590542496653 0 0
2582.263273766991 0 0
2634.978741108632 0 0
2688.758021905134 0 0
2743.622558226198 0 0
2799.594262559506 0 0
2856.695465429663 0 0
2914.948979216696 0 0
2974.378044177353 0 0
3035.006379863878 0 0
3096.858203073442 0 0
3159.958180506117 0 0
3224.331520619653 0 0
3290.003918680054 0 0
3357.001575069782 0 0
3425.351246468878 0 0
3495.08021365364 0 0
3566.216321815031 0 0
3638.787933955008 0 0
3712.824029469616 0 0
3788.35419009933 0 0
3865.408527827384 0 0
3944.017837067165 0 0
4024.213467259496 0 0
4106.027451542973 0 0
4189.492409614087 0 0
4274.64173206688 0 0
4361.509346753891 0 0
4450.129942067628 0 0
4540.538889132226 0 0
4632.772298713066 0 0
4726.866984238317 0 0
4822.86047489801 0 0
4920.791120685451 0 0
5020.698014433367 0 0
5122.621016329598 0 0
5226.600819570504 0 0
5332.67892630193 0 0
5440.897689487632 0 0
5551.300291488679 0 0
5663.930833410769 0 0
5778.834262348174 0 0
5896.056425532808 0 0
6015.644115915564 0 0
6137.645097122868 0 0
6262.108054748318 0 0
6389.082667244256 0 0
6518.619617816872 0 0
6650.770615906731 0 0
6785.58842717778 0 0
6923.126857046646 0 0
7063.440828573559 0 0
7206.586294912868 0 0
7352.620466184101 0 0
7501.601576428443 0 0
7653.589096504287 0 0
7808.643762491067 0 0
7966.827402975263 0 0
8128.203137607826 0 0
8292.835520433624 0 0
8460.790137539721 0 0
8632.134057177967 0 0
8806.93568745648 0 0
8985.26485240964 0 0
9167.192654432303 0 0
9352.791741965542 0 0
9542.136265794954 0 0
9735.301725915037 0 0
9932.365223827348 0 0
10133.40551819681 0 0
10338.50274925604 0 0
10547.7388771583 0 0
10761.19735991032 0 0
10978.96342256707 0 0
11201.12398193679 0 0
11427.76774141892 0 0
11658.98519170938 0 0
11894.86858145101 0 0
12135.51207638501 0 0
12381.01179165299 0 0
12631.46563204779 0 0
12886.97364011856 0 0
13147.63782692172 0 0
13413.56215561638 0 0
13684.85286680014 0 0
13961.61819883849 0 0
14243.96870939204 0 0
14532.01696150296 0 0
14825.87803371124 0 0
15125.66916584035 0 0
15431.51007051466 0 0
15743.52292624891 0 0
16061.83216214205 0 0
16386.56486014968 0 0
16717.85060836366 0 0
17055.82169614965 0 0
17400.6130652162 0 0
17752.36232453542 0 0
18111.20984239201 0 0
18477.29888792208 0 0
18850.77559181121 0 0
19231.78903127268 0 0
19620.49130266051 0 0
20017.03758264121 0 0
20421.58617880175 0 0
20834.29857052859 0 0
21255.33944094917 0 0
21684.87691343813 0 0
22123.082411221 0 0
22570.13092772626 0 0
23026.20078368486 0 0
23491.47417916503 0 0
23966.1368081651 0 0
24450.37806140809 0 0
24944.39128431126 0 0
25448.3736623466 0 0
25962.52644465413 0 0
26487.054755498 0 0
27022.16807596214 0 0
27568.07993499147 0 0
28125.00838970748 0 0
28693.17553313079 0 0
29272.80823849065 0 0
29864.13794753175 0 0
30467.40060959867 0 0
31082.83721203864 0 0
31710.69315307508 0 0
32351.21928850465 0 0
33004.67122407723 0 0
33671.30973271328 0 0
34351.40094496078 0 0
35045.21648689813 0 0
35753.03324221794 0 0
36475.13359010025 0 0
37211.80591906684 0 0
37963.34433560826 0 0
38730.04868304174 0 0
39512.22518537112 0 0
40310.18583182175 0 0
41124.24951392681 0 0
41954.74086339166 0 0
42801.99148936481 0 0
43666.33953697638 0 0
44548.13022058508 0 0
45447.71533204847 0 0
46365.45407621346 0 0
47301.71271722884 0 0
48256.86506376327 0 0
49231.2922814788 0 0
50225.38349672069 0 0
51239.5353890008 0 0
52274.15272304581 0 0
53329.64881172722 0 0
54406.44467100023 0 0
55504.97022760486 0 0
56625.66428136092 0 0
57768.97363650514 0 0
58935.35456416962 0 0
60125.27331732052 0 0
61339.20496156505 0 0
62577.63322733602 0 0
63841.05318271916 0 0
65129.96841639807 0 0
66444.89450766376 0 0
67786.35543183181 0 0
69154.88713406646 0 0
70551.0358287977 0 0
71975.35863449276 0 0
73428.42401333495 0 0
74910.81232884133 0 0
76423.11540539528 0 0
77965.93665871011 0 0
79539.89195992939 0 0
81145.60952759358 0 0
82783.73012424068 0 0
84454.90860135094 0 0
86159.81096965338 0 0
87899.11827840426 0 0
89673.52483653172 0 0
91483.73862969577 0 0
93330.48263861069 0 0
95214.49393046206 0 0
97136.5244325275 0 0
99097.34128726486 0 0
101097.7275709183 0 0
103138.4813327426 0 0
105220.4178471051 0 0
107344.3675105502 0 0
109511.1784053073 0 0
111721.7154793206 0 0
113976.8613148186 0 0
116277.5161847175 0 0
118624.5976315454 0 0
121019.0425226616 0 0
123461.8076973707 0 0
125953.8686127671 0 0
128496.2179499144 0 0
131089.8724277818 0 0
133735.8672401577 0 0
136435.2569567932 0 0
139189.1214457907 0 0
141998.5583486824 0 0
144864.6894150545 0 0
147788.6586252128 0 0
150771.6340251592 0 0
153814.8058732717 0 0
156919.3883464603 0 0
160086.620911407 0 0
163317.7685338367 0 0
166614.1205716386 0 0
169976.9931481357 0 0
173407.7284403121 0 0
176907.6953744956 0 0
180478.2916659328 0 0
184120.9425718543 0 0
187837.1019293113 0 0
191628.253235901 0 0
195495.9098273597 0 0
199441.615604017 0 0
203466.9456254301 0 0
207573.5062844191 0 0
211762.9378347486 0 0
216036.9116632383 0 0
220397.1340467573 0 0
224845.3453228084 0 0
229383.322272734 0 0
234012.8754936494 0 0
238735.8514775264 0 0
243554.1372935491 0 0
248469.6576699867 0 0
253484.3712340732 0 0
258600.2824217681 0 0
263819.430909108 0 0
269143.9037677854 0 0
274575.8232947226 0 0
280117.357994102 0 0
285770.7220607295 0 0
291538.1701089149 0 0
297422.0054699789 0 0
303424.5747645647 0 0
309548.2782240403 0 0
315795.5566204968 0 0
322168.9039980674 0 0
328670.8670375388 0 0
335304.0383695056 0 0
342071.0666464037 0 0
348974.6540291549 0 0
356017.5553450228 0 0
363202.5820875881 0 0
370532.6024040696 0 0
378010.5409807843 0 0
385639.385392644 0 0
393422.1806894311 0 0
401362.0313033062 0 0
409462.1077033422 0 0
417725.6435239628 0 0
426155.9369097339 0 0
434756.3537933387 0 0
443530.3267624407 0 0
452481.3609762876 0 0
461613.0233253259 0 0
470928.9622272837 0 0
480432.8972428408 0 0
490128.6174670575 0 0
1 3 0 460
490
491
492
493
494
495
496
497
498
499
500
501
502
503
504
505
506
507
508
509
510
511
512
513
514
515
516
517
518
519
520
521
522
523
524
525
526
527
528
529
530
531
532
533
534
535
536
537
538
539
540
541
542
543
544
545
546
547
548
549
550
551
552
553
554
555
556
557
558
559
560
561
562
563
564
565
566
567
568
569
570
571
572
573
574
575
576
577
578
579
580
581
582
583
584
585
586
587
588
589
590
591
592
593
594
595
596
597
598
599
600
601
602
603
604
605
606
607
608
609
610
611
612
613
614
615
616
617
618
619
620
621
622
623
624
625
626
627
628
629
630
631
632
633
634
635
636
637
638
639
640
641
642
643
644
645
646
647
648
649
650
651
652
653
654
655
656
657
658
659
660
661
662
663
664
665
666
667
668
669
670
671
672
673
674
675
676
677
678
679
680
681
682
683
684
685
686
687
688
689
690
691
692
693
694
695
696
697
698
699
700
701
702
703
704
705
706
707
708
709
710
711
712
713
714
715
716
717
718
719
720
721
722
723
724
725
726
727
728
729
730
731
732
733
734
735
736
737
738
739
740
741
742
743
744
745
746
747
748
749
750
751
752
753
754
755
756
757
758
759
760
761
762
763
764
765
766
767
768
769
770
771
772
773
774
775
776
777
778
779
780
781
782
783
784
785
786
787
788
789
790
791
792
793
794
795
796
797
798
799
800
801
802
803
804
805
806
807
808
809
810
811
812
813
814
815
816
817
818
819
820
821
822
823
824
825
826
827
828
829
830
831
832
833
834
835
836
837
838
839
840
841
842
843
844
845
846
847
848
849
850
851
852
853
854
855
856
857
858
859
860
861
862
863
864
865
866
867
868
869
870
871
872
873
874
875
876
877
878
879
880
881
882
883
884
885
886
887
888
889
890
891
892
893
894
895
896
897
898
899
900
901
902
903
904
905
906
907
908
909
910
911
912
913
914
915
916
917
918
919
920
921
922
923
924
925
926
927
928
929
930
931
932
933
934
935
936
937
938
939
940
941
942
943
944
945
946
947
948
949
509911.3825329415 0 0
519607.1027571611 0 0
529111.0377727194 0 0
538426.976674678 0 0
547558.6390237146 0 0
556509.6732375617 0 0
565283.6462066651 0 0
573884.0630902695 0 0
582314.3564760389 0 0
590577.8922966602 0 0
598677.9686966952 0 0
606617.8193105691 0 0
614400.6146073595 0 0
622029.4590192185 0 0
629507.3975959332 0 0
636837.417912412 0 0
644022.4446549753 0 0
651065.3459708436 0 0
657968.933353596 0 0
664735.9616304939 0 0
671369.1329624605 0 0
677871.0960019331 0 0
684244.4433795054 0 0
690491.721775962 0 0
696615.4252354373 0 0
702617.9945300244 0 0
708501.8298910892 0 0
714269.2779392741 0 0
719922.6420059017 0 0
725464.1767052814 0 0
730896.0962322182 0 0
736220.5690908944 0 0
741439.717578214 0 0
746555.6287658811 0 0
751570.3423299498 0 0
756485.8627063893 0 0
761304.1485224123 0 0
766027.1245062894 0 0
770656.6777272056 0 0
775194.6546771335 0 0
779642.8659531863 0 0
784003.0883367063 0 0
788277.0621651961 0 0
792466.4937155249 0 0
796573.0543745154 0 0
800598.3843959305 0 0
804544.0901725902 0 0
808411.7467640503 0 0
812202.8980706418 0 0
815919.0574281001 0 0
819561.7083340231 0 0
823132.3046254609 0 0
826632.2715596458 0 0
830063.0068518232 0 0
833425.8794283204 0 0
836722.2314661236 0 0
839953.3790885541 0 0
843120.6116535023 0 0
846225.1941266924 0 0
849268.3659748056 0 0
852251.341374753 0 0
855175.3105849118 0 0
858041.4416512835 0 0
860850.8785541763 0 0
863604.743043175 0 0
866304.1327598111 0 0
868950.1275721877 0 0
871543.7820500555 0 0
874086.1313872035 0 0
876578.1923026005 0 0
879020.9574773107 0 0
881415.4023684275 0 0
883762.4838152564 0 0
886063.1386851559 0 0
888318.2845206547 0 0
890528.8215946686 0 0
892695.6324894262 0 0
894819.5821528719 0 0
896901.5186672343 0 0
898942.2724290588 0 0
900942.6587127135 0 0
902903.475567452 0 0
904825.5060695168 0 0
906709.5173613681 0 0
908556.2613702832 0 0
910366.4751634481 0 0
912140.881721576 0 0
913880.1890303269 0 0
915585.0913986301 0 0
917256.2698757404 0 0
918894.3904723879 0 0
920500.1080400522 0 0
922074.0633412721 0 0
923616.8845945867 0 0
925129.187671141 0 0
926611.5759866477 0 0
928064.6413654902 0 0
929488.9641711856 0 0
930885.1128659174 0 0
932253.6445681527 0 0
933595.1054923215 0 0
934910.0315835881 0 0
936198.9468172695 0 0
937462.3667726542 0 0
938700.7950384251 0 0
939914.7266826697 0 0
941104.6454358208 0 0
942271.0263634856 0 0
943414.3357186299 0 0
944535.0297723864 0 0
945633.5553289913 0 0
946710.3511882644 0 0
947765.8472769462 0 0
948800.4646109915 0 0
949814.6165032722 0 0
950808.7077185143 0 0
951783.1349362299 0 0
952738.2872827644 0 0
953674.5459237798 0 0
954592.284667945 0 0
955491.8697794082 0 0
956373.6604630171 0 0
957238.0085106287 0 0
958085.2591366024 0 0
958915.7504860675 0 0
959729.8141681724 0 0
960527.7748146229 0 0
961309.9513169525 0 0
962076.6556643862 0 0
962828.1940809279 0 0
963564.8664098944 0 0
964286.9667577767 0 0
964994.7835130964 0 0
965688.5990550339 0 0
966368.6902672816 0 0
967035.328775918 0 0
967688.7807114904 0 0
968329.3068469196 0 0
968957.1627879557 0 0
969572.5993903959 0 0
970175.8620524628 0 0
970767.1917615037 0 0
971346.8244668636 0 0
971914.991610287 0 0
972471.9200650032 0 0
973017.8319240327 0 0
973552.9452444969 0 0
974077.4735553407 0 0
974591.6263376485 0 0
975095.6087156839 0 0
975589.621938587 0 0
976073.8631918301 0 0
976548.5258208301 0 0
977013.7992163103 0 0
977469.8690722692 0 0
977916.9175887746 0 0
978355.1230865575 0 0
978784.6605590467 0 0
979205.7014294674 0 0
979618.4138211944 0 0
980022.9624173549 0 0
980419.5086973357 0 0
980808.2109687235 0 0
981189.2244081851 0 0
981562.7011120743 0 0
981928.7901576044 0 0
982287.637675461 0 0
982639.3869347803 0 0
982984.1783038469 0 0
983322.149391633 0 0
983653.435139847 0 0
983978.1678378549 0 0
984296.4770737481 0 0
984608.4899294826 0 0
984914.330834157 0 0
985214.1219662862 0 0
985507.9830384945 0 0
985796.0312906055 0 0
986078.3818011591 0 0
986355.1471331976 0 0
986626.4378443814 0 0
986892.3621730761 0 0
987153.0263598792 0 0
987408.5343679502 0 0
987658.988208345 0 0
987904.4879236131 0 0
988145.1314185471 0 0
988381.0148082888 0 0
988612.2322585792 0 0
988838.8760180614 0 0
989061.0365774313 0 0
989278.8026400879 0 0
989492.2611228401 0 0
989701.4972507424 0 0
989906.5944818016 0 0
990107.6347761711 0 0
990304.6982740834 0 0
990497.8637342035 0 0
990687.208258033 0 0
990872.8073455662 0 0
991054.735147589 0 0
991233.0643125422 0 0
991407.8659428207 0 0
991579.209862459 0 0
991747.1644795651 0 0
991911.7968623909 0 0
992073.1725970235 0 0
992231.3562375077 0 0
992386.4109034946 0 0
992538.3984235704 0 0
992687.3795338147 0 0
992833.4137050861 0 0
992976.5591714254 0 0
993116.8731429523 0 0
993254.4115728212 0 0
993389.2293840923 0 0
993521.3803821822 0 0
993650.9173327547 0 0
993777.8919452508 0 0
993902.3549028763 0 0
994024.3558840835 0 0
994143.9435744663 0 0
994261.1657376511 0 0
994376.0691665884 0 0
994488.6997085105 0 0
994599.1023105115 0 0
994707.3210736973 0 0
994813.3991804288 0 0
994917.3789836697 0 0
995019.3019855659 0 0
995119.2088793139 0 0
995217.1395251013 0 0
995313.1330157609 0 0
995407.2277012863 0 0
995499.4611108671 0 0
995589.8700579318 0 0
995678.4906532455 0 0
995765.3582679325 0 0
995850.5075903854 0 0
995933.9725484564 0 0
996015.7865327399 0 0
996095.9821629323 0 0
996174.5914721722 0 0
996251.6458099001 0 0
996327.1759705299 0 0
996401.2120660446 0 0
996473.7836781845 0 0
996544.9197863459 0 0
996614.6487535306 0 0
996682.9984249298 0 0
996749.9960813195 0 0
996815.66847938 0 0
996880.0418194935 0 0
996943.1417969262 0 0
997004.9936201357 0 0
997065.6219558222 0 0
997125.0510207829 0 0
997183.30453457 0 0
997240.4057374401 0 0
997296.3774417734 0 0
997351.2419780944 0 0
997405.0212588911 0 0
997457.7367262327 0 0
997509.4094575031 0 0
997560.0600528582 0 0
997609.70873751 0 0
997658.3753340994 0 0
997706.0792675803 0 0
997752.8395796064 0 0
997798.6749362475 0 0
997843.6036371372 0 0
997887.6436131883 0 0
997930.8124340954 0 0
997973.1273469031 0 0
998014.6052382737 0 0
998055.2626645276 0 0
998095.115857508 0 0
998134.1807226951 0 0
998172.4728442114 0 0
998210.0075307977 0 0
998246.7997404968 0 0
998282.8641877777 0 0
998318.2152404278 0 0
998352.8670203761 0 0
998386.8333663973 0 0
998420.1278234655 0 0
998452.7636932853 0 0
998484.754001021 0 0
998516.1115149795 0 0
998546.8487530443 0 0
998576.9779812177 0 0
998606.5112318526 0 0
998635.4602931554 0 0
998663.836717722 0 0
998691.6518316327 0 0
998718.9167456903 0 0
998745.642337295 0 0
998771.839271917 0 0
998797.5180100935 0 0
998822.6888083383 0 0
998847.3617018519 0 0
998871.5465540662 0 0
998895.2530010238 0 0
998918.4905253677 0 0
998941.2683839827 0 0
998963.5956868511 0 0
998985.4813352085 0 0
999006.9340670765 0 0
999027.9624477264 0 0
999048.5748656022 0 0
999068.7795591321 0 0
999088.584586096 0 0
999107.9978565124 0 0
999127.0271132111 0 0
999145.6799614457 0 0
999163.9638350778 0 0
999181.8860438608 0 0
999199.4537415642 0 0
999216.6739313696 0 0
999233.5534922336 0 0
999250.0991612482 0 0
999266.3175447071 0 0
999282.215117589 0 0
999297.7982203956 0 0
999313.0730795364 0 0
999328.0457879166 0 0
999342.7223256133 0 0
999357.1085502615 0 0
999371.2102030432 0 0
999385.0329145018 0 0
999398.5822030185 0 0
999411.8634737153 0 0
999424.8820323191 0 0
999437.643073094 0 0
999450.1516896221 0 0
999462.412875664 0 0
999474.4315262844 0 0
999486.2124392728 0 0
999497.7603168772 0 0
999509.079767884 0 0
999520.1753100688 0 0
999531.0513730489 0 0
999541.712301568 0 0
999552.1623457067 0 0
999562.4056812746 0 0
999572.44639573 0 0
999582.2884976292 0 0
999591.9359148177 0 0
999601.3924958562 0 0
999610.6620213145 0 0
999619.7481859869 0 0
999628.6546221086 0 0
999637.3848816694 0 0
999645.9424481671 0 0
999654.3307401327 0 0
999662.5531046586 0 0
999670.6128234542 0 0
999678.5131154653 0 0
999686.2571331533 0 0
999693.8479688568 0 0
999701.2886512149 0 0
999708.5821504777 0 0
999715.7313792778 0 0
999722.7391905942 0 0
999729.6083825252 0 0
999736.3416959499 0 0
999742.9418179244 0 0
999749.4113852542 0 0
999755.7529793534 0 0
999761.9691328909 0 0
999768.0623243283 0 0
999774.0349877651 0 0
999779.889507717 0 0
999785.6282215293 0 0
999791.2534175564 0 0
999796.7673435513 0 0
999802.1721990975 0 0
999807.4701429775 0 0
999812.6632890315 0 0
999817.7537116819 0 0
999822.7434399049 0 0
999827.6344683638 0 0
999832.4287495214 0 0
999837.1281948558 0 0
999841.7346807832 0 0
999846.2500484362 0 0
999850.6760974349 0 0
999855.0145963982 0 0
999859.2672755425 0 0
999863.4358336695 0 0
999867.5219345671 0 0
999871.5272094281 0 0
999875.4532563156 0 0
999879.3016433015 0 0
999883.0739054652 0 0
999886.771549785 0 0
999890.3960519475 0 0
999893.9488582333 0 0
999897.4313875071 0 0
999900.8450296475 0 0
999904.1911472658 0 0
999907.4710757823 0 0
999910.6861251103 0 0
999913.8375775755 0 0
999916.9266919884 0 0
999919.9547021119 0 0
999922.9228146151 0 0
999925.8322162214 0 0
999928.6840678747 0 0
999931.4795067941 0 0
999934.2196500755 0 0
999936.9055914499 0 0
999939.5384026491 0 0
999942.119134517 0 0
999944.6488174946 0 0
999947.1284618489 0 0
999949.5590561741 0 0
999951.9415718464 0 0
999954.2769594803 0 0
999956.5661510964 0 0
999958.8100612226 0 0
999961.0095851466 0 0
999963.1656004153 0 0
999965.2789677965 0 0
999967.3505312302 0 0
999969.3811176748 0 0
999971.3715371045 0 0
999973.3225846931 0 0
999975.2350391957 0 0
999977.109663555 0 0
999978.94720675 0 0
999980.7484015115 0 0
999982.513967202 0 0
999984.2446087257 0 0
999985.9410168559 0 0
999987.6038688815 0 0
999989.2338279635 0 0
999990.8315453283 0 0
999992.3976586526 0 0
999993.9327930061 0 0
999995.4375611756 0 0
999996.912563846 0 0
999998.3583898189 0 0
999999.7756162748 0 0
1000001.164809082 0 0
1000002.526521923 0 0
1000003.861299681 0 0
1000005.169673946 0 0
1000006.45216783 0 0
1000007.709292904 0 0
1000008.941551141 0 0
1000010.149434351 0 0
1000011.333424247 0 0
1000012.493994292 0 0
1000013.631607214 0 0
1000014.746717289 0 0
1000015.83977003 0 0
1000016.911200951 0 0
1000017.961438133 0 0
1000018.990900787 0 0
1 4 0 139
950
951
952
953
954
955
956
957
958
959
960
961
962
963
964
965
966
967
968
969
970
971
972
973
974
975
976
977
978
979
980
981
982
983
984
985
986
987
988
989
990
991
992
993
994
995
996
997
998
999
1000
1001
1002
1003
1004
1005
1006
1007
1008
1009
1010
1011
1012
1013
1014
1015
1016
1017
1018
1019
1020
1021
1022
1023
1024
1025
1026
1027
1028
1029
1030
1031
1032
1033
1034
1035
1036
1037
1038
1039
1040
1041
1042
1043
1044
1045
1046
1047
1048
1049
1050
1051
1052
1053
1054
1055
1056
1057
1058
1059
1060
1061
1062
1063
1064
1065
1066
1067
1068
1069
1070
1071
1072
1073
1074
1075
1076
1077
1078
1079
1080
1081
1082
1083
1084
1085
1086
1087
1088
1000021 0 0
1000022 0 0
1000023 0 0
1000024 0 0
1000025 0 0
1000026 0 0
1000027 0 0
1000028 0 0
1000029 0 0
1000030 0 0
1000031 0 0
1000032 0 0
1000033 0 0
1000034 0 0
1000035 0 0
1000036 0 0
1000037 0 0
1000038 0 0
1000039 0 0
1000040 0 0
1000041 0 0
1000042 0 0
1000043 0 0
1000044 0 0
1000045 0 0
1000046 0 0
1000047 0 0
1000048 0 0
1000049 0 0
1000050 0 0
1000051 0 0
1000052 0 0
1000053 0 0
1000054 0 0
1000055 0 0
1000056 0 0
1000057 0 0
1000058 0 0
1000059 0 0
1000060 0 0
1000061 0 0
1000062 0 0
1000063 0 0
1000064 0 0
1000065 0 0
1000066 0 0
1000067 0 0
1000068 0 0
1000069 0 0
1000070 0 0
1000071 0 0
1000072 0 0
1000073 0 0
1000074 0 0
1000075 0 0
1000076 0 0
1000077 0 0
1000078 0 0
1000079 0 0
1000080 0 0
1000081 0 0
1000082 0 0
1000083 0 0
1000084 0 0
1000085 0 0
1000086 0 0
1000087 0 0
1000088 0 0
1000089 0 0
1000090 0 0
1000091 0 0
1000092 0 0
1000093 0 0
1000094 0 0
1000095 0 0
1000096 0 0
1000097 0 0
1000098 0 0
1000099 0 0
1000100 0 0
1000101 0 0
1000102 0 0
1000103 0 0
1000104 0 0
1000105 0 0
1000106 0 0
1000107 0 0
1000108 0 0
1000109 0 0
1000110 0 0
1000111 0 0
1000112 0 0
1000113 0 0
1000114 0 0
1000115 0 0
1000116 0 0
1000117 0 0
1000118 0 0
1000119 0 0
1000120 0 0
1000121 0 0
1000122 0 0
1000123 0 0
1000124 0 0
1000125 0 0
1000126 0 0
1000127 0 0
1000128 0 0
1000129 0 0
1000130 0 0
1000131 0 0
1000132 0 0
1000133 0 0
1000134 0 0
1000135 0 0
1000136 0 0
1000137 0 0
1000138 0 0
1000139 0 0
1000140 0 0
1000141 0 0
1000142 0 0
1000143 0 0
1000144 0 0
1000145 0 0
1000146 0 0
1000147 0 0
1000148 0 0
1000149 0 0
1000150 0 0
1000151 0 0
1000152 0 0
1000153 0 0
1000154 0 0
1000155 0 0
1000156 0 0
1000157 0 0
1000158 0 0
1000159 0 0
1 5 0 19
1089
1090
1091
1092
1093
1094
1095
1096
1097
1098
1099
1100
1101
1102
1103
1104
1105
1106
1107
1000161 0 0
1000162 0 0
1000163 0 0
1000164 0 0
1000165 0 0
1000166 0 0
1000167 0 0
1000168 0 0
1000169 0 0
1000170 0 0
1000171 0 0
1000172 0 0
1000173 0 0
1000174 0 0
1000175 0 0
1000176 0 0
1000177 0 0
1000178 0 0
1000179 0 0
1 6 0 399
1108
1109
1110
1111
1112
1113
1114
1115
1116
1117
1118
1119
1120
1121
1122
1123
1124
1125
1126
1127
1128
1129
1130
1131
1132
1133
1134
1135
1136
1137
1138
1139
1140
1141
1142
1143
1144
1145
1146
1147
1148
1149
1150
1151
1152
1153
1154
1155
1156
1157
1158
1159
1160
1161
1162
1163
1164
1165
1166
1167
1168
1169
1170
1171
1172
1173
1174
1175
1176
1177
1178
1179
1180
1181
1182
1183
1184
1185
1186
1187
1188
1189
1190
1191
1192
1193
1194
1195
1196
1197
1198
1199
1200
1201
1202
1203
1204
1205
1206
1207
1208
1209
1210
1211
1212
1213
1214
1215
1216
1217
1218
1219
1220
1221
1222
1223
1224
1225
1226
1227
1228
1229
1230
1231
1232
1233
1234
1235
1236
1237
1238
1239
1240
1241
1242
1243
1244
1245
1246
1247
1248
1249
1250
1251
1252
1253
1254
1255
1256
1257
1258
1259
1260
1261
1262
1263
1264
1265
1266
1267
1268
1269
1270
1271
1272
1273
1274
1275
1276
1277
1278
1279
1280
1281
1282
1283
1284
1285
1286
1287
1288
1289
1290
1291
1292
1293
1294
1295
1296
1297
1298
1299
1300
1301
1302
1303
1304
1305
1306
1307
1308
1309
1310
1311
1312
1313
1314
1315
1316
1317
1318
1319
1320
1321
1322
1323
1324
1325
1326
1327
1328
1329
1330
1331
1332
1333
1334
1335
1336
1337
1338
1339
1340
1341
1342
1343
1344
1345
1346
1347
1348
1349
1350
1351
1352
1353
1354
1355
1356
1357
1358
1359
1360
1361
1362
1363
1364
1365
1366
1367
1368
1369
1370
1371
1372
1373
1374
1375
1376
1377
1378
1379
1380
1381
1382
1383
1384
1385
1386
1387
1388
1389
1390
1391
1392
1393
1394
1395
1396
1397
1398
1399
1400
1401
1402
1403
1404
1405
1406
1407
1408
1409
1410
1411
1412
1413
1414
1415
1416
1417
1418
1419
1420
1421
1422
1423
1424
1425
1426
1427
1428
1429
1430
1431
1432
1433
1434
1435
1436
1437
1438
1439
1440
1441
1442
1443
1444
1445
1446
1447
1448
1449
1450
1451
1452
1453
1454
1455
1456
1457
1458
1459
1460
1461
1462
1463
1464
1465
1466
1467
1468
1469
1470
1471
1472
1473
1474
1475
1476
1477
1478
1479
1480
1481
1482
1483
1484
1485
1486
1487
1488
1489
1490
1491
1492
1493
1494
1495
1496
1497
1498
1499
1500
1501
1502
1503
1504
1505
1506
1000181 0 0
1000182 0 0
1000183 0 0
1000184 0 0
1000185 0 0
1000186 0 0
1000187 0 0
1000188 0 0
1000189 0 0
1000190 0 0
1000191 0 0
1000192 0 0
1000193 0 0
1000194 0 0
1000195 0 0
1000196 0 0
1000197 0 0
1000198 0 0
1000199 0 0
1000200 0 0
1000201 0 0
1000202 0 0
1000203 0 0
1000204 0 0
1000205 0 0
1000206 0 0
1000207 0 0
1000208 0 0
1000209 0 0
1000210 0 0
1000211 0 0
1000212 0 0
1000213 0 0
1000214 0 0
1000215 0 0
1000216 0 0
1000217 0 0
1000218 0 0
1000219 0 0
1000220 0 0
1000221 0 0
1000222 0 0
1000223 0 0
1000224 0 0
1000225 0 0
1000226 0 0
1000227 0 0
1000228 0 0
1000229 0 0
1000230 0 0
1000231 0 0
1000232 0 0
1000233 0 0
1000234 0 0
1000235 0 0
1000236 0 0
1000237 0 0
1000238 0 0
1000239 0 0
1000240 0 0
1000241 0 0
1000242 0 0
1000243 0 0
1000244 0 0
1000245 0 0
1000246 0 0
1000247 0 0
1000248 0 0
1000249 0 0
1000250 0 0
1000251 0 0
1000252 0 0
1000253 0 0
1000254 0 0
1000255 0 0
1000256 0 0
1000257 0 0
1000258 0 0
1000259 0 0
1000260 0 0
1000261 0 0
1000262 0 0
1000263 0 0
1000264 0 0
1000265 0 0
1000266 0 0
1000267 0 0
1000268 0 0
1000269 0 0
1000270 0 0
1000271 0 0
1000272 0 0
1000273 0 0
1000274 0 0
1000275 0 0
1000276 0 0
1000277 0 0
1000278 0 0
1000279 0 0
1000280 0 0
1000281 0 0
1000282 0 0
1000283 0 0
1000284 0 0
1000285 0 0
1000286 0 0
1000287 0 0
1000288 0 0
1000289 0 0
1000290 0 0
1000291 0 0
1000292 0 0
1000293 0 0
1000294 0 0
1000295 0 0
1000296 0 0
1000297 0 0
1000298 0 0
1000299 0 0
1000300 0 0
1000301 0 0
1000302 0 0
1000303 0 0
1000304 0 0
1000305 0 0
1000306 0 0
1000307 0 0
1000308 0 0
1000309 0 0
1000310 0 0
1000311 0 0
1000312 0 0
1000313 0 0
1000314 0 0
1000315 0 0
1000316 0 0
1000317 0 0
1000318 0 0
1000319 0 0
1000320 0 0
1000321 0 0
1000322 0 0
1000323 0 0
1000324 0 0
1000325 0 0
1000326 0 0
1000327 0 0
1000328 0 0
1000329 0 0
1000330 0 0
1000331 0 0
1000332 0 0
1000333 0 0
1000334 0 0
1000335 0 0
1000336 0 0
1000337 0 0
1000338 0 0
1000339 0 0
1000340 0 0
1000341 0 0
1000342 0 0
1000343 0 0
1000344 0 0
1000345 0 0
1000346 0 0
1000347 0 0
1000348 0 0
1000349 0 0
1000350 0 0
1000351 0 0
1000352 0 0
1000353 0 0
1000354 0 0
1000355 0 0
1000356 0 0
1000357 0 0
1000358 0 0
1000359 0 0
1000360 0 0
1000361 0 0
1000362 0 0
1000363 0 0
1000364 0 0
1000365 0 0
1000366 0 0
1000367 0 0
1000368 0 0
1000369 0 0
1000370 0 0
1000371 0 0
1000372 0 0
1000373 0 0
1000374 0 0
1000375 0 0
1000376 0 0
1000377 0 0
1000378 0 0
1000379 0 0
1000380 0 0
1000381 0 0
1000382 0 0
1000383 0 0
1000384 0 0
1000385 0 0
1000386 0 0
1000387 0 0
1000388 0 0
1000389 0 0
1000390 0 0
1000391 0 0
1000392 0 0
1000393 0 0
1000394 0 0
1000395 0 0
1000396 0 0
1000397 0 0
1000398 0 0
1000399 0 0
1000400 0 0
1000401 0 0
1000402 0 0
1000403 0 0
1000404 0 0
1000405 0 0
1000406 0 0
1000407 0 0
1000408 0 0
1000409 0 0
1000410 0 0
1000411 0 0
1000412 0 0
1000413 0 0
1000414 0 0
1000415 0 0
1000416 0 0
1000417 0 0
1000418 0 0
1000419 0 0
1000420 0 0
1000421 0 0
1000422 0 0
1000423 0 0
1000424 0 0
1000425 0 0
1000426 0 0
1000427 0 0
1000428 0 0
1000429 0 0
1000430 0 0
1000431 0 0
1000432 0 0
1000433 0 0
1000434 0 0
1000435 0 0
1000436 0 0
1000437 0 0
1000438 0 0
1000439 0 0
1000440 0 0
1000441 0 0
1000442 0 0
1000443 0 0
1000444 0 0
1000445 0 0
1000446 0 0
1000447 0 0
1000448 0 0
1000449 0 0
1000450 0 0
1000451 0 0
1000452 0 0
1000453 0 0
1000454 0 0
1000455 0 0
1000456 0 0
1000457 0 0
1000458 0 0
1000459 0 0
1000460 0 0
1000461 0 0
1000462 0 0
1000463 0 0
1000464 0 0
1000465 0 0
1000466 0 0
1000467 0 0
1000468 0 0
1000469 0 0
1000470 0 0
1000471 0 0
1000472 0 0
1000473 0 0
1000474 0 0
1000475 0 0
1000476 0 0
1000477 0 0
1000478 0 0
1000479 0 0
1000480 0 0
1000481 0 0
1000482 0 0
1000483 0 0
1000484 0 0
1000485 0 0
1000486 0 0
1000487 0 0
1000488 0 0
1000489 0 0
1000490 0 0
1000491 0 0
1000492 0 0
1000493 0 0
1000494 0 0
1000495 0 0
1000496 0 0
1000497 0 0
1000498 0 0
1000499 0 0
1000500 0 0
1000501 0 0
1000502 0 0
1000503 0 0
1000504 0 0
1000505 0 0
1000506 0 0
1000507 0 0
1000508 0 0
1000509 0 0
1000510 0 0
1000511 0 0
1000512 0 0
1000513 0 0
1000514 0 0
1000515 0 0
1000516 0 0
1000517 0 0
1000518 0 0
1000519 0 0
1000520 0 0
1000521 0 0
1000522 0 0
1000523 0 0
1000524 0 0
1000525 0 0
1000526 0 0
1000527 0 0
1000528 0 0
1000529 0 0
1000530 0 0
1000531 0 0
1000532 0 0
1000533 0 0
1000534 0 0
1000535 0 0
1000536 0 0
1000537 0 0
1000538 0 0
1000539 0 0
1000540 0 0
1000541 0 0
1000542 0 0
1000543 0 0
1000544 0 0
1000545 0 0
1000546 0 0
1000547 0 0
1000548 0 0
1000549 0 0
1000550 0 0
1000551 0 0
1000552 0 0
1000553 0 0
1000554 0 0
1000555 0 0
1000556 0 0
1000557 0 0
1000558 0 0
1000559 0 0
1000560 0 0
1000561 0 0
1000562 0 0
1000563 0 0
1000564 0 0
1000565 0 0
1000566 0 0
1000567 0 0
1000568 0 0
1000569 0 0
1000570 0 0
1000571 0 0
1000572 0 0
1000573 0 0
1000574 0 0
1000575 0 0
1000576 0 0
1000577 0 0
1000578 0 0
1000579 0 0
1 7 0 19
1507
1508
1509
1510
1511
1512
1513
1514
1515
1516
1517
1518
1519
1520
1521
1522
1523
1524
1525
1000581 0 0
1000582 0 0
1000583 0 0
1000584 0 0
1000585 0 0
1000586 0 0
1000587 0 0
1000588 0 0
1000589 0 0
1000590 0 0
1000591 0 0
1000592 0 0
1000593 0 0
1000594 0 0
1000595 0 0
1000596 0 0
1000597 0 0
1000598 0 0
1000599 0 0
1 8 0 99
1526
1527
1528
1529
1530
1531
1532
1533
1534
1535
1536
1537
1538
1539
1540
1541
1542
1543
1544
1545
1546
1547
1548
1549
1550
1551
1552
1553
1554
1555
1556
1557
1558
1559
1560
1561
1562
1563
1564
1565
1566
1567
1568
1569
1570
1571
1572
1573
1574
1575
1576
1577
1578
1579
1580
1581
1582
1583
1584
1585
1586
1587
1588
1589
1590
1591
1592
1593
1594
1595
1596
1597
1598
1599
1600
1601
1602
1603
1604
1605
1606
1607
1608
1609
1610
1611
1612
1613
1614
1615
1616
1617
1618
1619
1620
1621
1622
1623
1624
1000601 0 0
1000602 0 0
1000603 0 0
1000604 0 0
1000605 0 0
1000606 0 0
1000607 0 0
1000608 0 0
1000609 0 0
1000610 0 0
1000611 0 0
1000612 0 0
1000613 0 0
1000614 0 0
1000615 0 0
1000616 0 0
1000617 0 0
1000618 0 0
1000619 0 0
1000620 0 0
1000621 0 0
1000622 0 0
1000623 0 0
1000624 0 0
1000625 0 0
1000626 0 0
1000627 0 0
1000628 0 0
1000629 0 0
1000630 0 0
1000631 0 0
1000632 0 0
1000633 0 0
1000634 0 0
1000635 0 0
1000636 0 0
1000637 0 0
1000638 0 0
1000639 0 0
1000640 0 0
1000641 0 0
1000642 0 0
1000643 0 0
1000644 0 0
1000645 0 0
1000646 0 0
1000647 0 0
1000648 0 0
1000649 0 0
1000650 0 0
1000651 0 0
1000652 0 0
1000653 0 0
1000654 0 0
1000655 0 0
1000656 0 0
1000657 0 0
1000658 0 0
1000659 0 0
1000660 0 0
1000661 0 0
1000662 0 0
1000663 0 0
1000664 0 0
1000665 0 0
1000666 0 0
1000667 0 0
1000668 0 0
1000669 0 0
1000670 0 0
1000671 0 0
1000672 0 0
1000673 0 0
1000674 0 0
1000675 0 0
1000676 0 0
1000677 0 0
1000678 0 0
1000679 0 0
1000680 0 0
1000681 0 0
1000682 0 0
1000683 0 0
1000684 0 0
1000685 0 0
1000686 0 0
1000687 0 0
1000688 0 0
1000689 0 0
1000690 0 0
1000691 0 0
1000692 0 0
1000693 0 0
1000694 0 0
1000695 0 0
1000696 0 0
1000697 0 0
1000698 0 0
1000699 0 0
1 9 0 19
1625
1626
1627
1628
1629
1630
1631
1632
1633
1634
1635
1636
1637
1638
1639
1640
1641
1642
1643
1000701 0 0
1000702 0 0
1000703 0 0
1000704 0 0
1000705 0 0
1000706 0 0
1000707 0 0
1000708 0 0
1000709 0 0
1000710 0 0
1000711 0 0
1000712 0 0
1000713 0 0
1000714 0 0
1000715 0 0
1000716 0 0
1000717 0 0
1000718 0 0
1000719 0 0
$EndNodes
$Elements
10 1643 1 1643
0 1 15 1
1 1 
1 1 1 20
2 1 11 
3 11 12 
4 12 13 
5 13 14 
6 14 15 
7 15 16 
8 16 17 
9 17 18 
10 18 19 
11 19 20 
12 20 21 
13 21 22 
14 22 23 
15 23 24 
16 24 25 
17 25 26 
18 26 27 
19 27 28 
20 28 29 
21 29 2 
1 2 1 461
22 2 30 
23 30 31 
24 31 32 
25 32 33 
26 33 34 
27 34 35 
28 35 36 
29 36 37 
30 37 38 
31 38 39 
32 39 40 
33 40 41 
34 41 42 
35 42 43 
36 43 44 
37 44 45 
38 45 46 
39 46 47 
40 47 48 
41 48 49 
42 49 50 
43 50 51 
44 51 52 
45 52 53 
46 53 54 
47 54 55 
48 55 56 
49 56 57 
50 57 58 
51 58 59 
52 59 60 
53 60 61 
54 61 62 
55 62 63 
56 63 64 
57 64 65 
58 65 66 
59 66 67 
60 67 68 
61 68 69 
62 69 70 
63 70 71 
64 71 72 
65 72 73 
66 73 74 
67 74 75 
68 75 76 
69 76 77 
70 77 78 
71 78 79 
72 79 80 
73 80 81 
74 81 82 
75 82 83 
76 83 84 
77 84 85 
78 85 86 
79 86 87 
80 87 88 
81 88 89 
82 89 90 
83 90 91 
84 91 92 
85 92 93 
86 93 94 
87 94 95 
88 95 96 
89 96 97 
90 97 98 
91 98 99 
92 99 100 
93 100 101 
94 101 102 
95 102 103 
96 103 104 
97 104 105 
98 105 106 
99 106 107 
100 107 108 
101 108 109 
102 109 110 
103 110 111 
104 111 112 
105 112 113 
106 113 114 
107 114 115 
108 115 116 
109 116 117 
110 117 118 
111 118 119 
112 119 120 
113 120 121 
114 121 122 
115 122 123 
116 123 124 
117 124 125 
118 125 126 
119 126 127 
120 127 128 
121 128 129 
122 129 130 
123 130 131 
124 131 132 
125 132 133 
126 133 134 
127 134 135 
128 135 136 
129 136 137 
130 137 138 
131 138 139 
132 139 140 
133 140 141 
134 141 142 
135 142 143 
136 143 144 
137 144 145 
138 145 146 
139 146 147 
140 147 148 
141 148 149 
142 149 150 
143 150 151 
144 151 152 
145 152 153 
146 153 154 
147 154 155 
148 155 156 
149 156 157 
150 157 158 
151 158 159 
152 159 160 
153 160 161 
154 161 162 
155 162 163 
156 163 164 
157 164 165 
158 165 166 
159 166 167 
160 167 168 
161 168 169 
162 169 170 
163 170 171 
164 171 172 
165 172 173 
166 173 174 
167 174 175 
168 175 176 
169 176 177 
170 177 178 
171 178 179 
172 179 180 
173 180 181 
174 181 182 
175 182 183 
176 183 184 
177 184 185 
178 185 186 
179 186 187 
180 187 188 
181 188 189 
182 189 190 
183 190 191 
184 191 192 
185 192 193 
186 193 194 
187 194 195 
188 195 196 
189 196 197 
190 197 198 
191 198 199 
192 199 200 
193 200 201 
194 201 202 
195 202 203 
196 203 204 
197 204 205 
198 205 206 
199 206 207 
200 207 208 
201 208 209 
202 209 210 
203 210 211 
204 211 212 
205 212 213 
206 213 214 
207 214 215 
208 215 216 
209 216 217 
210 217 218 
211 218 219 
212 219 220 
213 220 221 
214 221 222 
215 222 223 
216 223 224 
217 224 225 
218 225 226 
219 226 227 
220 227 228 
221 228 229 
222 229 230 
223 230 231 
224 231 232 
225 232 233 
226 233 234 
227 234 235 
228 235 236 
229 236 237 
230 237 238 
231 238 239 
232 239 240 
233 240 241 
234 241 242 
235 242 243 
236 243 244 
237 244 245 
238 245 246 
239 246 247 
240 247 248 
241 248 249 
242 249 250 
243 250 251 
244 251 252 
245 252 253 
246 253 254 
247 254 255 
248 255 256 
249 256 257 
250 257 258 
251 258 259 
252 259 260 
253 260 261 
254 261 262 
255 262 263 
256 263 264 
257 264 265 
258 265 266 
259 266 267 
260 267 268 
261 268 269 
262 269 270 
263 270 271 
264 271 272 
265 272 273 
266 273 274 
267 274 275 
268 275 276 
269 276 277 
270 277 278 
271 278 279 
272 279 280 
273 280 281 
274 281 282 
275 282 283 
276 283 284 
277 284 285 
278 285 286 
279 286 287 
280 287 288 
281 288 289 
282 289 290 
283 290 291 
284 291 292 
285 292 293 
286 293 294 
287 294 295 
288 295 296 
289 296 297 
290 297 298 
291 298 299 
292 299 300 
293 300 301 
294 301 302 
295 302 303 
296 303 304 
297 304 305 
298 305 306 
299 306 307 
300 307 308 
301 308 309 
302 309 310 
303 310 311 
304 311 312 
305 312 313 
306 313 314 
307 314 315 
308 315 316 
309 316 317 
310 317 318 
311 318 319 
312 319 320 
313 320 321 
314 321 322 
315 322 323 
316 323 324 
317 324 325 
318 325 326 
319 326 327 
320 327 328 
321 328 329 
322 329 330 
323 330 331 
324 331 332 
325 332 333 
326 333 334 
327 334 335 
328 335 336 
329 336 337 
330 337 338 
331 338 339 
332 339 340 
333 340 341 
334 341 342 
335 342 343 
336 343 344 
337 344 345 
338 345 346 
339 346 347 
340 347 348 
341 348 349 
342 349 350 
343 350 351 
344 351 352 
345 352 353 
346 353 354 
347 354 355 
348 355 356 
349 356 357 
350 357 358 
351 358 359 
352 359 360 
353 360 361 
354 361 362 
355 362 363 
356 363 364 
357 364 365 
358 365 366 
359 366 367 
360 367 368 
361 368 369 
362 369 370 
363 370 371 
364 371 372 
365 372 373 
366 373 374 
367 374 375 
368 375 376 
369 376 377 
370 377 378 
371 378 379 
372 379 380 
373 380 381 
374 381 382 
375 382 383 
376 383 384 
377 384 385 
378 385 386 
379 386 387 
380 387 388 
381 388 389 
382 389 390 
383 390 391 
384 391 392 
385 392 393 
386 393 394 
387 394 395 
388 395 396 
389 396 397 
390 397 398 
391 398 399 
392 399 400 
393 400 401 
394 401 402 
395 402 403 
396 403 404 
397 404 405 
398 405 406 
399 406 407 
400 407 408 
401 408 409 
402 409 410 
403 410 411 
404 411 412 
405 412 413 
406 413 414 
407 414 415 
408 415 416 
409 416 417 
410 417 418 
411 418 419 
412 419 420 
413 420 421 
414 421 422 
415 422 423 
416 423 424 
417 424 425 
418 425 426 
419 426 427 
420 427 428 
421 428 429 
422 429 430 
423 430 431 
424 431 432 
425 432 433 
426 433 434 
427 434 435 
428 435 436 
429 436 437 
430 437 438 
431 438 439 
432 439 440 
433 440 441 
434 441 442 
435 442 443 
436 443 444 
437 444 445 
438 445 446 
439 446 447 
440 447 448 
441 448 449 
442 449 450 
443 450 451 
444 451 452 
445 452 453 
446 453 454 
447 454 455 
448 455 456 
449 456 457 
450 457 458 
451 458 459 
452 459 460 
453 460 461 
454 461 462 
455 462 463 
456 463 464 
457 464 465 
458 465 466 
459 466 467 
460 467 468 
461 468 469 
462 469 470 
463 470 471 
464 471 472 
465 472 473 
466 473 474 
467 474 475 
468 475 476 
469 476 477 
470 477 478 
471 478 479 
472 479 480 
473 480 481 
474 481 482 
475 482 483 
476 483 484 
477 484 485 
478 485 486 
479 486 487 
480 487 488 
481 488 489 
482 489 3 
1 3 1 461
483 3 490 
484 490 491 
485 491 492 
486 492 493 
487 493 494 
488 494 495 
489 495 496 
490 496 497 
491 497 498 
492 498 499 
493 499 500 
494 500 501 
495 501 502 
496 502 503 
497 503 504 
498 504 505 
499 505 506 
500 506 507 
501 507 508 
502 508 509 
503 509 510 
504 510 511 
505 511 512 
506 512 513 
507 513 514 
508 514 515 
509 515 516 
510 516 517 
511 517 518 
512 518 519 
513 519 520 
514 520 521 
515 521 522 
516 522 523 
517 523 524 
518 524 525 
519 525 526 
520 526 527 
521 527 528 
522 528 529 
523 529 530 
524 530 531 
525 531 532 
526 532 533 
527 533 534 
528 534 535 
529 535 536 
530 536 537 
531 537 538 
532 538 539 
533 539 540 
534 540 541 
535 541 542 
536 542 543 
537 543 544 
538 544 545 
539 545 546 
540 546 547 
541 547 548 
542 548 549 
543 549 550 
544 550 551 
545 551 552 
546 552 553 
547 553 554 
548 554 555 
549 555 556 
550 556 557 
551 557 558 
552 558 559 
553 559 560 
554 560 561 
555 561 562 
556 562 563 
557 563 564 
558 564 565 
559 565 566 
560 566 567 
561 567 568 
562 568 569 
563 569 570 
564 570 571 
565 571 572 
566 572 573 
567 573 574 
568 574 575 
569 575 576 
570 576 577 
571 577 578 
572 578 579 
573 579 580 
574 580 581 
575 581 582 
576 582 583 
577 583 584 
578 584 585 
579 585 586 
580 586 587 
581 587 588 
582 588 589 
583 589 590 
584 590 591 
585 591 592 
586 592 593 
587 593 594 
588 594 595 
589 595 596 
590 596 597 
591 597 598 
592 598 599 
593 599 600 
594 600 601 
595 601 602 
596 602 603 
597 603 604 
598 604 605 
599 605 606 
600 606 607 
601 607 608 
602 608 609 
603 609 610 
604 610 611 
605 611 612 
606 612 613 
607 613 614 
608 614 615 
609 615 616 
610 616 617 
611 617 618 
612 618 619 
613 619 620 
614 620 621 
615 621 622 
616 622 623 
617 623 624 
618 624 625 
619 625 626 
620 626 627 
621 627 628 
622 628 629 
623 629 630 
624 630 631 
625 631 632 
626 632 633 
627 633 634 
628 634 635 
629 635 636 
630 636 637 
631 637 638 
632 638 639 
633 639 640 
634 640 641 
635 641 642 
636 642 643 
637 643 644 
638 644 645 
639 645 646 
640 646 647 
641 647 648 
642 648 649 
643 649 650 
644 650 651 
645 651 652 
646 652 653 
647 653 654 
648 654 655 
649 655 656 
650 656 657 
651 657 658 
652 658 659 
653 659 660 
654 660 661 
655 661 662 
656 662 663 
657 663 664 
658 664 665 
659 665 666 
660 666 667 
661 667 668 
662 668 669 
663 669 670 
664 670 671 
665 671 672 
666 672 673 
667 673 674 
668 674 675 
669 675 676 
670 676 677 
671 677 678 
672 678 679 
673 679 680 
674 680 681 
675 681 682 
676 682 683 
677 683 684 
678 684 685 
679 685 686 
680 686 687 
681 687 688 
682 688 689 
683 689 690 
684 690 691 
685 691 692 
686 692 693 
687 693 694 
688 694 695 
689 695 696 
690 696 697 
691 697 698 
692 698 699 
693 699 700 
694 700 701 
695 701 702 
696 702 703 
697 703 704 
698 704 705 
699 705 706 
700 706 707 
701 707 708 
702 708 709 
703 709 710 
704 710 711 
705 711 712 
706 712 713 
707 713 714 
708 714 715 
709 715 716 
710 716 717 
711 717 718 
712 718 719 
713 719 720 
714 720 721 
715 721 722 
716 722 723 
717 723 724 
718 724 725 
719 725 726 
720 726 727 
721 727 728 
722 728 729 
723 729 730 
724 730 731 
725 731 732 
726 732 733 
727 733 734 
728 734 735 
729 735 736 
730 736 737 
731 737 738 
732 738 739 
733 739 740 
734 740 741 
735 741 742 
736 742 743 
737 743 744 
738 744 745 
739 745 746 
740 746 747 
741 747 748 
742 748 749 
743 749 750 
744 750 751 
745 751 752 
746 752 753 
747 753 754 
748 754 755 
749 755 756 
750 756 757 
751 757 758 
752 758 759 
753 759 760 
754 760 761 
755 761 762 
756 762 763 
757 763 764 
758 764 765 
759 765 766 
760 766 767 
761 767 768 
762 768 769 
763 769 770 
764 770 771 
765 771 772 
766 772 773 
767 773 774 
768 774 775 
769 775 776 
770 776 777 
771 777 778 
772 778 779 
773 779 780 
774 780 781 
775 781 782 
776 782 783 
777 783 784 
778 784 785 
779 785 786 
780 786 787 
781 787 788 
782 788 789 
783 789 790 
784 790 791 
785 791 792 
786 792 793 
787 793 794 
788 794 795 
789 795 796 
790 796 797 
791 797 798 
792 798 799 
793 799 800 
794 800 801 
795 801 802 
796 802 803 
797 803 804 
798 804 805 
799 805 806 
800 806 807 
801 807 808 
802 808 809 
803 809 810 
804 810 811 
805 811 812 
806 812 813 
807 813 814 
808 814 815 
809 815 816 
810 816 817 
811 817 818 
812 818 819 
813 819 820 
814 820 821 
815 821 822 
816 822 823 
817 823 824 
818 824 825 
819 825 826 
820 826 827 
821 827 828 
822 828 829 
823 829 830 
824 830 831 
825 831 832 
826 832 833 
827 833 834 
828 834 835 
829 835 836 
830 836 837 
831 837 838 
832 838 839 
833 839 840 
834 840 841 
835 841 842 
836 842 843 
837 843 844 
838 844 845 
839 845 846 
840 846 847 
841 847 848 
842 848 849 
843 849 850 
844 850 851 
845 851 852 
846 852 853 
847 853 854 
848 854 855 
849 855 856 
850 856 857 
851 857 858 
852 858 859 
853 859 860 
854 860 861 
855 861 862 
856 862 863 
857 863 864 
858 864 865 
859 865 866 
860 866 867 
861 867 868 
862 868 869 
863 869 870 
864 870 871 
865 871 872 
866 872 873 
867 873 874 
868 874 875 
869 875 876 
870 876 877 
871 877 878 
872 878 879 
873 879 880 
874 880 881 
875 881 882 
876 882 883 
877 883 884 
878 884 885 
879 885 886 
880 886 887 
881 887 888 
882 888 889 
883 889 890 
884 890 891 
885 891 892 
886 892 893 
887 893 894 
888 894 895 
889 895 896 
890 896 897 
891 897 898 
892 898 899 
893 899 900 
894 900 901 
895 901 902 
896 902 903 
897 903 904 
898 904 905 
899 905 906 
900 906 907 
901 907 908 
902 908 909 
903 909 910 
904 910 911 
905 911 912 
906 912 913 
907 913 914 
908 914 915 
909 915 916 
910 916 917 
911 917 918 
912 918 919 
913 919 920 
914 920 921 
915 921 922 
916 922 923 
917 923 924 
918 924 925 
919 925 926 
920 926 927 
921 927 928 
922 928 929 
923 929 930 
924 930 931 
925 931 932 
926 932 933 
927 933 934 
928 934 935 
929 935 936 
930 936 937 
931 937 938 
932 938 939 
933 939 940 
934 940 941 
935 941 942 
936 942 943 
937 943 944 
938 944 945 
939 945 946 
940 946 947 
941 947 948 
942 948 949 
943 949 4 
1 4 1 140
944 4 950 
945 950 951 
946 951 952 
947 952 953 
948 953 954 
949 954 955 
950 955 956 
951 956 957 
952 957 958 
953 958 959 
954 959 960 
955 960 961 
956 961 962 
957 962 963 
958 963 964 
959 964 965 
960 965 966 
961 966 967 
962 967 968 
963 968 969 
964 969 970 
965 970 971 
966 971 972 
967 972 973 
968 973 974 
969 974 975 
970 975 976 
971 976 977 
972 977 978 
973 978 979 
974 979 980 
975 980 981 
976 981 982 
977 982 983 
978 983 984 
979 984 985 
980 985 986 
981 986 987 
982 987 988 
983 988 989 
984 989 990 
985 990 991 
986 991 992 
987 992 993 
988 993 994 
989 994 995 
990 995 996 
991 996 997 
992 997 998 
993 998 999 
994 999 1000 
995 1000 1001 
996 1001 1002 
997 1002 1003 
998 1003 1004 
999 1004 1005 
1000 1005 1006 
1001 1006 1007 
1002 1007 1008 
1003 1008 1009 
1004 1009 1010 
1005 1010 1011 
1006 1011 1012 
1007 1012 1013 
1008 1013 1014 
1009 1014 1015 
1010 1015 1016 
1011 1016 1017 
1012 1017 1018 
1013 1018 1019 
1014 1019 1020 
1015 1020 1021 
1016 1021 1022 
1017 1022 1023 
1018 1023 1024 
1019 1024 1025 
1020 1025 1026 
1021 1026 1027 
1022 1027 1028 
1023 1028 1029 
1024 1029 1030 
1025 1030 1031 
1026 1031 1032 
1027 1032 1033 
1028 1033 1034 
1029 1034 1035 
1030 1035 1036 
1031 1036 1037 
1032 1037 1038 
1033 1038 1039 
1034 1039 1040 
1035 1040 1041 
1036 1041 1042 
1037 1042 1043 
1038 1043 1044 
1039 1044 1045 
1040 1045 1046 
1041 1046 1047 
1042 1047 1048 
1043 1048 1049 
1044 1049 1050 
1045 1050 1051 
1046 1051 1052 
1047 1052 1053 
1048 1053 1054 
1049 1054 1055 
1050 1055 1056 
1051 1056 1057 
1052 1057 1058 
1053 1058 1059 
1054 1059 1060 
1055 1060 1061 
1056 1061 1062 
1057 1062 1063 
1058 1063 1064 
1059 1064 1065 
1060 1065 1066 
1061 1066 1067 
1062 1067 1068 
1063 1068 1069 
1064 1069 1070 
1065 1070 1071 
1066 1071 1072 
1067 1072 1073 
1068 1073 1074 
1069 1074 1075 
1070 1075 1076 
1071 1076 1077 
1072 1077 1078 
1073 1078 1079 
1074 1079 1080 
1075 1080 1081 
1076 1081 1082 
1077 1082 1083 
1078 1083 1084 
1079 1084 1085 
1080 1085 1086 
1081 1086 1087 
1082 1087 1088 
1083 1088 5 
1 5 1 20
1084 5 1089 
1085 1089 1090 
1086 1090 1091 
1087 1091 1092 
1088 1092 1093 
1089 1093 1094 
1090 1094 1095 
1091 1095 1096 
1092 1096 1097 
1093 1097 1098 
1094 1098 1099 
1095 1099 1100 
1096 1100 1101 
1097 1101 1102 
1098 1102 1103 
1099 1103 1104 
1100 1104 1105 
1101 1105 1106 
1102 1106 1107 
1103 1107 6 
1 6 1 400
1104 6 1108 
1105 1108 1109 
1106 1109 1110 
1107 1110 1111 
1108 1111 1112 
1109 1112 1113 
1110 1113 1114 
1111 1114 1115 
1112 1115 1116 
1113 1116 1117 
1114 1117 1118 
1115 1118 1119 
1116 1119 1120 
1117 1120 1121 
1118 1121 1122 
1119 1122 1123 
1120 1123 1124 
1121 1124 1125 
1122 1125 1126 
1123 1126 1127 
1124 1127 1128 
1125 1128 1129 
1126 1129 1130 
1127 1130 1131 
1128 1131 1132 
1129 1132 1133 
1130 1133 1134 
1131 1134 1135 
1132 1135 1136 
1133 1136 1137 
1134 1137 1138 
1135 1138 1139 
1136 1139 1140 
1137 1140 1141 
1138 1141 1142 
1139 1142 1143 
1140 1143 1144 
1141 1144 1145 
1142 1145 1146 
1143 1146 1147 
1144 1147 1148 
1145 1148 1149 
1146 1149 1150 
1147 1150 1151 
1148 1151 1152 
1149 1152 1153 
1150 1153 1154 
1151 1154 1155 
1152 1155 1156 
1153 1156 1157 
1154 1157 1158 
1155 1158 1159 
1156 1159 1160 
1157 1160 1161 
1158 1161 1162 
1159 1162 1163 
1160 1163 1164 
1161 1164 1165 
1162 1165 1166 
1163 1166 1167 
1164 1167 1168 
1165 1168 1169 
1166 1169 1170 
1167 1170 1171 
1168 1171 1172 
1169 1172 1173 
1170 1173 1174 
1171 1174 1175 
1172 1175 1176 
1173 1176 1177 
1174 1177 1178 
1175 1178 1179 
1176 1179 1180 
1177 1180 1181 
1178 1181 1182 
1179 1182 1183 
1180 1183 1184 
1181 1184 1185 
1182 1185 1186 
1183 1186 1187 
1184 1187 1188 
1185 1188 1189 
1186 1189 1190 
1187 1190 1191 
1188 1191 1192 
1189 1192 1193 
1190 1193 1194 
1191 1194 1195 
1192 1195 1196 
1193 1196 1197 
1194 1197 1198 
1195 1198 1199 
1196 1199 1200 
1197 1200 1201 
1198 1201 1202 
1199 1202 1203 
1200 1203 1204 
1201 1204 1205 
1202 1205 1206 
1203 1206 1207 
1204 1207 1208 
1205 1208 1209 
1206 1209 1210 
1207 1210 1211 
1208 1211 1212 
1209 1212 1213 
1210 1213 1214 
1211 1214 1215 
1212 1215 1216 
1213 1216 1217 
1214 1217 1218 
1215 1218 1219 
1216 1219 1220 
1217 1220 1221 
1218 1221 1222 
1219 1222 1223 
1220 1223 1224 
1221 1224 1225 
1222 1225 1226 
1223 1226 1227 
1224 1227 1228 
1225 1228 1229 
1226 1229 1230 
1227 1230 1231 
1228 1231 1232 
1229 1232 1233 
1230 1233 1234 
1231 1234 1235 
1232 1235 1236 
1233 1236 1237 
1234 1237 1238 
1235 1238 1239 
1236 1239 1240 
1237 1240 1241 
1238 1241 1242 
1239 1242 1243 
1240 1243 1244 
1241 1244 1245 
1242 1245 1246 
1243 1246 1247 
1244 1247 1248 
1245 1248 1249 
1246 1249 1250 
1247 1250 1251 
1248 1251 1252 
1249 1252 1253 
1250 1253 1254 
1251 1254 1255 
1252 1255 1256 
1253 1256 1257 
1254 1257 1258 
1255 1258 1259 
1256 1259 1260 
1257 1260 1261 
1258 1261 1262 
1259 1262 1263 
1260 1263 1264 
1261 1264 1265 
1262 1265 1266 
1263 1266 1267 
1264 1267 1268 
1265 1268 1269 
1266 1269 1270 
1267 1270 1271 
1268 1271 1272 
1269 1272 1273 
1270 1273 1274 
1271 1274 1275 
1272 1275 1276 
1273 1276 1277 
1274 1277 1278 
1275 1278 1279 
1276 1279 1280 
1277 1280 1281 
1278 1281 1282 
1279 1282 1283 
1280 1283 1284 
1281 1284 1285 
1282 1285 1286 
1283 1286 1287 
1284 1287 1288 
1285 1288 1289 
1286 1289 1290 
1287 1290 1291 
1288 1291 1292 
1289 1292 1293 
1290 1293 1294 
1291 1294 1295 
1292 1295 1296 
1293 1296 1297 
1294 1297 1298 
1295 1298 1299 
1296 1299 1300 
1297 1300 1301 
1298 1301 1302 
1299 1302 1303 
1300 1303 1304 
1301 1304 1305 
1302 1305 1306 
1303 1306 1307 
1304 1307 1308 
1305 1308 1309 
1306 1309 1310 
1307 1310 1311 
1308 1311 1312 
1309 1312 1313 
1310 1313 1314 
1311 1314 1315 
1312 1315 1316 
1313 1316 1317 
1314 1317 1318 
1315 1318 1319 
1316 1319 1320 
1317 1320 1321 
1318 1321 1322 
1319 1322 1323 
1320 1323 1324 
1321 1324 1325 
1322 1325 1326 
1323 1326 1327 
1324 1327 1328 
1325 1328 1329 
1326 1329 1330 
1327 1330 1331 
1328 1331 1332 
1329 1332 1333 
1330 1333 1334 
1331 1334 1335 
1332 1335 1336 
1333 1336 1337 
1334 1337 1338 
1335 1338 1339 
1336 1339 1340 
1337 1340 1341 
1338 1341 1342 
1339 1342 1343 
1340 1343 1344 
1341 1344 1345 
1342 1345 1346 
1343 1346 1347 
1344 1347 1348 
1345 1348 1349 
1346 1349 1350 
1347 1350 1351 
1348 1351 1352 
1349 1352 1353 
1350 1353 1354 
1351 1354 1355 
1352 1355 1356 
1353 1356 1357 
1354 1357 1358 
1355 1358 1359 
1356 1359 1360 
1357 1360 1361 
1358 1361 1362 
1359 1362 1363 
1360 1363 1364 
1361 1364 1365 
1362 1365 1366 
1363 1366 1367 
1364 1367 1368 
1365 1368 1369 
1366 1369 1370 
1367 1370 1371 
1368 1371 1372 
1369 1372 1373 
1370 1373 1374 
1371 1374 1375 
1372 1375 1376 
1373 1376 1377 
1374 1377 1378 
1375 1378 1379 
1376 1379 1380 
1377 1380 1381 
1378 1381 1382 
1379 1382 1383 
1380 1383 1384 
1381 1384 1385 
1382 1385 1386 
1383 1386 1387 
1384 1387 1388 
1385 1388 1389 
1386 1389 1390 
1387 1390 1391 
1388 1391 1392 
1389 1392 1393 
1390 1393 1394 
1391 1394 1395 
1392 1395 1396 
1393 1396 1397 
1394 1397 1398 
1395 1398 1399 
1396 1399 1400 
1397 1400 1401 
1398 1401 1402 
1399 1402 1403 
1400 1403 1404 
1401 1404 1405 
1402 1405 1406 
1403 1406 1407 
1404 1407 1408 
1405 1408 1409 
1406 1409 1410 
1407 1410 1411 
1408 1411 1412 
1409 1412 1413 
1410 1413 1414 
1411 1414 1415 
1412 1415 1416 
1413 1416 1417 
1414 1417 1418 
1415 1418 1419 
1416 1419 1420 
1417 1420 1421 
1418 1421 1422 
1419 1422 1423 
1420 1423 1424 
1421 1424 1425 
1422 1425 1426 
1423 1426 1427 
1424 1427 1428 
1425 1428 1429 
1426 1429 1430 
1427 1430 1431 
1428 1431 1432 
1429 1432 1433 
1430 1433 1434 
1431 1434 1435 
1432 1435 1436 
1433 1436 1437 
1434 1437 1438 
1435 1438 1439 
1436 1439 1440 
1437 1440 1441 
1438 1441 1442 
1439 1442 1443 
1440 1443 1444 
1441 1444 1445 
1442 1445 1446 
1443 1446 1447 
1444 1447 1448 
1445 1448 1449 
1446 1449 1450 
1447 1450 1451 
1448 1451 1452 
1449 1452 1453 
1450 1453 1454 
1451 1454 1455 
1452 1455 1456 
1453 1456 1457 
1454 1457 1458 
1455 1458 1459 
1456 1459 1460 
1457 1460 1461 
1458 1461 1462 
1459 1462 1463 
1460 1463 1464 
1461 1464 1465 
1462 1465 1466 
1463 1466 1467 
1464 1467 1468 
1465 1468 1469 
1466 1469 1470 
1467 1470 1471 
1468 1471 1472 
1469 1472 1473 
1470 1473 1474 
1471 1474 1475 
1472 1475 1476 
1473 1476 1477 
1474 1477 1478 
1475 1478 1479 
1476 1479 1480 
1477 1480 1481 
1478 1481 1482 
1479 1482 1483 
1480 1483 1484 
1481 1484 1485 
1482 1485 1486 
1483 1486 1487 
1484 1487 1488 
1485 1488 1489 
1486 1489 1490 
1487 1490 1491 
1488 1491 1492 
1489 1492 1493 
1490 1493 1494 
1491 1494 1495 
1492 1495 1496 
1493 1496 1497 
1494 1497 1498 
1495 1498 1499 
1496 1499 1500 
1497 1500 1501 
1498 1501 1502 
1499 1502 1503 
1500 1503 1504 
1501 1504 1505 
1502 1505 1506 
1503 1506 7 
1 7 1 20
1504 7 1507 
1505 1507 1508 
1506 1508 1509 
1507 1509 1510 
1508 1510 1511 
1509 1511 1512 
1510 1512 1513 
1511 1513 1514 
1512 1514 1515 
1513 1515 1516 
1514 1516 1517 
1515 1517 1518 
1516 1518 1519 
1517 1519 1520 
1518 1520 1521 
1519 1521 1522 
1520 1522 1523 
1521 1523 1524 
1522 1524 1525 
1523 1525 8 
1 8 1 100
1524 8 1526 
1525 1526 1527 
1526 1527 1528 
1527 1528 1529 
1528 1529 1530 
1529 1530 1531 
1530 1531 1532 
1531 1532 1533 
1532 1533 1534 
1533 1534 1535 
1534 1535 1536 
1535 1536 1537 
1536 1537 1538 
1537 1538 1539 
1538 1539 1540 
1539 1540 1541 
1540 1541 1542 
1541 1542 1543 
1542 1543 1544 
1543 1544 1545 
1544 1545 1546 
1545 1546 1547 
1546 1547 1548 
1547 1548 1549 
1548 1549 1550 
1549 1550 1551 
1550 1551 1552 
1551 1552 1553 
1552 1553 1554 
1553 1554 1555 
1554 1555 1556 
1555 1556 1557 
1556 1557 1558 
1557 1558 1559 
1558 1559 1560 
1559 1560 1561 
1560 1561 1562 
1561 1562 1563 
1562 1563 1564 
1563 1564 1565 
1564 1565 1566 
1565 1566 1567 
1566 1567 1568 
1567 1568 1569 
1568 1569 1570 
1569 1570 1571 
1570 1571 1572 
1571 1572 1573 
1572 1573 1574 
1573 1574 1575 
1574 1575 1576 
1575 1576 1577 
1576 1577 1578 
1577 1578 1579 
1578 1579 1580 
1579 1580 1581 
1580 1581 1582 
1581 1582 1583 
1582 1583 1584 
1583 1584 1585 
1584 1585 1586 
1585 1586 1587 
1586 1587 1588 
1587 1588 1589 
1588 1589 1590 
1589 1590 1591 
1590 1591 1592 
1591 1592 1593 
1592 1593 1594 
1593 1594 1595 
1594 1595 1596 
1595 1596 1597 
1596 1597 1598 
1597 1598 1599 
1598 1599 1600 
1599 1600 1601 
1600 1601 1602 
1601 1602 1603 
1602 1603 1604 
1603 1604 1605 
1604 1605 1606 
1605 1606 1607 
1606 1607 1608 
1607 1608 1609 
1608 1609 1610 
1609 1610 1611 
1610 1611 1612 
1611 1612 1613 
1612 1613 1614 
1613 1614 1615 
1614 1615 1616 
1615 1616 1617 
1616 1617 1618 
1617 1618 1619 
1618 1619 1620 
1619 1620 1621 
1620 1621 1622 
1621 1622 1623 
1622 1623 1624 
1623 1624 9 
1 9 1 20
1624 9 1625 
1625 1625 1626 
1626 1626 1627 
1627 1627 1628 
1628 1628 1629 
1629 1629 1630 
1630 1630 1631 
1631 1631 1632 
1632 1632 1633 
1633 1633 1634 
1634 1634 1635 
1635 1635 1636 
1636 1636 1637 
1637 1637 1638 
1638 1638 1639 
1639 1639 1640 
1640 1640 1641 
1641 1641 1642 
1642 1642 1643 
1643 1643 10 
$EndElements
