$MeshFormat
4.1 0 8
$EndMeshFormat
$PhysicalNames
12
0 10 "incident_wave"
0 11 "cathode"
0 12 "anode"
1 1 "AIR1"
1 2 "MgF2"
1 3 "Glass"
1 4 "ITO"
1 5 "PTAA"
1 6 "PSK"
1 7 "C60"
1 8 "Ag"
1 9 "AIR2"
$EndPhysicalNames
$Entities
11 10 0 0
1 -1000190 0 0 1 10 
2 -1000090 0 0 0 
3 -1000000 0 0 0 
4 -500000 0 0 0 
5 0 0 0 0 
6 130 0 0 1 11 
7 140 0 0 0 
8 840 0 0 0 
9 870 0 0 1 12 
10 970 0 0 0 
11 1070 0 0 0 
1 -1000190 0 0 -1000090 0 0 1 1 2 1 -2 
2 -1000090 0 0 -1000000 0 0 1 2 2 2 -3 
3 -1000000 0 0 -500000 0 0 1 3 2 3 -4 
4 -500000 0 0 0 0 0 1 3 2 4 -5 
5 0 0 0 130 0 0 1 4 2 5 -6 
6 130 0 0 140 0 0 1 5 2 6 -7 
7 140 0 0 840 0 0 1 6 2 7 -8 
8 840 0 0 870 0 0 1 7 2 8 -9 
9 870 0 0 970 0 0 1 8 2 9 -10 
10 970 0 0 1070 0 0 1 9 2 10 -11 
$EndEntities
$Nodes
21 2183 1 2183
0 1 0 1
1
-1000190 0 0
0 2 0 1
2
-1000090 0 0
0 3 0 1
3
-1000000 0 0
0 4 0 1
4
-500000 0 0
0 5 0 1
5
0 0 0
0 6 0 1
6
130 0 0
0 7 0 1
7
140 0 0
0 8 0 1
8
840 0 0
0 9 0 1
9
870 0 0
0 10 0 1
10
970 0 0
0 11 0 1
11
1070 0 0
1 1 0 99
12
13
14
15
16
17
18
19
20
21
22
23
24
25
26
27
28
29
30
31
32
33
34
35
36
37
38
39
40
41
42
43
44
45
46
47
48
49
50
51
52
53
54
55
56
57
58
59
60
61
62
63
64
65
66
67
68
69
70
71
72
73
74
75
76
77
78
79
80
81
82
83
84
85
86
87
88
89
90
91
92
93
94
95
96
97
98
99
100
101
102
103
104
105
106
107
108
109
110
-1000189 0 0
-1000188 0 0
-1000187 0 0
-1000186 0 0
-1000185 0 0
-1000184 0 0
-1000183 0 0
-1000182 0 0
-1000181 0 0
-1000180 0 0
-1000179 0 0
-1000178 0 0
-1000177 0 0
-1000176 0 0
-1000175 0 0
-1000174 0 0
-1000173 0 0
-1000172 0 0
-1000171 0 0
-1000170 0 0
-1000169 0 0
-1000168 0 0
-1000167 0 0
-1000166 0 0
-1000165 0 0
-1000164 0 0
-1000163 0 0
-1000162 0 0
-1000161 0 0
-1000160 0 0
-1000159 0 0
-1000158 0 0
-1000157 0 0
-1000156 0 0
-1000155 0 0
-1000154 0 0
-1000153 0 0
-1000152 0 0
-1000151 0 0
-1000150 0 0
-1000149 0 0
-1000148 0 0
-1000147 0 0
-1000146 0 0
-1000145 0 0
-1000144 0 0
-1000143 0 0
-1000142 0 0
-1000141 0 0
-1000140 0 0
-1000139 0 0
-1000138 0 0
-1000137 0 0
-1000136 0 0
-1000135 0 0
-1000134 0 0
-1000133 0 0
-1000132 0 0
-1000131 0 0
-1000130 0 0
-1000129 0 0
-1000128 0 0
-1000127 0 0
-1000126 0 0
-1000125 0 0
-1000124 0 0
-1000123 0 0
-1000122 0 0
-1000121 0 0
-1000120 0 0
-1000119 0 0
-1000118 0 0
-1000117 0 0
-1000116 0 0
-1000115 0 0
-1000114 0 0
-1000113 0 0
-1000112 0 0
-1000111 0 0
-1000110 0 0
-1000109 0 0
-1000108 0 0
-1000107 0 0
-1000106 0 0
-1000105 0 0
-1000104 0 0
-1000103 0 0
-1000102 0 0
-1000101 0 0
-1000100 0 0
-1000099 0 0
-1000098 0 0
-1000097 0 0
-1000096 0 0
-1000095 0 0
-1000094 0 0
-1000093 0 0
-1000092 0 0
-1000091 0 0
1 2 0 89
111
112
113
114
115
116
117
118
119
120
121
122
123
124
125
126
127
128
129
130
131
132
133
134
135
136
137
138
139
140
141
142
143
144
145
146
147
148
149
150
151
152
153
154
155
156
157
158
159
160
161
162
163
164
165
166
167
168
169
170
171
172
173
174
175
176
177
178
179
180
181
182
183
184
185
186
187
188
189
190
191
192
193
194
195
196
197
198
199
-1000089 0 0
-1000088 0 0
-1000087 0 0
-1000086 0 0
-1000085 0 0
-1000084 0 0
-1000083 0 0
-1000082 0 0
-1000081 0 0
-1000080 0 0
-1000079 0 0
-1000078 0 0
-1000077 0 0
-1000076 0 0
-1000075 0 0
-1000074 0 0
-1000073 0 0
-1000072 0 0
-1000071 0 0
-1000070 0 0
-1000069 0 0
-1000068 0 0
-1000067 0 0
-1000066 0 0
-1000065 0 0
-1000064 0 0
-1000063 0 0
-1000062 0 0
-1000061 0 0
-1000060 0 0
-1000059 0 0
-1000058 0 0
-1000057 0 0
-1000056 0 0
-1000055 0 0
-1000054 0 0
-1000053 0 0
-1000052 0 0
-1000051 0 0
-1000050 0 0
-1000049 0 0
-1000048 0 0
-1000047 0 0
-1000046 0 0
-1000045 0 0
-1000044 0 0
-1000043 0 0
-1000042 0 0
-1000041 0 0
-1000040 0 0
-1000039 0 0
-1000038 0 0
-1000037 0 0
-1000036 0 0
-1000035 0 0
-1000034 0 0
-1000033 0 0
-1000032 0 0
-1000031 0 0
-1000030 0 0
-1000029 0 0
-1000028 0 0
-1000027 0 0
-1000026 0 0
-1000025 0 0
-1000024 0 0
-1000023 0 0
-1000022 0 0
-1000021 0 0
-1000020 0 0
-1000019 0 0
-1000018 0 0
-1000017 0 0
-1000016 0 0
-1000015 0 0
-1000014 0 0
-1000013 0 0
-1000012 0 0
-1000011 0 0
-1000010 0 0
-1000009 0 0
-1000008 0 0
-1000007 0 0
-1000006 0 0
-1000005 0 0
-1000004 0 0
-1000003 0 0
-1000002 0 0
-1000001 0 0
1 3 0 460
200
201
202
203
204
205
206
207
208
209
210
211
212
213
214
215
216
217
218
219
220
221
222
223
224
225
226
227
228
229
230
231
232
233
234
235
236
237
238
239
240
241
242
243
244
245
246
247
248
249
250
251
252
253
254
255
256
257
258
259
260
261
262
263
264
265
266
267
268
269
270
271
272
273
274
275
276
277
278
279
280
281
282
283
284
285
286
287
288
289
290
291
292
293
294
295
296
297
298
299
300
301
302
303
304
305
306
307
308
309
310
311
312
313
314
315
316
317
318
319
320
321
322
323
324
325
326
327
328
329
330
331
332
333
334
335
336
337
338
339
340
341
342
343
344
345
346
347
348
349
350
351
352
353
354
355
356
357
358
359
360
361
362
363
364
365
366
367
368
369
370
371
372
373
374
375
376
377
378
379
380
381
382
383
384
385
386
387
388
389
390
391
392
393
394
395
396
397
398
399
400
401
402
403
404
405
406
407
408
409
410
411
412
413
414
415
416
417
418
419
420
421
422
423
424
425
426
427
428
429
430
431
432
433
434
435
436
437
438
439
440
441
442
443
444
445
446
447
448
449
450
451
452
453
454
455
456
457
458
459
460
461
462
463
464
465
466
467
468
469
470
471
472
473
474
475
476
477
478
479
480
481
482
483
484
485
486
487
488
489
490
491
492
493
494
495
496
497
498
499
500
501
502
503
504
505
506
507
508
509
510
511
512
513
514
515
516
517
518
519
520
521
522
523
524
525
526
527
528
529
530
531
532
533
534
535
536
537
538
539
540
541
542
543
544
545
546
547
548
549
550
551
552
553
554
555
556
557
558
559
560
561
562
563
564
565
566
567
568
569
570
571
572
573
574
575
576
577
578
579
580
581
582
583
584
585
586
587
588
589
590
591
592
593
594
595
596
597
598
599
600
601
602
603
604
605
606
607
608
609
610
611
612
613
614
615
616
617
618
619
620
621
622
623
624
625
626
627
628
629
630
631
632
633
634
635
636
637
638
639
640
641
642
643
644
645
646
647
648
649
650
651
652
653
654
655
656
657
658
659
-999998.9909007871 0 0
-999997.9614381327 0 0
-999996.911200951 0 0
-999995.8397700301 0 0
-999994.7467172894 0 0
-999993.631607214 0 0
-999992.4939942923 0 0
-999991.3334242466 0 0
-999990.1494343512 0 0
-999988.9415511414 0 0
-999987.7092929045 0 0
-999986.45216783 0 0
-999985.1696739456 0 0
-999983.8612996814 0 0
-999982.5265219228 0 0
-999981.1648090822 0 0
-999979.7756162748 0 0
-999978.3583898189 0 0
-999976.912563846 0 0
-999975.4375611756 0 0
-999973.932793006 0 0
-999972.3976586526 0 0
-999970.8315453283 0 0
-999969.2338279636 0 0
-999967.6038688815 0 0
-999965.9410168559 0 0
-999964.2446087258 0 0
-999962.513967202 0 0
-999960.7484015115 0 0
-999958.9472067502 0 0
-999957.109663555 0 0
-999955.2350391957 0 0
-999953.3225846932 0 0
-999951.3715371045 0 0
-999949.3811176748 0 0
-999947.3505312301 0 0
-999945.2789677965 0 0
-999943.1656004153 0 0
-999941.0095851467 0 0
-999938.8100612226 0 0
-999936.5661510964 0 0
-999934.2769594801 0 0
-999931.9415718464 0 0
-999929.5590561741 0 0
-999927.1284618489 0 0
-999924.6488174946 0 0
-999922.119134517 0 0
-999919.5384026492 0 0
-999916.9055914498 0 0
-999914.2196500755 0 0
-999911.479506794 0 0
-999908.6840678748 0 0
-999905.8322162214 0 0
-999902.9228146151 0 0
-999899.9547021119 0 0
-999896.9266919884 0 0
-999893.8375775755 0 0
-999890.6861251103 0 0
-999887.4710757823 0 0
-999884.1911472658 0 0
-999880.8450296475 0 0
-999877.4313875071 0 0
-999873.9488582333 0 0
-999870.3960519475 0 0
-999866.771549785 0 0
-999863.0739054652 0 0
-999859.3016433015 0 0
-999855.4532563156 0 0
-999851.5272094281 0 0
-999847.5219345671 0 0
-999843.4358336694 0 0
-999839.2672755425 0 0
-999835.0145963983 0 0
-999830.6760974348 0 0
-999826.2500484362 0 0
-999821.7346807832 0 0
-999817.1281948558 0 0
-999812.4287495214 0 0
-999807.6344683638 0 0
-999802.7434399049 0 0
-999797.7537116819 0 0
-999792.6632890315 0 0
-999787.4701429777 0 0
-999782.1721990976 0 0
-999776.7673435513 0 0
-999771.2534175564 0 0
-999765.6282215294 0 0
-999759.889507717 0 0
-999754.0349877652 0 0
-999748.0623243283 0 0
-999741.9691328909 0 0
-999735.7529793534 0 0
-999729.4113852542 0 0
-999722.9418179244 0 0
-999716.34169595 0 0
-999709.608382525 0 0
-999702.7391905942 0 0
-999695.7313792778 0 0
-999688.5821504777 0 0
-999681.2886512149 0 0
-999673.8479688568 0 0
-999666.2571331533 0 0
-999658.5131154653 0 0
-999650.6128234541 0 0
-999642.5531046585 0 0
-999634.3307401327 0 0
-999625.9424481671 0 0
-999617.3848816693 0 0
-999608.6546221086 0 0
-999599.7481859869 0 0
-999590.6620213145 0 0
-999581.3924958562 0 0
-999571.9359148176 0 0
-999562.2884976292 0 0
-999552.44639573 0 0
-999542.4056812746 0 0
-999532.1623457067 0 0
-999521.712301568 0 0
-999511.0513730489 0 0
-999500.1753100688 0 0
-999489.079767884 0 0
-999477.7603168773 0 0
-999466.2124392729 0 0
-999454.4315262844 0 0
-999442.4128756638 0 0
-999430.1516896221 0 0
-999417.643073094 0 0
-999404.8820323191 0 0
-999391.8634737153 0 0
-999378.5822030184 0 0
-999365.032914502 0 0
-999351.2102030433 0 0
-999337.1085502615 0 0
-999322.7223256133 0 0
-999308.0457879166 0 0
-999293.0730795364 0 0
-999277.7982203956 0 0
-999262.215117589 0 0
-999246.3175447071 0 0
-999230.0991612483 0 0
-999213.5534922336 0 0
-999196.6739313696 0 0
-999179.4537415642 0 0
-999161.8860438608 0 0
-999143.9638350778 0 0
-999125.6799614457 0 0
-999107.0271132111 0 0
-999087.9978565124 0 0
-999068.584586096 0 0
-999048.7795591321 0 0
-999028.5748656022 0 0
-999007.9624477264 0 0
-998986.9340670767 0 0
-998965.4813352085 0 0
-998943.5956868511 0 0
-998921.2683839827 0 0
-998898.4905253678 0 0
-998875.2530010238 0 0
-998851.5465540664 0 0
-998827.3617018519 0 0
-998802.6888083383 0 0
-998777.5180100935 0 0
-998751.8392719171 0 0
-998725.642337295 0 0
-998698.9167456903 0 0
-998671.6518316328 0 0
-998643.836717722 0 0
-998615.4602931554 0 0
-998586.5112318526 0 0
-998556.9779812177 0 0
-998526.8487530443 0 0
-998496.1115149795 0 0
-998464.754001021 0 0
-998432.7636932853 0 0
-998400.1278234656 0 0
-998366.8333663973 0 0
-998332.8670203763 0 0
-998298.2152404279 0 0
-998262.8641877779 0 0
-998226.7997404969 0 0
-998190.0075307979 0 0
-998152.4728442114 0 0
-998114.1807226952 0 0
-998075.115857508 0 0
-998035.2626645277 0 0
-997994.6052382739 0 0
-997953.1273469032 0 0
-997910.8124340955 0 0
-997867.6436131884 0 0
-997823.6036371373 0 0
-997778.6749362475 0 0
-997732.8395796064 0 0
-997686.0792675804 0 0
-997638.3753340994 0 0
-997589.7087375101 0 0
-997540.0600528582 0 0
-997489.4094575031 0 0
-997437.7367262328 0 0
-997385.0212588911 0 0
-997331.2419780946 0 0
-997276.3774417735 0 0
-997220.4057374402 0 0
-997163.3045345701 0 0
-997105.051020783 0 0
-997045.6219558223 0 0
-996984.9936201358 0 0
-996923.1417969263 0 0
-996860.0418194935 0 0
-996795.66847938 0 0
-996729.9960813196 0 0
-996662.9984249299 0 0
-996594.6487535308 0 0
-996524.919786346 0 0
-996453.7836781846 0 0
-996381.2120660446 0 0
-996307.17597053 0 0
-996231.6458099002 0 0
-996154.5914721722 0 0
-996075.9821629324 0 0
-995995.7865327401 0 0
-995913.9725484566 0 0
-995830.5075903855 0 0
-995745.3582679327 0 0
-995658.4906532456 0 0
-995569.8700579319 0 0
-995479.4611108673 0 0
-995387.2277012864 0 0
-995293.1330157612 0 0
-995197.1395251014 0 0
-995099.208879314 0 0
-994999.301985566 0 0
-994897.3789836698 0 0
-994793.3991804289 0 0
-994687.3210736975 0 0
-994579.1023105117 0 0
-994468.6997085107 0 0
-994356.0691665886 0 0
-994241.1657376512 0 0
-994123.9435744665 0 0
-994004.3558840838 0 0
-993882.3549028764 0 0
-993757.8919452509 0 0
-993630.9173327551 0 0
-993501.3803821823 0 0
-993369.2293840925 0 0
-993234.4115728214 0 0
-993096.8731429526 0 0
-992956.5591714256 0 0
-992813.4137050862 0 0
-992667.379533815 0 0
-992518.3984235707 0 0
-992366.4109034948 0 0
-992211.356237508 0 0
-992053.1725970238 0 0
-991891.7968623912 0 0
-991727.1644795653 0 0
-991559.2098624592 0 0
-991387.8659428209 0 0
-991213.0643125424 0 0
-991034.7351475892 0 0
-990852.8073455666 0 0
-990667.2082580333 0 0
-990477.8637342039 0 0
-990284.6982740838 0 0
-990087.6347761714 0 0
-989886.5944818018 0 0
-989681.4972507426 0 0
-989472.2611228403 0 0
-989258.8026400883 0 0
-989041.0365774315 0 0
-988818.8760180618 0 0
-988592.2322585796 0 0
-988361.0148082891 0 0
-988125.1314185475 0 0
-987884.4879236134 0 0
-987638.9882083454 0 0
-987388.5343679505 0 0
-987133.0263598798 0 0
-986872.3621730765 0 0
-986606.4378443818 0 0
-986335.147133198 0 0
-986058.3818011596 0 0
-985776.031290606 0 0
-985487.9830384951 0 0
-985194.1219662868 0 0
-984894.3308341575 0 0
-984588.4899294832 0 0
-984276.4770737489 0 0
-983958.1678378556 0 0
-983633.4351398478 0 0
-983302.1493916337 0 0
-982964.1783038477 0 0
-982619.3869347811 0 0
-982267.6376754618 0 0
-981908.7901576051 0 0
-981542.701112075 0 0
-981169.2244081858 0 0
-980788.2109687242 0 0
-980399.5086973363 0 0
-980002.9624173555 0 0
-979598.4138211949 0 0
-979185.701429468 0 0
-978764.6605590474 0 0
-978335.1230865583 0 0
-977896.9175887754 0 0
-977449.86907227 0 0
-976993.7992163113 0 0
-976528.5258208311 0 0
-976053.8631918309 0 0
-975569.6219385879 0 0
-975075.6087156846 0 0
-974571.6263376492 0 0
-974057.4735553415 0 0
-973532.9452444976 0 0
-972997.8319240334 0 0
-972451.9200650039 0 0
-971894.9916102878 0 0
-971326.8244668643 0 0
-970747.1917615044 0 0
-970155.8620524631 0 0
-969552.5993903961 0 0
-968937.1627879561 0 0
-968309.3068469198 0 0
-967668.7807114905 0 0
-967015.328775918 0 0
-966348.6902672818 0 0
-965668.5990550342 0 0
-964974.7835130969 0 0
-964266.9667577769 0 0
-963544.8664098944 0 0
-962808.1940809276 0 0
-962056.6556643861 0 0
-961289.9513169525 0 0
-960507.7748146231 0 0
-959709.8141681723 0 0
-958895.7504860671 0 0
-958065.259136602 0 0
-957218.0085106287 0 0
-956353.6604630171 0 0
-955471.8697794082 0 0
-954572.2846679447 0 0
-953654.5459237795 0 0
-952718.287282764 0 0
-951763.1349362293 0 0
-950788.7077185137 0 0
-949794.6165032716 0 0
-948780.4646109913 0 0
-947745.8472769461 0 0
-946690.3511882646 0 0
-945613.5553289913 0 0
-944515.0297723865 0 0
-943394.3357186302 0 0
-942251.0263634858 0 0
-941084.645435821 0 0
-939894.7266826699 0 0
-938680.7950384252 0 0
-937442.3667726539 0 0
-936178.9468172695 0 0
-934890.0315835881 0 0
-933575.1054923215 0 0
-932233.644568153 0 0
-930865.1128659181 0 0
-929468.9641711866 0 0
-928044.6413654911 0 0
-926591.5759866486 0 0
-925109.1876711418 0 0
-923596.8845945874 0 0
-922054.0633412723 0 0
-920480.1080400525 0 0
-918874.390472388 0 0
-917236.2698757404 0 0
-915565.0913986298 0 0
-913860.1890303269 0 0
-912120.8817215755 0 0
-910346.4751634477 0 0
-908536.2613702832 0 0
-906689.5173613678 0 0
-904805.5060695158 0 0
-902883.4755674499 0 0
-900922.6587127121 0 0
-898922.2724290581 0 0
-896881.5186672334 0 0
-894799.5821528704 0 0
-892675.6324894247 0 0
-890508.8215946669 0 0
-888298.2845206531 0 0
-886043.1386851546 0 0
-883742.483815255 0 0
-881395.4023684266 0 0
-879000.9574773097 0 0
-876558.1923026 0 0
-874066.1313872028 0 0
-871523.7820500549 0 0
-868930.127572187 0 0
-866284.1327598102 0 0
-863584.743043174 0 0
-860830.8785541758 0 0
-858021.4416512833 0 0
-855155.3105849106 0 0
-852231.3413747514 0 0
-849248.3659748043 0 0
-846205.194126691 0 0
-843100.6116535015 0 0
-839933.3790885541 0 0
-836702.2314661234 0 0
-833405.8794283207 0 0
-830043.0068518228 0 0
-826612.2715596452 0 0
-823112.3046254608 0 0
-819541.7083340227 0 0
-815899.0574281003 0 0
-812182.8980706423 0 0
-808391.7467640515 0 0
-804524.0901725919 0 0
-800578.3843959332 0 0
-796553.054374519 0 0
-792446.493715529 0 0
-788257.0621651984 0 0
-783983.0883367073 0 0
-779622.8659531873 0 0
-775174.6546771352 0 0
-770636.6777272081 0 0
-766007.1245062912 0 0
-761284.1485224131 0 0
-756465.8627063888 0 0
-751550.34232995 0 0
-746535.628765882 0 0
-741419.7175782152 0 0
-736200.5690908959 0 0
-730876.0962322187 0 0
-725444.1767052811 0 0
-719902.6420059016 0 0
-714249.2779392741 0 0
-708481.8298910888 0 0
-702597.9945300248 0 0
-696595.4252354387 0 0
-690471.7217759632 0 0
-684224.4433795067 0 0
-677851.0960019354 0 0
-671349.1329624641 0 0
-664715.9616304975 0 0
-657948.9333535994 0 0
-651045.3459708479 0 0
-644002.44465498 0 0
-636817.4179124148 0 0
-629487.3975959329 0 0
-622009.4590192179 0 0
-614380.6146073582 0 0
-606597.8193105706 0 0
-598657.9686966958 0 0
-590557.8922966596 0 0
-582294.356476039 0 0
-573864.0630902676 0 0
-565263.6462066623 0 0
-556489.6732375603 0 0
-547538.6390237128 0 0
-538406.9766746745 0 0
-529091.037772717 0 0
-519587.1027571597 0 0
-509891.3825329425 0 0
1 4 0 460
660
661
662
663
664
665
666
667
668
669
670
671
672
673
674
675
676
677
678
679
680
681
682
683
684
685
686
687
688
689
690
691
692
693
694
695
696
697
698
699
700
701
702
703
704
705
706
707
708
709
710
711
712
713
714
715
716
717
718
719
720
721
722
723
724
725
726
727
728
729
730
731
732
733
734
735
736
737
738
739
740
741
742
743
744
745
746
747
748
749
750
751
752
753
754
755
756
757
758
759
760
761
762
763
764
765
766
767
768
769
770
771
772
773
774
775
776
777
778
779
780
781
782
783
784
785
786
787
788
789
790
791
792
793
794
795
796
797
798
799
800
801
802
803
804
805
806
807
808
809
810
811
812
813
814
815
816
817
818
819
820
821
822
823
824
825
826
827
828
829
830
831
832
833
834
835
836
837
838
839
840
841
842
843
844
845
846
847
848
849
850
851
852
853
854
855
856
857
858
859
860
861
862
863
864
865
866
867
868
869
870
871
872
873
874
875
876
877
878
879
880
881
882
883
884
885
886
887
888
889
890
891
892
893
894
895
896
897
898
899
900
901
902
903
904
905
906
907
908
909
910
911
912
913
914
915
916
917
918
919
920
921
922
923
924
925
926
927
928
929
930
931
932
933
934
935
936
937
938
939
940
941
942
943
944
945
946
947
948
949
950
951
952
953
954
955
956
957
958
959
960
961
962
963
964
965
966
967
968
969
970
971
972
973
974
975
976
977
978
979
980
981
982
983
984
985
986
987
988
989
990
991
992
993
994
995
996
997
998
999
1000
1001
1002
1003
1004
1005
1006
1007
1008
1009
1010
1011
1012
1013
1014
1015
1016
1017
1018
1019
1020
1021
1022
1023
1024
1025
1026
1027
1028
1029
1030
1031
1032
1033
1034
1035
1036
1037
1038
1039
1040
1041
1042
1043
1044
1045
1046
1047
1048
1049
1050
1051
1052
1053
1054
1055
1056
1057
1058
1059
1060
1061
1062
1063
1064
1065
1066
1067
1068
1069
1070
1071
1072
1073
1074
1075
1076
1077
1078
1079
1080
1081
1082
1083
1084
1085
1086
1087
1088
1089
1090
1091
1092
1093
1094
1095
1096
1097
1098
1099
1100
1101
1102
1103
1104
1105
1106
1107
1108
1109
1110
1111
1112
1113
1114
1115
1116
1117
1118
1119
-490108.6174670588 0 0
-480412.8972428395 0 0
-470908.9622272815 0 0
-461593.0233253232 0 0
-452461.3609762868 0 0
-443510.32676244 0 0
-434736.3537933368 0 0
-426135.9369097326 0 0
-417705.6435239634 0 0
-409442.1077033423 0 0
-401342.0313033076 0 0
-393402.1806894338 0 0
-385619.3853926436 0 0
-377990.5409807849 0 0
-370512.6024040703 0 0
-363182.5820875917 0 0
-355997.5553450285 0 0
-348954.6540291603 0 0
-342051.0666464081 0 0
-335284.0383695103 0 0
-328650.8670375438 0 0
-322148.9039980714 0 0
-315775.5566204991 0 0
-309528.2782240426 0 0
-303404.5747645674 0 0
-297402.0054699805 0 0
-291518.1701089157 0 0
-285750.7220607309 0 0
-280097.3579941034 0 0
-274555.8232947238 0 0
-269123.903767787 0 0
-263799.4309091109 0 0
-258580.2824217914 0 0
-253464.3712341244 0 0
-248449.6576700466 0 0
-243534.1372935791 0 0
-238715.8514775289 0 0
-233992.8754936483 0 0
-229363.3222727334 0 0
-224825.3453228068 0 0
-220377.1340467554 0 0
-216016.9116632367 0 0
-211742.9378347481 0 0
-207553.5062844206 0 0
-203446.9456254312 0 0
-199421.6156040173 0 0
-195475.9098273587 0 0
-191608.2532358998 0 0
-187817.1019293095 0 0
-184100.9425718521 0 0
-180458.2916659303 0 0
-176887.6953744935 0 0
-173387.7284403096 0 0
-169956.9931481332 0 0
-166594.1205716369 0 0
-163297.7685338347 0 0
-160066.6209114051 0 0
-156899.3883464577 0 0
-153794.8058732687 0 0
-150751.6340251564 0 0
-147768.6586252098 0 0
-144844.6894150517 0 0
-141978.5583486808 0 0
-139169.1214457888 0 0
-136415.256956791 0 0
-133715.8672401556 0 0
-131069.8724277797 0 0
-128476.2179499128 0 0
-125933.8686127655 0 0
-123441.8076973691 0 0
-120999.0425226596 0 0
-118604.5976315435 0 0
-116257.5161847152 0 0
-113956.8613148163 0 0
-111701.7154793182 0 0
-109491.1784053049 0 0
-107324.3675105479 0 0
-105200.4178471027 0 0
-103118.4813327408 0 0
-101077.727570917 0 0
-99077.3412872628 0 0
-97116.52443252475 0 0
-95194.49393046059 0 0
-93310.48263860989 0 0
-91463.73862969514 0 0
-89653.52483653062 0 0
-87879.1182784033 0 0
-86139.8109696529 0 0
-84434.90860135009 0 0
-82763.73012424022 0 0
-81125.60952759319 0 0
-79519.89195992931 0 0
-77945.93665870978 0 0
-76403.11540539563 0 0
-74890.81232884165 0 0
-73408.42401333543 0 0
-71955.35863449337 0 0
-70531.03582879814 0 0
-69134.88713406684 0 0
-67766.35543183185 0 0
-66424.8945076635 0 0
-65109.96841639723 0 0
-63821.05318271613 0 0
-62557.63322733174 0 0
-61319.20496156113 0 0
-60105.27331731678 0 0
-58915.35456416599 0 0
-57748.97363650153 0 0
-56605.66428135755 0 0
-55484.97022760136 0 0
-54386.44467099675 0 0
-53309.64881172386 0 0
-52254.15272304235 0 0
-51219.53538899723 0 0
-50205.38349671691 0 0
-49211.29228147509 0 0
-48236.86506375967 0 0
-47281.71271722543 0 0
-46345.45407621015 0 0
-45427.71533204528 0 0
-44528.13022058224 0 0
-43646.33953697362 0 0
-42781.99148936215 0 0
-41934.7408633887 0 0
-41104.24951392383 0 0
-40290.18583181902 0 0
-39492.22518536873 0 0
-38710.04868303932 0 0
-37943.34433560574 0 0
-37191.80591906427 0 0
-36455.13359009795 0 0
-35733.03324221587 0 0
-35025.21648689627 0 0
-34331.40094495896 0 0
-33651.30973271147 0 0
-32984.67122407519 0 0
-32331.21928850299 0 0
-31690.69315307401 0 0
-31062.83721203799 0 0
-30447.40060959797 0 0
-29844.13794753118 0 0
-29252.80823849037 0 0
-28673.17553313053 0 0
-28105.00838970742 0 0
-27548.07993499137 0 0
-27002.16807596199 0 0
-26467.0547554979 0 0
-25942.52644465416 0 0
-25428.37366234651 0 0
-24924.39128431113 0 0
-24430.37806140818 0 0
-23946.13680816523 0 0
-23471.47417916526 0 0
-23006.20078368532 0 0
-22550.13092772651 0 0
-22103.08241122111 0 0
-21664.87691343826 0 0
-21235.33944094932 0 0
-20814.29857052851 0 0
-20401.58617880172 0 0
-19997.03758264129 0 0
-19600.49130266061 0 0
-19211.78903127287 0 0
-18830.77559181146 0 0
-18457.29888792225 0 0
-18091.20984239219 0 0
-17732.36232453567 0 0
-17380.61306521652 0 0
-17035.82169615 0 0
-16697.85060836386 0 0
-16366.56486014999 0 0
-16041.83216214221 0 0
-15723.5229262489 0 0
-15411.51007051463 0 0
-15105.66916584031 0 0
-14805.87803371111 0 0
-14512.0169615029 0 0
-14223.96870939189 0 0
-13941.61819883838 0 0
-13664.85286680004 0 0
-13393.5621556163 0 0
-13127.63782692159 0 0
-12866.97364011843 0 0
-12611.46563204762 0 0
-12361.01179165283 0 0
-12115.51207638491 0 0
-11874.86858145089 0 0
-11638.9851917093 0 0
-11407.76774141885 0 0
-11181.12398193672 0 0
-10958.96342256694 0 0
-10741.19735991018 0 0
-10527.73887715815 0 0
-10318.50274925586 0 0
-10113.40551819676 0 0
-9912.365223827248 0 0
-9715.301725914993 0 0
-9522.136265794921 0 0
-9332.791741965455 0 0
-9147.192654432205 0 0
-8965.264852409542 0 0
-8786.935687456338 0 0
-8612.134057177871 0 0
-8440.790137539618 0 0
-8272.835520433553 0 0
-8108.203137607779 0 0
-7946.827402975177 0 0
-7788.643762491003 0 0
-7633.589096504264 0 0
-7481.601576428395 0 0
-7332.620466184046 0 0
-7186.586294912791 0 0
-7043.440828573483 0 0
-6903.12685704662 0 0
-6765.588427177747 0 0
-6630.770615906746 0 0
-6498.619617816817 0 0
-6369.082667244249 0 0
-6242.108054748271 0 0
-6117.645097122819 0 0
-5995.644115915522 0 0
-5876.056425532792 0 0
-5758.834262348129 0 0
-5643.930833410763 0 0
-5531.300291488646 0 0
-5420.89768948761 0 0
-5312.678926301887 0 0
-5206.600819570478 0 0
-5102.621016329562 0 0
-5000.698014433379 0 0
-4900.791120685404 0 0
-4802.860474897956 0 0
-4706.866984238266 0 0
-4612.77229871304 0 0
-4520.538889132207 0 0
-4430.129942067608 0 0
-4341.509346753883 0 0
-4254.64173206687 0 0
-4169.492409614089 0 0
-4086.027451542963 0 0
-4004.213467259484 0 0
-3924.017837067135 0 0
-3845.408527827414 0 0
-3768.354190099286 0 0
-3692.824029469572 0 0
-3618.787933954969 0 0
-3546.216321815038 0 0
-3475.080213653622 0 0
-3405.351246468839 0 0
-3337.001575069793 0 0
-3270.003918680013 0 0
-3204.331520619686 0 0
-3139.958180506132 0 0
-3076.858203073381 0 0
-3015.006379863829 0 0
-2954.378044177371 0 0
-2894.948979216686 0 0
-2836.695465429628 0 0
-2779.594262559491 0 0
-2723.622558226169 0 0
-2668.758021905145 0 0
-2614.978741108614 0 0
-2562.263273766963 0 0
-2510.590542496648 0 0
-2459.939947141567 0 0
-2410.291262489627 0 0
-2361.624665900308 0 0
-2313.920732419356 0 0
-2267.160420393338 0 0
-2221.325063752243 0 0
-2176.39636286255 0 0
-2132.356386811414 0 0
-2089.187565904344 0 0
-2046.872653096681 0 0
-2005.394761725969 0 0
-1964.737335472077 0 0
-1924.884142491792 0 0
-1885.819277304632 0 0
-1847.527155788441 0 0
-1809.992469202087 0 0
-1773.200259502977 0 0
-1737.135812222084 0 0
-1701.784759572009 0 0
-1667.132979623624 0 0
-1633.166633602523 0 0
-1599.872176534322 0 0
-1567.236306714593 0 0
-1535.245998978789 0 0
-1503.888485020376 0 0
-1473.15124695556 0 0
-1443.022018782154 0 0
-1413.488768147305 0 0
-1384.539706844487 0 0
-1356.163282277877 0 0
-1328.348168367054 0 0
-1301.083254309604 0 0
-1274.35766270489 0 0
-1248.160728082818 0 0
-1222.481989906402 0 0
-1197.311191661633 0 0
-1172.638298147882 0 0
-1148.453445933585 0 0
-1124.746998976101 0 0
-1101.509474632156 0 0
-1078.731616017176 0 0
-1056.404313148872 0 0
-1034.518664791423 0 0
-1013.065932923288 0 0
-992.0375522735412 0 0
-971.4251343976939 0 0
-951.2204408678226 0 0
-931.4154139038874 0 0
-912.0021434874507 0 0
-892.9728867887752 0 0
-874.3200385541422 0 0
-856.0361649221159 0 0
-838.1139561391319 0 0
-820.5462584357592 0 0
-803.3260686303838 0 0
-786.4465077662608 0 0
-769.9008387516951 0 0
-753.6824552929029 0 0
-737.7848824109533 0 0
-722.2017796044238 0 0
-706.9269204635639 0 0
-691.9542120833066 0 0
-677.2776743866852 0 0
-662.8914497384685 0 0
-648.7897969566984 0 0
-634.9670854980359 0 0
-621.417796981521 0 0
-608.1365262846812 0 0
-595.1179676808533 0 0
-582.3569269059808 0 0
-569.848310377798 0 0
-557.5871243360452 0 0
-545.5684737155098 0 0
-533.787560727098 0 0
-522.2396831227234 0 0
-510.9202321159537 0 0
-499.824689931178 0 0
-488.9486269509653 0 0
-478.2876984319882 0 0
-467.837654293282 0 0
-457.5943187254015 0 0
-447.5536042699823 0 0
-437.7115023707156 0 0
-428.0640851823264 0 0
-418.6075041438453 0 0
-409.3379786853911 0 0
-400.2518140131142 0 0
-391.3453778914409 0 0
-382.6151183306356 0 0
-374.0575518328114 0 0
-365.6692598672234 0 0
-357.4468953414471 0 0
-349.3871765458607 0 0
-341.4868845347082 0 0
-333.7428668467328 0 0
-326.1520311431959 0 0
-318.7113487851457 0 0
-311.4178495222586 0 0
-304.2686207221122 0 0
-297.2608094058232 0 0
-290.3916174749029 0 0
-283.6583040500409 0 0
-277.0581820755615 0 0
-270.5886147457641 0 0
-264.2470206465223 0 0
-258.030867109017 0 0
-251.9376756715938 0 0
-245.9650122348103 0 0
-240.1104922830127 0 0
-234.3717784705805 0 0
-228.7465824435931 0 0
-223.2326564486721 0 0
-217.8278009024798 0 0
-212.5298570223385 0 0
-207.3367109685787 0 0
-202.2462883180706 0 0
-197.256560095062 0 0
-192.3655316362274 0 0
-187.5712504786206 0 0
-182.8718051441829 0 0
-178.2653192167636 0 0
-173.7499515637173 0 0
-169.3239025651128 0 0
-164.9854036017205 0 0
-160.7327244574553 0 0
-156.5641663305578 0 0
-152.4780654328642 0 0
-148.4727905719192 0 0
-144.5467436843901 0 0
-140.6983566985582 0 0
-136.9260945348651 0 0
-133.2284502148977 0 0
-129.6039480525069 0 0
-126.0511417667149 0 0
-122.5686124928179 0 0
-119.1549703525961 0 0
-115.8088527341606 0 0
-112.5289242176805 0 0
-109.3138748897472 0 0
-106.1624224245315 0 0
-103.0733080116333 0 0
-100.0452978881076 0 0
-97.07718538498739 0 0
-94.16778377862647 0 0
-91.31593212526059 0 0
-88.52049320592778 0 0
-85.78034992446192 0 0
-83.09440855012508 0 0
-80.46159735083347 0 0
-77.88086548296269 0 0
-75.35118250537198 0 0
-72.87153815105557 0 0
-70.44094382587355 0 0
-68.05842815368669 0 0
-65.72304051980609 0 0
-63.43384890363086 0 0
-61.1899387773592 0 0
-58.99041485338239 0 0
-56.83439958462259 0 0
-54.72103220352437 0 0
-52.64946876984322 0 0
-50.61888232518686 0 0
-48.62846289557638 0 0
-46.67741530685453 0 0
-44.76496080431389 0 0
-42.89033644495066 0 0
-41.05279324989533 0 0
-39.25159848848125 0 0
-37.48603279789677 0 0
-35.75539127428783 0 0
-34.05898314411752 0 0
-32.39613111846847 0 0
-30.76617203647038 0 0
-29.16845467168605 0 0
-27.60234134737402 0 0
-26.06720699399011 0 0
-24.56243882450508 0 0
-23.08743615396088 0 0
-21.64161018107552 0 0
-20.22438372520264 0 0
-18.83519091783091 0 0
-17.47347807715414 0 0
-16.13870031863917 0 0
-14.83032605436165 0 0
-13.54783216997748 0 0
-12.29070709552616 0 0
-11.05844885855913 0 0
-9.850565648754127 0 0
-8.666575753362849 0 0
-7.506005707662553 0 0
-6.368392785952892 0 0
-5.253282710560597 0 0
-4.160229969827924 0 0
-3.088799049088266 0 0
-2.038561867258977 0 0
-1.009099212940782 0 0
1 5 0 129
1120
1121
1122
1123
1124
1125
1126
1127
1128
1129
1130
1131
1132
1133
1134
1135
1136
1137
1138
1139
1140
1141
1142
1143
1144
1145
1146
1147
1148
1149
1150
1151
1152
1153
1154
1155
1156
1157
1158
1159
1160
1161
1162
1163
1164
1165
1166
1167
1168
1169
1170
1171
1172
1173
1174
1175
1176
1177
1178
1179
1180
1181
1182
1183
1184
1185
1186
1187
1188
1189
1190
1191
1192
1193
1194
1195
1196
1197
1198
1199
1200
1201
1202
1203
1204
1205
1206
1207
1208
1209
1210
1211
1212
1213
1214
1215
1216
1217
1218
1219
1220
1221
1222
1223
1224
1225
1226
1227
1228
1229
1230
1231
1232
1233
1234
1235
1236
1237
1238
1239
1240
1241
1242
1243
1244
1245
1246
1247
1248
1.000000000000238 0 0
2.000000000000447 0 0
3.000000000000572 0 0
4.000000000000695 0 0
5.000000000000657 0 0
6.000000000000451 0 0
7.000000000000232 0 0
8.000000000000316 0 0
9.000000000001036 0 0
10.00000000000214 0 0
11.00000000000328 0 0
12.00000000000443 0 0
13.00000000000558 0 0
14.00000000000673 0 0
15.00000000000787 0 0
16.00000000000849 0 0
17.00000000000845 0 0
18.00000000000823 0 0
19.00000000000801 0 0
20.00000000000779 0 0
21.00000000000757 0 0
22.00000000000735 0 0
23.00000000000713 0 0
24.00000000000691 0 0
25.00000000000669 0 0
26.00000000000648 0 0
27.00000000000625 0 0
28.00000000000604 0 0
29.00000000000582 0 0
30.0000000000056 0 0
31.00000000000538 0 0
32.00000000000516 0 0
33.00000000000494 0 0
34.00000000000473 0 0
35.0000000000045 0 0
36.00000000000428 0 0
37.00000000000406 0 0
38.00000000000384 0 0
39.00000000000361 0 0
40.00000000000339 0 0
41.00000000000317 0 0
42.00000000000295 0 0
43.00000000000273 0 0
44.0000000000025 0 0
45.00000000000227 0 0
46.00000000000205 0 0
47.00000000000183 0 0
48.00000000000161 0 0
49.00000000000139 0 0
50.00000000000117 0 0
51.00000000000095 0 0
52.00000000000072 0 0
53.00000000000049 0 0
54.00000000000027 0 0
55.00000000000005 0 0
55.99999999999983 0 0
56.99999999999961 0 0
57.99999999999938 0 0
58.99999999999916 0 0
59.99999999999893 0 0
60.99999999999871 0 0
61.99999999999849 0 0
62.99999999999827 0 0
63.99999999999805 0 0
64.99999999999783 0 0
65.9999999999976 0 0
66.99999999999739 0 0
67.99999999999716 0 0
68.99999999999693 0 0
69.9999999999967 0 0
70.99999999999649 0 0
71.99999999999626 0 0
72.99999999999605 0 0
73.99999999999582 0 0
74.99999999999561 0 0
75.99999999999538 0 0
76.99999999999517 0 0
77.99999999999493 0 0
78.9999999999947 0 0
79.99999999999447 0 0
80.99999999999426 0 0
81.99999999999403 0 0
82.99999999999382 0 0
83.99999999999359 0 0
84.99999999999338 0 0
85.99999999999315 0 0
86.99999999999292 0 0
87.9999999999927 0 0
88.99999999999248 0 0
89.99999999999226 0 0
90.99999999999204 0 0
91.99999999999181 0 0
92.99999999999159 0 0
93.99999999999137 0 0
94.99999999999115 0 0
95.99999999999093 0 0
96.99999999999069 0 0
97.99999999999048 0 0
98.99999999999025 0 0
99.99999999999004 0 0
100.9999999999898 0 0
101.9999999999896 0 0
102.9999999999894 0 0
103.9999999999892 0 0
104.9999999999889 0 0
105.9999999999887 0 0
106.9999999999885 0 0
107.9999999999882 0 0
108.999999999988 0 0
109.9999999999878 0 0
110.9999999999876 0 0
111.9999999999874 0 0
112.9999999999871 0 0
113.9999999999869 0 0
114.9999999999867 0 0
115.9999999999865 0 0
116.9999999999862 0 0
117.999999999986 0 0
118.9999999999858 0 0
119.9999999999856 0 0
120.9999999999854 0 0
121.9999999999851 0 0
122.9999999999849 0 0
123.9999999999847 0 0
124.9999999999845 0 0
125.9999999999842 0 0
126.999999999984 0 0
127.999999999984 0 0
128.9999999999893 0 0
1 6 0 9
1249
1250
1251
1252
1253
1254
1255
1256
1257
131 0 0
132 0 0
133 0 0
134 0 0
135 0 0
136 0 0
137 0 0
138 0 0
139 0 0
1 7 0 699
1258
1259
1260
1261
1262
1263
1264
1265
1266
1267
1268
1269
1270
1271
1272
1273
1274
1275
1276
1277
1278
1279
1280
1281
1282
1283
1284
1285
1286
1287
1288
1289
1290
1291
1292
1293
1294
1295
1296
1297
1298
1299
1300
1301
1302
1303
1304
1305
1306
1307
1308
1309
1310
1311
1312
1313
1314
1315
1316
1317
1318
1319
1320
1321
1322
1323
1324
1325
1326
1327
1328
1329
1330
1331
1332
1333
1334
1335
1336
1337
1338
1339
1340
1341
1342
1343
1344
1345
1346
1347
1348
1349
1350
1351
1352
1353
1354
1355
1356
1357
1358
1359
1360
1361
1362
1363
1364
1365
1366
1367
1368
1369
1370
1371
1372
1373
1374
1375
1376
1377
1378
1379
1380
1381
1382
1383
1384
1385
1386
1387
1388
1389
1390
1391
1392
1393
1394
1395
1396
1397
1398
1399
1400
1401
1402
1403
1404
1405
1406
1407
1408
1409
1410
1411
1412
1413
1414
1415
1416
1417
1418
1419
1420
1421
1422
1423
1424
1425
1426
1427
1428
1429
1430
1431
1432
1433
1434
1435
1436
1437
1438
1439
1440
1441
1442
1443
1444
1445
1446
1447
1448
1449
1450
1451
1452
1453
1454
1455
1456
1457
1458
1459
1460
1461
1462
1463
1464
1465
1466
1467
1468
1469
1470
1471
1472
1473
1474
1475
1476
1477
1478
1479
1480
1481
1482
1483
1484
1485
1486
1487
1488
1489
1490
1491
1492
1493
1494
1495
1496
1497
1498
1499
1500
1501
1502
1503
1504
1505
1506
1507
1508
1509
1510
1511
1512
1513
1514
1515
1516
1517
1518
1519
1520
1521
1522
1523
1524
1525
1526
1527
1528
1529
1530
1531
1532
1533
1534
1535
1536
1537
1538
1539
1540
1541
1542
1543
1544
1545
1546
1547
1548
1549
1550
1551
1552
1553
1554
1555
1556
1557
1558
1559
1560
1561
1562
1563
1564
1565
1566
1567
1568
1569
1570
1571
1572
1573
1574
1575
1576
1577
1578
1579
1580
1581
1582
1583
1584
1585
1586
1587
1588
1589
1590
1591
1592
1593
1594
1595
1596
1597
1598
1599
1600
1601
1602
1603
1604
1605
1606
1607
1608
1609
1610
1611
1612
1613
1614
1615
1616
1617
1618
1619
1620
1621
1622
1623
1624
1625
1626
1627
1628
1629
1630
1631
1632
1633
1634
1635
1636
1637
1638
1639
1640
1641
1642
1643
1644
1645
1646
1647
1648
1649
1650
1651
1652
1653
1654
1655
1656
1657
1658
1659
1660
1661
1662
1663
1664
1665
1666
1667
1668
1669
1670
1671
1672
1673
1674
1675
1676
1677
1678
1679
1680
1681
1682
1683
1684
1685
1686
1687
1688
1689
1690
1691
1692
1693
1694
1695
1696
1697
1698
1699
1700
1701
1702
1703
1704
1705
1706
1707
1708
1709
1710
1711
1712
1713
1714
1715
1716
1717
1718
1719
1720
1721
1722
1723
1724
1725
1726
1727
1728
1729
1730
1731
1732
1733
1734
1735
1736
1737
1738
1739
1740
1741
1742
1743
1744
1745
1746
1747
1748
1749
1750
1751
1752
1753
1754
1755
1756
1757
1758
1759
1760
1761
1762
1763
1764
1765
1766
1767
1768
1769
1770
1771
1772
1773
1774
1775
1776
1777
1778
1779
1780
1781
1782
1783
1784
1785
1786
1787
1788
1789
1790
1791
1792
1793
1794
1795
1796
1797
1798
1799
1800
1801
1802
1803
1804
1805
1806
1807
1808
1809
1810
1811
1812
1813
1814
1815
1816
1817
1818
1819
1820
1821
1822
1823
1824
1825
1826
1827
1828
1829
1830
1831
1832
1833
1834
1835
1836
1837
1838
1839
1840
1841
1842
1843
1844
1845
1846
1847
1848
1849
1850
1851
1852
1853
1854
1855
1856
1857
1858
1859
1860
1861
1862
1863
1864
1865
1866
1867
1868
1869
1870
1871
1872
1873
1874
1875
1876
1877
1878
1879
1880
1881
1882
1883
1884
1885
1886
1887
1888
1889
1890
1891
1892
1893
1894
1895
1896
1897
1898
1899
1900
1901
1902
1903
1904
1905
1906
1907
1908
1909
1910
1911
1912
1913
1914
1915
1916
1917
1918
1919
1920
1921
1922
1923
1924
1925
1926
1927
1928
1929
1930
1931
1932
1933
1934
1935
1936
1937
1938
1939
1940
1941
1942
1943
1944
1945
1946
1947
1948
1949
1950
1951
1952
1953
1954
1955
1956
140.9999999999959 0 0
141.9999999999919 0 0
142.9999999999878 0 0
143.9999999999838 0 0
144.9999999999797 0 0
145.9999999999756 0 0
146.9999999999716 0 0
147.9999999999675 0 0
148.9999999999634 0 0
149.9999999999594 0 0
150.9999999999553 0 0
151.9999999999513 0 0
152.9999999999472 0 0
153.9999999999432 0 0
154.9999999999391 0 0
155.999999999935 0 0
156.999999999931 0 0
157.9999999999269 0 0
158.9999999999229 0 0
159.9999999999188 0 0
160.9999999999147 0 0
161.9999999999107 0 0
162.9999999999066 0 0
163.9999999999026 0 0
164.9999999998985 0 0
165.9999999998944 0 0
166.9999999998904 0 0
167.9999999998863 0 0
168.9999999998822 0 0
169.9999999998782 0 0
170.9999999998741 0 0
171.9999999998701 0 0
172.999999999866 0 0
173.999999999862 0 0
174.9999999998579 0 0
175.9999999998538 0 0
176.9999999998498 0 0
177.9999999998457 0 0
178.9999999998417 0 0
179.9999999998376 0 0
180.9999999998335 0 0
181.9999999998295 0 0
182.9999999998254 0 0
183.9999999998213 0 0
184.9999999998173 0 0
185.9999999998132 0 0
186.9999999998092 0 0
187.9999999998051 0 0
188.999999999801 0 0
189.999999999797 0 0
190.9999999997929 0 0
191.9999999997889 0 0
192.9999999997848 0 0
193.9999999997808 0 0
194.9999999997767 0 0
195.9999999997726 0 0
196.9999999997686 0 0
197.9999999997645 0 0
198.9999999997605 0 0
199.9999999997564 0 0
200.9999999997523 0 0
201.9999999997483 0 0
202.9999999997442 0 0
203.9999999997402 0 0
204.9999999997361 0 0
205.999999999732 0 0
206.999999999728 0 0
207.9999999997239 0 0
208.9999999997198 0 0
209.9999999997158 0 0
210.9999999997117 0 0
211.9999999997077 0 0
212.9999999997036 0 0
213.9999999996996 0 0
214.9999999996955 0 0
215.9999999996914 0 0
216.9999999996874 0 0
217.9999999996833 0 0
218.9999999996792 0 0
219.9999999996752 0 0
220.9999999996711 0 0
221.9999999996671 0 0
222.999999999663 0 0
223.9999999996589 0 0
224.9999999996549 0 0
225.9999999996508 0 0
226.9999999996468 0 0
227.9999999996427 0 0
228.9999999996386 0 0
229.9999999996346 0 0
230.9999999996305 0 0
231.9999999996265 0 0
232.9999999996224 0 0
233.9999999996184 0 0
234.9999999996143 0 0
235.9999999996102 0 0
236.9999999996062 0 0
237.9999999996021 0 0
238.999999999598 0 0
239.999999999594 0 0
240.9999999995899 0 0
241.9999999995859 0 0
242.9999999995818 0 0
243.9999999995777 0 0
244.9999999995737 0 0
245.9999999995696 0 0
246.9999999995656 0 0
247.9999999995615 0 0
248.9999999995574 0 0
249.9999999995534 0 0
250.9999999995493 0 0
251.9999999995453 0 0
252.9999999995412 0 0
253.9999999995372 0 0
254.9999999995331 0 0
255.999999999529 0 0
256.999999999525 0 0
257.9999999995209 0 0
258.9999999995168 0 0
259.9999999995128 0 0
260.9999999995087 0 0
261.9999999995047 0 0
262.9999999995006 0 0
263.9999999994965 0 0
264.9999999994925 0 0
265.9999999994884 0 0
266.9999999994844 0 0
267.9999999994803 0 0
268.9999999994762 0 0
269.9999999994722 0 0
270.9999999994682 0 0
271.9999999994641 0 0
272.99999999946 0 0
273.999999999456 0 0
274.9999999994519 0 0
275.9999999994478 0 0
276.9999999994438 0 0
277.9999999994398 0 0
278.9999999994357 0 0
279.9999999994316 0 0
280.9999999994276 0 0
281.9999999994235 0 0
282.9999999994195 0 0
283.9999999994154 0 0
284.9999999994113 0 0
285.9999999994073 0 0
286.9999999994033 0 0
287.9999999993992 0 0
288.9999999993951 0 0
289.9999999993911 0 0
290.999999999387 0 0
291.9999999993829 0 0
292.9999999993789 0 0
293.9999999993748 0 0
294.9999999993707 0 0
295.9999999993667 0 0
296.9999999993627 0 0
297.9999999993586 0 0
298.9999999993545 0 0
299.9999999993505 0 0
300.9999999993464 0 0
301.9999999993423 0 0
302.9999999993383 0 0
303.9999999993342 0 0
304.9999999993302 0 0
305.9999999993261 0 0
306.9999999993221 0 0
307.999999999318 0 0
308.9999999993139 0 0
309.9999999993099 0 0
310.9999999993058 0 0
311.9999999993017 0 0
312.9999999992977 0 0
313.9999999992937 0 0
314.9999999992896 0 0
315.9999999992855 0 0
316.9999999992815 0 0
317.9999999992774 0 0
318.9999999992734 0 0
319.9999999992693 0 0
320.9999999992652 0 0
321.9999999992612 0 0
322.9999999992572 0 0
323.9999999992531 0 0
324.999999999249 0 0
325.999999999245 0 0
326.9999999992409 0 0
327.9999999992369 0 0
328.9999999992328 0 0
329.9999999992287 0 0
330.9999999992247 0 0
331.9999999992207 0 0
332.9999999992166 0 0
333.9999999992125 0 0
334.9999999992085 0 0
335.9999999992044 0 0
336.9999999992003 0 0
337.9999999991962 0 0
338.9999999991922 0 0
339.9999999991882 0 0
340.9999999991841 0 0
341.99999999918 0 0
342.999999999176 0 0
343.9999999991719 0 0
344.9999999991679 0 0
345.9999999991638 0 0
346.9999999991597 0 0
347.9999999991556 0 0
348.9999999991517 0 0
349.9999999991476 0 0
350.9999999991435 0 0
351.9999999991394 0 0
352.9999999991354 0 0
353.9999999991313 0 0
354.9999999991272 0 0
355.9999999991232 0 0
356.9999999991192 0 0
357.9999999991151 0 0
358.999999999111 0 0
359.999999999107 0 0
360.9999999991029 0 0
361.9999999990989 0 0
362.9999999990948 0 0
363.9999999990907 0 0
364.9999999990867 0 0
365.9999999990827 0 0
366.9999999990786 0 0
367.9999999990745 0 0
368.9999999990705 0 0
369.9999999990664 0 0
370.9999999990624 0 0
371.9999999990583 0 0
372.9999999990542 0 0
373.9999999990502 0 0
374.9999999990462 0 0
375.9999999990421 0 0
376.999999999038 0 0
377.999999999034 0 0
378.9999999990299 0 0
379.9999999990258 0 0
380.9999999990218 0 0
381.9999999990177 0 0
382.9999999990137 0 0
383.9999999990097 0 0
384.9999999990056 0 0
385.9999999990015 0 0
386.9999999989974 0 0
387.9999999989934 0 0
388.9999999989893 0 0
389.9999999989852 0 0
390.9999999989813 0 0
391.9999999989772 0 0
392.9999999989731 0 0
393.999999998969 0 0
394.999999998965 0 0
395.9999999989609 0 0
396.9999999989569 0 0
397.9999999989528 0 0
398.9999999989487 0 0
399.9999999989446 0 0
400.9999999989406 0 0
401.9999999989365 0 0
402.9999999989325 0 0
403.9999999989284 0 0
404.9999999989244 0 0
405.9999999989203 0 0
406.9999999989162 0 0
407.9999999989122 0 0
408.9999999989081 0 0
409.999999998904 0 0
410.9999999989 0 0
411.9999999988959 0 0
412.9999999988918 0 0
413.9999999988878 0 0
414.9999999988837 0 0
415.9999999988797 0 0
416.9999999988756 0 0
417.9999999988715 0 0
418.9999999988675 0 0
419.9999999988634 0 0
420.9999999988594 0 0
421.9999999988553 0 0
422.9999999988512 0 0
423.9999999988472 0 0
424.9999999988431 0 0
425.999999998839 0 0
426.999999998835 0 0
427.9999999988309 0 0
428.9999999988269 0 0
429.9999999988228 0 0
430.9999999988187 0 0
431.9999999988147 0 0
432.9999999988106 0 0
433.9999999988066 0 0
434.9999999988025 0 0
435.9999999987984 0 0
436.9999999987944 0 0
437.9999999987903 0 0
438.9999999987862 0 0
439.9999999987822 0 0
440.9999999987781 0 0
441.9999999987741 0 0
442.99999999877 0 0
443.9999999987659 0 0
444.9999999987618 0 0
445.9999999987578 0 0
446.9999999987538 0 0
447.9999999987497 0 0
448.9999999987456 0 0
449.9999999987415 0 0
450.9999999987375 0 0
451.9999999987334 0 0
452.9999999987294 0 0
453.9999999987253 0 0
454.9999999987213 0 0
455.9999999987172 0 0
456.9999999987131 0 0
457.999999998709 0 0
458.9999999987049 0 0
459.999999998701 0 0
460.9999999986969 0 0
461.9999999986928 0 0
462.9999999986887 0 0
463.9999999986846 0 0
464.9999999986806 0 0
465.9999999986765 0 0
466.9999999986725 0 0
467.9999999986684 0 0
468.9999999986644 0 0
469.9999999986603 0 0
470.9999999986562 0 0
471.9999999986521 0 0
472.999999998648 0 0
473.9999999986441 0 0
474.99999999864 0 0
475.9999999986359 0 0
476.9999999986318 0 0
477.9999999986277 0 0
478.9999999986237 0 0
479.9999999986196 0 0
480.9999999986156 0 0
481.9999999986115 0 0
482.9999999986075 0 0
483.9999999986034 0 0
484.9999999986003 0 0
485.9999999985982 0 0
486.9999999985963 0 0
487.9999999985943 0 0
488.9999999985922 0 0
489.9999999985902 0 0
490.9999999985922 0 0
491.9999999985942 0 0
492.9999999985963 0 0
493.9999999985982 0 0
494.9999999986003 0 0
495.9999999986035 0 0
496.9999999986075 0 0
497.9999999986115 0 0
498.9999999986156 0 0
499.9999999986197 0 0
500.9999999986237 0 0
501.9999999986279 0 0
502.9999999986319 0 0
503.9999999986359 0 0
504.99999999864 0 0
505.9999999986441 0 0
506.9999999986481 0 0
507.9999999986522 0 0
508.9999999986563 0 0
509.9999999986604 0 0
510.9999999986644 0 0
511.9999999986684 0 0
512.9999999986725 0 0
513.9999999986766 0 0
514.9999999986806 0 0
515.9999999986848 0 0
516.9999999986887 0 0
517.9999999986928 0 0
518.9999999986969 0 0
519.999999998701 0 0
520.999999998705 0 0
521.9999999987091 0 0
522.9999999987132 0 0
523.9999999987173 0 0
524.9999999987213 0 0
525.9999999987253 0 0
526.9999999987294 0 0
527.9999999987335 0 0
528.9999999987375 0 0
529.9999999987417 0 0
530.9999999987457 0 0
531.9999999987497 0 0
532.9999999987538 0 0
533.9999999987579 0 0
534.999999998762 0 0
535.999999998766 0 0
536.9999999987701 0 0
537.9999999987742 0 0
538.9999999987782 0 0
539.9999999987824 0 0
540.9999999987864 0 0
541.9999999987904 0 0
542.9999999987945 0 0
543.9999999987986 0 0
544.9999999988027 0 0
545.9999999988067 0 0
546.9999999988108 0 0
547.9999999988148 0 0
548.9999999988189 0 0
549.9999999988229 0 0
550.9999999988271 0 0
551.9999999988311 0 0
552.9999999988352 0 0
553.9999999988393 0 0
554.9999999988434 0 0
555.9999999988473 0 0
556.9999999988513 0 0
557.9999999988555 0 0
558.9999999988595 0 0
559.9999999988636 0 0
560.9999999988677 0 0
561.9999999988718 0 0
562.9999999988759 0 0
563.9999999988798 0 0
564.9999999988841 0 0
565.999999998888 0 0
566.999999998892 0 0
567.9999999988961 0 0
568.9999999989002 0 0
569.9999999989043 0 0
570.9999999989083 0 0
571.9999999989125 0 0
572.9999999989165 0 0
573.9999999989205 0 0
574.9999999989245 0 0
575.9999999989286 0 0
576.9999999989327 0 0
577.9999999989368 0 0
578.9999999989409 0 0
579.999999998945 0 0
580.999999998949 0 0
581.9999999989531 0 0
582.999999998957 0 0
583.9999999989611 0 0
584.9999999989652 0 0
585.9999999989693 0 0
586.9999999989734 0 0
587.9999999989775 0 0
588.9999999989815 0 0
589.9999999989855 0 0
590.9999999989896 0 0
591.9999999989936 0 0
592.9999999989977 0 0
593.9999999990018 0 0
594.9999999990059 0 0
595.99999999901 0 0
596.999999999014 0 0
597.999999999018 0 0
598.9999999990221 0 0
599.9999999990262 0 0
600.9999999990303 0 0
601.9999999990343 0 0
602.9999999990384 0 0
603.9999999990424 0 0
604.9999999990466 0 0
605.9999999990506 0 0
606.9999999990547 0 0
607.9999999990587 0 0
608.9999999990628 0 0
609.9999999990669 0 0
610.999999999071 0 0
611.999999999075 0 0
612.9999999990791 0 0
613.9999999990831 0 0
614.9999999990873 0 0
615.9999999990913 0 0
616.9999999990953 0 0
617.9999999990994 0 0
618.9999999991035 0 0
619.9999999991076 0 0
620.9999999991117 0 0
621.9999999991157 0 0
622.9999999991198 0 0
623.9999999991238 0 0
624.9999999991278 0 0
625.9999999991319 0 0
626.999999999136 0 0
627.9999999991401 0 0
628.9999999991442 0 0
629.9999999991483 0 0
630.9999999991522 0 0
631.9999999991563 0 0
632.9999999991603 0 0
633.9999999991644 0 0
634.9999999991685 0 0
635.9999999991726 0 0
636.9999999991767 0 0
637.9999999991808 0 0
638.9999999991848 0 0
639.9999999991887 0 0
640.9999999991928 0 0
641.9999999991969 0 0
642.999999999201 0 0
643.9999999992051 0 0
644.9999999992092 0 0
645.9999999992133 0 0
646.9999999992173 0 0
647.9999999992212 0 0
648.9999999992255 0 0
649.9999999992294 0 0
650.9999999992335 0 0
651.9999999992376 0 0
652.9999999992417 0 0
653.9999999992458 0 0
654.9999999992498 0 0
655.9999999992539 0 0
656.9999999992579 0 0
657.9999999992621 0 0
658.999999999266 0 0
659.9999999992701 0 0
660.9999999992741 0 0
661.9999999992781 0 0
662.9999999992823 0 0
663.9999999992863 0 0
664.9999999992904 0 0
665.9999999992943 0 0
666.9999999992984 0 0
667.9999999993025 0 0
668.9999999993066 0 0
669.9999999993106 0 0
670.9999999993146 0 0
671.9999999993188 0 0
672.9999999993228 0 0
673.9999999993269 0 0
674.999999999331 0 0
675.9999999993349 0 0
676.999999999339 0 0
677.9999999993431 0 0
678.9999999993471 0 0
679.9999999993511 0 0
680.9999999993553 0 0
681.9999999993594 0 0
682.9999999993634 0 0
683.9999999993674 0 0
684.9999999993714 0 0
685.9999999993755 0 0
686.9999999993795 0 0
687.9999999993836 0 0
688.9999999993877 0 0
689.9999999993917 0 0
690.9999999993959 0 0
691.9999999993998 0 0
692.9999999994039 0 0
693.9999999994079 0 0
694.999999999412 0 0
695.9999999994161 0 0
696.9999999994201 0 0
697.9999999994242 0 0
698.9999999994282 0 0
699.9999999994324 0 0
700.9999999994363 0 0
701.9999999994404 0 0
702.9999999994445 0 0
703.9999999994485 0 0
704.9999999994526 0 0
705.9999999994566 0 0
706.9999999994607 0 0
707.9999999994646 0 0
708.9999999994687 0 0
709.9999999994728 0 0
710.9999999994769 0 0
711.9999999994809 0 0
712.9999999994849 0 0
713.9999999994891 0 0
714.9999999994931 0 0
715.9999999994972 0 0
716.9999999995013 0 0
717.9999999995052 0 0
718.9999999995093 0 0
719.9999999995134 0 0
720.9999999995174 0 0
721.9999999995214 0 0
722.9999999995256 0 0
723.9999999995297 0 0
724.9999999995337 0 0
725.9999999995377 0 0
726.9999999995417 0 0
727.9999999995458 0 0
728.9999999995499 0 0
729.9999999995539 0 0
730.9999999995581 0 0
731.999999999562 0 0
732.9999999995662 0 0
733.9999999995702 0 0
734.9999999995742 0 0
735.9999999995782 0 0
736.9999999995823 0 0
737.9999999995864 0 0
738.9999999995904 0 0
739.9999999995945 0 0
740.9999999995985 0 0
741.9999999996027 0 0
742.9999999996066 0 0
743.9999999996107 0 0
744.9999999996148 0 0
745.9999999996188 0 0
746.9999999996229 0 0
747.9999999996269 0 0
748.999999999631 0 0
749.999999999635 0 0
750.9999999996392 0 0
751.9999999996431 0 0
752.9999999996472 0 0
753.9999999996513 0 0
754.9999999996553 0 0
755.9999999996594 0 0
756.9999999996634 0 0
757.9999999996675 0 0
758.9999999996716 0 0
759.9999999996755 0 0
760.9999999996796 0 0
761.9999999996837 0 0
762.9999999996877 0 0
763.9999999996917 0 0
764.9999999996959 0 0
765.9999999997 0 0
766.999999999704 0 0
767.9999999997081 0 0
768.999999999712 0 0
769.9999999997161 0 0
770.9999999997202 0 0
771.9999999997242 0 0
772.9999999997284 0 0
773.9999999997324 0 0
774.9999999997365 0 0
775.9999999997405 0 0
776.9999999997445 0 0
777.9999999997485 0 0
778.9999999997526 0 0
779.9999999997567 0 0
780.9999999997607 0 0
781.9999999997648 0 0
782.9999999997688 0 0
783.999999999773 0 0
784.9999999997769 0 0
785.999999999781 0 0
786.9999999997851 0 0
787.9999999997891 0 0
788.9999999997932 0 0
789.9999999997972 0 0
790.9999999998013 0 0
791.9999999998053 0 0
792.9999999998095 0 0
793.9999999998134 0 0
794.9999999998175 0 0
795.9999999998216 0 0
796.9999999998256 0 0
797.9999999998297 0 0
798.9999999998337 0 0
799.9999999998378 0 0
800.9999999998419 0 0
801.999999999846 0 0
802.9999999998499 0 0
803.999999999854 0 0
804.999999999858 0 0
805.999999999862 0 0
806.9999999998662 0 0
807.9999999998703 0 0
808.9999999998743 0 0
809.9999999998784 0 0
810.9999999998823 0 0
811.9999999998864 0 0
812.9999999998905 0 0
813.9999999998945 0 0
814.9999999998987 0 0
815.9999999999027 0 0
816.9999999999068 0 0
817.9999999999108 0 0
818.9999999999148 0 0
819.9999999999188 0 0
820.9999999999229 0 0
821.999999999927 0 0
822.999999999931 0 0
823.9999999999352 0 0
824.9999999999392 0 0
825.9999999999433 0 0
826.9999999999472 0 0
827.9999999999513 0 0
828.9999999999554 0 0
829.9999999999594 0 0
830.9999999999635 0 0
831.9999999999675 0 0
832.9999999999716 0 0
833.9999999999756 0 0
834.9999999999798 0 0
835.9999999999837 0 0
836.9999999999878 0 0
837.9999999999919 0 0
838.9999999999959 0 0
1 8 0 29
1957
1958
1959
1960
1961
1962
1963
1964
1965
1966
1967
1968
1969
1970
1971
1972
1973
1974
1975
1976
1977
1978
1979
1980
1981
1982
1983
1984
1985
841 0 0
842 0 0
843 0 0
844 0 0
845 0 0
846 0 0
847 0 0
848 0 0
849 0 0
850 0 0
851 0 0
852 0 0
853 0 0
854 0 0
855 0 0
856 0 0
857 0 0
858 0 0
859 0 0
860 0 0
861 0 0
862 0 0
863 0 0
864 0 0
865 0 0
866 0 0
867 0 0
868 0 0
869 0 0
1 9 0 99
1986
1987
1988
1989
1990
1991
1992
1993
1994
1995
1996
1997
1998
1999
2000
2001
2002
2003
2004
2005
2006
2007
2008
2009
2010
2011
2012
2013
2014
2015
2016
2017
2018
2019
2020
2021
2022
2023
2024
2025
2026
2027
2028
2029
2030
2031
2032
2033
2034
2035
2036
2037
2038
2039
2040
2041
2042
2043
2044
2045
2046
2047
2048
2049
2050
2051
2052
2053
2054
2055
2056
2057
2058
2059
2060
2061
2062
2063
2064
2065
2066
2067
2068
2069
2070
2071
2072
2073
2074
2075
2076
2077
2078
2079
2080
2081
2082
2083
2084
871 0 0
872 0 0
873 0 0
874 0 0
875 0 0
876 0 0
877 0 0
878 0 0
879 0 0
880 0 0
881 0 0
882 0 0
883 0 0
884 0 0
885 0 0
886 0 0
887 0 0
888 0 0
889 0 0
890 0 0
891 0 0
892 0 0
893 0 0
894 0 0
895 0 0
896 0 0
897 0 0
898 0 0
899 0 0
900 0 0
901 0 0
902 0 0
903 0 0
904 0 0
905 0 0
906 0 0
907 0 0
908 0 0
909 0 0
910 0 0
911 0 0
912 0 0
913 0 0
914 0 0
915 0 0
916 0 0
917 0 0
918 0 0
919 0 0
920 0 0
921 0 0
922 0 0
923 0 0
924 0 0
925 0 0
926 0 0
927 0 0
928 0 0
929 0 0
930 0 0
931 0 0
932 0 0
933 0 0
934 0 0
935 0 0
936 0 0
937 0 0
938 0 0
939 0 0
940 0 0
941 0 0
942 0 0
943 0 0
944 0 0
945 0 0
946 0 0
947 0 0
948 0 0
949 0 0
950 0 0
951 0 0
952 0 0
953 0 0
954 0 0
955 0 0
956 0 0
957 0 0
958 0 0
959 0 0
960 0 0
961 0 0
962 0 0
963 0 0
964 0 0
965 0 0
966 0 0
967 0 0
968 0 0
969 0 0
1 10 0 99
2085
2086
2087
2088
2089
2090
2091
2092
2093
2094
2095
2096
2097
2098
2099
2100
2101
2102
2103
2104
2105
2106
2107
2108
2109
2110
2111
2112
2113
2114
2115
2116
2117
2118
2119
2120
2121
2122
2123
2124
2125
2126
2127
2128
2129
2130
2131
2132
2133
2134
2135
2136
2137
2138
2139
2140
2141
2142
2143
2144
2145
2146
2147
2148
2149
2150
2151
2152
2153
2154
2155
2156
2157
2158
2159
2160
2161
2162
2163
2164
2165
2166
2167
2168
2169
2170
2171
2172
2173
2174
2175
2176
2177
2178
2179
2180
2181
2182
2183
971 0 0
972 0 0
973 0 0
974 0 0
975 0 0
976 0 0
977 0 0
978 0 0
979 0 0
980 0 0
981 0 0
982 0 0
983 0 0
984 0 0
985 0 0
986 0 0
987 0 0
988 0 0
989 0 0
990 0 0
991 0 0
992 0 0
993 0 0
994 0 0
995 0 0
996 0 0
997 0 0
998 0 0
999 0 0
1000 0 0
1001 0 0
1002 0 0
1003 0 0
1004 0 0
1005 0 0
1006 0 0
1007 0 0
1008 0 0
1009 0 0
1010 0 0
1011 0 0
1012 0 0
1013 0 0
1014 0 0
1015 0 0
1016 0 0
1017 0 0
1018 0 0
1019 0 0
1020 0 0
1021 0 0
1022 0 0
1023 0 0
1024 0 0
1025 0 0
1026 0 0
1027 0 0
1028 0 0
1029 0 0
1030 0 0
1031 0 0
1032 0 0
1033 0 0
1034 0 0
1035 0 0
1036 0 0
1037 0 0
1038 0 0
1039 0 0
1040 0 0
1041 0 0
1042 0 0
1043 0 0
1044 0 0
1045 0 0
1046 0 0
1047 0 0
1048 0 0
1049 0 0
1050 0 0
1051 0 0
1052 0 0
1053 0 0
1054 0 0
1055 0 0
1056 0 0
1057 0 0
1058 0 0
1059 0 0
1060 0 0
1061 0 0
1062 0 0
1063 0 0
1064 0 0
1065 0 0
1066 0 0
1067 0 0
1068 0 0
1069 0 0
$EndNodes
$Elements
13 2185 1 2185
0 1 15 1
1 1 
0 6 15 1
2 6 
0 9 15 1
3 9 
1 1 1 100
4 1 12 
5 12 13 
6 13 14 
7 14 15 
8 15 16 
9 16 17 
10 17 18 
11 18 19 
12 19 20 
13 20 21 
14 21 22 
15 22 23 
16 23 24 
17 24 25 
18 25 26 
19 26 27 
20 27 28 
21 28 29 
22 29 30 
23 30 31 
24 31 32 
25 32 33 
26 33 34 
27 34 35 
28 35 36 
29 36 37 
30 37 38 
31 38 39 
32 39 40 
33 40 41 
34 41 42 
35 42 43 
36 43 44 
37 44 45 
38 45 46 
39 46 47 
40 47 48 
41 48 49 
42 49 50 
43 50 51 
44 51 52 
45 52 53 
46 53 54 
47 54 55 
48 55 56 
49 56 57 
50 57 58 
51 58 59 
52 59 60 
53 60 61 
54 61 62 
55 62 63 
56 63 64 
57 64 65 
58 65 66 
59 66 67 
60 67 68 
61 68 69 
62 69 70 
63 70 71 
64 71 72 
65 72 73 
66 73 74 
67 74 75 
68 75 76 
69 76 77 
70 77 78 
71 78 79 
72 79 80 
73 80 81 
74 81 82 
75 82 83 
76 83 84 
77 84 85 
78 85 86 
79 86 87 
80 87 88 
81 88 89 
82 89 90 
83 90 91 
84 91 92 
85 92 93 
86 93 94 
87 94 95 
88 95 96 
89 96 97 
90 97 98 
91 98 99 
92 99 100 
93 100 101 
94 101 102 
95 102 103 
96 103 104 
97 104 105 
98 105 106 
99 106 107 
100 107 108 
101 108 109 
102 109 110 
103 110 2 
1 2 1 90
104 2 111 
105 111 112 
106 112 113 
107 113 114 
108 114 115 
109 115 116 
110 116 117 
111 117 118 
112 118 119 
113 119 120 
114 120 121 
115 121 122 
116 122 123 
117 123 124 
118 124 125 
119 125 126 
120 126 127 
121 127 128 
122 128 129 
123 129 130 
124 130 131 
125 131 132 
126 132 133 
127 133 134 
128 134 135 
129 135 136 
130 136 137 
131 137 138 
132 138 139 
133 139 140 
134 140 141 
135 141 142 
136 142 143 
137 143 144 
138 144 145 
139 145 146 
140 146 147 
141 147 148 
142 148 149 
143 149 150 
144 150 151 
145 151 152 
146 152 153 
147 153 154 
148 154 155 
149 155 156 
150 156 157 
151 157 158 
152 158 159 
153 159 160 
154 160 161 
155 161 162 
156 162 163 
157 163 164 
158 164 165 
159 165 166 
160 166 167 
161 167 168 
162 168 169 
163 169 170 
164 170 171 
165 171 172 
166 172 173 
167 173 174 
168 174 175 
169 175 176 
170 176 177 
171 177 178 
172 178 179 
173 179 180 
174 180 181 
175 181 182 
176 182 183 
177 183 184 
178 184 185 
179 185 186 
180 186 187 
181 187 188 
182 188 189 
183 189 190 
184 190 191 
185 191 192 
186 192 193 
187 193 194 
188 194 195 
189 195 196 
190 196 197 
191 197 198 
192 198 199 
193 199 3 
1 3 1 461
194 3 200 
195 200 201 
196 201 202 
197 202 203 
198 203 204 
199 204 205 
200 205 206 
201 206 207 
202 207 208 
203 208 209 
204 209 210 
205 210 211 
206 211 212 
207 212 213 
208 213 214 
209 214 215 
210 215 216 
211 216 217 
212 217 218 
213 218 219 
214 219 220 
215 220 221 
216 221 222 
217 222 223 
218 223 224 
219 224 225 
220 225 226 
221 226 227 
222 227 228 
223 228 229 
224 229 230 
225 230 231 
226 231 232 
227 232 233 
228 233 234 
229 234 235 
230 235 236 
231 236 237 
232 237 238 
233 238 239 
234 239 240 
235 240 241 
236 241 242 
237 242 243 
238 243 244 
239 244 245 
240 245 246 
241 246 247 
242 247 248 
243 248 249 
244 249 250 
245 250 251 
246 251 252 
247 252 253 
248 253 254 
249 254 255 
250 255 256 
251 256 257 
252 257 258 
253 258 259 
254 259 260 
255 260 261 
256 261 262 
257 262 263 
258 263 264 
259 264 265 
260 265 266 
261 266 267 
262 267 268 
263 268 269 
264 269 270 
265 270 271 
266 271 272 
267 272 273 
268 273 274 
269 274 275 
270 275 276 
271 276 277 
272 277 278 
273 278 279 
274 279 280 
275 280 281 
276 281 282 
277 282 283 
278 283 284 
279 284 285 
280 285 286 
281 286 287 
282 287 288 
283 288 289 
284 289 290 
285 290 291 
286 291 292 
287 292 293 
288 293 294 
289 294 295 
290 295 296 
291 296 297 
292 297 298 
293 298 299 
294 299 300 
295 300 301 
296 301 302 
297 302 303 
298 303 304 
299 304 305 
300 305 306 
301 306 307 
302 307 308 
303 308 309 
304 309 310 
305 310 311 
306 311 312 
307 312 313 
308 313 314 
309 314 315 
310 315 316 
311 316 317 
312 317 318 
313 318 319 
314 319 320 
315 320 321 
316 321 322 
317 322 323 
318 323 324 
319 324 325 
320 325 326 
321 326 327 
322 327 328 
323 328 329 
324 329 330 
325 330 331 
326 331 332 
327 332 333 
328 333 334 
329 334 335 
330 335 336 
331 336 337 
332 337 338 
333 338 339 
334 339 340 
335 340 341 
336 341 342 
337 342 343 
338 343 344 
339 344 345 
340 345 346 
341 346 347 
342 347 348 
343 348 349 
344 349 350 
345 350 351 
346 351 352 
347 352 353 
348 353 354 
349 354 355 
350 355 356 
351 356 357 
352 357 358 
353 358 359 
354 359 360 
355 360 361 
356 361 362 
357 362 363 
358 363 364 
359 364 365 
360 365 366 
361 366 367 
362 367 368 
363 368 369 
364 369 370 
365 370 371 
366 371 372 
367 372 373 
368 373 374 
369 374 375 
370 375 376 
371 376 377 
372 377 378 
373 378 379 
374 379 380 
375 380 381 
376 381 382 
377 382 383 
378 383 384 
379 384 385 
380 385 386 
381 386 387 
382 387 388 
383 388 389 
384 389 390 
385 390 391 
386 391 392 
387 392 393 
388 393 394 
389 394 395 
390 395 396 
391 396 397 
392 397 398 
393 398 399 
394 399 400 
395 400 401 
396 401 402 
397 402 403 
398 403 404 
399 404 405 
400 405 406 
401 406 407 
402 407 408 
403 408 409 
404 409 410 
405 410 411 
406 411 412 
407 412 413 
408 413 414 
409 414 415 
410 415 416 
411 416 417 
412 417 418 
413 418 419 
414 419 420 
415 420 421 
416 421 422 
417 422 423 
418 423 424 
419 424 425 
420 425 426 
421 426 427 
422 427 428 
423 428 429 
424 429 430 
425 430 431 
426 431 432 
427 432 433 
428 433 434 
429 434 435 
430 435 436 
431 436 437 
432 437 438 
433 438 439 
434 439 440 
435 440 441 
436 441 442 
437 442 443 
438 443 444 
439 444 445 
440 445 446 
441 446 447 
442 447 448 
443 448 449 
444 449 450 
445 450 451 
446 451 452 
447 452 453 
448 453 454 
449 454 455 
450 455 456 
451 456 457 
452 457 458 
453 458 459 
454 459 460 
455 460 461 
456 461 462 
457 462 463 
458 463 464 
459 464 465 
460 465 466 
461 466 467 
462 467 468 
463 468 469 
464 469 470 
465 470 471 
466 471 472 
467 472 473 
468 473 474 
469 474 475 
470 475 476 
471 476 477 
472 477 478 
473 478 479 
474 479 480 
475 480 481 
476 481 482 
477 482 483 
478 483 484 
479 484 485 
480 485 486 
481 486 487 
482 487 488 
483 488 489 
484 489 490 
485 490 491 
486 491 492 
487 492 493 
488 493 494 
489 494 495 
490 495 496 
491 496 497 
492 497 498 
493 498 499 
494 499 500 
495 500 501 
496 501 502 
497 502 503 
498 503 504 
499 504 505 
500 505 506 
501 506 507 
502 507 508 
503 508 509 
504 509 510 
505 510 511 
506 511 512 
507 512 513 
508 513 514 
509 514 515 
510 515 516 
511 516 517 
512 517 518 
513 518 519 
514 519 520 
515 520 521 
516 521 522 
517 522 523 
518 523 524 
519 524 525 
520 525 526 
521 526 527 
522 527 528 
523 528 529 
524 529 530 
525 530 531 
526 531 532 
527 532 533 
528 533 534 
529 534 535 
530 535 536 
531 536 537 
532 537 538 
533 538 539 
534 539 540 
535 540 541 
536 541 542 
537 542 543 
538 543 544 
539 544 545 
540 545 546 
541 546 547 
542 547 548 
543 548 549 
544 549 550 
545 550 551 
546 551 552 
547 552 553 
548 553 554 
549 554 555 
550 555 556 
551 556 557 
552 557 558 
553 558 559 
554 559 560 
555 560 561 
556 561 562 
557 562 563 
558 563 564 
559 564 565 
560 565 566 
561 566 567 
562 567 568 
563 568 569 
564 569 570 
565 570 571 
566 571 572 
567 572 573 
568 573 574 
569 574 575 
570 575 576 
571 576 577 
572 577 578 
573 578 579 
574 579 580 
575 580 581 
576 581 582 
577 582 583 
578 583 584 
579 584 585 
580 585 586 
581 586 587 
582 587 588 
583 588 589 
584 589 590 
585 590 591 
586 591 592 
587 592 593 
588 593 594 
589 594 595 
590 595 596 
591 596 597 
592 597 598 
593 598 599 
594 599 600 
595 600 601 
596 601 602 
597 602 603 
598 603 604 
599 604 605 
600 605 606 
601 606 607 
602 607 608 
603 608 609 
604 609 610 
605 610 611 
606 611 612 
607 612 613 
608 613 614 
609 614 615 
610 615 616 
611 616 617 
612 617 618 
613 618 619 
614 619 620 
615 620 621 
616 621 622 
617 622 623 
618 623 624 
619 624 625 
620 625 626 
621 626 627 
622 627 628 
623 628 629 
624 629 630 
625 630 631 
626 631 632 
627 632 633 
628 633 634 
629 634 635 
630 635 636 
631 636 637 
632 637 638 
633 638 639 
634 639 640 
635 640 641 
636 641 642 
637 642 643 
638 643 644 
639 644 645 
640 645 646 
641 646 647 
642 647 648 
643 648 649 
644 649 650 
645 650 651 
646 651 652 
647 652 653 
648 653 654 
649 654 655 
650 655 656 
651 656 657 
652 657 658 
653 658 659 
654 659 4 
1 4 1 461
655 4 660 
656 660 661 
657 661 662 
658 662 663 
659 663 664 
660 664 665 
661 665 666 
662 666 667 
663 667 668 
664 668 669 
665 669 670 
666 670 671 
667 671 672 
668 672 673 
669 673 674 
670 674 675 
671 675 676 
672 676 677 
673 677 678 
674 678 679 
675 679 680 
676 680 681 
677 681 682 
678 682 683 
679 683 684 
680 684 685 
681 685 686 
682 686 687 
683 687 688 
684 688 689 
685 689 690 
686 690 691 
687 691 692 
688 692 693 
689 693 694 
690 694 695 
691 695 696 
692 696 697 
693 697 698 
694 698 699 
695 699 700 
696 700 701 
697 701 702 
698 702 703 
699 703 704 
700 704 705 
701 705 706 
702 706 707 
703 707 708 
704 708 709 
705 709 710 
706 710 711 
707 711 712 
708 712 713 
709 713 714 
710 714 715 
711 715 716 
712 716 717 
713 717 718 
714 718 719 
715 719 720 
716 720 721 
717 721 722 
718 722 723 
719 723 724 
720 724 725 
721 725 726 
722 726 727 
723 727 728 
724 728 729 
725 729 730 
726 730 731 
727 731 732 
728 732 733 
729 733 734 
730 734 735 
731 735 736 
732 736 737 
733 737 738 
734 738 739 
735 739 740 
736 740 741 
737 741 742 
738 742 743 
739 743 744 
740 744 745 
741 745 746 
742 746 747 
743 747 748 
744 748 749 
745 749 750 
746 750 751 
747 751 752 
748 752 753 
749 753 754 
750 754 755 
751 755 756 
752 756 757 
753 757 758 
754 758 759 
755 759 760 
756 760 761 
757 761 762 
758 762 763 
759 763 764 
760 764 765 
761 765 766 
762 766 767 
763 767 768 
764 768 769 
765 769 770 
766 770 771 
767 771 772 
768 772 773 
769 773 774 
770 774 775 
771 775 776 
772 776 777 
773 777 778 
774 778 779 
775 779 780 
776 780 781 
777 781 782 
778 782 783 
779 783 784 
780 784 785 
781 785 786 
782 786 787 
783 787 788 
784 788 789 
785 789 790 
786 790 791 
787 791 792 
788 792 793 
789 793 794 
790 794 795 
791 795 796 
792 796 797 
793 797 798 
794 798 799 
795 799 800 
796 800 801 
797 801 802 
798 802 803 
799 803 804 
800 804 805 
801 805 806 
802 806 807 
803 807 808 
804 808 809 
805 809 810 
806 810 811 
807 811 812 
808 812 813 
809 813 814 
810 814 815 
811 815 816 
812 816 817 
813 817 818 
814 818 819 
815 819 820 
816 820 821 
817 821 822 
818 822 823 
819 823 824 
820 824 825 
821 825 826 
822 826 827 
823 827 828 
824 828 829 
825 829 830 
826 830 831 
827 831 832 
828 832 833 
829 833 834 
830 834 835 
831 835 836 
832 836 837 
833 837 838 
834 838 839 
835 839 840 
836 840 841 
837 841 842 
838 842 843 
839 843 844 
840 844 845 
841 845 846 
842 846 847 
843 847 848 
844 848 849 
845 849 850 
846 850 851 
847 851 852 
848 852 853 
849 853 854 
850 854 855 
851 855 856 
852 856 857 
853 857 858 
854 858 859 
855 859 860 
856 860 861 
857 861 862 
858 862 863 
859 863 864 
860 864 865 
861 865 866 
862 866 867 
863 867 868 
864 868 869 
865 869 870 
866 870 871 
867 871 872 
868 872 873 
869 873 874 
870 874 875 
871 875 876 
872 876 877 
873 877 878 
874 878 879 
875 879 880 
876 880 881 
877 881 882 
878 882 883 
879 883 884 
880 884 885 
881 885 886 
882 886 887 
883 887 888 
884 888 889 
885 889 890 
886 890 891 
887 891 892 
888 892 893 
889 893 894 
890 894 895 
891 895 896 
892 896 897 
893 897 898 
894 898 899 
895 899 900 
896 900 901 
897 901 902 
898 902 903 
899 903 904 
900 904 905 
901 905 906 
902 906 907 
903 907 908 
904 908 909 
905 909 910 
906 910 911 
907 911 912 
908 912 913 
909 913 914 
910 914 915 
911 915 916 
912 916 917 
913 917 918 
914 918 919 
915 919 920 
916 920 921 
917 921 922 
918 922 923 
919 923 924 
920 924 925 
921 925 926 
922 926 927 
923 927 928 
924 928 929 
925 929 930 
926 930 931 
927 931 932 
928 932 933 
929 933 934 
930 934 935 
931 935 936 
932 936 937 
933 937 938 
934 938 939 
935 939 940 
936 940 941 
937 941 942 
938 942 943 
939 943 944 
940 944 945 
941 945 946 
942 946 947 
943 947 948 
944 948 949 
945 949 950 
946 950 951 
947 951 952 
948 952 953 
949 953 954 
950 954 955 
951 955 956 
952 956 957 
953 957 958 
954 958 959 
955 959 960 
956 960 961 
957 961 962 
958 962 963 
959 963 964 
960 964 965 
961 965 966 
962 966 967 
963 967 968 
964 968 969 
965 969 970 
966 970 971 
967 971 972 
968 972 973 
969 973 974 
970 974 975 
971 975 976 
972 976 977 
973 977 978 
974 978 979 
975 979 980 
976 980 981 
977 981 982 
978 982 983 
979 983 984 
980 984 985 
981 985 986 
982 986 987 
983 987 988 
984 988 989 
985 989 990 
986 990 991 
987 991 992 
988 992 993 
989 993 994 
990 994 995 
991 995 996 
992 996 997 
993 997 998 
994 998 999 
995 999 1000 
996 1000 1001 
997 1001 1002 
998 1002 1003 
999 1003 1004 
1000 1004 1005 
1001 1005 1006 
1002 1006 1007 
1003 1007 1008 
1004 1008 1009 
1005 1009 1010 
1006 1010 1011 
1007 1011 1012 
1008 1012 1013 
1009 1013 1014 
1010 1014 1015 
1011 1015 1016 
1012 1016 1017 
1013 1017 1018 
1014 1018 1019 
1015 1019 1020 
1016 1020 1021 
1017 1021 1022 
1018 1022 1023 
1019 1023 1024 
1020 1024 1025 
1021 1025 1026 
1022 1026 1027 
1023 1027 1028 
1024 1028 1029 
1025 1029 1030 
1026 1030 1031 
1027 1031 1032 
1028 1032 1033 
1029 1033 1034 
1030 1034 1035 
1031 1035 1036 
1032 1036 1037 
1033 1037 1038 
1034 1038 1039 
1035 1039 1040 
1036 1040 1041 
1037 1041 1042 
1038 1042 1043 
1039 1043 1044 
1040 1044 1045 
1041 1045 1046 
1042 1046 1047 
1043 1047 1048 
1044 1048 1049 
1045 1049 1050 
1046 1050 1051 
1047 1051 1052 
1048 1052 1053 
1049 1053 1054 
1050 1054 1055 
1051 1055 1056 
1052 1056 1057 
1053 1057 1058 
1054 1058 1059 
1055 1059 1060 
1056 1060 1061 
1057 1061 1062 
1058 1062 1063 
1059 1063 1064 
1060 1064 1065 
1061 1065 1066 
1062 1066 1067 
1063 1067 1068 
1064 1068 1069 
1065 1069 1070 
1066 1070 1071 
1067 1071 1072 
1068 1072 1073 
1069 1073 1074 
1070 1074 1075 
1071 1075 1076 
1072 1076 1077 
1073 1077 1078 
1074 1078 1079 
1075 1079 1080 
1076 1080 1081 
1077 1081 1082 
1078 1082 1083 
1079 1083 1084 
1080 1084 1085 
1081 1085 1086 
1082 1086 1087 
1083 1087 1088 
1084 1088 1089 
1085 1089 1090 
1086 1090 1091 
1087 1091 1092 
1088 1092 1093 
1089 1093 1094 
1090 1094 1095 
1091 1095 1096 
1092 1096 1097 
1093 1097 1098 
1094 1098 1099 
1095 1099 1100 
1096 1100 1101 
1097 1101 1102 
1098 1102 1103 
1099 1103 1104 
1100 1104 1105 
1101 1105 1106 
1102 1106 1107 
1103 1107 1108 
1104 1108 1109 
1105 1109 1110 
1106 1110 1111 
1107 1111 1112 
1108 1112 1113 
1109 1113 1114 
1110 1114 1115 
1111 1115 1116 
1112 1116 1117 
1113 1117 1118 
1114 1118 1119 
1115 1119 5 
1 5 1 130
1116 5 1120 
1117 1120 1121 
1118 1121 1122 
1119 1122 1123 
1120 1123 1124 
1121 1124 1125 
1122 1125 1126 
1123 1126 1127 
1124 1127 1128 
1125 1128 1129 
1126 1129 1130 
1127 1130 1131 
1128 1131 1132 
1129 1132 1133 
1130 1133 1134 
1131 1134 1135 
1132 1135 1136 
1133 1136 1137 
1134 1137 1138 
1135 1138 1139 
1136 1139 1140 
1137 1140 1141 
1138 1141 1142 
1139 1142 1143 
1140 1143 1144 
1141 1144 1145 
1142 1145 1146 
1143 1146 1147 
1144 1147 1148 
1145 1148 1149 
1146 1149 1150 
1147 1150 1151 
1148 1151 1152 
1149 1152 1153 
1150 1153 1154 
1151 1154 1155 
1152 1155 1156 
1153 1156 1157 
1154 1157 1158 
1155 1158 1159 
1156 1159 1160 
1157 1160 1161 
1158 1161 1162 
1159 1162 1163 
1160 1163 1164 
1161 1164 1165 
1162 1165 1166 
1163 1166 1167 
1164 1167 1168 
1165 1168 1169 
1166 1169 1170 
1167 1170 1171 
1168 1171 1172 
1169 1172 1173 
1170 1173 1174 
1171 1174 1175 
1172 1175 1176 
1173 1176 1177 
1174 1177 1178 
1175 1178 1179 
1176 1179 1180 
1177 1180 1181 
1178 1181 1182 
1179 1182 1183 
1180 1183 1184 
1181 1184 1185 
1182 1185 1186 
1183 1186 1187 
1184 1187 1188 
1185 1188 1189 
1186 1189 1190 
1187 1190 1191 
1188 1191 1192 
1189 1192 1193 
1190 1193 1194 
1191 1194 1195 
1192 1195 1196 
1193 1196 1197 
1194 1197 1198 
1195 1198 1199 
1196 1199 1200 
1197 1200 1201 
1198 1201 1202 
1199 1202 1203 
1200 1203 1204 
1201 1204 1205 
1202 1205 1206 
1203 1206 1207 
1204 1207 1208 
1205 1208 1209 
1206 1209 1210 
1207 1210 1211 
1208 1211 1212 
1209 1212 1213 
1210 1213 1214 
1211 1214 1215 
1212 1215 1216 
1213 1216 1217 
1214 1217 1218 
1215 1218 1219 
1216 1219 1220 
1217 1220 1221 
1218 1221 1222 
1219 1222 1223 
1220 1223 1224 
1221 1224 1225 
1222 1225 1226 
1223 1226 1227 
1224 1227 1228 
1225 1228 1229 
1226 1229 1230 
1227 1230 1231 
1228 1231 1232 
1229 1232 1233 
1230 1233 1234 
1231 1234 1235 
1232 1235 1236 
1233 1236 1237 
1234 1237 1238 
1235 1238 1239 
1236 1239 1240 
1237 1240 1241 
1238 1241 1242 
1239 1242 1243 
1240 1243 1244 
1241 1244 1245 
1242 1245 1246 
1243 1246 1247 
1244 1247 1248 
1245 1248 6 
1 6 1 10
1246 6 1249 
1247 1249 1250 
1248 1250 1251 
1249 1251 1252 
1250 1252 1253 
1251 1253 1254 
1252 1254 1255 
1253 1255 1256 
1254 1256 1257 
1255 1257 7 
1 7 1 700
1256 7 1258 
1257 1258 1259 
1258 1259 1260 
1259 1260 1261 
1260 1261 1262 
1261 1262 1263 
1262 1263 1264 
1263 1264 1265 
1264 1265 1266 
1265 1266 1267 
1266 1267 1268 
1267 1268 1269 
1268 1269 1270 
1269 1270 1271 
1270 1271 1272 
1271 1272 1273 
1272 1273 1274 
1273 1274 1275 
1274 1275 1276 
1275 1276 1277 
1276 1277 1278 
1277 1278 1279 
1278 1279 1280 
1279 1280 1281 
1280 1281 1282 
1281 1282 1283 
1282 1283 1284 
1283 1284 1285 
1284 1285 1286 
1285 1286 1287 
1286 1287 1288 
1287 1288 1289 
1288 1289 1290 
1289 1290 1291 
1290 1291 1292 
1291 1292 1293 
1292 1293 1294 
1293 1294 1295 
1294 1295 1296 
1295 1296 1297 
1296 1297 1298 
1297 1298 1299 
1298 1299 1300 
1299 1300 1301 
1300 1301 1302 
1301 1302 1303 
1302 1303 1304 
1303 1304 1305 
1304 1305 1306 
1305 1306 1307 
1306 1307 1308 
1307 1308 1309 
1308 1309 1310 
1309 1310 1311 
1310 1311 1312 
1311 1312 1313 
1312 1313 1314 
1313 1314 1315 
1314 1315 1316 
1315 1316 1317 
1316 1317 1318 
1317 1318 1319 
1318 1319 1320 
1319 1320 1321 
1320 1321 1322 
1321 1322 1323 
1322 1323 1324 
1323 1324 1325 
1324 1325 1326 
1325 1326 1327 
1326 1327 1328 
1327 1328 1329 
1328 1329 1330 
1329 1330 1331 
1330 1331 1332 
1331 1332 1333 
1332 1333 1334 
1333 1334 1335 
1334 1335 1336 
1335 1336 1337 
1336 1337 1338 
1337 1338 1339 
1338 1339 1340 
1339 1340 1341 
1340 1341 1342 
1341 1342 1343 
1342 1343 1344 
1343 1344 1345 
1344 1345 1346 
1345 1346 1347 
1346 1347 1348 
1347 1348 1349 
1348 1349 1350 
1349 1350 1351 
1350 1351 1352 
1351 1352 1353 
1352 1353 1354 
1353 1354 1355 
1354 1355 1356 
1355 1356 1357 
1356 1357 1358 
1357 1358 1359 
1358 1359 1360 
1359 1360 1361 
1360 1361 1362 
1361 1362 1363 
1362 1363 1364 
1363 1364 1365 
1364 1365 1366 
1365 1366 1367 
1366 1367 1368 
1367 1368 1369 
1368 1369 1370 
1369 1370 1371 
1370 1371 1372 
1371 1372 1373 
1372 1373 1374 
1373 1374 1375 
1374 1375 1376 
1375 1376 1377 
1376 1377 1378 
1377 1378 1379 
1378 1379 1380 
1379 1380 1381 
1380 1381 1382 
1381 1382 1383 
1382 1383 1384 
1383 1384 1385 
1384 1385 1386 
1385 1386 1387 
1386 1387 1388 
1387 1388 1389 
1388 1389 1390 
1389 1390 1391 
1390 1391 1392 
1391 1392 1393 
1392 1393 1394 
1393 1394 1395 
1394 1395 1396 
1395 1396 1397 
1396 1397 1398 
1397 1398 1399 
1398 1399 1400 
1399 1400 1401 
1400 1401 1402 
1401 1402 1403 
1402 1403 1404 
1403 1404 1405 
1404 1405 1406 
1405 1406 1407 
1406 1407 1408 
1407 1408 1409 
1408 1409 1410 
1409 1410 1411 
1410 1411 1412 
1411 1412 1413 
1412 1413 1414 
1413 1414 1415 
1414 1415 1416 
1415 1416 1417 
1416 1417 1418 
1417 1418 1419 
1418 1419 1420 
1419 1420 1421 
1420 1421 1422 
1421 1422 1423 
1422 1423 1424 
1423 1424 1425 
1424 1425 1426 
1425 1426 1427 
1426 1427 1428 
1427 1428 1429 
1428 1429 1430 
1429 1430 1431 
1430 1431 1432 
1431 1432 1433 
1432 1433 1434 
1433 1434 1435 
1434 1435 1436 
1435 1436 1437 
1436 1437 1438 
1437 1438 1439 
1438 1439 1440 
1439 1440 1441 
1440 1441 1442 
1441 1442 1443 
1442 1443 1444 
1443 1444 1445 
1444 1445 1446 
1445 1446 1447 
1446 1447 1448 
1447 1448 1449 
1448 1449 1450 
1449 1450 1451 
1450 1451 1452 
1451 1452 1453 
1452 1453 1454 
1453 1454 1455 
1454 1455 1456 
1455 1456 1457 
1456 1457 1458 
1457 1458 1459 
1458 1459 1460 
1459 1460 1461 
1460 1461 1462 
1461 1462 1463 
1462 1463 1464 
1463 1464 1465 
1464 1465 1466 
1465 1466 1467 
1466 1467 1468 
1467 1468 1469 
1468 1469 1470 
1469 1470 1471 
1470 1471 1472 
1471 1472 1473 
1472 1473 1474 
1473 1474 1475 
1474 1475 1476 
1475 1476 1477 
1476 1477 1478 
1477 1478 1479 
1478 1479 1480 
1479 1480 1481 
1480 1481 1482 
1481 1482 1483 
1482 1483 1484 
1483 1484 1485 
1484 1485 1486 
1485 1486 1487 
1486 1487 1488 
1487 1488 1489 
1488 1489 1490 
1489 1490 1491 
1490 1491 1492 
1491 1492 1493 
1492 1493 1494 
1493 1494 1495 
1494 1495 1496 
1495 1496 1497 
1496 1497 1498 
1497 1498 1499 
1498 1499 1500 
1499 1500 1501 
1500 1501 1502 
1501 1502 1503 
1502 1503 1504 
1503 1504 1505 
1504 1505 1506 
1505 1506 1507 
1506 1507 1508 
1507 1508 1509 
1508 1509 1510 
1509 1510 1511 
1510 1511 1512 
1511 1512 1513 
1512 1513 1514 
1513 1514 1515 
1514 1515 1516 
1515 1516 1517 
1516 1517 1518 
1517 1518 1519 
1518 1519 1520 
1519 1520 1521 
1520 1521 1522 
1521 1522 1523 
1522 1523 1524 
1523 1524 1525 
1524 1525 1526 
1525 1526 1527 
1526 1527 1528 
1527 1528 1529 
1528 1529 1530 
1529 1530 1531 
1530 1531 1532 
1531 1532 1533 
1532 1533 1534 
1533 1534 1535 
1534 1535 1536 
1535 1536 1537 
1536 1537 1538 
1537 1538 1539 
1538 1539 1540 
1539 1540 1541 
1540 1541 1542 
1541 1542 1543 
1542 1543 1544 
1543 1544 1545 
1544 1545 1546 
1545 1546 1547 
1546 1547 1548 
1547 1548 1549 
1548 1549 1550 
1549 1550 1551 
1550 1551 1552 
1551 1552 1553 
1552 1553 1554 
1553 1554 1555 
1554 1555 1556 
1555 1556 1557 
1556 1557 1558 
1557 1558 1559 
1558 1559 1560 
1559 1560 1561 
1560 1561 1562 
1561 1562 1563 
1562 1563 1564 
1563 1564 1565 
1564 1565 1566 
1565 1566 1567 
1566 1567 1568 
1567 1568 1569 
1568 1569 1570 
1569 1570 1571 
1570 1571 1572 
1571 1572 1573 
1572 1573 1574 
1573 1574 1575 
1574 1575 1576 
1575 1576 1577 
1576 1577 1578 
1577 1578 1579 
1578 1579 1580 
1579 1580 1581 
1580 1581 1582 
1581 1582 1583 
1582 1583 1584 
1583 1584 1585 
1584 1585 1586 
1585 1586 1587 
1586 1587 1588 
1587 1588 1589 
1588 1589 1590 
1589 1590 1591 
1590 1591 1592 
1591 1592 1593 
1592 1593 1594 
1593 1594 1595 
1594 1595 1596 
1595 1596 1597 
1596 1597 1598 
1597 1598 1599 
1598 1599 1600 
1599 1600 1601 
1600 1601 1602 
1601 1602 1603 
1602 1603 1604 
1603 1604 1605 
1604 1605 1606 
1605 1606 1607 
1606 1607 1608 
1607 1608 1609 
1608 1609 1610 
1609 1610 1611 
1610 1611 1612 
1611 1612 1613 
1612 1613 1614 
1613 1614 1615 
1614 1615 1616 
1615 1616 1617 
1616 1617 1618 
1617 1618 1619 
1618 1619 1620 
1619 1620 1621 
1620 1621 1622 
1621 1622 1623 
1622 1623 1624 
1623 1624 1625 
1624 1625 1626 
1625 1626 1627 
1626 1627 1628 
1627 1628 1629 
1628 1629 1630 
1629 1630 1631 
1630 1631 1632 
1631 1632 1633 
1632 1633 1634 
1633 1634 1635 
1634 1635 1636 
1635 1636 1637 
1636 1637 1638 
1637 1638 1639 
1638 1639 1640 
1639 1640 1641 
1640 1641 1642 
1641 1642 1643 
1642 1643 1644 
1643 1644 1645 
1644 1645 1646 
1645 1646 1647 
1646 1647 1648 
1647 1648 1649 
1648 1649 1650 
1649 1650 1651 
1650 1651 1652 
1651 1652 1653 
1652 1653 1654 
1653 1654 1655 
1654 1655 1656 
1655 1656 1657 
1656 1657 1658 
1657 1658 1659 
1658 1659 1660 
1659 1660 1661 
1660 1661 1662 
1661 1662 1663 
1662 1663 1664 
1663 1664 1665 
1664 1665 1666 
1665 1666 1667 
1666 1667 1668 
1667 1668 1669 
1668 1669 1670 
1669 1670 1671 
1670 1671 1672 
1671 1672 1673 
1672 1673 1674 
1673 1674 1675 
1674 1675 1676 
1675 1676 1677 
1676 1677 1678 
1677 1678 1679 
1678 1679 1680 
1679 1680 1681 
1680 1681 1682 
1681 1682 1683 
1682 1683 1684 
1683 1684 1685 
1684 1685 1686 
1685 1686 1687 
1686 1687 1688 
1687 1688 1689 
1688 1689 1690 
1689 1690 1691 
1690 1691 1692 
1691 1692 1693 
1692 1693 1694 
1693 1694 1695 
1694 1695 1696 
1695 1696 1697 
1696 1697 1698 
1697 1698 1699 
1698 1699 1700 
1699 1700 1701 
1700 1701 1702 
1701 1702 1703 
1702 1703 1704 
1703 1704 1705 
1704 1705 1706 
1705 1706 1707 
1706 1707 1708 
1707 1708 1709 
1708 1709 1710 
1709 1710 1711 
1710 1711 1712 
1711 1712 1713 
1712 1713 1714 
1713 1714 1715 
1714 1715 1716 
1715 1716 1717 
1716 1717 1718 
1717 1718 1719 
1718 1719 1720 
1719 1720 1721 
1720 1721 1722 
1721 1722 1723 
1722 1723 1724 
1723 1724 1725 
1724 1725 1726 
1725 1726 1727 
1726 1727 1728 
1727 1728 1729 
1728 1729 1730 
1729 1730 1731 
1730 1731 1732 
1731 1732 1733 
1732 1733 1734 
1733 1734 1735 
1734 1735 1736 
1735 1736 1737 
1736 1737 1738 
1737 1738 1739 
1738 1739 1740 
1739 1740 1741 
1740 1741 1742 
1741 1742 1743 
1742 1743 1744 
1743 1744 1745 
1744 1745 1746 
1745 1746 1747 
1746 1747 1748 
1747 1748 1749 
1748 1749 1750 
1749 1750 1751 
1750 1751 1752 
1751 1752 1753 
1752 1753 1754 
1753 1754 1755 
1754 1755 1756 
1755 1756 1757 
1756 1757 1758 
1757 1758 1759 
1758 1759 1760 
1759 1760 1761 
1760 1761 1762 
1761 1762 1763 
1762 1763 1764 
1763 1764 1765 
1764 1765 1766 
1765 1766 1767 
1766 1767 1768 
1767 1768 1769 
1768 1769 1770 
1769 1770 1771 
1770 1771 1772 
1771 1772 1773 
1772 1773 1774 
1773 1774 1775 
1774 1775 1776 
1775 1776 1777 
1776 1777 1778 
1777 1778 1779 
1778 1779 1780 
1779 1780 1781 
1780 1781 1782 
1781 1782 1783 
1782 1783 1784 
1783 1784 1785 
1784 1785 1786 
1785 1786 1787 
1786 1787 1788 
1787 1788 1789 
1788 1789 1790 
1789 1790 1791 
1790 1791 1792 
1791 1792 1793 
1792 1793 1794 
1793 1794 1795 
1794 1795 1796 
1795 1796 1797 
1796 1797 1798 
1797 1798 1799 
1798 1799 1800 
1799 1800 1801 
1800 1801 1802 
1801 1802 1803 
1802 1803 1804 
1803 1804 1805 
1804 1805 1806 
1805 1806 1807 
1806 1807 1808 
1807 1808 1809 
1808 1809 1810 
1809 1810 1811 
1810 1811 1812 
1811 1812 1813 
1812 1813 1814 
1813 1814 1815 
1814 1815 1816 
1815 1816 1817 
1816 1817 1818 
1817 1818 1819 
1818 1819 1820 
1819 1820 1821 
1820 1821 1822 
1821 1822 1823 
1822 1823 1824 
1823 1824 1825 
1824 1825 1826 
1825 1826 1827 
1826 1827 1828 
1827 1828 1829 
1828 1829 1830 
1829 1830 1831 
1830 1831 1832 
1831 1832 1833 
1832 1833 1834 
1833 1834 1835 
1834 1835 1836 
1835 1836 1837 
1836 1837 1838 
1837 1838 1839 
1838 1839 1840 
1839 1840 1841 
1840 1841 1842 
1841 1842 1843 
1842 1843 1844 
1843 1844 1845 
1844 1845 1846 
1845 1846 1847 
1846 1847 1848 
1847 1848 1849 
1848 1849 1850 
1849 1850 1851 
1850 1851 1852 
1851 1852 1853 
1852 1853 1854 
1853 1854 1855 
1854 1855 1856 
1855 1856 1857 
1856 1857 1858 
1857 1858 1859 
1858 1859 1860 
1859 1860 1861 
1860 1861 1862 
1861 1862 1863 
1862 1863 1864 
1863 1864 1865 
1864 1865 1866 
1865 1866 1867 
1866 1867 1868 
1867 1868 1869 
1868 1869 1870 
1869 1870 1871 
1870 1871 1872 
1871 1872 1873 
1872 1873 1874 
1873 1874 1875 
1874 1875 1876 
1875 1876 1877 
1876 1877 1878 
1877 1878 1879 
1878 1879 1880 
1879 1880 1881 
1880 1881 1882 
1881 1882 1883 
1882 1883 1884 
1883 1884 1885 
1884 1885 1886 
1885 1886 1887 
1886 1887 1888 
1887 1888 1889 
1888 1889 1890 
1889 1890 1891 
1890 1891 1892 
1891 1892 1893 
1892 1893 1894 
1893 1894 1895 
1894 1895 1896 
1895 1896 1897 
1896 1897 1898 
1897 1898 1899 
1898 1899 1900 
1899 1900 1901 
1900 1901 1902 
1901 1902 1903 
1902 1903 1904 
1903 1904 1905 
1904 1905 1906 
1905 1906 1907 
1906 1907 1908 
1907 1908 1909 
1908 1909 1910 
1909 1910 1911 
1910 1911 1912 
1911 1912 1913 
1912 1913 1914 
1913 1914 1915 
1914 1915 1916 
1915 1916 1917 
1916 1917 1918 
1917 1918 1919 
1918 1919 1920 
1919 1920 1921 
1920 1921 1922 
1921 1922 1923 
1922 1923 1924 
1923 1924 1925 
1924 1925 1926 
1925 1926 1927 
1926 1927 1928 
1927 1928 1929 
1928 1929 1930 
1929 1930 1931 
1930 1931 1932 
1931 1932 1933 
1932 1933 1934 
1933 1934 1935 
1934 1935 1936 
1935 1936 1937 
1936 1937 1938 
1937 1938 1939 
1938 1939 1940 
1939 1940 1941 
1940 1941 1942 
1941 1942 1943 
1942 1943 1944 
1943 1944 1945 
1944 1945 1946 
1945 1946 1947 
1946 1947 1948 
1947 1948 1949 
1948 1949 1950 
1949 1950 1951 
1950 1951 1952 
1951 1952 1953 
1952 1953 1954 
1953 1954 1955 
1954 1955 1956 
1955 1956 8 
1 8 1 30
1956 8 1957 
1957 1957 1958 
1958 1958 1959 
1959 1959 1960 
1960 1960 1961 
1961 1961 1962 
1962 1962 1963 
1963 1963 1964 
1964 1964 1965 
1965 1965 1966 
1966 1966 1967 
1967 1967 1968 
1968 1968 1969 
1969 1969 1970 
1970 1970 1971 
1971 1971 1972 
1972 1972 1973 
1973 1973 1974 
1974 1974 1975 
1975 1975 1976 
1976 1976 1977 
1977 1977 1978 
1978 1978 1979 
1979 1979 1980 
1980 1980 1981 
1981 1981 1982 
1982 1982 1983 
1983 1983 1984 
1984 1984 1985 
1985 1985 9 
1 9 1 100
1986 9 1986 
1987 1986 1987 
1988 1987 1988 
1989 1988 1989 
1990 1989 1990 
1991 1990 1991 
1992 1991 1992 
1993 1992 1993 
1994 1993 1994 
1995 1994 1995 
1996 1995 1996 
1997 1996 1997 
1998 1997 1998 
1999 1998 1999 
2000 1999 2000 
2001 2000 2001 
2002 2001 2002 
2003 2002 2003 
2004 2003 2004 
2005 2004 2005 
2006 2005 2006 
2007 2006 2007 
2008 2007 2008 
2009 2008 2009 
2010 2009 2010 
2011 2010 2011 
2012 2011 2012 
2013 2012 2013 
2014 2013 2014 
2015 2014 2015 
2016 2015 2016 
2017 2016 2017 
2018 2017 2018 
2019 2018 2019 
2020 2019 2020 
2021 2020 2021 
2022 2021 2022 
2023 2022 2023 
2024 2023 2024 
2025 2024 2025 
2026 2025 2026 
2027 2026 2027 
2028 2027 2028 
2029 2028 2029 
2030 2029 2030 
2031 2030 2031 
2032 2031 2032 
2033 2032 2033 
2034 2033 2034 
2035 2034 2035 
2036 2035 2036 
2037 2036 2037 
2038 2037 2038 
2039 2038 2039 
2040 2039 2040 
2041 2040 2041 
2042 2041 2042 
2043 2042 2043 
2044 2043 2044 
2045 2044 2045 
2046 2045 2046 
2047 2046 2047 
2048 2047 2048 
2049 2048 2049 
2050 2049 2050 
2051 2050 2051 
2052 2051 2052 
2053 2052 2053 
2054 2053 2054 
2055 2054 2055 
2056 2055 2056 
2057 2056 2057 
2058 2057 2058 
2059 2058 2059 
2060 2059 2060 
2061 2060 2061 
2062 2061 2062 
2063 2062 2063 
2064 2063 2064 
2065 2064 2065 
2066 2065 2066 
2067 2066 2067 
2068 2067 2068 
2069 2068 2069 
2070 2069 2070 
2071 2070 2071 
2072 2071 2072 
2073 2072 2073 
2074 2073 2074 
2075 2074 2075 
2076 2075 2076 
2077 2076 2077 
2078 2077 2078 
2079 2078 2079 
2080 2079 2080 
2081 2080 2081 
2082 2081 2082 
2083 2082 2083 
2084 2083 2084 
2085 2084 10 
1 10 1 100
2086 10 2085 
2087 2085 2086 
2088 2086 2087 
2089 2087 2088 
2090 2088 2089 
2091 2089 2090 
2092 2090 2091 
2093 2091 2092 
2094 2092 2093 
2095 2093 2094 
2096 2094 2095 
2097 2095 2096 
2098 2096 2097 
2099 2097 2098 
2100 2098 2099 
2101 2099 2100 
2102 2100 2101 
2103 2101 2102 
2104 2102 2103 
2105 2103 2104 
2106 2104 2105 
2107 2105 2106 
2108 2106 2107 
2109 2107 2108 
2110 2108 2109 
2111 2109 2110 
2112 2110 2111 
2113 2111 2112 
2114 2112 2113 
2115 2113 2114 
2116 2114 2115 
2117 2115 2116 
2118 2116 2117 
2119 2117 2118 
2120 2118 2119 
2121 2119 2120 
2122 2120 2121 
2123 2121 2122 
2124 2122 2123 
2125 2123 2124 
2126 2124 2125 
2127 2125 2126 
2128 2126 2127 
2129 2127 2128 
2130 2128 2129 
2131 2129 2130 
2132 2130 2131 
2133 2131 2132 
2134 2132 2133 
2135 2133 2134 
2136 2134 2135 
2137 2135 2136 
2138 2136 2137 
2139 2137 2138 
2140 2138 2139 
2141 2139 2140 
2142 2140 2141 
2143 2141 2142 
2144 2142 2143 
2145 2143 2144 
2146 2144 2145 
2147 2145 2146 
2148 2146 2147 
2149 2147 2148 
2150 2148 2149 
2151 2149 2150 
2152 2150 2151 
2153 2151 2152 
2154 2152 2153 
2155 2153 2154 
2156 2154 2155 
2157 2155 2156 
2158 2156 2157 
2159 2157 2158 
2160 2158 2159 
2161 2159 2160 
2162 2160 2161 
2163 2161 2162 
2164 2162 2163 
2165 2163 2164 
2166 2164 2165 
2167 2165 2166 
2168 2166 2167 
2169 2167 2168 
2170 2168 2169 
2171 2169 2170 
2172 2170 2171 
2173 2171 2172 
2174 2172 2173 
2175 2173 2174 
2176 2174 2175 
2177 2175 2176 
2178 2176 2177 
2179 2177 2178 
2180 2178 2179 
2181 2179 2180 
2182 2180 2181 
2183 2181 2182 
2184 2182 2183 
2185 2183 11 
$EndElements
