$MeshFormat
4.1 0 8
$EndMeshFormat
$PhysicalNames
3
0 3 "point1"
1 1 "AIR"
1 2 "Glass"
$EndPhysicalNames
$Entities
5 4 0 0
1 0 0 0 1 3 
2 20 0 0 0 
3 1000020 0 0 0 
4 2000020 0 0 0 
5 2000040 0 0 0 
1 0 0 0 20 0 0 1 1 2 1 -2 
2 20 0 0 1000020 0 0 1 2 2 2 -3 
3 1000020 0 0 2000020 0 0 1 2 2 3 -4 
4 2000020 0 0 2000040 0 0 1 1 2 4 -5 
$EndEntities
$Nodes
9 1885 1 1885
0 1 0 1
1
0 0 0
0 2 0 1
2
20 0 0
0 3 0 1
3
1000020 0 0
0 4 0 1
4
2000020 0 0
0 5 0 1
5
2000040 0 0
1 1 0 19
6
7
8
9
10
11
12
13
14
15
16
17
18
19
20
21
22
23
24
0.9999999999991025 0 0
1.999999999998379 0 0
2.99999999999657 0 0
3.999999999993654 0 0
4.999999999990736 0 0
5.99999999998782 0 0
6.999999999984902 0 0
7.999999999982053 0 0
8.999999999983299 0 0
9.999999999984821 0 0
10.99999999998634 0 0
11.99999999998786 0 0
12.99999999998939 0 0
13.99999999999091 0 0
14.99999999999243 0 0
15.99999999999396 0 0
16.99999999999547 0 0
17.99999999999698 0 0
18.99999999999849 0 0
1 2 0 921
25
26
27
28
29
30
31
32
33
34
35
36
37
38
39
40
41
42
43
44
45
46
47
48
49
50
51
52
53
54
55
56
57
58
59
60
61
62
63
64
65
66
67
68
69
70
71
72
73
74
75
76
77
78
79
80
81
82
83
84
85
86
87
88
89
90
91
92
93
94
95
96
97
98
99
100
101
102
103
104
105
106
107
108
109
110
111
112
113
114
115
116
117
118
119
120
121
122
123
124
125
126
127
128
129
130
131
132
133
134
135
136
137
138
139
140
141
142
143
144
145
146
147
148
149
150
151
152
153
154
155
156
157
158
159
160
161
162
163
164
165
166
167
168
169
170
171
172
173
174
175
176
177
178
179
180
181
182
183
184
185
186
187
188
189
190
191
192
193
194
195
196
197
198
199
200
201
202
203
204
205
206
207
208
209
210
211
212
213
214
215
216
217
218
219
220
221
222
223
224
225
226
227
228
229
230
231
232
233
234
235
236
237
238
239
240
241
242
243
244
245
246
247
248
249
250
251
252
253
254
255
256
257
258
259
260
261
262
263
264
265
266
267
268
269
270
271
272
273
274
275
276
277
278
279
280
281
282
283
284
285
286
287
288
289
290
291
292
293
294
295
296
297
298
299
300
301
302
303
304
305
306
307
308
309
310
311
312
313
314
315
316
317
318
319
320
321
322
323
324
325
326
327
328
329
330
331
332
333
334
335
336
337
338
339
340
341
342
343
344
345
346
347
348
349
350
351
352
353
354
355
356
357
358
359
360
361
362
363
364
365
366
367
368
369
370
371
372
373
374
375
376
377
378
379
380
381
382
383
384
385
386
387
388
389
390
391
392
393
394
395
396
397
398
399
400
401
402
403
404
405
406
407
408
409
410
411
412
413
414
415
416
417
418
419
420
421
422
423
424
425
426
427
428
429
430
431
432
433
434
435
436
437
438
439
440
441
442
443
444
445
446
447
448
449
450
451
452
453
454
455
456
457
458
459
460
461
462
463
464
465
466
467
468
469
470
471
472
473
474
475
476
477
478
479
480
481
482
483
484
485
486
487
488
489
490
491
492
493
494
495
496
497
498
499
500
501
502
503
504
505
506
507
508
509
510
511
512
513
514
515
516
517
518
519
520
521
522
523
524
525
526
527
528
529
530
531
532
533
534
535
536
537
538
539
540
541
542
543
544
545
546
547
548
549
550
551
552
553
554
555
556
557
558
559
560
561
562
563
564
565
566
567
568
569
570
571
572
573
574
575
576
577
578
579
580
581
582
583
584
585
586
587
588
589
590
591
592
593
594
595
596
597
598
599
600
601
602
603
604
605
606
607
608
609
610
611
612
613
614
615
616
617
618
619
620
621
622
623
624
625
626
627
628
629
630
631
632
633
634
635
636
637
638
639
640
641
642
643
644
645
646
647
648
649
650
651
652
653
654
655
656
657
658
659
660
661
662
663
664
665
666
667
668
669
670
671
672
673
674
675
676
677
678
679
680
681
682
683
684
685
686
687
688
689
690
691
692
693
694
695
696
697
698
699
700
701
702
703
704
705
706
707
708
709
710
711
712
713
714
715
716
717
718
719
720
721
722
723
724
725
726
727
728
729
730
731
732
733
734
735
736
737
738
739
740
741
742
743
744
745
746
747
748
749
750
751
752
753
754
755
756
757
758
759
760
761
762
763
764
765
766
767
768
769
770
771
772
773
774
775
776
777
778
779
780
781
782
783
784
785
786
787
788
789
790
791
792
793
794
795
796
797
798
799
800
801
802
803
804
805
806
807
808
809
810
811
812
813
814
815
816
817
818
819
820
821
822
823
824
825
826
827
828
829
830
831
832
833
834
835
836
837
838
839
840
841
842
843
844
845
846
847
848
849
850
851
852
853
854
855
856
857
858
859
860
861
862
863
864
865
866
867
868
869
870
871
872
873
874
875
876
877
878
879
880
881
882
883
884
885
886
887
888
889
890
891
892
893
894
895
896
897
898
899
900
901
902
903
904
905
906
907
908
909
910
911
912
913
914
915
916
917
918
919
920
921
922
923
924
925
926
927
928
929
930
931
932
933
934
935
936
937
938
939
940
941
942
943
944
945
21.00405916824541 0 0
22.01819842080398 0 0
23.04251909291013 0 0
24.07712372413401 0 0
25.12211521120902 0 0
26.17759808221253 0 0
27.24367735957702 0 0
28.32045991809339 0 0
29.40805278430334 0 0
30.50656447963199 0 0
31.6161051058458 0 0
32.73678482540546 0 0
33.868715782817 0 0
35.01201088064893 0 0
36.16678396877616 0 0
37.33315077800013 0 0
38.51122735531126 0 0
39.70113121955882 0 0
40.90298137260952 0 0
42.11689754607609 0 0
43.34300098722397 0 0
44.58141392177039 0 0
45.83226003378465 0 0
47.0956640987316 0 0
48.37175203351365 0 0
49.66065177193143 0 0
50.9624912057536 0 0
52.27740065073646 0 0
53.60551134024549 0 0
54.94695564686823 0 0
56.30186745356865 0 0
57.67038194318766 0 0
59.05263659879667 0 0
60.4487675705091 0 0
61.85891551486719 0 0
63.28322047765089 0 0
64.72182497398163 0 0
66.1748724185025 0 0
67.64250787477005 0 0
69.12487775422252 0 0
70.62213006485769 0 0
72.13441408784075 0 0
73.66188091081372 0 0
75.2046827887802 0 0
76.76297377871656 0 0
78.33690943146289 0 0
79.92664643218612 0 0
81.53234415467918 0 0
83.15416190975485 0 0
84.79226231213114 0 0
86.44680912134862 0 0
88.11796635657859 0 0
89.80590132573812 0 0
91.510782609679 0 0
93.23277996685556 0 0
94.97206564946826 0 0
96.72881300461042 0 0
98.50319702277503 0 0
100.2953956485714 0 0
102.1055865373791 0 0
103.9339520005943 0 0
105.7806729189175 0 0
107.6459338544808 0 0
109.5299216287622 0 0
111.4328235912604 0 0
113.354830624636 0 0
115.2961332577432 0 0
117.2569257924319 0 0
119.2374036082177 0 0
121.2377646416725 0 0
123.2582090306046 0 0
125.2989375205806 0 0
127.3601541792158 0 0
129.4420643769493 0 0
131.5448760826016 0 0
133.6687991279927 0 0
135.8140455787107 0 0
137.9808296537606 0 0
140.1693671221312 0 0
142.3798767420398 0 0
144.612578771145 0 0
146.8676958901413 0 0
149.1454542364885 0 0
151.4460799069971 0 0
153.7698029143287 0 0
156.1168550779496 0 0
158.487470526983 0 0
160.8818862673174 0 0
163.3003409661493 0 0
165.7430758077093 0 0
168.2103345009997 0 0
170.7023638342488 0 0
173.219411862096 0 0
175.7617302494419 0 0
178.3295722454558 0 0
180.923194337825 0 0
183.5428553820409 0 0
186.188816674967 0 0
188.8613420241593 0 0
191.5606990499674 0 0
194.2871559552609 0 0
197.0409866507644 0 0
199.8224628239186 0 0
202.6318644800931 0 0
205.4694725793438 0 0
208.3355677770696 0 0
211.2304377601957 0 0
214.1543709795257 0 0
217.1076582257305 0 0
220.0905959750466 0 0
223.1034826797259 0 0
226.1466162107691 0 0
229.2203008219549 0 0
232.3248450247187 0 0
235.4605570779507 0 0
238.6277499429118 0 0
241.8267418195388 0 0
245.0578485857626 0 0
248.321395471347 0 0
251.6177056052175 0 0
254.9471106446174 0 0
258.3099408279087 0 0
261.7065325809948 0 0
265.1372250936361 0 0
268.6023595961578 0 0
272.1022836260108 0 0
275.6373441147773 0 0
279.2078961814876 0 0
282.8142949764524 0 0
286.4569004896147 0 0
290.1360754730671 0 0
293.8521891119577 0 0
297.6056103240329 0 0
301.3967134211585 0 0
305.2258792837569 0 0
309.0934873739091 0 0
312.999925143657 0 0
316.9455811291572 0 0
320.9308508726967 0 0
324.9561308305277 0 0
329.0218228730733 0 0
333.1283326046702 0 0
337.2760690148579 0 0
341.4654488362368 0 0
345.696887422942 0 0
349.9708071016621 0 0
354.2876369468117 0 0
358.64780500455 0 0
363.0517473396683 0 0
367.4999027307568 0 0
371.99271714205 0 0
376.5306368234998 0 0
381.1141153939155 0 0
385.7436097135187 0 0
390.4195830785782 0 0
395.1425004710067 0 0
399.9128343190439 0 0
404.731060787195 0 0
409.597659988168 0 0
414.5131173926183 0 0
419.4779241834799 0 0
424.492575963762 0 0
429.5575724355975 0 0
434.6734190020364 0 0
439.8406273840077 0 0
445.0597120781767 0 0
450.3311939881065 0 0
455.6555991672029 0 0
461.0334599546281 0 0
466.4653118842977 0 0
471.9516972580968 0 0
477.4931653415633 0 0
483.0902659641474 0 0
488.7435573763902 0 0
494.4536059369082 0 0
500.2209849809925 0 0
506.0462626353182 0 0
511.9300248633375 0 0
517.872857130985 0 0
523.875351714708 0 0
529.938110809061 0 0
536.0617345663145 0 0
542.246839483873 0 0
548.4940416170281 0 0
554.8039610162622 0 0
561.1772297899166 0 0
567.6144834586158 0 0
574.1163644229637 0 0
580.6835220010329 0 0
587.3166083439414 0 0
594.0162922066924 0 0
600.783235164641 0 0
607.6181185230299 0 0
614.5216189961598 0 0
621.4944286594971 0 0
628.5372415971191 0 0
635.6507626043232 0 0
642.8356991643766 0 0
650.0927703809481 0 0
657.4226976556134 0 0
664.8262166369881 0 0
672.3040623358341 0 0
679.8569845550429 0 0
687.4857337056469 0 0
695.1910712498785 0 0
702.9737690427772 0 0
710.8346008023678 0 0
718.7743530245943 0 0
726.7938148980454 0 0
734.8937905737531 0 0
743.0750882575541 0 0
751.3385195816493 0 0
759.6849136290314 0 0
768.1151034672349 0 0
776.6299261876616 0 0
785.2302364157064 0 0
793.9168885841726 0 0
802.6907530009795 0 0
811.5527007283766 0 0
820.5036208695475 0 0
829.5444035343429 0 0
838.6759538692828 0 0
847.8991782587375 0 0
857.2150012986273 0 0
866.6243509248241 0 0
876.1281684889403 0 0
885.7273988233793 0 0
895.4230019665495 0 0
905.2159441847007 0 0
915.1072039006388 0 0
925.0977679699533 0 0
935.188632045326 0 0
945.3808056774658 0 0
955.6753023983294 0 0
966.073154218941 0 0
976.5753952815422 0 0
987.1830741590859 0 0
997.8972493777302 0 0
1008.718989991914 0 0
1019.649378572487 0 0
1030.689504026733 0 0
1041.84046509806 0 0
1053.103379287388 0 0
1064.479367071899 0 0
1075.969563740646 0 0
1087.57512223903 0 0
1099.297189692138 0 0
1111.136948172211 0 0
1123.095568060913 0 0
1135.174249367661 0 0
1147.37419511095 0 0
1159.696621403292 0 0
1172.142762854525 0 0
1184.713854409605 0 0
1197.411159378023 0 0
1210.235935906909 0 0
1223.189471380414 0 0
1236.273053059702 0 0
1249.487986153304 0 0
1262.835594396296 0 0
1276.317208819303 0 0
1289.934171369564 0 0
1303.687840113007 0 0
1317.579594224653 0 0
1331.610812902005 0 0
1345.782899723297 0 0
1360.097268303437 0 0
1374.55534895207 0 0
1389.158580951858 0 0
1403.908424274725 0 0
1418.806345013689 0 0
1433.853840961766 0 0
1449.052405497649 0 0
1464.403559167043 0 0
1479.908830616445 0 0
1495.56976470055 0 0
1511.387935491165 0 0
1527.364910381736 0 0
1543.502283974325 0 0
1559.801677213297 0 0
1576.264706048107 0 0
1592.893015153094 0 0
1609.688268475816 0 0
1626.65213678842 0 0
1643.786317366028 0 0
1661.092516302617 0 0
1678.572464055241 0 0
1696.227902039184 0 0
1714.060593484873 0 0
1732.072314647151 0 0
1750.264871389405 0 0
1768.640072011549 0 0
1787.199750383493 0 0
1805.94576168825 0 0
1824.879975031748 0 0
1844.004281012699 0 0
1863.320585980834 0 0
1882.830817934712 0 0
1902.536923229266 0 0
1922.440874209013 0 0
1942.544649312056 0 0
1962.850257178861 0 0
1983.359726189121 0 0
2004.075103174394 0 0
2024.998454040015 0 0
2046.131864351839 0 0
2067.477446695941 0 0
2089.037328873495 0 0
2110.813665375839 0 0
2132.808624956508 0 0
2155.02441594113 0 0
2177.46323367985 0 0
2200.127318154208 0 0
2223.018950828142 0 0
2246.140414755094 0 0
2269.49399942999 0 0
2293.082032446678 0 0
2316.906893254926 0 0
2340.970953947052 0 0
2365.276597589699 0 0
2389.826253627075 0 0
2414.622384518456 0 0
2439.667464722244 0 0
2464.963980905093 0 0
2490.514454204919 0 0
2516.321457150392 0 0
2542.387547549051 0 0
2568.715326282127 0 0
2595.307434092768 0 0
2622.166509374086 0 0
2649.29523638297 0 0
2676.696337366572 0 0
2704.372524758482 0 0
2732.326565060447 0 0
2760.561260968218 0 0
2789.07941406053 0 0
2817.883884765862 0 0
2846.977536527389 0 0
2876.363274137769 0 0
2906.044037652824 0 0
2936.022779972696 0 0
2966.302493849259 0 0
2996.886202823891 0 0
3027.776969822286 0 0
3058.977860495192 0 0
3090.49199757639 0 0
3122.322515970397 0 0
3154.472612878606 0 0
3186.945475829039 0 0
3219.744352342226 0 0
3252.872513765156 0 0
3286.333266295916 0 0
3320.129959371223 0 0
3354.265958148153 0 0
3388.744661175825 0 0
3423.569517847766 0 0
3458.744005047866 0 0
3494.271621085028 0 0
3530.155930101282 0 0
3566.400497937617 0 0
3603.008942281054 0 0
3639.984927879353 0 0
3677.332126930296 0 0
3715.054284658531 0 0
3753.155152985463 0 0
3791.638546518963 0 0
3830.508290037844 0 0
3869.76827315216 0 0
3909.422406709014 0 0
3949.474652577383 0 0
3989.929007450838 0 0
4030.789504231457 0 0
4072.060225046466 0 0
4113.745286984098 0 0
4155.848852090367 0 0
4198.375116221799 0 0
4241.328326406212 0 0
4284.71277018845 0 0
4328.532776620785 0 0
4372.792728983311 0 0
4417.497011837842 0 0
4462.650130601414 0 0
4508.256547905298 0 0
4554.320843714567 0 0
4600.847600556472 0 0
4647.841467589577 0 0
4695.30713510436 0 0
4743.249334366055 0 0
4791.672859134876 0 0
4840.582527350741 0 0
4889.983239347634 0 0
4939.879896451675 0 0
4990.277515647471 0 0
5041.181086950049 0 0
5092.595713073262 0 0
5144.526549269111 0 0
5196.978727684993 0 0
5249.957483721302 0 0
5303.468153517826 0 0
5357.516045072861 0 0
5412.106538818851 0 0
5467.245117463392 0 0
5522.937261449177 0 0
5579.188525867832 0 0
5636.004528544831 0 0
5693.39093133481 0 0
5751.35349366006 0 0
5809.897958624329 0 0
5869.030190422871 0 0
5928.756088249358 0 0
5989.081595756874 0 0
6050.012759314115 0 0
6111.555657182464 0 0
6173.716405412516 0 0
6236.501224431751 0 0
6299.916359944438 0 0
6363.968179135638 0 0
6428.663039824884 0 0
6494.007431512031 0 0
6560.007835585429 0 0
6626.670860942965 0 0
6694.003147990575 0 0
6762.011434805295 0 0
6830.702490400328 0 0
6900.083173019941 0 0
6970.160409828694 0 0
7040.941184312708 0 0
7112.432581417983 0 0
7184.641731401731 0 0
7257.57581412592 0 0
7331.242137634457 0 0
7405.648033680633 0 0
7480.800929439929 0 0
7556.708332553184 0 0
7633.377816118598 0 0
7710.817033438132 0 0
7789.033703883199 0 0
7868.035634185907 0 0
7947.83070664501 0 0
8028.426906421737 0 0
8109.832243101204 0 0
8192.054853085907 0 0
8275.102955593466 0 0
8358.984820627456 0 0
8443.708828656694 0 0
8529.283436173791 0 0
8615.717167532513 0 0
8703.018657891011 0 0
8791.196660414198 0 0
8880.259890296473 0 0
8970.217286468785 0 0
9061.077784093637 0 0
9152.850525675294 0 0
9245.544602906306 0 0
9339.169287640214 0 0
9433.73397359258 0 0
9529.248012604232 0 0
9625.720954530734 0 0
9723.162474441038 0 0
9821.582245705975 0 0
9920.990104598288 0 0
10021.39603278496 0 0
10122.80994456603 0 0
10225.24203614184 0 0
10328.70248001699 0 0
10433.2016421688 0 0
10538.7499018972 0 0
10645.35785515692 0 0
10753.03609231147 0 0
10861.79538103354 0 0
10971.64656191892 0 0
11082.60058451937 0 0
11194.66859137456 0 0
11307.86166782606 0 0
11422.19116528567 0 0
11537.66852514076 0 0
11654.30518863131 0 0
11772.11285092701 0 0
11891.10322367492 0 0
12011.28823108583 0 0
12132.67986979118 0 0
12255.29019286928 0 0
12379.13149341549 0 0
12504.21610746371 0 0
12630.55651870097 0 0
12758.16533177336 0 0
12887.05525477636 0 0
13017.23923220951 0 0
13148.73017508375 0 0
13281.54122765306 0 0
13415.68566287382 0 0
13551.17684942993 0 0
13688.02828699369 0 0
13826.25370837382 0 0
13965.86682212352 0 0
14106.88159834757 0 0
14249.31209576975 0 0
14393.1725462465 0 0
14538.47728035116 0 0
14685.24083071543 0 0
14833.4778333025 0 0
14983.20303523181 0 0
15134.43146600458 0 0
15287.17814728339 0 0
15441.45833481237 0 0
15597.28741373906 0 0
15754.68100135034 0 0
15913.65471361038 0 0
16074.22446026607 0 0
16236.40627388251 0 0
16400.21632080383 0 0
16565.6709724109 0 0
16732.7867021538 0 0
16901.58019749548 0 0
17072.06831649968 0 0
17244.26807489834 0 0
17418.19663470742 0 0
17593.87136328333 0 0
17771.30987690037 0 0
17950.52971642659 0 0
18131.5488116505 0 0
18314.38531978647 0 0
18499.05739917041 0 0
18685.58349413753 0 0
18873.98233465658 0 0
19064.27254104547 0 0
19256.47318141902 0 0
19450.60346050041 0 0
19646.68263172889 0 0
19844.73045550433 0 0
20044.76664286003 0 0
20246.81104338723 0 0
20450.88385959158 0 0
20657.00550461041 0 0
20865.19657956246 0 0
21075.47775948167 0 0
21287.87005497885 0 0
21502.394724012 0 0
21719.0730936426 0 0
21937.9268483102 0 0
22158.97780010491 0 0
22382.247965992 0 0
22607.75973722921 0 0
22835.53548385419 0 0
23065.59809876328 0 0
23297.97038328797 0 0
23532.67562243815 0 0
23769.7371615774 0 0
24009.17875820808 0 0
24251.0241502031 0 0
24495.29764584235 0 0
24742.0235794478 0 0
24991.22645346706 0 0
25242.93125889417 0 0
25497.1631310519 0 0
25753.94727364122 0 0
26013.30948709198 0 0
26275.2756457977 0 0
26539.87172153697 0 0
26807.12430168092 0 0
27077.05998675213 0 0
27349.70572248589 0 0
27625.08869349084 0 0
27903.23638494073 0 0
28184.17651927046 0 0
28467.93726967969 0 0
28754.54681119115 0 0
29044.03379697815 0 0
29336.42707556931 0 0
29631.75593050303 0 0
29930.04971655833 0 0
30231.33826434833 0 0
30535.65163361979 0 0
30843.0201274859 0 0
31153.4745605402 0 0
31467.0457788337 0 0
31783.76512517048 0 0
32103.66421137573 0 0
32426.77492996372 0 0
32753.12955670196 0 0
33082.7606525891 0 0
33415.70112713298 0 0
33751.98416261779 0 0
34091.64334167807 0 0
34434.71256470494 0 0
34781.22605824481 0 0
35131.2183828945 0 0
35484.72467205446 0 0
35841.77979012453 0 0
36202.41970641884 0 0
36566.68018819943 0 0
36934.59779606685 0 0
37306.20901322964 0 0
37681.55120236741 0 0
38060.66147013522 0 0
38443.57807974475 0 0
38830.33880823238 0 0
39220.9826209047 0 0
39615.54826530677 0 0
40014.07517917788 0 0
40416.60317234458 0 0
40823.17236973601 0 0
41233.82326798746 0 0
41648.59715134971 0 0
42067.53502245129 0 0
42490.67889027161 0 0
42918.07093187894 0 0
43349.75383324976 0 0
43785.7706579913 0 0
44226.1648267311 0 0
44670.98049603336 0 0
45120.26185757026 0 0
45574.05375271408 0 0
46032.40156722694 0 0
46495.35115402463 0 0
46962.9483558348 0 0
47435.24017701785 0 0
47912.27361138712 0 0
48394.09623665924 0 0
48880.75611532768 0 0
49372.30189193853 0 0
49868.78255848873 0 0
50370.24775155146 0 0
50876.74731180997 0 0
51388.33198263642 0 0
51905.05287356809 0 0
52426.9612523724 0 0
52954.10949228791 0 0
53486.5499799594 0 0
54024.33613013702 0 0
54567.52129980028 0 0
55116.15984499935 0 0
55670.30643742296 0 0
56230.01652412733 0 0
56795.34581033609 0 0
57366.35079192535 0 0
57943.08833146207 0 0
58525.61624064451 0 0
59113.99240570907 0 0
59708.27562584562 0 0
60308.52513881541 0 0
60914.80102931016 0 0
61527.16356091344 0 0
62145.67399193842 0 0
62770.39407852533 0 0
63401.38610047299 0 0
64038.71288574634 0 0
64682.43834139937 0 0
65332.62643799881 0 0
65989.34214931086 0 0
66652.65103788176 0 0
67322.6192749615 0 0
67999.31365930113 0 0
68682.80182891889 0 0
69373.15193071809 0 0
70070.43287043045 0 0
70774.71414313599 0 0
71486.06652751492 0 0
72204.56018721154 0 0
72930.26722050515 0 0
73663.26012590827 0 0
74403.6118755268 0 0
75151.39651690473 0 0
75906.68870557245 0 0
76669.56361714522 0 0
77440.09739725746 0 0
78218.36709595006 0 0
79004.45039859794 0 0
79798.42557061781 0 0
80600.37168802856 0 0
81410.36912651946 0 0
82228.49904862106 0 0
83054.84223138844 0 0
83889.4817437762 0 0
84732.5005234619 0 0
85583.98299178653 0 0
86444.01372743315 0 0
87312.67908290755 0 0
88190.06549406549 0 0
89076.26044585297 0 0
89971.35215243141 0 0
90875.43066433104 0 0
91788.58542976472 0 0
92710.90814803101 0 0
93642.49043885301 0 0
94583.42542524434 0 0
95533.8070627782 0 0
96493.73011330381 0 0
97463.29013371283 0 0
98442.58454352591 0 0
99431.71035334383 0 0
100430.7669685982 0 0
101439.8534287247 0 0
102459.070747535 0 0
103488.5203735911 0 0
104528.305409783 0 0
105578.5295408931 0 0
106639.2975810844 0 0
107710.7151341632 0 0
108792.8892933382 0 0
109885.9279073164 0 0
110989.9404000176 0 0
112105.0365961085 0 0
113231.3279106774 0 0
114368.926499401 0 0
115517.9465012952 0 0
116678.5020348238 0 0
117850.7089504318 0 0
119034.6844877501 0 0
120230.5465067379 0 0
121438.4146600884 0 0
122658.4091930834 0 0
123890.6518324663 0 0
125135.2660523063 0 0
126392.375284844 0 0
127662.1056182475 0 0
128944.5834775793 0 0
130239.9367859255 0 0
131548.2950179436 0 0
132869.7886756328 0 0
134204.5493327829 0 0
135552.7106910073 0 0
136914.4069662885 0 0
138289.7740438896 0 0
139678.9492434883 0 0
141082.0712098197 0 0
142499.2803272692 0 0
143930.7173495253 0 0
145376.5246911132 0 0
146836.8481014934 0 0
148311.8326337587 0 0
149801.6247265423 0 0
151306.3747068887 0 0
152826.2308734001 0 0
154361.3464222456 0 0
155911.8733734997 0 0
157477.9672781692 0 0
159059.7839691195 0 0
160657.4812554701 0 0
162271.2190973308 0 0
163901.1575568642 0 0
165547.4602832069 0 0
167210.2920362134 0 0
168889.8172296849 0 0
170586.2037551207 0 0
172299.6219582251 0 0
174030.241488953 0 0
175778.2365673243 0 0
177543.7801231962 0 0
179327.0496748298 0 0
181128.2220859764 0 0
182947.4772520511 0 0
184784.9975062693 0 0
186640.9652604061 0 0
188515.5665506918 0 0
190408.9878342563 0 0
192321.4183128457 0 0
194253.0488281423 0 0
196204.0721153311 0 0
198174.6825269661 0 0
200165.0776286754 0 0
202175.455083211 0 0
204206.0160178624 0 0
206256.9625953775 0 0
208328.5003968188 0 0
210420.8356121674 0 0
212534.1766971611 0 0
214668.7349266783 0 0
216824.7231012872 0 0
219002.3567033443 0 0
221201.8526973256 0 0
223423.4308380403 0 0
225667.3121355138 0 0
227933.7219589918 0 0
230222.8852126037 0 0
232535.0303944479 0 0
234870.3892568577 0 0
237229.1935025986 0 0
239611.6793184177 0 0
242018.0846219769 0 0
244448.6491813932 0 0
246903.6151727749 0 0
249383.2283009799 0 0
251887.7357757011 0 0
254417.3872419714 0 0
256972.4356186638 0 0
259553.1356575289 0 0
262159.7445655067 0 0
264792.5226999728 0 0
267451.7331904377 0 0
270137.6408849849 0 0
272850.5138459204 0 0
275590.6230374256 0 0
278358.2420521357 0 0
281153.6464068759 0 0
283977.1168581825 0 0
286828.9314764601 0 0
289709.3789796995 0 0
292618.7432700548 0 0
295557.3173882727 0 0
298525.3942565509 0 0
301523.268175862 0 0
304551.2405476373 0 0
307609.6118592591 0 0
310698.6872616983 0 0
313818.776792237 0 0
316970.1896111747 0 0
320153.241908142 0 0
323368.2516301303 0 0
326615.5371383922 0 0
329895.4257682976 0 0
333208.241198777 0 0
336554.317648385 0 0
339933.986335915 0 0
343347.5854451291 0 0
346795.4569037393 0 0
350277.9425582854 0 0
353795.3907548976 0 0
357348.1532103513 0 0
360936.5833198581 0 0
364561.0402827908 0 0
368221.8851130635 0 0
371919.4829034247 0 0
375654.2038085898 0 0
379426.4189721718 0 0
383236.5064016156 0 0
387084.8450655485 0 0
390971.8195635806 0 0
394897.8175848359 0 0
398863.231095134 0 0
402868.4555185395 0 0
406913.8911153518 0 0
410999.940980812 0 0
415127.0124098461 0 0
419295.5192364703 0 0
423505.8754861452 0 0
427758.5012176764 0 0
432053.8231178412 0 0
436392.2674725128 0 0
440774.2678586444 0 0
445200.2615251031 0 0
449670.6903835333 0 0
454186.0007044516 0 0
458746.6434333759 0 0
463353.072680312 0 0
468005.7487574905 0 0
472705.1355174892 0 0
477451.7019130912 0 0
482245.9220656189 0 0
487088.2740526442 0 0
491979.2417716993 0 0
496919.3123355319 0 0
501908.9788759635 0 0
506948.7407561418 0 0
512039.0983578443 0 0
517180.5619120097 0 0
522373.6435826764 0 0
527618.8613296427 0 0
532916.7385691365 0 0
538267.8054720196 0 0
543672.5939135409 0 0
549131.6446393625 0 0
554645.5010230553 0 0
560214.7155054908 0 0
565839.8422437966 0 0
571521.4444181143 0 0
577260.0856817827 0 0
583056.340491375 0 0
588910.7871073944 0 0
594824.011189286 0 0
600796.6007940595 0 0
606829.1497531597 0 0
612922.2667523808 0 0
619076.5566457352 0 0
625292.6311525963 0 0
631571.1134110735 0 0
637912.6286724093 0 0
644317.8081374774 0 0
650787.2947746186 0 0
657321.7341864222 0 0
663921.7746029618 0 0
670588.0768191089 0 0
677321.3064892029 0 0
684122.1333403459 0 0
690991.2400645384 0 0
697929.3080719404 0 0
704937.0321218494 0 0
712015.110668383 0 0
719164.2496485824 0 0
726385.1641167884 0 0
733678.5717040803 0 0
741045.2047115555 0 0
748485.7942252335 0 0
756001.0818252824 0 0
763591.8236447626 0 0
771258.7706077266 0 0
779002.6941027193 0 0
786824.3611583987 0 0
794724.553717502 0 0
802704.062341605 0 0
810763.6812062954 0 0
818904.2150954088 0 0
827126.4769663627 0 0
835431.2866886551 0 0
843819.4735959689 0 0
852291.87341038 0 0
860849.3327429361 0 0
869492.7071258967 0 0
878222.8561579046 0 0
887040.653010475 0 0
895946.9762719035 0 0
904942.7142450578 0 0
914028.7679334535 0 0
923206.0402674398 0 0
932475.4492686907 0 0
941837.9191843228 0 0
951294.3835216411 0 0
960845.7871881691 0 0
970493.0836232081 0 0
980237.2343750186 0 0
990079.2141315744 0 0
1 3 0 921
946
947
948
949
950
951
952
953
954
955
956
957
958
959
960
961
962
963
964
965
966
967
968
969
970
971
972
973
974
975
976
977
978
979
980
981
982
983
984
985
986
987
988
989
990
991
992
993
994
995
996
997
998
999
1000
1001
1002
1003
1004
1005
1006
1007
1008
1009
1010
1011
1012
1013
1014
1015
1016
1017
1018
1019
1020
1021
1022
1023
1024
1025
1026
1027
1028
1029
1030
1031
1032
1033
1034
1035
1036
1037
1038
1039
1040
1041
1042
1043
1044
1045
1046
1047
1048
1049
1050
1051
1052
1053
1054
1055
1056
1057
1058
1059
1060
1061
1062
1063
1064
1065
1066
1067
1068
1069
1070
1071
1072
1073
1074
1075
1076
1077
1078
1079
1080
1081
1082
1083
1084
1085
1086
1087
1088
1089
1090
1091
1092
1093
1094
1095
1096
1097
1098
1099
1100
1101
1102
1103
1104
1105
1106
1107
1108
1109
1110
1111
1112
1113
1114
1115
1116
1117
1118
1119
1120
1121
1122
1123
1124
1125
1126
1127
1128
1129
1130
1131
1132
1133
1134
1135
1136
1137
1138
1139
1140
1141
1142
1143
1144
1145
1146
1147
1148
1149
1150
1151
1152
1153
1154
1155
1156
1157
1158
1159
1160
1161
1162
1163
1164
1165
1166
1167
1168
1169
1170
1171
1172
1173
1174
1175
1176
1177
1178
1179
1180
1181
1182
1183
1184
1185
1186
1187
1188
1189
1190
1191
1192
1193
1194
1195
1196
1197
1198
1199
1200
1201
1202
1203
1204
1205
1206
1207
1208
1209
1210
1211
1212
1213
1214
1215
1216
1217
1218
1219
1220
1221
1222
1223
1224
1225
1226
1227
1228
1229
1230
1231
1232
1233
1234
1235
1236
1237
1238
1239
1240
1241
1242
1243
1244
1245
1246
1247
1248
1249
1250
1251
1252
1253
1254
1255
1256
1257
1258
1259
1260
1261
1262
1263
1264
1265
1266
1267
1268
1269
1270
1271
1272
1273
1274
1275
1276
1277
1278
1279
1280
1281
1282
1283
1284
1285
1286
1287
1288
1289
1290
1291
1292
1293
1294
1295
1296
1297
1298
1299
1300
1301
1302
1303
1304
1305
1306
1307
1308
1309
1310
1311
1312
1313
1314
1315
1316
1317
1318
1319
1320
1321
1322
1323
1324
1325
1326
1327
1328
1329
1330
1331
1332
1333
1334
1335
1336
1337
1338
1339
1340
1341
1342
1343
1344
1345
1346
1347
1348
1349
1350
1351
1352
1353
1354
1355
1356
1357
1358
1359
1360
1361
1362
1363
1364
1365
1366
1367
1368
1369
1370
1371
1372
1373
1374
1375
1376
1377
1378
1379
1380
1381
1382
1383
1384
1385
1386
1387
1388
1389
1390
1391
1392
1393
1394
1395
1396
1397
1398
1399
1400
1401
1402
1403
1404
1405
1406
1407
1408
1409
1410
1411
1412
1413
1414
1415
1416
1417
1418
1419
1420
1421
1422
1423
1424
1425
1426
1427
1428
1429
1430
1431
1432
1433
1434
1435
1436
1437
1438
1439
1440
1441
1442
1443
1444
1445
1446
1447
1448
1449
1450
1451
1452
1453
1454
1455
1456
1457
1458
1459
1460
1461
1462
1463
1464
1465
1466
1467
1468
1469
1470
1471
1472
1473
1474
1475
1476
1477
1478
1479
1480
1481
1482
1483
1484
1485
1486
1487
1488
1489
1490
1491
1492
1493
1494
1495
1496
1497
1498
1499
1500
1501
1502
1503
1504
1505
1506
1507
1508
1509
1510
1511
1512
1513
1514
1515
1516
1517
1518
1519
1520
1521
1522
1523
1524
1525
1526
1527
1528
1529
1530
1531
1532
1533
1534
1535
1536
1537
1538
1539
1540
1541
1542
1543
1544
1545
1546
1547
1548
1549
1550
1551
1552
1553
1554
1555
1556
1557
1558
1559
1560
1561
1562
1563
1564
1565
1566
1567
1568
1569
1570
1571
1572
1573
1574
1575
1576
1577
1578
1579
1580
1581
1582
1583
1584
1585
1586
1587
1588
1589
1590
1591
1592
1593
1594
1595
1596
1597
1598
1599
1600
1601
1602
1603
1604
1605
1606
1607
1608
1609
1610
1611
1612
1613
1614
1615
1616
1617
1618
1619
1620
1621
1622
1623
1624
1625
1626
1627
1628
1629
1630
1631
1632
1633
1634
1635
1636
1637
1638
1639
1640
1641
1642
1643
1644
1645
1646
1647
1648
1649
1650
1651
1652
1653
1654
1655
1656
1657
1658
1659
1660
1661
1662
1663
1664
1665
1666
1667
1668
1669
1670
1671
1672
1673
1674
1675
1676
1677
1678
1679
1680
1681
1682
1683
1684
1685
1686
1687
1688
1689
1690
1691
1692
1693
1694
1695
1696
1697
1698
1699
1700
1701
1702
1703
1704
1705
1706
1707
1708
1709
1710
1711
1712
1713
1714
1715
1716
1717
1718
1719
1720
1721
1722
1723
1724
1725
1726
1727
1728
1729
1730
1731
1732
1733
1734
1735
1736
1737
1738
1739
1740
1741
1742
1743
1744
1745
1746
1747
1748
1749
1750
1751
1752
1753
1754
1755
1756
1757
1758
1759
1760
1761
1762
1763
1764
1765
1766
1767
1768
1769
1770
1771
1772
1773
1774
1775
1776
1777
1778
1779
1780
1781
1782
1783
1784
1785
1786
1787
1788
1789
1790
1791
1792
1793
1794
1795
1796
1797
1798
1799
1800
1801
1802
1803
1804
1805
1806
1807
1808
1809
1810
1811
1812
1813
1814
1815
1816
1817
1818
1819
1820
1821
1822
1823
1824
1825
1826
1827
1828
1829
1830
1831
1832
1833
1834
1835
1836
1837
1838
1839
1840
1841
1842
1843
1844
1845
1846
1847
1848
1849
1850
1851
1852
1853
1854
1855
1856
1857
1858
1859
1860
1861
1862
1863
1864
1865
1866
1009960.785868426 0 0
1019802.765624982 0 0
1029546.916376793 0 0
1039194.212811829 0 0
1048745.616478359 0 0
1058202.08081568 0 0
1067564.550731308 0 0
1076833.95973256 0 0
1086011.232066548 0 0
1095097.285754943 0 0
1104093.023728098 0 0
1112999.346989527 0 0
1121817.143842096 0 0
1130547.292874108 0 0
1139190.667257067 0 0
1147748.126589623 0 0
1156220.526404033 0 0
1164608.713311345 0 0
1172913.523033636 0 0
1181135.784904593 0 0
1189276.318793705 0 0
1197335.937658394 0 0
1205315.446282495 0 0
1213215.638841599 0 0
1221037.30589728 0 0
1228781.229392277 0 0
1236448.176355242 0 0
1244038.91817472 0 0
1251554.205774765 0 0
1258994.795288446 0 0
1266361.428295918 0 0
1273654.835883208 0 0
1280875.750351411 0 0
1288024.88933161 0 0
1295102.967878142 0 0
1302110.691928053 0 0
1309048.759935457 0 0
1315917.86665965 0 0
1322718.693510792 0 0
1329451.923180887 0 0
1336118.225397033 0 0
1342718.265813573 0 0
1349252.705225377 0 0
1355722.191862521 0 0
1362127.371327591 0 0
1368468.886588928 0 0
1374747.368847406 0 0
1380963.443354266 0 0
1387117.733247621 0 0
1393210.850246841 0 0
1399243.399205944 0 0
1405215.988810718 0 0
1411129.21289261 0 0
1416983.65950863 0 0
1422779.914318223 0 0
1428518.55558189 0 0
1434200.157756208 0 0
1439825.284494516 0 0
1445394.498976951 0 0
1450908.355360647 0 0
1456367.406086468 0 0
1461772.194527988 0 0
1467123.261430871 0 0
1472421.138670364 0 0
1477666.356417318 0 0
1482859.438087956 0 0
1488000.901642093 0 0
1493091.25924377 0 0
1498131.02112392 0 0
1503120.687664342 0 0
1508060.758228176 0 0
1512951.725947231 0 0
1517794.077934259 0 0
1522588.298086788 0 0
1527334.864482393 0 0
1532034.251242392 0 0
1536686.927319571 0 0
1541293.356566508 0 0
1545853.999295436 0 0
1550369.309616357 0 0
1554839.738474788 0 0
1559265.732141249 0 0
1563647.732527382 0 0
1567986.176882054 0 0
1572281.498782219 0 0
1576534.12451375 0 0
1580744.480763425 0 0
1584912.987590048 0 0
1589040.059019085 0 0
1593126.108884546 0 0
1597171.54448136 0 0
1601176.768904767 0 0
1605142.182415066 0 0
1609068.180436325 0 0
1612955.154934358 0 0
1616803.493598292 0 0
1620613.581027738 0 0
1624385.796191321 0 0
1628120.517096489 0 0
1631818.114886851 0 0
1635478.959717125 0 0
1639103.416680059 0 0
1642691.846789567 0 0
1646244.60924502 0 0
1649762.057441634 0 0
1653244.543096181 0 0
1656692.414554792 0 0
1660106.013664007 0 0
1663485.682351538 0 0
1666831.758801145 0 0
1670144.574231627 0 0
1673424.462861533 0 0
1676671.748369796 0 0
1679886.758091785 0 0
1683069.810388753 0 0
1686221.223207693 0 0
1689341.312738233 0 0
1692430.388140674 0 0
1695488.759452296 0 0
1698516.731824072 0 0
1701514.605743384 0 0
1704482.682611663 0 0
1707421.256729881 0 0
1710330.621020237 0 0
1713211.068523476 0 0
1716062.883141753 0 0
1718886.353593061 0 0
1721681.757947801 0 0
1724449.376962513 0 0
1727189.486154018 0 0
1729902.359114954 0 0
1732588.266809502 0 0
1735247.477299967 0 0
1737880.255434433 0 0
1740486.864342411 0 0
1743067.564381278 0 0
1745622.612757971 0 0
1748152.264224242 0 0
1750656.771698964 0 0
1753136.38482717 0 0
1755591.350818553 0 0
1758021.91537797 0 0
1760428.320681529 0 0
1762810.806497349 0 0
1765169.610743091 0 0
1767504.969605501 0 0
1769817.114787345 0 0
1772106.278040958 0 0
1774372.687864435 0 0
1776616.569161909 0 0
1778838.147302624 0 0
1781037.643296606 0 0
1783215.276898663 0 0
1785371.265073273 0 0
1787505.823302791 0 0
1789619.164387785 0 0
1791711.499603133 0 0
1793783.037404575 0 0
1795833.98398209 0 0
1797864.544916742 0 0
1799874.922371279 0 0
1801865.317472989 0 0
1803835.927884625 0 0
1805786.951171815 0 0
1807718.581687111 0 0
1809631.0121657 0 0
1811524.433449265 0 0
1813399.03473955 0 0
1815255.002493687 0 0
1817092.522747905 0 0
1818911.777913982 0 0
1820712.950325129 0 0
1822496.219876762 0 0
1824261.763432635 0 0
1826009.758511006 0 0
1827740.378041734 0 0
1829453.796244839 0 0
1831150.182770276 0 0
1832829.707963747 0 0
1834492.539716754 0 0
1836138.842443097 0 0
1837768.780902631 0 0
1839382.518744492 0 0
1840980.216030842 0 0
1842562.032721793 0 0
1844128.126626463 0 0
1845678.653577717 0 0
1847213.769126562 0 0
1848733.625293074 0 0
1850238.375273421 0 0
1851728.167366205 0 0
1853203.15189847 0 0
1854663.475308851 0 0
1856109.282650439 0 0
1857540.719672696 0 0
1858957.928790146 0 0
1860361.050756478 0 0
1861750.225956077 0 0
1863125.593033679 0 0
1864487.289308961 0 0
1865835.450667186 0 0
1867170.211324336 0 0
1868491.704982025 0 0
1869800.063214045 0 0
1871095.416522393 0 0
1872377.894381728 0 0
1873647.624715133 0 0
1874904.733947673 0 0
1876149.348167514 0 0
1877381.590806897 0 0
1878601.585339893 0 0
1879809.453493243 0 0
1881005.315512232 0 0
1882189.29104955 0 0
1883361.497965158 0 0
1884522.053498687 0 0
1885671.073500581 0 0
1886808.672089305 0 0
1887934.963403874 0 0
1889050.059599965 0 0
1890154.072092667 0 0
1891247.110706645 0 0
1892329.284865821 0 0
1893400.702418899 0 0
1894461.470459091 0 0
1895511.694590202 0 0
1896551.479626394 0 0
1897580.92925245 0 0
1898600.146571261 0 0
1899609.233031388 0 0
1900608.289646642 0 0
1901597.415456461 0 0
1902576.709866274 0 0
1903546.269886683 0 0
1904506.192937208 0 0
1905456.574574742 0 0
1906397.509561134 0 0
1907329.091851956 0 0
1908251.414570223 0 0
1909164.569335656 0 0
1910068.647847556 0 0
1910963.739554134 0 0
1911849.934505922 0 0
1912727.32091708 0 0
1913595.986272554 0 0
1914456.017008201 0 0
1915307.499476526 0 0
1916150.518256212 0 0
1916985.1577686 0 0
1917811.500951368 0 0
1918629.630873469 0 0
1919439.62831196 0 0
1920241.574429371 0 0
1921035.54960139 0 0
1921821.632904038 0 0
1922599.902602731 0 0
1923370.436382844 0 0
1924133.311294417 0 0
1924888.603483085 0 0
1925636.388124463 0 0
1926376.739874082 0 0
1927109.732779485 0 0
1927835.439812778 0 0
1928553.933472475 0 0
1929265.285856854 0 0
1929969.567129559 0 0
1930666.848069272 0 0
1931357.198171071 0 0
1932040.686340688 0 0
1932717.380725028 0 0
1933387.348962109 0 0
1934050.65785068 0 0
1934707.373561992 0 0
1935357.561658591 0 0
1936001.287114244 0 0
1936638.613899517 0 0
1937269.605921464 0 0
1937894.32600805 0 0
1938512.836439075 0 0
1939125.198970679 0 0
1939731.474861174 0 0
1940331.724374144 0 0
1940926.00759428 0 0
1941514.383759345 0 0
1942096.911668528 0 0
1942673.649208065 0 0
1943244.654189654 0 0
1943809.983475863 0 0
1944369.693562568 0 0
1944923.840154991 0 0
1945472.478700191 0 0
1946015.663869854 0 0
1946553.450020032 0 0
1947085.890507703 0 0
1947613.038747619 0 0
1948134.947126423 0 0
1948651.668017355 0 0
1949163.252688182 0 0
1949669.75224844 0 0
1950171.217441503 0 0
1950667.698108053 0 0
1951159.243884664 0 0
1951645.903763332 0 0
1952127.726388605 0 0
1952604.759822974 0 0
1953077.051644157 0 0
1953544.648845967 0 0
1954007.598432765 0 0
1954465.946247278 0 0
1954919.738142422 0 0
1955369.019503959 0 0
1955813.835173261 0 0
1956254.229342001 0 0
1956690.246166743 0 0
1957121.929068114 0 0
1957549.321109721 0 0
1957972.464977542 0 0
1958391.402848644 0 0
1958806.176732006 0 0
1959216.827630258 0 0
1959623.396827649 0 0
1960025.924820816 0 0
1960424.451734687 0 0
1960819.017379089 0 0
1961209.661191761 0 0
1961596.421920249 0 0
1961979.338529858 0 0
1962358.448797626 0 0
1962733.790986764 0 0
1963105.402203927 0 0
1963473.319811794 0 0
1963837.580293575 0 0
1964198.220209869 0 0
1964555.27532794 0 0
1964908.781617099 0 0
1965258.773941749 0 0
1965605.287435289 0 0
1965948.356658316 0 0
1966288.015837376 0 0
1966624.298872861 0 0
1966957.239347405 0 0
1967286.870443292 0 0
1967613.22507003 0 0
1967936.335788618 0 0
1968256.234874824 0 0
1968572.954221161 0 0
1968886.525439454 0 0
1969196.979872509 0 0
1969504.348366375 0 0
1969808.661735646 0 0
1970109.950283436 0 0
1970408.244069492 0 0
1970703.572924425 0 0
1970995.966203017 0 0
1971285.453188804 0 0
1971572.062730315 0 0
1971855.823480725 0 0
1972136.763615055 0 0
1972414.911306505 0 0
1972690.29427751 0 0
1972962.940013243 0 0
1973232.875698315 0 0
1973500.128278459 0 0
1973764.724354198 0 0
1974026.690512904 0 0
1974286.052726354 0 0
1974542.836868944 0 0
1974797.068741102 0 0
1975048.773546529 0 0
1975297.976420548 0 0
1975544.702354154 0 0
1975788.975849793 0 0
1976030.821241788 0 0
1976270.262838419 0 0
1976507.324377558 0 0
1976742.029616708 0 0
1976974.401901233 0 0
1977204.464516142 0 0
1977432.240262767 0 0
1977657.752034004 0 0
1977881.022199892 0 0
1978102.073151686 0 0
1978320.926906354 0 0
1978537.605275985 0 0
1978752.129945018 0 0
1978964.522240515 0 0
1979174.803420434 0 0
1979382.994495386 0 0
1979589.116140405 0 0
1979793.188956609 0 0
1979995.233357137 0 0
1980195.269544492 0 0
1980393.317368268 0 0
1980589.396539496 0 0
1980783.526818578 0 0
1980975.727458952 0 0
1981166.01766534 0 0
1981354.41650586 0 0
1981540.942600827 0 0
1981725.614680211 0 0
1981908.451188347 0 0
1982089.470283571 0 0
1982268.690123097 0 0
1982446.128636714 0 0
1982621.80336529 0 0
1982795.731925099 0 0
1982967.931683498 0 0
1983138.419802502 0 0
1983307.213297844 0 0
1983474.329027587 0 0
1983639.783679194 0 0
1983803.593726115 0 0
1983965.775539732 0 0
1984126.345286387 0 0
1984285.318998647 0 0
1984442.712586259 0 0
1984598.541665185 0 0
1984752.821852714 0 0
1984905.568533993 0 0
1985056.796964766 0 0
1985206.522166695 0 0
1985354.759169282 0 0
1985501.522719647 0 0
1985646.827453752 0 0
1985790.687904228 0 0
1985933.11840165 0 0
1986074.133177875 0 0
1986213.746291624 0 0
1986351.971713004 0 0
1986488.823150568 0 0
1986624.314337124 0 0
1986758.458772345 0 0
1986891.269824914 0 0
1987022.760767789 0 0
1987152.944745222 0 0
1987281.834668225 0 0
1987409.443481297 0 0
1987535.783892535 0 0
1987660.868506583 0 0
1987784.709807129 0 0
1987907.320130207 0 0
1988028.711768913 0 0
1988148.896776323 0 0
1988267.887149071 0 0
1988385.694811367 0 0
1988502.331474858 0 0
1988617.808834713 0 0
1988732.138332172 0 0
1988845.331408624 0 0
1988957.399415479 0 0
1989068.35343808 0 0
1989178.204618965 0 0
1989286.963907687 0 0
1989394.642144842 0 0
1989501.250098101 0 0
1989606.79835783 0 0
1989711.297519982 0 0
1989814.757963857 0 0
1989917.190055433 0 0
1990018.603967214 0 0
1990119.0098954 0 0
1990218.417754293 0 0
1990316.837525558 0 0
1990414.279045468 0 0
1990510.751987394 0 0
1990606.266026406 0 0
1990700.830712358 0 0
1990794.455397093 0 0
1990887.149474323 0 0
1990978.922215905 0 0
1991069.78271353 0 0
1991159.740109703 0 0
1991248.803339585 0 0
1991336.981342108 0 0
1991424.282832467 0 0
1991510.716563825 0 0
1991596.291171342 0 0
1991681.015179371 0 0
1991764.897044405 0 0
1991847.945146913 0 0
1991930.167756898 0 0
1992011.573093577 0 0
1992092.169293354 0 0
1992171.964365813 0 0
1992250.966296116 0 0
1992329.182966561 0 0
1992406.62218388 0 0
1992483.291667446 0 0
1992559.199070559 0 0
1992634.351966318 0 0
1992708.757862365 0 0
1992782.424185873 0 0
1992855.358268597 0 0
1992927.567418581 0 0
1992999.058815686 0 0
1993069.83959017 0 0
1993139.916826979 0 0
1993209.297509599 0 0
1993277.988565194 0 0
1993345.996852009 0 0
1993413.329139056 0 0
1993479.992164414 0 0
1993545.992568487 0 0
1993611.336960174 0 0
1993676.031820863 0 0
1993740.083640055 0 0
1993803.498775567 0 0
1993866.283594587 0 0
1993928.444342817 0 0
1993989.987240685 0 0
1994050.918404242 0 0
1994111.24391175 0 0
1994170.969809576 0 0
1994230.102041375 0 0
1994288.646506339 0 0
1994346.609068664 0 0
1994403.995471454 0 0
1994460.811474131 0 0
1994517.06273855 0 0
1994572.754882536 0 0
1994627.89346118 0 0
1994682.483954926 0 0
1994736.531846482 0 0
1994790.042516278 0 0
1994843.021272314 0 0
1994895.47345073 0 0
1994947.404286926 0 0
1994998.81891305 0 0
1995049.722484352 0 0
1995100.120103548 0 0
1995150.016760652 0 0
1995199.417472649 0 0
1995248.327140864 0 0
1995296.750665633 0 0
1995344.692864895 0 0
1995392.15853241 0 0
1995439.152399443 0 0
1995485.679156285 0 0
1995531.743452094 0 0
1995577.349869398 0 0
1995622.502988162 0 0
1995667.207271016 0 0
1995711.467223379 0 0
1995755.287229811 0 0
1995798.671673593 0 0
1995841.624883778 0 0
1995884.151147909 0 0
1995926.254713015 0 0
1995967.939774953 0 0
1996009.210495768 0 0
1996050.070992548 0 0
1996090.525347422 0 0
1996130.57759329 0 0
1996170.231726847 0 0
1996209.491709962 0 0
1996248.361453481 0 0
1996286.844847014 0 0
1996324.945715341 0 0
1996362.667873069 0 0
1996400.01507212 0 0
1996436.991057718 0 0
1996473.599502062 0 0
1996509.844069898 0 0
1996545.728378915 0 0
1996581.255994952 0 0
1996616.430482152 0 0
1996651.255338824 0 0
1996685.734041851 0 0
1996719.870040629 0 0
1996753.666733704 0 0
1996787.127486235 0 0
1996820.255647657 0 0
1996853.054524171 0 0
1996885.527387121 0 0
1996917.677484029 0 0
1996949.508002423 0 0
1996981.022139505 0 0
1997012.223030177 0 0
1997043.113797176 0 0
1997073.69750615 0 0
1997103.977220027 0 0
1997133.955962347 0 0
1997163.636725862 0 0
1997193.022463472 0 0
1997222.116115234 0 0
1997250.920585939 0 0
1997279.438739032 0 0
1997307.673434939 0 0
1997335.627475241 0 0
1997363.303662633 0 0
1997390.704763617 0 0
1997417.833490625 0 0
1997444.692565907 0 0
1997471.284673718 0 0
1997497.612452451 0 0
1997523.678542849 0 0
1997549.485545795 0 0
1997575.036019095 0 0
1997600.332535278 0 0
1997625.377615481 0 0
1997650.173746373 0 0
1997674.72340241 0 0
1997699.029046053 0 0
1997723.093106745 0 0
1997746.917967553 0 0
1997770.50600057 0 0
1997793.859585245 0 0
1997816.981049172 0 0
1997839.872681845 0 0
1997862.53676632 0 0
1997884.975584059 0 0
1997907.191375043 0 0
1997929.186334624 0 0
1997950.962671126 0 0
1997972.522553304 0 0
1997993.868135648 0 0
1998015.00154596 0 0
1998035.924896826 0 0
1998056.640273811 0 0
1998077.149742821 0 0
1998097.455350688 0 0
1998117.559125791 0 0
1998137.463076771 0 0
1998157.169182065 0 0
1998176.679414019 0 0
1998195.995718987 0 0
1998215.120024968 0 0
1998234.054238312 0 0
1998252.800249616 0 0
1998271.359927988 0 0
1998289.73512861 0 0
1998307.927685353 0 0
1998325.939406515 0 0
1998343.772097961 0 0
1998361.427535945 0 0
1998378.907483697 0 0
1998396.213682634 0 0
1998413.347863211 0 0
1998430.311731524 0 0
1998447.106984847 0 0
1998463.735293952 0 0
1998480.198322786 0 0
1998496.497716025 0 0
1998512.635089618 0 0
1998528.612064509 0 0
1998544.430235299 0 0
1998560.091169383 0 0
1998575.596440833 0 0
1998590.947594502 0 0
1998606.146159038 0 0
1998621.193654986 0 0
1998636.091575725 0 0
1998650.841419048 0 0
1998665.444651048 0 0
1998679.902731697 0 0
1998694.217100277 0 0
1998708.389187098 0 0
1998722.420405775 0 0
1998736.312159887 0 0
1998750.06582863 0 0
1998763.682791181 0 0
1998777.164405603 0 0
1998790.512013847 0 0
1998803.72694694 0 0
1998816.810528619 0 0
1998829.764064093 0 0
1998842.588840622 0 0
1998855.28614559 0 0
1998867.857237145 0 0
1998880.303378597 0 0
1998892.625804889 0 0
1998904.825750632 0 0
1998916.904431939 0 0
1998928.863051828 0 0
1998940.702810308 0 0
1998952.424877761 0 0
1998964.030436259 0 0
1998975.520632928 0 0
1998986.896620713 0 0
1998998.159534902 0 0
1999009.310495973 0 0
1999020.350621427 0 0
1999031.281010008 0 0
1999042.102750622 0 0
1999052.816925841 0 0
1999063.424604719 0 0
1999073.926845781 0 0
1999084.324697602 0 0
1999094.619194322 0 0
1999104.811367955 0 0
1999114.90223203 0 0
1999124.892796099 0 0
1999134.784055815 0 0
1999144.576998033 0 0
1999154.272601177 0 0
1999163.871831511 0 0
1999173.375649075 0 0
1999182.784998701 0 0
1999192.100821741 0 0
1999201.324046131 0 0
1999210.455596466 0 0
1999219.496379131 0 0
1999228.447299272 0 0
1999237.309246999 0 0
1999246.083111416 0 0
1999254.769763584 0 0
1999263.370073812 0 0
1999271.884896533 0 0
1999280.315086371 0 0
1999288.661480418 0 0
1999296.924911742 0 0
1999305.106209426 0 0
1999313.206185102 0 0
1999321.225646975 0 0
1999329.165399197 0 0
1999337.026230957 0 0
1999344.80892875 0 0
1999352.514266294 0 0
1999360.143015445 0 0
1999367.695937664 0 0
1999375.173783363 0 0
1999382.577302344 0 0
1999389.907229619 0 0
1999397.164300836 0 0
1999404.349237395 0 0
1999411.462758403 0 0
1999418.50557134 0 0
1999425.478381004 0 0
1999432.381881477 0 0
1999439.216764835 0 0
1999445.983707793 0 0
1999452.683391656 0 0
1999459.316477999 0 0
1999465.883635577 0 0
1999472.385516541 0 0
1999478.82277021 0 0
1999485.196038984 0 0
1999491.505958383 0 0
1999497.753160516 0 0
1999503.938265434 0 0
1999510.061889191 0 0
1999516.124648285 0 0
1999522.127142869 0 0
1999528.069975137 0 0
1999533.953737365 0 0
1999539.779015019 0 0
1999545.546394063 0 0
1999551.256442624 0 0
1999556.909734036 0 0
1999562.506834658 0 0
1999568.048302742 0 0
1999573.534688116 0 0
1999578.966540045 0 0
1999584.344400833 0 0
1999589.668806012 0 0
1999594.940287922 0 0
1999600.159372616 0 0
1999605.326580998 0 0
1999610.442427564 0 0
1999615.507424036 0 0
1999620.522075817 0 0
1999625.486882607 0 0
1999630.402340012 0 0
1999635.268939213 0 0
1999640.087165681 0 0
1999644.857499529 0 0
1999649.580416922 0 0
1999654.256390287 0 0
1999658.885884606 0 0
1999663.469363176 0 0
1999668.007282858 0 0
1999672.500097269 0 0
1999676.94825266 0 0
1999681.352194995 0 0
1999685.712363053 0 0
1999690.029192898 0 0
1999694.303112577 0 0
1999698.534551164 0 0
1999702.723930985 0 0
1999706.871667395 0 0
1999710.978177127 0 0
1999715.043869169 0 0
1999719.069149127 0 0
1999723.054418871 0 0
1999727.000074856 0 0
1999730.906512626 0 0
1999734.774120716 0 0
1999738.603286579 0 0
1999742.394389676 0 0
1999746.147810888 0 0
1999749.863924527 0 0
1999753.54309951 0 0
1999757.185705024 0 0
1999760.792103819 0 0
1999764.362655885 0 0
1999767.897716374 0 0
1999771.397640404 0 0
1999774.862774906 0 0
1999778.293467419 0 0
1999781.690059172 0 0
1999785.052889355 0 0
1999788.382294395 0 0
1999791.678604529 0 0
1999794.942151414 0 0
1999798.17325818 0 0
1999801.372250057 0 0
1999804.539442922 0 0
1999807.675154975 0 0
1999810.779699178 0 0
1999813.853383789 0 0
1999816.89651732 0 0
1999819.909404025 0 0
1999822.892341774 0 0
1999825.84562902 0 0
1999828.76956224 0 0
1999831.664432223 0 0
1999834.530527421 0 0
1999837.36813552 0 0
1999840.177537176 0 0
1999842.959013349 0 0
1999845.712844045 0 0
1999848.43930095 0 0
1999851.138657976 0 0
1999853.811183325 0 0
1999856.457144618 0 0
1999859.076805662 0 0
1999861.670427755 0 0
1999864.23826975 0 0
1999866.780588138 0 0
1999869.297636166 0 0
1999871.789665499 0 0
1999874.256924192 0 0
1999876.699659034 0 0
1999879.118113733 0 0
1999881.512529473 0 0
1999883.883144922 0 0
1999886.230197086 0 0
1999888.553920093 0 0
1999890.854545764 0 0
1999893.13230411 0 0
1999895.387421229 0 0
1999897.620123258 0 0
1999899.830632878 0 0
1999902.019170346 0 0
1999904.185954421 0 0
1999906.331200872 0 0
1999908.455123917 0 0
1999910.557935623 0 0
1999912.639845821 0 0
1999914.70106248 0 0
1999916.741790969 0 0
1999918.762235358 0 0
1999920.762596392 0 0
1999922.743074208 0 0
1999924.703866742 0 0
1999926.645169375 0 0
1999928.567176409 0 0
1999930.470078371 0 0
1999932.354066146 0 0
1999934.219327081 0 0
1999936.066048 0 0
1999937.894413463 0 0
1999939.704604351 0 0
1999941.496802977 0 0
1999943.271186995 0 0
1999945.027934351 0 0
1999946.767220033 0 0
1999948.48921739 0 0
1999950.194098674 0 0
1999951.882033643 0 0
1999953.553190879 0 0
1999955.207737688 0 0
1999956.84583809 0 0
1999958.467655845 0 0
1999960.073353568 0 0
1999961.663090569 0 0
1999963.237026221 0 0
1999964.795317211 0 0
1999966.338119089 0 0
1999967.865585912 0 0
1999969.377869935 0 0
1999970.875122246 0 0
1999972.357492125 0 0
1999973.825127582 0 0
1999975.278175026 0 0
1999976.716779522 0 0
1999978.141084485 0 0
1999979.55123243 0 0
1999980.947363401 0 0
1999982.329618057 0 0
1999983.698132546 0 0
1999985.053044353 0 0
1999986.39448866 0 0
1999987.722599349 0 0
1999989.037508794 0 0
1999990.339348228 0 0
1999991.628247967 0 0
1999992.904335901 0 0
1999994.167739966 0 0
1999995.418586078 0 0
1999996.656999013 0 0
1999997.883102454 0 0
1999999.097018627 0 0
2000000.29886878 0 0
2000001.488772645 0 0
2000002.666849222 0 0
2000003.833216031 0 0
2000004.987989119 0 0
2000006.131284217 0 0
2000007.263215175 0 0
2000008.383894894 0 0
2000009.49343552 0 0
2000010.591947216 0 0
2000011.679540082 0 0
2000012.75632264 0 0
2000013.822401918 0 0
2000014.877884789 0 0
2000015.922876276 0 0
2000016.957480907 0 0
2000017.981801579 0 0
2000018.995940832 0 0
1 4 0 19
1867
1868
1869
1870
1871
1872
1873
1874
1875
1876
1877
1878
1879
1880
1881
1882
1883
1884
1885
2000021 0 0
2000022 0 0
2000023 0 0
2000024 0 0
2000025 0 0
2000026 0 0
2000027 0 0
2000028 0 0
2000029 0 0
2000030 0 0
2000031 0 0
2000032 0 0
2000033 0 0
2000034 0 0
2000035 0 0
2000036 0 0
2000037 0 0
2000038 0 0
2000039 0 0
$EndNodes
$Elements
5 1885 1 1885
0 1 15 1
1 1 
1 1 1 20
2 1 6 
3 6 7 
4 7 8 
5 8 9 
6 9 10 
7 10 11 
8 11 12 
9 12 13 
10 13 14 
11 14 15 
12 15 16 
13 16 17 
14 17 18 
15 18 19 
16 19 20 
17 20 21 
18 21 22 
19 22 23 
20 23 24 
21 24 2 
1 2 1 922
22 2 25 
23 25 26 
24 26 27 
25 27 28 
26 28 29 
27 29 30 
28 30 31 
29 31 32 
30 32 33 
31 33 34 
32 34 35 
33 35 36 
34 36 37 
35 37 38 
36 38 39 
37 39 40 
38 40 41 
39 41 42 
40 42 43 
41 43 44 
42 44 45 
43 45 46 
44 46 47 
45 47 48 
46 48 49 
47 49 50 
48 50 51 
49 51 52 
50 52 53 
51 53 54 
52 54 55 
53 55 56 
54 56 57 
55 57 58 
56 58 59 
57 59 60 
58 60 61 
59 61 62 
60 62 63 
61 63 64 
62 64 65 
63 65 66 
64 66 67 
65 67 68 
66 68 69 
67 69 70 
68 70 71 
69 71 72 
70 72 73 
71 73 74 
72 74 75 
73 75 76 
74 76 77 
75 77 78 
76 78 79 
77 79 80 
78 80 81 
79 81 82 
80 82 83 
81 83 84 
82 84 85 
83 85 86 
84 86 87 
85 87 88 
86 88 89 
87 89 90 
88 90 91 
89 91 92 
90 92 93 
91 93 94 
92 94 95 
93 95 96 
94 96 97 
95 97 98 
96 98 99 
97 99 100 
98 100 101 
99 101 102 
100 102 103 
101 103 104 
102 104 105 
103 105 106 
104 106 107 
105 107 108 
106 108 109 
107 109 110 
108 110 111 
109 111 112 
110 112 113 
111 113 114 
112 114 115 
113 115 116 
114 116 117 
115 117 118 
116 118 119 
117 119 120 
118 120 121 
119 121 122 
120 122 123 
121 123 124 
122 124 125 
123 125 126 
124 126 127 
125 127 128 
126 128 129 
127 129 130 
128 130 131 
129 131 132 
130 132 133 
131 133 134 
132 134 135 
133 135 136 
134 136 137 
135 137 138 
136 138 139 
137 139 140 
138 140 141 
139 141 142 
140 142 143 
141 143 144 
142 144 145 
143 145 146 
144 146 147 
145 147 148 
146 148 149 
147 149 150 
148 150 151 
149 151 152 
150 152 153 
151 153 154 
152 154 155 
153 155 156 
154 156 157 
155 157 158 
156 158 159 
157 159 160 
158 160 161 
159 161 162 
160 162 163 
161 163 164 
162 164 165 
163 165 166 
164 166 167 
165 167 168 
166 168 169 
167 169 170 
168 170 171 
169 171 172 
170 172 173 
171 173 174 
172 174 175 
173 175 176 
174 176 177 
175 177 178 
176 178 179 
177 179 180 
178 180 181 
179 181 182 
180 182 183 
181 183 184 
182 184 185 
183 185 186 
184 186 187 
185 187 188 
186 188 189 
187 189 190 
188 190 191 
189 191 192 
190 192 193 
191 193 194 
192 194 195 
193 195 196 
194 196 197 
195 197 198 
196 198 199 
197 199 200 
198 200 201 
199 201 202 
200 202 203 
201 203 204 
202 204 205 
203 205 206 
204 206 207 
205 207 208 
206 208 209 
207 209 210 
208 210 211 
209 211 212 
210 212 213 
211 213 214 
212 214 215 
213 215 216 
214 216 217 
215 217 218 
216 218 219 
217 219 220 
218 220 221 
219 221 222 
220 222 223 
221 223 224 
222 224 225 
223 225 226 
224 226 227 
225 227 228 
226 228 229 
227 229 230 
228 230 231 
229 231 232 
230 232 233 
231 233 234 
232 234 235 
233 235 236 
234 236 237 
235 237 238 
236 238 239 
237 239 240 
238 240 241 
239 241 242 
240 242 243 
241 243 244 
242 244 245 
243 245 246 
244 246 247 
245 247 248 
246 248 249 
247 249 250 
248 250 251 
249 251 252 
250 252 253 
251 253 254 
252 254 255 
253 255 256 
254 256 257 
255 257 258 
256 258 259 
257 259 260 
258 260 261 
259 261 262 
260 262 263 
261 263 264 
262 264 265 
263 265 266 
264 266 267 
265 267 268 
266 268 269 
267 269 270 
268 270 271 
269 271 272 
270 272 273 
271 273 274 
272 274 275 
273 275 276 
274 276 277 
275 277 278 
276 278 279 
277 279 280 
278 280 281 
279 281 282 
280 282 283 
281 283 284 
282 284 285 
283 285 286 
284 286 287 
285 287 288 
286 288 289 
287 289 290 
288 290 291 
289 291 292 
290 292 293 
291 293 294 
292 294 295 
293 295 296 
294 296 297 
295 297 298 
296 298 299 
297 299 300 
298 300 301 
299 301 302 
300 302 303 
301 303 304 
302 304 305 
303 305 306 
304 306 307 
305 307 308 
306 308 309 
307 309 310 
308 310 311 
309 311 312 
310 312 313 
311 313 314 
312 314 315 
313 315 316 
314 316 317 
315 317 318 
316 318 319 
317 319 320 
318 320 321 
319 321 322 
320 322 323 
321 323 324 
322 324 325 
323 325 326 
324 326 327 
325 327 328 
326 328 329 
327 329 330 
328 330 331 
329 331 332 
330 332 333 
331 333 334 
332 334 335 
333 335 336 
334 336 337 
335 337 338 
336 338 339 
337 339 340 
338 340 341 
339 341 342 
340 342 343 
341 343 344 
342 344 345 
343 345 346 
344 346 347 
345 347 348 
346 348 349 
347 349 350 
348 350 351 
349 351 352 
350 352 353 
351 353 354 
352 354 355 
353 355 356 
354 356 357 
355 357 358 
356 358 359 
357 359 360 
358 360 361 
359 361 362 
360 362 363 
361 363 364 
362 364 365 
363 365 366 
364 366 367 
365 367 368 
366 368 369 
367 369 370 
368 370 371 
369 371 372 
370 372 373 
371 373 374 
372 374 375 
373 375 376 
374 376 377 
375 377 378 
376 378 379 
377 379 380 
378 380 381 
379 381 382 
380 382 383 
381 383 384 
382 384 385 
383 385 386 
384 386 387 
385 387 388 
386 388 389 
387 389 390 
388 390 391 
389 391 392 
390 392 393 
391 393 394 
392 394 395 
393 395 396 
394 396 397 
395 397 398 
396 398 399 
397 399 400 
398 400 401 
399 401 402 
400 402 403 
401 403 404 
402 404 405 
403 405 406 
404 406 407 
405 407 408 
406 408 409 
407 409 410 
408 410 411 
409 411 412 
410 412 413 
411 413 414 
412 414 415 
413 415 416 
414 416 417 
415 417 418 
416 418 419 
417 419 420 
418 420 421 
419 421 422 
420 422 423 
421 423 424 
422 424 425 
423 425 426 
424 426 427 
425 427 428 
426 428 429 
427 429 430 
428 430 431 
429 431 432 
430 432 433 
431 433 434 
432 434 435 
433 435 436 
434 436 437 
435 437 438 
436 438 439 
437 439 440 
438 440 441 
439 441 442 
440 442 443 
441 443 444 
442 444 445 
443 445 446 
444 446 447 
445 447 448 
446 448 449 
447 449 450 
448 450 451 
449 451 452 
450 452 453 
451 453 454 
452 454 455 
453 455 456 
454 456 457 
455 457 458 
456 458 459 
457 459 460 
458 460 461 
459 461 462 
460 462 463 
461 463 464 
462 464 465 
463 465 466 
464 466 467 
465 467 468 
466 468 469 
467 469 470 
468 470 471 
469 471 472 
470 472 473 
471 473 474 
472 474 475 
473 475 476 
474 476 477 
475 477 478 
476 478 479 
477 479 480 
478 480 481 
479 481 482 
480 482 483 
481 483 484 
482 484 485 
483 485 486 
484 486 487 
485 487 488 
486 488 489 
487 489 490 
488 490 491 
489 491 492 
490 492 493 
491 493 494 
492 494 495 
493 495 496 
494 496 497 
495 497 498 
496 498 499 
497 499 500 
498 500 501 
499 501 502 
500 502 503 
501 503 504 
502 504 505 
503 505 506 
504 506 507 
505 507 508 
506 508 509 
507 509 510 
508 510 511 
509 511 512 
510 512 513 
511 513 514 
512 514 515 
513 515 516 
514 516 517 
515 517 518 
516 518 519 
517 519 520 
518 520 521 
519 521 522 
520 522 523 
521 523 524 
522 524 525 
523 525 526 
524 526 527 
525 527 528 
526 528 529 
527 529 530 
528 530 531 
529 531 532 
530 532 533 
531 533 534 
532 534 535 
533 535 536 
534 536 537 
535 537 538 
536 538 539 
537 539 540 
538 540 541 
539 541 542 
540 542 543 
541 543 544 
542 544 545 
543 545 546 
544 546 547 
545 547 548 
546 548 549 
547 549 550 
548 550 551 
549 551 552 
550 552 553 
551 553 554 
552 554 555 
553 555 556 
554 556 557 
555 557 558 
556 558 559 
557 559 560 
558 560 561 
559 561 562 
560 562 563 
561 563 564 
562 564 565 
563 565 566 
564 566 567 
565 567 568 
566 568 569 
567 569 570 
568 570 571 
569 571 572 
570 572 573 
571 573 574 
572 574 575 
573 575 576 
574 576 577 
575 577 578 
576 578 579 
577 579 580 
578 580 581 
579 581 582 
580 582 583 
581 583 584 
582 584 585 
583 585 586 
584 586 587 
585 587 588 
586 588 589 
587 589 590 
588 590 591 
589 591 592 
590 592 593 
591 593 594 
592 594 595 
593 595 596 
594 596 597 
595 597 598 
596 598 599 
597 599 600 
598 600 601 
599 601 602 
600 602 603 
601 603 604 
602 604 605 
603 605 606 
604 606 607 
605 607 608 
606 608 609 
607 609 610 
608 610 611 
609 611 612 
610 612 613 
611 613 614 
612 614 615 
613 615 616 
614 616 617 
615 617 618 
616 618 619 
617 619 620 
618 620 621 
619 621 622 
620 622 623 
621 623 624 
622 624 625 
623 625 626 
624 626 627 
625 627 628 
626 628 629 
627 629 630 
628 630 631 
629 631 632 
630 632 633 
631 633 634 
632 634 635 
633 635 636 
634 636 637 
635 637 638 
636 638 639 
637 639 640 
638 640 641 
639 641 642 
640 642 643 
641 643 644 
642 644 645 
643 645 646 
644 646 647 
645 647 648 
646 648 649 
647 649 650 
648 650 651 
649 651 652 
650 652 653 
651 653 654 
652 654 655 
653 655 656 
654 656 657 
655 657 658 
656 658 659 
657 659 660 
658 660 661 
659 661 662 
660 662 663 
661 663 664 
662 664 665 
663 665 666 
664 666 667 
665 667 668 
666 668 669 
667 669 670 
668 670 671 
669 671 672 
670 672 673 
671 673 674 
672 674 675 
673 675 676 
674 676 677 
675 677 678 
676 678 679 
677 679 680 
678 680 681 
679 681 682 
680 682 683 
681 683 684 
682 684 685 
683 685 686 
684 686 687 
685 687 688 
686 688 689 
687 689 690 
688 690 691 
689 691 692 
690 692 693 
691 693 694 
692 694 695 
693 695 696 
694 696 697 
695 697 698 
696 698 699 
697 699 700 
698 700 701 
699 701 702 
700 702 703 
701 703 704 
702 704 705 
703 705 706 
704 706 707 
705 707 708 
706 708 709 
707 709 710 
708 710 711 
709 711 712 
710 712 713 
711 713 714 
712 714 715 
713 715 716 
714 716 717 
715 717 718 
716 718 719 
717 719 720 
718 720 721 
719 721 722 
720 722 723 
721 723 724 
722 724 725 
723 725 726 
724 726 727 
725 727 728 
726 728 729 
727 729 730 
728 730 731 
729 731 732 
730 732 733 
731 733 734 
732 734 735 
733 735 736 
734 736 737 
735 737 738 
736 738 739 
737 739 740 
738 740 741 
739 741 742 
740 742 743 
741 743 744 
742 744 745 
743 745 746 
744 746 747 
745 747 748 
746 748 749 
747 749 750 
748 750 751 
749 751 752 
750 752 753 
751 753 754 
752 754 755 
753 755 756 
754 756 757 
755 757 758 
756 758 759 
757 759 760 
758 760 761 
759 761 762 
760 762 763 
761 763 764 
762 764 765 
763 765 766 
764 766 767 
765 767 768 
766 768 769 
767 769 770 
768 770 771 
769 771 772 
770 772 773 
771 773 774 
772 774 775 
773 775 776 
774 776 777 
775 777 778 
776 778 779 
777 779 780 
778 780 781 
779 781 782 
780 782 783 
781 783 784 
782 784 785 
783 785 786 
784 786 787 
785 787 788 
786 788 789 
787 789 790 
788 790 791 
789 791 792 
790 792 793 
791 793 794 
792 794 795 
793 795 796 
794 796 797 
795 797 798 
796 798 799 
797 799 800 
798 800 801 
799 801 802 
800 802 803 
801 803 804 
802 804 805 
803 805 806 
804 806 807 
805 807 808 
806 808 809 
807 809 810 
808 810 811 
809 811 812 
810 812 813 
811 813 814 
812 814 815 
813 815 816 
814 816 817 
815 817 818 
816 818 819 
817 819 820 
818 820 821 
819 821 822 
820 822 823 
821 823 824 
822 824 825 
823 825 826 
824 826 827 
825 827 828 
826 828 829 
827 829 830 
828 830 831 
829 831 832 
830 832 833 
831 833 834 
832 834 835 
833 835 836 
834 836 837 
835 837 838 
836 838 839 
837 839 840 
838 840 841 
839 841 842 
840 842 843 
841 843 844 
842 844 845 
843 845 846 
844 846 847 
845 847 848 
846 848 849 
847 849 850 
848 850 851 
849 851 852 
850 852 853 
851 853 854 
852 854 855 
853 855 856 
854 856 857 
855 857 858 
856 858 859 
857 859 860 
858 860 861 
859 861 862 
860 862 863 
861 863 864 
862 864 865 
863 865 866 
864 866 867 
865 867 868 
866 868 869 
867 869 870 
868 870 871 
869 871 872 
870 872 873 
871 873 874 
872 874 875 
873 875 876 
874 876 877 
875 877 878 
876 878 879 
877 879 880 
878 880 881 
879 881 882 
880 882 883 
881 883 884 
882 884 885 
883 885 886 
884 886 887 
885 887 888 
886 888 889 
887 889 890 
888 890 891 
889 891 892 
890 892 893 
891 893 894 
892 894 895 
893 895 896 
894 896 897 
895 897 898 
896 898 899 
897 899 900 
898 900 901 
899 901 902 
900 902 903 
901 903 904 
902 904 905 
903 905 906 
904 906 907 
905 907 908 
906 908 909 
907 909 910 
908 910 911 
909 911 912 
910 912 913 
911 913 914 
912 914 915 
913 915 916 
914 916 917 
915 917 918 
916 918 919 
917 919 920 
918 920 921 
919 921 922 
920 922 923 
921 923 924 
922 924 925 
923 925 926 
924 926 927 
925 927 928 
926 928 929 
927 929 930 
928 930 931 
929 931 932 
930 932 933 
931 933 934 
932 934 935 
933 935 936 
934 936 937 
935 937 938 
936 938 939 
937 939 940 
938 940 941 
939 941 942 
940 942 943 
941 943 944 
942 944 945 
943 945 3 
1 3 1 922
944 3 946 
945 946 947 
946 947 948 
947 948 949 
948 949 950 
949 950 951 
950 951 952 
951 952 953 
952 953 954 
953 954 955 
954 955 956 
955 956 957 
956 957 958 
957 958 959 
958 959 960 
959 960 961 
960 961 962 
961 962 963 
962 963 964 
963 964 965 
964 965 966 
965 966 967 
966 967 968 
967 968 969 
968 969 970 
969 970 971 
970 971 972 
971 972 973 
972 973 974 
973 974 975 
974 975 976 
975 976 977 
976 977 978 
977 978 979 
978 979 980 
979 980 981 
980 981 982 
981 982 983 
982 983 984 
983 984 985 
984 985 986 
985 986 987 
986 987 988 
987 988 989 
988 989 990 
989 990 991 
990 991 992 
991 992 993 
992 993 994 
993 994 995 
994 995 996 
995 996 997 
996 997 998 
997 998 999 
998 999 1000 
999 1000 1001 
1000 1001 1002 
1001 1002 1003 
1002 1003 1004 
1003 1004 1005 
1004 1005 1006 
1005 1006 1007 
1006 1007 1008 
1007 1008 1009 
1008 1009 1010 
1009 1010 1011 
1010 1011 1012 
1011 1012 1013 
1012 1013 1014 
1013 1014 1015 
1014 1015 1016 
1015 1016 1017 
1016 1017 1018 
1017 1018 1019 
1018 1019 1020 
1019 1020 1021 
1020 1021 1022 
1021 1022 1023 
1022 1023 1024 
1023 1024 1025 
1024 1025 1026 
1025 1026 1027 
1026 1027 1028 
1027 1028 1029 
1028 1029 1030 
1029 1030 1031 
1030 1031 1032 
1031 1032 1033 
1032 1033 1034 
1033 1034 1035 
1034 1035 1036 
1035 1036 1037 
1036 1037 1038 
1037 1038 1039 
1038 1039 1040 
1039 1040 1041 
1040 1041 1042 
1041 1042 1043 
1042 1043 1044 
1043 1044 1045 
1044 1045 1046 
1045 1046 1047 
1046 1047 1048 
1047 1048 1049 
1048 1049 1050 
1049 1050 1051 
1050 1051 1052 
1051 1052 1053 
1052 1053 1054 
1053 1054 1055 
1054 1055 1056 
1055 1056 1057 
1056 1057 1058 
1057 1058 1059 
1058 1059 1060 
1059 1060 1061 
1060 1061 1062 
1061 1062 1063 
1062 1063 1064 
1063 1064 1065 
1064 1065 1066 
1065 1066 1067 
1066 1067 1068 
1067 1068 1069 
1068 1069 1070 
1069 1070 1071 
1070 1071 1072 
1071 1072 1073 
1072 1073 1074 
1073 1074 1075 
1074 1075 1076 
1075 1076 1077 
1076 1077 1078 
1077 1078 1079 
1078 1079 1080 
1079 1080 1081 
1080 1081 1082 
1081 1082 1083 
1082 1083 1084 
1083 1084 1085 
1084 1085 1086 
1085 1086 1087 
1086 1087 1088 
1087 1088 1089 
1088 1089 1090 
1089 1090 1091 
1090 1091 1092 
1091 1092 1093 
1092 1093 1094 
1093 1094 1095 
1094 1095 1096 
1095 1096 1097 
1096 1097 1098 
1097 1098 1099 
1098 1099 1100 
1099 1100 1101 
1100 1101 1102 
1101 1102 1103 
1102 1103 1104 
1103 1104 1105 
1104 1105 1106 
1105 1106 1107 
1106 1107 1108 
1107 1108 1109 
1108 1109 1110 
1109 1110 1111 
1110 1111 1112 
1111 1112 1113 
1112 1113 1114 
1113 1114 1115 
1114 1115 1116 
1115 1116 1117 
1116 1117 1118 
1117 1118 1119 
1118 1119 1120 
1119 1120 1121 
1120 1121 1122 
1121 1122 1123 
1122 1123 1124 
1123 1124 1125 
1124 1125 1126 
1125 1126 1127 
1126 1127 1128 
1127 1128 1129 
1128 1129 1130 
1129 1130 1131 
1130 1131 1132 
1131 1132 1133 
1132 1133 1134 
1133 1134 1135 
1134 1135 1136 
1135 1136 1137 
1136 1137 1138 
1137 1138 1139 
1138 1139 1140 
1139 1140 1141 
1140 1141 1142 
1141 1142 1143 
1142 1143 1144 
1143 1144 1145 
1144 1145 1146 
1145 1146 1147 
1146 1147 1148 
1147 1148 1149 
1148 1149 1150 
1149 1150 1151 
1150 1151 1152 
1151 1152 1153 
1152 1153 1154 
1153 1154 1155 
1154 1155 1156 
1155 1156 1157 
1156 1157 1158 
1157 1158 1159 
1158 1159 1160 
1159 1160 1161 
1160 1161 1162 
1161 1162 1163 
1162 1163 1164 
1163 1164 1165 
1164 1165 1166 
1165 1166 1167 
1166 1167 1168 
1167 1168 1169 
1168 1169 1170 
1169 1170 1171 
1170 1171 1172 
1171 1172 1173 
1172 1173 1174 
1173 1174 1175 
1174 1175 1176 
1175 1176 1177 
1176 1177 1178 
1177 1178 1179 
1178 1179 1180 
1179 1180 1181 
1180 1181 1182 
1181 1182 1183 
1182 1183 1184 
1183 1184 1185 
1184 1185 1186 
1185 1186 1187 
1186 1187 1188 
1187 1188 1189 
1188 1189 1190 
1189 1190 1191 
1190 1191 1192 
1191 1192 1193 
1192 1193 1194 
1193 1194 1195 
1194 1195 1196 
1195 1196 1197 
1196 1197 1198 
1197 1198 1199 
1198 1199 1200 
1199 1200 1201 
1200 1201 1202 
1201 1202 1203 
1202 1203 1204 
1203 1204 1205 
1204 1205 1206 
1205 1206 1207 
1206 1207 1208 
1207 1208 1209 
1208 1209 1210 
1209 1210 1211 
1210 1211 1212 
1211 1212 1213 
1212 1213 1214 
1213 1214 1215 
1214 1215 1216 
1215 1216 1217 
1216 1217 1218 
1217 1218 1219 
1218 1219 1220 
1219 1220 1221 
1220 1221 1222 
1221 1222 1223 
1222 1223 1224 
1223 1224 1225 
1224 1225 1226 
1225 1226 1227 
1226 1227 1228 
1227 1228 1229 
1228 1229 1230 
1229 1230 1231 
1230 1231 1232 
1231 1232 1233 
1232 1233 1234 
1233 1234 1235 
1234 1235 1236 
1235 1236 1237 
1236 1237 1238 
1237 1238 1239 
1238 1239 1240 
1239 1240 1241 
1240 1241 1242 
1241 1242 1243 
1242 1243 1244 
1243 1244 1245 
1244 1245 1246 
1245 1246 1247 
1246 1247 1248 
1247 1248 1249 
1248 1249 1250 
1249 1250 1251 
1250 1251 1252 
1251 1252 1253 
1252 1253 1254 
1253 1254 1255 
1254 1255 1256 
1255 1256 1257 
1256 1257 1258 
1257 1258 1259 
1258 1259 1260 
1259 1260 1261 
1260 1261 1262 
1261 1262 1263 
1262 1263 1264 
1263 1264 1265 
1264 1265 1266 
1265 1266 1267 
1266 1267 1268 
1267 1268 1269 
1268 1269 1270 
1269 1270 1271 
1270 1271 1272 
1271 1272 1273 
1272 1273 1274 
1273 1274 1275 
1274 1275 1276 
1275 1276 1277 
1276 1277 1278 
1277 1278 1279 
1278 1279 1280 
1279 1280 1281 
1280 1281 1282 
1281 1282 1283 
1282 1283 1284 
1283 1284 1285 
1284 1285 1286 
1285 1286 1287 
1286 1287 1288 
1287 1288 1289 
1288 1289 1290 
1289 1290 1291 
1290 1291 1292 
1291 1292 1293 
1292 1293 1294 
1293 1294 1295 
1294 1295 1296 
1295 1296 1297 
1296 1297 1298 
1297 1298 1299 
1298 1299 1300 
1299 1300 1301 
1300 1301 1302 
1301 1302 1303 
1302 1303 1304 
1303 1304 1305 
1304 1305 1306 
1305 1306 1307 
1306 1307 1308 
1307 1308 1309 
1308 1309 1310 
1309 1310 1311 
1310 1311 1312 
1311 1312 1313 
1312 1313 1314 
1313 1314 1315 
1314 1315 1316 
1315 1316 1317 
1316 1317 1318 
1317 1318 1319 
1318 1319 1320 
1319 1320 1321 
1320 1321 1322 
1321 1322 1323 
1322 1323 1324 
1323 1324 1325 
1324 1325 1326 
1325 1326 1327 
1326 1327 1328 
1327 1328 1329 
1328 1329 1330 
1329 1330 1331 
1330 1331 1332 
1331 1332 1333 
1332 1333 1334 
1333 1334 1335 
1334 1335 1336 
1335 1336 1337 
1336 1337 1338 
1337 1338 1339 
1338 1339 1340 
1339 1340 1341 
1340 1341 1342 
1341 1342 1343 
1342 1343 1344 
1343 1344 1345 
1344 1345 1346 
1345 1346 1347 
1346 1347 1348 
1347 1348 1349 
1348 1349 1350 
1349 1350 1351 
1350 1351 1352 
1351 1352 1353 
1352 1353 1354 
1353 1354 1355 
1354 1355 1356 
1355 1356 1357 
1356 1357 1358 
1357 1358 1359 
1358 1359 1360 
1359 1360 1361 
1360 1361 1362 
1361 1362 1363 
1362 1363 1364 
1363 1364 1365 
1364 1365 1366 
1365 1366 1367 
1366 1367 1368 
1367 1368 1369 
1368 1369 1370 
1369 1370 1371 
1370 1371 1372 
1371 1372 1373 
1372 1373 1374 
1373 1374 1375 
1374 1375 1376 
1375 1376 1377 
1376 1377 1378 
1377 1378 1379 
1378 1379 1380 
1379 1380 1381 
1380 1381 1382 
1381 1382 1383 
1382 1383 1384 
1383 1384 1385 
1384 1385 1386 
1385 1386 1387 
1386 1387 1388 
1387 1388 1389 
1388 1389 1390 
1389 1390 1391 
1390 1391 1392 
1391 1392 1393 
1392 1393 1394 
1393 1394 1395 
1394 1395 1396 
1395 1396 1397 
1396 1397 1398 
1397 1398 1399 
1398 1399 1400 
1399 1400 1401 
1400 1401 1402 
1401 1402 1403 
1402 1403 1404 
1403 1404 1405 
1404 1405 1406 
1405 1406 1407 
1406 1407 1408 
1407 1408 1409 
1408 1409 1410 
1409 1410 1411 
1410 1411 1412 
1411 1412 1413 
1412 1413 1414 
1413 1414 1415 
1414 1415 1416 
1415 1416 1417 
1416 1417 1418 
1417 1418 1419 
1418 1419 1420 
1419 1420 1421 
1420 1421 1422 
1421 1422 1423 
1422 1423 1424 
1423 1424 1425 
1424 1425 1426 
1425 1426 1427 
1426 1427 1428 
1427 1428 1429 
1428 1429 1430 
1429 1430 1431 
1430 1431 1432 
1431 1432 1433 
1432 1433 1434 
1433 1434 1435 
1434 1435 1436 
1435 1436 1437 
1436 1437 1438 
1437 1438 1439 
1438 1439 1440 
1439 1440 1441 
1440 1441 1442 
1441 1442 1443 
1442 1443 1444 
1443 1444 1445 
1444 1445 1446 
1445 1446 1447 
1446 1447 1448 
1447 1448 1449 
1448 1449 1450 
1449 1450 1451 
1450 1451 1452 
1451 1452 1453 
1452 1453 1454 
1453 1454 1455 
1454 1455 1456 
1455 1456 1457 
1456 1457 1458 
1457 1458 1459 
1458 1459 1460 
1459 1460 1461 
1460 1461 1462 
1461 1462 1463 
1462 1463 1464 
1463 1464 1465 
1464 1465 1466 
1465 1466 1467 
1466 1467 1468 
1467 1468 1469 
1468 1469 1470 
1469 1470 1471 
1470 1471 1472 
1471 1472 1473 
1472 1473 1474 
1473 1474 1475 
1474 1475 1476 
1475 1476 1477 
1476 1477 1478 
1477 1478 1479 
1478 1479 1480 
1479 1480 1481 
1480 1481 1482 
1481 1482 1483 
1482 1483 1484 
1483 1484 1485 
1484 1485 1486 
1485 1486 1487 
1486 1487 1488 
1487 1488 1489 
1488 1489 1490 
1489 1490 1491 
1490 1491 1492 
1491 1492 1493 
1492 1493 1494 
1493 1494 1495 
1494 1495 1496 
1495 1496 1497 
1496 1497 1498 
1497 1498 1499 
1498 1499 1500 
1499 1500 1501 
1500 1501 1502 
1501 1502 1503 
1502 1503 1504 
1503 1504 1505 
1504 1505 1506 
1505 1506 1507 
1506 1507 1508 
1507 1508 1509 
1508 1509 1510 
1509 1510 1511 
1510 1511 1512 
1511 1512 1513 
1512 1513 1514 
1513 1514 1515 
1514 1515 1516 
1515 1516 1517 
1516 1517 1518 
1517 1518 1519 
1518 1519 1520 
1519 1520 1521 
1520 1521 1522 
1521 1522 1523 
1522 1523 1524 
1523 1524 1525 
1524 1525 1526 
1525 1526 1527 
1526 1527 1528 
1527 1528 1529 
1528 1529 1530 
1529 1530 1531 
1530 1531 1532 
1531 1532 1533 
1532 1533 1534 
1533 1534 1535 
1534 1535 1536 
1535 1536 1537 
1536 1537 1538 
1537 1538 1539 
1538 1539 1540 
1539 1540 1541 
1540 1541 1542 
1541 1542 1543 
1542 1543 1544 
1543 1544 1545 
1544 1545 1546 
1545 1546 1547 
1546 1547 1548 
1547 1548 1549 
1548 1549 1550 
1549 1550 1551 
1550 1551 1552 
1551 1552 1553 
1552 1553 1554 
1553 1554 1555 
1554 1555 1556 
1555 1556 1557 
1556 1557 1558 
1557 1558 1559 
1558 1559 1560 
1559 1560 1561 
1560 1561 1562 
1561 1562 1563 
1562 1563 1564 
1563 1564 1565 
1564 1565 1566 
1565 1566 1567 
1566 1567 1568 
1567 1568 1569 
1568 1569 1570 
1569 1570 1571 
1570 1571 1572 
1571 1572 1573 
1572 1573 1574 
1573 1574 1575 
1574 1575 1576 
1575 1576 1577 
1576 1577 1578 
1577 1578 1579 
1578 1579 1580 
1579 1580 1581 
1580 1581 1582 
1581 1582 1583 
1582 1583 1584 
1583 1584 1585 
1584 1585 1586 
1585 1586 1587 
1586 1587 1588 
1587 1588 1589 
1588 1589 1590 
1589 1590 1591 
1590 1591 1592 
1591 1592 1593 
1592 1593 1594 
1593 1594 1595 
1594 1595 1596 
1595 1596 1597 
1596 1597 1598 
1597 1598 1599 
1598 1599 1600 
1599 1600 1601 
1600 1601 1602 
1601 1602 1603 
1602 1603 1604 
1603 1604 1605 
1604 1605 1606 
1605 1606 1607 
1606 1607 1608 
1607 1608 1609 
1608 1609 1610 
1609 1610 1611 
1610 1611 1612 
1611 1612 1613 
1612 1613 1614 
1613 1614 1615 
1614 1615 1616 
1615 1616 1617 
1616 1617 1618 
1617 1618 1619 
1618 1619 1620 
1619 1620 1621 
1620 1621 1622 
1621 1622 1623 
1622 1623 1624 
1623 1624 1625 
1624 1625 1626 
1625 1626 1627 
1626 1627 1628 
1627 1628 1629 
1628 1629 1630 
1629 1630 1631 
1630 1631 1632 
1631 1632 1633 
1632 1633 1634 
1633 1634 1635 
1634 1635 1636 
1635 1636 1637 
1636 1637 1638 
1637 1638 1639 
1638 1639 1640 
1639 1640 1641 
1640 1641 1642 
1641 1642 1643 
1642 1643 1644 
1643 1644 1645 
1644 1645 1646 
1645 1646 1647 
1646 1647 1648 
1647 1648 1649 
1648 1649 1650 
1649 1650 1651 
1650 1651 1652 
1651 1652 1653 
1652 1653 1654 
1653 1654 1655 
1654 1655 1656 
1655 1656 1657 
1656 1657 1658 
1657 1658 1659 
1658 1659 1660 
1659 1660 1661 
1660 1661 1662 
1661 1662 1663 
1662 1663 1664 
1663 1664 1665 
1664 1665 1666 
1665 1666 1667 
1666 1667 1668 
1667 1668 1669 
1668 1669 1670 
1669 1670 1671 
1670 1671 1672 
1671 1672 1673 
1672 1673 1674 
1673 1674 1675 
1674 1675 1676 
1675 1676 1677 
1676 1677 1678 
1677 1678 1679 
1678 1679 1680 
1679 1680 1681 
1680 1681 1682 
1681 1682 1683 
1682 1683 1684 
1683 1684 1685 
1684 1685 1686 
1685 1686 1687 
1686 1687 1688 
1687 1688 1689 
1688 1689 1690 
1689 1690 1691 
1690 1691 1692 
1691 1692 1693 
1692 1693 1694 
1693 1694 1695 
1694 1695 1696 
1695 1696 1697 
1696 1697 1698 
1697 1698 1699 
1698 1699 1700 
1699 1700 1701 
1700 1701 1702 
1701 1702 1703 
1702 1703 1704 
1703 1704 1705 
1704 1705 1706 
1705 1706 1707 
1706 1707 1708 
1707 1708 1709 
1708 1709 1710 
1709 1710 1711 
1710 1711 1712 
1711 1712 1713 
1712 1713 1714 
1713 1714 1715 
1714 1715 1716 
1715 1716 1717 
1716 1717 1718 
1717 1718 1719 
1718 1719 1720 
1719 1720 1721 
1720 1721 1722 
1721 1722 1723 
1722 1723 1724 
1723 1724 1725 
1724 1725 1726 
1725 1726 1727 
1726 1727 1728 
1727 1728 1729 
1728 1729 1730 
1729 1730 1731 
1730 1731 1732 
1731 1732 1733 
1732 1733 1734 
1733 1734 1735 
1734 1735 1736 
1735 1736 1737 
1736 1737 1738 
1737 1738 1739 
1738 1739 1740 
1739 1740 1741 
1740 1741 1742 
1741 1742 1743 
1742 1743 1744 
1743 1744 1745 
1744 1745 1746 
1745 1746 1747 
1746 1747 1748 
1747 1748 1749 
1748 1749 1750 
1749 1750 1751 
1750 1751 1752 
1751 1752 1753 
1752 1753 1754 
1753 1754 1755 
1754 1755 1756 
1755 1756 1757 
1756 1757 1758 
1757 1758 1759 
1758 1759 1760 
1759 1760 1761 
1760 1761 1762 
1761 1762 1763 
1762 1763 1764 
1763 1764 1765 
1764 1765 1766 
1765 1766 1767 
1766 1767 1768 
1767 1768 1769 
1768 1769 1770 
1769 1770 1771 
1770 1771 1772 
1771 1772 1773 
1772 1773 1774 
1773 1774 1775 
1774 1775 1776 
1775 1776 1777 
1776 1777 1778 
1777 1778 1779 
1778 1779 1780 
1779 1780 1781 
1780 1781 1782 
1781 1782 1783 
1782 1783 1784 
1783 1784 1785 
1784 1785 1786 
1785 1786 1787 
1786 1787 1788 
1787 1788 1789 
1788 1789 1790 
1789 1790 1791 
1790 1791 1792 
1791 1792 1793 
1792 1793 1794 
1793 1794 1795 
1794 1795 1796 
1795 1796 1797 
1796 1797 1798 
1797 1798 1799 
1798 1799 1800 
1799 1800 1801 
1800 1801 1802 
1801 1802 1803 
1802 1803 1804 
1803 1804 1805 
1804 1805 1806 
1805 1806 1807 
1806 1807 1808 
1807 1808 1809 
1808 1809 1810 
1809 1810 1811 
1810 1811 1812 
1811 1812 1813 
1812 1813 1814 
1813 1814 1815 
1814 1815 1816 
1815 1816 1817 
1816 1817 1818 
1817 1818 1819 
1818 1819 1820 
1819 1820 1821 
1820 1821 1822 
1821 1822 1823 
1822 1823 1824 
1823 1824 1825 
1824 1825 1826 
1825 1826 1827 
1826 1827 1828 
1827 1828 1829 
1828 1829 1830 
1829 1830 1831 
1830 1831 1832 
1831 1832 1833 
1832 1833 1834 
1833 1834 1835 
1834 1835 1836 
1835 1836 1837 
1836 1837 1838 
1837 1838 1839 
1838 1839 1840 
1839 1840 1841 
1840 1841 1842 
1841 1842 1843 
1842 1843 1844 
1843 1844 1845 
1844 1845 1846 
1845 1846 1847 
1846 1847 1848 
1847 1848 1849 
1848 1849 1850 
1849 1850 1851 
1850 1851 1852 
1851 1852 1853 
1852 1853 1854 
1853 1854 1855 
1854 1855 1856 
1855 1856 1857 
1856 1857 1858 
1857 1858 1859 
1858 1859 1860 
1859 1860 1861 
1860 1861 1862 
1861 1862 1863 
1862 1863 1864 
1863 1864 1865 
1864 1865 1866 
1865 1866 4 
1 4 1 20
1866 4 1867 
1867 1867 1868 
1868 1868 1869 
1869 1869 1870 
1870 1870 1871 
1871 1871 1872 
1872 1872 1873 
1873 1873 1874 
1874 1874 1875 
1875 1875 1876 
1876 1876 1877 
1877 1877 1878 
1878 1878 1879 
1879 1879 1880 
1880 1880 1881 
1881 1881 1882 
1882 1882 1883 
1883 1883 1884 
1884 1884 1885 
1885 1885 5 
$EndElements
