$MeshFormat
4.1 0 8
$EndMeshFormat
$PhysicalNames
2
1 1 "Air"
1 2 "GaN"
$EndPhysicalNames
$Entities
3 2 0 0
1 0 0 0 0 
2 400 0 0 0 
3 1400 0 0 0 
1 0 0 0 400 0 0 1 1 2 1 -2 
2 400 0 0 1400 0 0 1 2 2 2 -3 
$EndEntities
$Nodes
5 1401 1 1401
0 1 0 1
1
0 0 0
0 2 0 1
2
400 0 0
0 3 0 1
3
1400 0 0
1 1 0 399
4
5
6
7
8
9
10
11
12
13
14
15
16
17
18
19
20
21
22
23
24
25
26
27
28
29
30
31
32
33
34
35
36
37
38
39
40
41
42
43
44
45
46
47
48
49
50
51
52
53
54
55
56
57
58
59
60
61
62
63
64
65
66
67
68
69
70
71
72
73
74
75
76
77
78
79
80
81
82
83
84
85
86
87
88
89
90
91
92
93
94
95
96
97
98
99
100
101
102
103
104
105
106
107
108
109
110
111
112
113
114
115
116
117
118
119
120
121
122
123
124
125
126
127
128
129
130
131
132
133
134
135
136
137
138
139
140
141
142
143
144
145
146
147
148
149
150
151
152
153
154
155
156
157
158
159
160
161
162
163
164
165
166
167
168
169
170
171
172
173
174
175
176
177
178
179
180
181
182
183
184
185
186
187
188
189
190
191
192
193
194
195
196
197
198
199
200
201
202
203
204
205
206
207
208
209
210
211
212
213
214
215
216
217
218
219
220
221
222
223
224
225
226
227
228
229
230
231
232
233
234
235
236
237
238
239
240
241
242
243
244
245
246
247
248
249
250
251
252
253
254
255
256
257
258
259
260
261
262
263
264
265
266
267
268
269
270
271
272
273
274
275
276
277
278
279
280
281
282
283
284
285
286
287
288
289
290
291
292
293
294
295
296
297
298
299
300
301
302
303
304
305
306
307
308
309
310
311
312
313
314
315
316
317
318
319
320
321
322
323
324
325
326
327
328
329
330
331
332
333
334
335
336
337
338
339
340
341
342
343
344
345
346
347
348
349
350
351
352
353
354
355
356
357
358
359
360
361
362
363
364
365
366
367
368
369
370
371
372
373
374
375
376
377
378
379
380
381
382
383
384
385
386
387
388
389
390
391
392
393
394
395
396
397
398
399
400
401
402
0.9999999999960318 0 0
1.999999999992064 0 0
2.999999999988095 0 0
3.999999999984176 0 0
4.999999999980263 0 0
5.99999999997635 0 0
6.999999999972478 0 0
7.999999999968621 0 0
8.999999999964764 0 0
9.999999999960837 0 0
10.99999999995687 0 0
11.9999999999529 0 0
12.99999999994882 0 0
13.99999999994463 0 0
14.99999999994044 0 0
15.99999999993621 0 0
16.9999999999319 0 0
17.9999999999276 0 0
18.9999999999233 0 0
19.999999999919 0 0
20.9999999999147 0 0
21.99999999991042 0 0
22.99999999990634 0 0
23.99999999990226 0 0
24.99999999989819 0 0
25.99999999989455 0 0
26.99999999989091 0 0
27.99999999988728 0 0
28.99999999988384 0 0
29.99999999988043 0 0
30.99999999987702 0 0
31.99999999987359 0 0
32.99999999987019 0 0
33.99999999986677 0 0
34.99999999986336 0 0
35.99999999985994 0 0
36.99999999985653 0 0
37.99999999985312 0 0
38.99999999984971 0 0
39.9999999998463 0 0
40.99999999984288 0 0
41.99999999983947 0 0
42.99999999983606 0 0
43.99999999983265 0 0
44.99999999982924 0 0
45.99999999982581 0 0
46.99999999982235 0 0
47.99999999981848 0 0
48.99999999981463 0 0
49.99999999981078 0 0
50.99999999980604 0 0
51.9999999998013 0 0
52.99999999979654 0 0
53.99999999979141 0 0
54.99999999978622 0 0
55.99999999978104 0 0
56.99999999977584 0 0
57.99999999977066 0 0
58.99999999976546 0 0
59.99999999976028 0 0
60.99999999975508 0 0
61.9999999997499 0 0
62.9999999997447 0 0
63.99999999973952 0 0
64.99999999973434 0 0
65.99999999972916 0 0
66.99999999972394 0 0
67.99999999971877 0 0
68.99999999971357 0 0
69.99999999970838 0 0
70.99999999970321 0 0
71.99999999969799 0 0
72.9999999996928 0 0
73.99999999968762 0 0
74.99999999968243 0 0
75.99999999967724 0 0
76.99999999967204 0 0
77.99999999966684 0 0
78.99999999966167 0 0
79.99999999965648 0 0
80.99999999965128 0 0
81.99999999964609 0 0
82.99999999964089 0 0
83.9999999996357 0 0
84.99999999963052 0 0
85.99999999962533 0 0
86.99999999962013 0 0
87.99999999961494 0 0
88.99999999960976 0 0
89.99999999960457 0 0
90.99999999959938 0 0
91.99999999959417 0 0
92.99999999958899 0 0
93.99999999958379 0 0
94.99999999957861 0 0
95.9999999995734 0 0
96.99999999956822 0 0
97.99999999956303 0 0
98.99999999955784 0 0
99.99999999955266 0 0
100.9999999995475 0 0
101.9999999995423 0 0
102.9999999995371 0 0
103.9999999995319 0 0
104.9999999995267 0 0
105.9999999995215 0 0
106.9999999995163 0 0
107.9999999995111 0 0
108.9999999995059 0 0
109.9999999995007 0 0
110.9999999994955 0 0
111.9999999994904 0 0
112.9999999994852 0 0
113.99999999948 0 0
114.9999999994748 0 0
115.9999999994696 0 0
116.9999999994644 0 0
117.9999999994592 0 0
118.999999999454 0 0
119.9999999994488 0 0
120.9999999994436 0 0
121.9999999994384 0 0
122.9999999994333 0 0
123.9999999994281 0 0
124.9999999994229 0 0
125.9999999994195 0 0
126.999999999416 0 0
127.9999999994126 0 0
128.9999999994107 0 0
129.9999999994091 0 0
130.9999999994075 0 0
131.9999999994059 0 0
132.9999999994042 0 0
133.9999999994025 0 0
134.9999999994009 0 0
135.9999999993993 0 0
136.9999999993977 0 0
137.999999999396 0 0
138.9999999993944 0 0
139.9999999993927 0 0
140.9999999993911 0 0
141.9999999993894 0 0
142.9999999993878 0 0
143.9999999993861 0 0
144.9999999993845 0 0
145.9999999993829 0 0
146.9999999993813 0 0
147.9999999993796 0 0
148.999999999378 0 0
149.9999999993763 0 0
150.9999999993747 0 0
151.999999999373 0 0
152.9999999993714 0 0
153.9999999993698 0 0
154.9999999993682 0 0
155.9999999993665 0 0
156.9999999993649 0 0
157.9999999993632 0 0
158.9999999993616 0 0
159.9999999993599 0 0
160.9999999993583 0 0
161.9999999993567 0 0
162.999999999355 0 0
163.9999999993534 0 0
164.9999999993518 0 0
165.9999999993501 0 0
166.9999999993485 0 0
167.9999999993468 0 0
168.9999999993452 0 0
169.9999999993436 0 0
170.9999999993419 0 0
171.9999999993403 0 0
172.9999999993386 0 0
173.999999999337 0 0
174.9999999993354 0 0
175.9999999993337 0 0
176.9999999993321 0 0
177.9999999993304 0 0
178.9999999993288 0 0
179.9999999993272 0 0
180.9999999993255 0 0
181.9999999993239 0 0
182.9999999993222 0 0
183.9999999993206 0 0
184.999999999319 0 0
185.9999999993173 0 0
186.9999999993157 0 0
187.999999999314 0 0
188.9999999993124 0 0
189.9999999993108 0 0
190.9999999993091 0 0
191.9999999993074 0 0
192.9999999993058 0 0
193.9999999993042 0 0
194.9999999993026 0 0
195.9999999993009 0 0
196.9999999992993 0 0
197.9999999992976 0 0
198.999999999296 0 0
199.9999999992944 0 0
200.9999999992927 0 0
201.999999999291 0 0
202.9999999992894 0 0
203.9999999992878 0 0
204.9999999992862 0 0
205.9999999992845 0 0
206.9999999992829 0 0
207.9999999992812 0 0
208.9999999992796 0 0
209.999999999278 0 0
210.9999999992764 0 0
211.9999999992747 0 0
212.9999999992731 0 0
213.9999999992714 0 0
214.9999999992698 0 0
215.9999999992681 0 0
216.9999999992665 0 0
217.9999999992649 0 0
218.9999999992632 0 0
219.9999999992616 0 0
220.9999999992599 0 0
221.9999999992583 0 0
222.9999999992567 0 0
223.999999999255 0 0
224.9999999992534 0 0
225.9999999992517 0 0
226.9999999992501 0 0
227.9999999992484 0 0
228.9999999992468 0 0
229.9999999992452 0 0
230.9999999992436 0 0
231.9999999992419 0 0
232.9999999992403 0 0
233.9999999992386 0 0
234.999999999237 0 0
235.9999999992353 0 0
236.9999999992337 0 0
237.9999999992321 0 0
238.9999999992304 0 0
239.9999999992288 0 0
240.9999999992272 0 0
241.9999999992255 0 0
242.9999999992239 0 0
243.9999999992222 0 0
244.9999999992206 0 0
245.9999999992189 0 0
246.9999999992173 0 0
247.9999999992157 0 0
248.999999999214 0 0
249.9999999992124 0 0
250.9999999992107 0 0
251.9999999992091 0 0
252.9999999992075 0 0
253.9999999992089 0 0
254.9999999992109 0 0
255.9999999992128 0 0
256.9999999992174 0 0
257.9999999992228 0 0
258.9999999992284 0 0
259.9999999992338 0 0
260.9999999992393 0 0
261.9999999992447 0 0
262.9999999992502 0 0
263.9999999992557 0 0
264.9999999992611 0 0
265.9999999992666 0 0
266.9999999992721 0 0
267.9999999992775 0 0
268.999999999283 0 0
269.9999999992885 0 0
270.999999999294 0 0
271.9999999992995 0 0
272.9999999993049 0 0
273.9999999993104 0 0
274.9999999993159 0 0
275.9999999993213 0 0
276.9999999993268 0 0
277.9999999993323 0 0
278.9999999993378 0 0
279.9999999993433 0 0
280.9999999993487 0 0
281.9999999993542 0 0
282.9999999993596 0 0
283.9999999993652 0 0
284.9999999993706 0 0
285.9999999993761 0 0
286.9999999993815 0 0
287.999999999387 0 0
288.9999999993926 0 0
289.999999999398 0 0
290.9999999994034 0 0
291.9999999994089 0 0
292.9999999994143 0 0
293.9999999994199 0 0
294.9999999994254 0 0
295.9999999994308 0 0
296.9999999994362 0 0
297.9999999994417 0 0
298.9999999994473 0 0
299.9999999994527 0 0
300.9999999994582 0 0
301.9999999994636 0 0
302.9999999994691 0 0
303.9999999994746 0 0
304.9999999994801 0 0
305.9999999994855 0 0
306.999999999491 0 0
307.9999999994965 0 0
308.999999999502 0 0
309.9999999995075 0 0
310.9999999995129 0 0
311.9999999995184 0 0
312.9999999995238 0 0
313.9999999995293 0 0
314.9999999995348 0 0
315.9999999995403 0 0
316.9999999995457 0 0
317.9999999995512 0 0
318.9999999995567 0 0
319.9999999995622 0 0
320.9999999995676 0 0
321.999999999573 0 0
322.9999999995786 0 0
323.9999999995841 0 0
324.9999999995895 0 0
325.999999999595 0 0
326.9999999996004 0 0
327.999999999606 0 0
328.9999999996114 0 0
329.9999999996169 0 0
330.9999999996223 0 0
331.9999999996278 0 0
332.9999999996333 0 0
333.9999999996388 0 0
334.9999999996443 0 0
335.9999999996497 0 0
336.9999999996552 0 0
337.9999999996606 0 0
338.9999999996662 0 0
339.9999999996716 0 0
340.9999999996771 0 0
341.9999999996826 0 0
342.999999999688 0 0
343.9999999996935 0 0
344.999999999699 0 0
345.9999999997045 0 0
346.9999999997099 0 0
347.9999999997154 0 0
348.9999999997209 0 0
349.9999999997264 0 0
350.9999999997318 0 0
351.9999999997373 0 0
352.9999999997427 0 0
353.9999999997482 0 0
354.9999999997538 0 0
355.9999999997592 0 0
356.9999999997647 0 0
357.9999999997701 0 0
358.9999999997756 0 0
359.9999999997811 0 0
360.9999999997866 0 0
361.999999999792 0 0
362.9999999997975 0 0
363.999999999803 0 0
364.9999999998084 0 0
365.9999999998139 0 0
366.9999999998194 0 0
367.9999999998248 0 0
368.9999999998304 0 0
369.9999999998358 0 0
370.9999999998413 0 0
371.9999999998467 0 0
372.9999999998522 0 0
373.9999999998577 0 0
374.9999999998632 0 0
375.9999999998686 0 0
376.9999999998741 0 0
377.9999999998795 0 0
378.9999999998851 0 0
379.9999999998906 0 0
380.999999999896 0 0
381.9999999999015 0 0
382.9999999999069 0 0
383.9999999999123 0 0
384.9999999999179 0 0
385.9999999999234 0 0
386.9999999999288 0 0
387.9999999999343 0 0
388.9999999999397 0 0
389.9999999999453 0 0
390.9999999999507 0 0
391.9999999999562 0 0
392.9999999999616 0 0
393.9999999999671 0 0
394.9999999999726 0 0
395.9999999999781 0 0
396.9999999999835 0 0
397.999999999989 0 0
398.9999999999945 0 0
1 2 0 999
403
404
405
406
407
408
409
410
411
412
413
414
415
416
417
418
419
420
421
422
423
424
425
426
427
428
429
430
431
432
433
434
435
436
437
438
439
440
441
442
443
444
445
446
447
448
449
450
451
452
453
454
455
456
457
458
459
460
461
462
463
464
465
466
467
468
469
470
471
472
473
474
475
476
477
478
479
480
481
482
483
484
485
486
487
488
489
490
491
492
493
494
495
496
497
498
499
500
501
502
503
504
505
506
507
508
509
510
511
512
513
514
515
516
517
518
519
520
521
522
523
524
525
526
527
528
529
530
531
532
533
534
535
536
537
538
539
540
541
542
543
544
545
546
547
548
549
550
551
552
553
554
555
556
557
558
559
560
561
562
563
564
565
566
567
568
569
570
571
572
573
574
575
576
577
578
579
580
581
582
583
584
585
586
587
588
589
590
591
592
593
594
595
596
597
598
599
600
601
602
603
604
605
606
607
608
609
610
611
612
613
614
615
616
617
618
619
620
621
622
623
624
625
626
627
628
629
630
631
632
633
634
635
636
637
638
639
640
641
642
643
644
645
646
647
648
649
650
651
652
653
654
655
656
657
658
659
660
661
662
663
664
665
666
667
668
669
670
671
672
673
674
675
676
677
678
679
680
681
682
683
684
685
686
687
688
689
690
691
692
693
694
695
696
697
698
699
700
701
702
703
704
705
706
707
708
709
710
711
712
713
714
715
716
717
718
719
720
721
722
723
724
725
726
727
728
729
730
731
732
733
734
735
736
737
738
739
740
741
742
743
744
745
746
747
748
749
750
751
752
753
754
755
756
757
758
759
760
761
762
763
764
765
766
767
768
769
770
771
772
773
774
775
776
777
778
779
780
781
782
783
784
785
786
787
788
789
790
791
792
793
794
795
796
797
798
799
800
801
802
803
804
805
806
807
808
809
810
811
812
813
814
815
816
817
818
819
820
821
822
823
824
825
826
827
828
829
830
831
832
833
834
835
836
837
838
839
840
841
842
843
844
845
846
847
848
849
850
851
852
853
854
855
856
857
858
859
860
861
862
863
864
865
866
867
868
869
870
871
872
873
874
875
876
877
878
879
880
881
882
883
884
885
886
887
888
889
890
891
892
893
894
895
896
897
898
899
900
901
902
903
904
905
906
907
908
909
910
911
912
913
914
915
916
917
918
919
920
921
922
923
924
925
926
927
928
929
930
931
932
933
934
935
936
937
938
939
940
941
942
943
944
945
946
947
948
949
950
951
952
953
954
955
956
957
958
959
960
961
962
963
964
965
966
967
968
969
970
971
972
973
974
975
976
977
978
979
980
981
982
983
984
985
986
987
988
989
990
991
992
993
994
995
996
997
998
999
1000
1001
1002
1003
1004
1005
1006
1007
1008
1009
1010
1011
1012
1013
1014
1015
1016
1017
1018
1019
1020
1021
1022
1023
1024
1025
1026
1027
1028
1029
1030
1031
1032
1033
1034
1035
1036
1037
1038
1039
1040
1041
1042
1043
1044
1045
1046
1047
1048
1049
1050
1051
1052
1053
1054
1055
1056
1057
1058
1059
1060
1061
1062
1063
1064
1065
1066
1067
1068
1069
1070
1071
1072
1073
1074
1075
1076
1077
1078
1079
1080
1081
1082
1083
1084
1085
1086
1087
1088
1089
1090
1091
1092
1093
1094
1095
1096
1097
1098
1099
1100
1101
1102
1103
1104
1105
1106
1107
1108
1109
1110
1111
1112
1113
1114
1115
1116
1117
1118
1119
1120
1121
1122
1123
1124
1125
1126
1127
1128
1129
1130
1131
1132
1133
1134
1135
1136
1137
1138
1139
1140
1141
1142
1143
1144
1145
1146
1147
1148
1149
1150
1151
1152
1153
1154
1155
1156
1157
1158
1159
1160
1161
1162
1163
1164
1165
1166
1167
1168
1169
1170
1171
1172
1173
1174
1175
1176
1177
1178
1179
1180
1181
1182
1183
1184
1185
1186
1187
1188
1189
1190
1191
1192
1193
1194
1195
1196
1197
1198
1199
1200
1201
1202
1203
1204
1205
1206
1207
1208
1209
1210
1211
1212
1213
1214
1215
1216
1217
1218
1219
1220
1221
1222
1223
1224
1225
1226
1227
1228
1229
1230
1231
1232
1233
1234
1235
1236
1237
1238
1239
1240
1241
1242
1243
1244
1245
1246
1247
1248
1249
1250
1251
1252
1253
1254
1255
1256
1257
1258
1259
1260
1261
1262
1263
1264
1265
1266
1267
1268
1269
1270
1271
1272
1273
1274
1275
1276
1277
1278
1279
1280
1281
1282
1283
1284
1285
1286
1287
1288
1289
1290
1291
1292
1293
1294
1295
1296
1297
1298
1299
1300
1301
1302
1303
1304
1305
1306
1307
1308
1309
1310
1311
1312
1313
1314
1315
1316
1317
1318
1319
1320
1321
1322
1323
1324
1325
1326
1327
1328
1329
1330
1331
1332
1333
1334
1335
1336
1337
1338
1339
1340
1341
1342
1343
1344
1345
1346
1347
1348
1349
1350
1351
1352
1353
1354
1355
1356
1357
1358
1359
1360
1361
1362
1363
1364
1365
1366
1367
1368
1369
1370
1371
1372
1373
1374
1375
1376
1377
1378
1379
1380
1381
1382
1383
1384
1385
1386
1387
1388
1389
1390
1391
1392
1393
1394
1395
1396
1397
1398
1399
1400
1401
401 0 0
402 0 0
403 0 0
404 0 0
405 0 0
406 0 0
407 0 0
408 0 0
408.9999999999999 0 0
409.9999999999999 0 0
410.9999999999999 0 0
411.9999999999999 0 0
412.9999999999999 0 0
413.9999999999999 0 0
414.9999999999999 0 0
415.9999999999999 0 0
416.9999999999999 0 0
417.9999999999999 0 0
418.9999999999999 0 0
419.9999999999999 0 0
420.9999999999999 0 0
421.9999999999999 0 0
422.9999999999999 0 0
423.9999999999999 0 0
424.9999999999999 0 0
425.9999999999999 0 0
426.9999999999999 0 0
427.9999999999999 0 0
428.9999999999999 0 0
429.9999999999999 0 0
430.9999999999999 0 0
431.9999999999999 0 0
432.9999999999999 0 0
433.9999999999999 0 0
434.9999999999999 0 0
435.9999999999999 0 0
436.9999999999999 0 0
437.9999999999999 0 0
438.9999999999999 0 0
439.9999999999999 0 0
440.9999999999999 0 0
441.9999999999998 0 0
442.9999999999998 0 0
443.9999999999998 0 0
444.9999999999998 0 0
445.9999999999998 0 0
446.9999999999998 0 0
447.9999999999998 0 0
448.9999999999998 0 0
449.9999999999998 0 0
450.9999999999998 0 0
451.9999999999998 0 0
452.9999999999998 0 0
453.9999999999998 0 0
454.9999999999998 0 0
455.9999999999998 0 0
456.9999999999998 0 0
457.9999999999998 0 0
458.9999999999998 0 0
459.9999999999998 0 0
460.9999999999998 0 0
461.9999999999998 0 0
462.9999999999998 0 0
463.9999999999998 0 0
464.9999999999998 0 0
465.9999999999998 0 0
466.9999999999998 0 0
467.9999999999998 0 0
468.9999999999998 0 0
469.9999999999998 0 0
470.9999999999998 0 0
471.9999999999998 0 0
472.9999999999998 0 0
473.9999999999998 0 0
474.9999999999998 0 0
475.9999999999997 0 0
476.9999999999997 0 0
477.9999999999997 0 0
478.9999999999997 0 0
479.9999999999997 0 0
480.9999999999997 0 0
481.9999999999997 0 0
482.9999999999997 0 0
483.9999999999997 0 0
484.9999999999997 0 0
485.9999999999997 0 0
486.9999999999997 0 0
487.9999999999997 0 0
488.9999999999997 0 0
489.9999999999997 0 0
490.9999999999997 0 0
491.9999999999997 0 0
492.9999999999997 0 0
493.9999999999997 0 0
494.9999999999997 0 0
495.9999999999997 0 0
496.9999999999997 0 0
497.9999999999997 0 0
498.9999999999997 0 0
499.9999999999997 0 0
500.9999999999997 0 0
501.9999999999997 0 0
502.9999999999997 0 0
503.9999999999997 0 0
504.9999999999997 0 0
505.9999999999997 0 0
506.9999999999996 0 0
507.9999999999996 0 0
508.9999999999996 0 0
509.9999999999996 0 0
510.9999999999996 0 0
511.9999999999996 0 0
512.9999999999995 0 0
513.9999999999995 0 0
514.9999999999995 0 0
515.9999999999995 0 0
516.9999999999995 0 0
517.9999999999995 0 0
518.9999999999995 0 0
519.9999999999995 0 0
520.9999999999995 0 0
521.9999999999995 0 0
522.9999999999995 0 0
523.9999999999995 0 0
524.9999999999995 0 0
525.9999999999995 0 0
526.9999999999995 0 0
527.9999999999995 0 0
528.9999999999995 0 0
529.9999999999995 0 0
530.9999999999995 0 0
531.9999999999995 0 0
532.9999999999995 0 0
533.9999999999995 0 0
534.9999999999995 0 0
535.9999999999995 0 0
536.9999999999995 0 0
537.9999999999995 0 0
538.9999999999995 0 0
539.9999999999995 0 0
540.9999999999995 0 0
541.9999999999995 0 0
542.9999999999995 0 0
543.9999999999995 0 0
544.9999999999995 0 0
545.9999999999995 0 0
546.9999999999995 0 0
547.9999999999995 0 0
548.9999999999995 0 0
549.9999999999995 0 0
550.9999999999995 0 0
551.9999999999994 0 0
552.9999999999994 0 0
553.9999999999994 0 0
554.9999999999994 0 0
555.9999999999994 0 0
556.9999999999994 0 0
557.9999999999994 0 0
558.9999999999994 0 0
559.9999999999994 0 0
560.9999999999994 0 0
561.9999999999994 0 0
562.9999999999994 0 0
563.9999999999994 0 0
564.9999999999994 0 0
565.9999999999994 0 0
566.9999999999994 0 0
567.9999999999994 0 0
568.9999999999994 0 0
569.9999999999994 0 0
570.9999999999994 0 0
571.9999999999994 0 0
572.9999999999994 0 0
573.9999999999994 0 0
574.9999999999993 0 0
575.9999999999993 0 0
576.9999999999993 0 0
577.9999999999993 0 0
578.9999999999993 0 0
579.9999999999993 0 0
580.9999999999993 0 0
581.9999999999993 0 0
582.9999999999993 0 0
583.9999999999993 0 0
584.9999999999993 0 0
585.9999999999993 0 0
586.9999999999993 0 0
587.9999999999993 0 0
588.9999999999993 0 0
589.9999999999993 0 0
590.9999999999993 0 0
591.9999999999993 0 0
592.9999999999993 0 0
593.9999999999993 0 0
594.9999999999993 0 0
595.9999999999993 0 0
596.9999999999993 0 0
597.9999999999993 0 0
598.9999999999993 0 0
599.9999999999993 0 0
600.9999999999993 0 0
601.9999999999993 0 0
602.9999999999993 0 0
603.9999999999993 0 0
604.9999999999993 0 0
605.9999999999993 0 0
606.9999999999993 0 0
607.9999999999993 0 0
608.9999999999993 0 0
609.9999999999993 0 0
610.9999999999993 0 0
611.9999999999993 0 0
612.9999999999993 0 0
613.9999999999992 0 0
614.9999999999992 0 0
615.9999999999992 0 0
616.9999999999992 0 0
617.9999999999992 0 0
618.9999999999992 0 0
619.9999999999992 0 0
620.9999999999992 0 0
621.9999999999992 0 0
622.9999999999992 0 0
623.9999999999992 0 0
624.9999999999992 0 0
625.9999999999992 0 0
626.9999999999992 0 0
627.9999999999992 0 0
628.9999999999992 0 0
629.9999999999992 0 0
630.9999999999992 0 0
631.9999999999992 0 0
632.9999999999992 0 0
633.9999999999992 0 0
634.9999999999992 0 0
635.9999999999992 0 0
636.9999999999991 0 0
637.9999999999991 0 0
638.9999999999991 0 0
639.9999999999991 0 0
640.9999999999991 0 0
641.9999999999991 0 0
642.9999999999991 0 0
643.9999999999991 0 0
644.9999999999991 0 0
645.9999999999991 0 0
646.9999999999991 0 0
647.9999999999991 0 0
648.9999999999991 0 0
649.9999999999991 0 0
650.9999999999991 0 0
651.9999999999991 0 0
652.9999999999991 0 0
653.9999999999991 0 0
654.9999999999991 0 0
655.9999999999991 0 0
656.9999999999991 0 0
657.9999999999991 0 0
658.9999999999991 0 0
659.9999999999991 0 0
660.9999999999991 0 0
661.9999999999991 0 0
662.9999999999991 0 0
663.9999999999991 0 0
664.9999999999991 0 0
665.9999999999991 0 0
666.9999999999991 0 0
667.9999999999991 0 0
668.9999999999991 0 0
669.9999999999991 0 0
670.9999999999991 0 0
671.9999999999991 0 0
672.9999999999991 0 0
673.9999999999991 0 0
674.9999999999991 0 0
675.9999999999991 0 0
676.9999999999991 0 0
677.9999999999991 0 0
678.9999999999991 0 0
679.9999999999991 0 0
680.9999999999991 0 0
681.9999999999991 0 0
682.9999999999991 0 0
683.9999999999991 0 0
684.9999999999991 0 0
685.9999999999991 0 0
686.9999999999991 0 0
687.999999999999 0 0
688.999999999999 0 0
689.999999999999 0 0
690.999999999999 0 0
691.999999999999 0 0
692.999999999999 0 0
693.999999999999 0 0
694.999999999999 0 0
695.999999999999 0 0
696.999999999999 0 0
697.999999999999 0 0
698.999999999999 0 0
699.999999999999 0 0
700.999999999999 0 0
701.999999999999 0 0
702.9999999999989 0 0
703.9999999999989 0 0
704.9999999999989 0 0
705.9999999999989 0 0
706.9999999999989 0 0
707.9999999999989 0 0
708.9999999999989 0 0
709.9999999999989 0 0
710.9999999999989 0 0
711.9999999999989 0 0
712.9999999999989 0 0
713.9999999999989 0 0
714.9999999999989 0 0
715.9999999999989 0 0
716.9999999999989 0 0
717.9999999999989 0 0
718.9999999999989 0 0
719.9999999999989 0 0
720.9999999999989 0 0
721.9999999999989 0 0
722.9999999999989 0 0
723.9999999999989 0 0
724.9999999999989 0 0
725.9999999999989 0 0
726.9999999999989 0 0
727.9999999999989 0 0
728.9999999999989 0 0
729.9999999999989 0 0
730.9999999999989 0 0
731.9999999999989 0 0
732.9999999999989 0 0
733.9999999999989 0 0
734.9999999999989 0 0
735.9999999999989 0 0
736.9999999999989 0 0
737.9999999999989 0 0
738.9999999999989 0 0
739.9999999999989 0 0
740.9999999999989 0 0
741.9999999999989 0 0
742.9999999999989 0 0
743.9999999999989 0 0
744.9999999999989 0 0
745.9999999999989 0 0
746.9999999999989 0 0
747.9999999999989 0 0
748.9999999999989 0 0
749.9999999999987 0 0
750.9999999999987 0 0
751.9999999999987 0 0
752.9999999999987 0 0
753.9999999999987 0 0
754.9999999999987 0 0
755.9999999999987 0 0
756.9999999999987 0 0
757.9999999999987 0 0
758.9999999999987 0 0
759.9999999999987 0 0
760.9999999999987 0 0
761.9999999999987 0 0
762.9999999999987 0 0
763.9999999999987 0 0
764.9999999999986 0 0
765.9999999999986 0 0
766.9999999999986 0 0
767.9999999999986 0 0
768.9999999999986 0 0
769.9999999999986 0 0
770.9999999999986 0 0
771.9999999999986 0 0
772.9999999999986 0 0
773.9999999999986 0 0
774.9999999999986 0 0
775.9999999999986 0 0
776.9999999999986 0 0
777.9999999999986 0 0
778.9999999999986 0 0
779.9999999999986 0 0
780.9999999999986 0 0
781.9999999999986 0 0
782.9999999999986 0 0
783.9999999999986 0 0
784.9999999999986 0 0
785.9999999999986 0 0
786.9999999999986 0 0
787.9999999999986 0 0
788.9999999999986 0 0
789.9999999999986 0 0
790.9999999999986 0 0
791.9999999999986 0 0
792.9999999999986 0 0
793.9999999999986 0 0
794.9999999999986 0 0
795.9999999999986 0 0
796.9999999999986 0 0
797.9999999999986 0 0
798.9999999999986 0 0
799.9999999999986 0 0
800.9999999999986 0 0
801.9999999999986 0 0
802.9999999999986 0 0
803.9999999999986 0 0
804.9999999999986 0 0
805.9999999999986 0 0
806.9999999999986 0 0
807.9999999999986 0 0
808.9999999999986 0 0
809.9999999999986 0 0
810.9999999999986 0 0
811.9999999999985 0 0
812.9999999999985 0 0
813.9999999999985 0 0
814.9999999999985 0 0
815.9999999999985 0 0
816.9999999999985 0 0
817.9999999999985 0 0
818.9999999999985 0 0
819.9999999999985 0 0
820.9999999999985 0 0
821.9999999999985 0 0
822.9999999999985 0 0
823.9999999999985 0 0
824.9999999999985 0 0
825.9999999999985 0 0
826.9999999999984 0 0
827.9999999999984 0 0
828.9999999999984 0 0
829.9999999999984 0 0
830.9999999999984 0 0
831.9999999999984 0 0
832.9999999999984 0 0
833.9999999999984 0 0
834.9999999999984 0 0
835.9999999999984 0 0
836.9999999999984 0 0
837.9999999999984 0 0
838.9999999999984 0 0
839.9999999999984 0 0
840.9999999999984 0 0
841.9999999999984 0 0
842.9999999999984 0 0
843.9999999999984 0 0
844.9999999999984 0 0
845.9999999999984 0 0
846.9999999999984 0 0
847.9999999999984 0 0
848.9999999999984 0 0
849.9999999999984 0 0
850.9999999999984 0 0
851.9999999999984 0 0
852.9999999999984 0 0
853.9999999999984 0 0
854.9999999999984 0 0
855.9999999999984 0 0
856.9999999999984 0 0
857.9999999999984 0 0
858.9999999999984 0 0
859.9999999999984 0 0
860.9999999999984 0 0
861.9999999999984 0 0
862.9999999999984 0 0
863.9999999999984 0 0
864.9999999999984 0 0
865.9999999999984 0 0
866.9999999999984 0 0
867.9999999999984 0 0
868.9999999999984 0 0
869.9999999999984 0 0
870.9999999999984 0 0
871.9999999999984 0 0
872.9999999999984 0 0
873.9999999999983 0 0
874.9999999999983 0 0
875.9999999999983 0 0
876.9999999999983 0 0
877.9999999999983 0 0
878.9999999999983 0 0
879.9999999999983 0 0
880.9999999999983 0 0
881.9999999999983 0 0
882.9999999999983 0 0
883.9999999999983 0 0
884.9999999999983 0 0
885.9999999999983 0 0
886.9999999999983 0 0
887.9999999999983 0 0
888.9999999999982 0 0
889.9999999999982 0 0
890.9999999999982 0 0
891.9999999999982 0 0
892.9999999999982 0 0
893.9999999999982 0 0
894.9999999999982 0 0
895.9999999999982 0 0
896.9999999999982 0 0
897.9999999999982 0 0
898.9999999999982 0 0
899.9999999999982 0 0
900.9999999999982 0 0
901.9999999999982 0 0
902.9999999999982 0 0
903.9999999999982 0 0
904.9999999999982 0 0
905.9999999999982 0 0
906.9999999999982 0 0
907.9999999999982 0 0
908.9999999999982 0 0
909.9999999999982 0 0
910.9999999999982 0 0
911.9999999999982 0 0
912.9999999999982 0 0
913.9999999999982 0 0
914.9999999999982 0 0
915.9999999999982 0 0
916.9999999999983 0 0
917.9999999999983 0 0
918.9999999999983 0 0
919.9999999999983 0 0
920.9999999999983 0 0
921.9999999999983 0 0
922.9999999999983 0 0
923.9999999999983 0 0
924.9999999999983 0 0
925.9999999999983 0 0
926.9999999999983 0 0
927.9999999999983 0 0
928.9999999999983 0 0
929.9999999999983 0 0
930.9999999999983 0 0
931.9999999999983 0 0
932.9999999999983 0 0
933.9999999999984 0 0
934.9999999999984 0 0
935.9999999999984 0 0
936.9999999999984 0 0
937.9999999999984 0 0
938.9999999999984 0 0
939.9999999999984 0 0
940.9999999999984 0 0
941.9999999999984 0 0
942.9999999999984 0 0
943.9999999999983 0 0
944.9999999999983 0 0
945.9999999999983 0 0
946.9999999999983 0 0
947.9999999999983 0 0
948.9999999999983 0 0
949.9999999999983 0 0
950.9999999999984 0 0
951.9999999999984 0 0
952.9999999999984 0 0
953.9999999999984 0 0
954.9999999999984 0 0
955.9999999999984 0 0
956.9999999999984 0 0
957.9999999999984 0 0
958.9999999999984 0 0
959.9999999999984 0 0
960.9999999999984 0 0
961.9999999999984 0 0
962.9999999999984 0 0
963.9999999999984 0 0
964.9999999999984 0 0
965.9999999999984 0 0
966.9999999999984 0 0
967.9999999999984 0 0
968.9999999999985 0 0
969.9999999999985 0 0
970.9999999999985 0 0
971.9999999999985 0 0
972.9999999999985 0 0
973.9999999999985 0 0
974.9999999999984 0 0
975.9999999999984 0 0
976.9999999999984 0 0
977.9999999999984 0 0
978.9999999999984 0 0
979.9999999999984 0 0
980.9999999999984 0 0
981.9999999999984 0 0
982.9999999999984 0 0
983.9999999999984 0 0
984.9999999999984 0 0
985.9999999999984 0 0
986.9999999999985 0 0
987.9999999999985 0 0
988.9999999999985 0 0
989.9999999999985 0 0
990.9999999999985 0 0
991.9999999999985 0 0
992.9999999999985 0 0
993.9999999999985 0 0
994.9999999999985 0 0
995.9999999999985 0 0
996.9999999999985 0 0
997.9999999999985 0 0
998.9999999999985 0 0
999.9999999999985 0 0
1000.999999999999 0 0
1001.999999999999 0 0
1002.999999999999 0 0
1003.999999999999 0 0
1004.999999999999 0 0
1005.999999999999 0 0
1006.999999999999 0 0
1007.999999999999 0 0
1008.999999999999 0 0
1009.999999999999 0 0
1010.999999999999 0 0
1011.999999999999 0 0
1012.999999999999 0 0
1013.999999999999 0 0
1014.999999999999 0 0
1015.999999999999 0 0
1016.999999999999 0 0
1017.999999999999 0 0
1018.999999999999 0 0
1019.999999999999 0 0
1020.999999999999 0 0
1021.999999999999 0 0
1022.999999999999 0 0
1023.999999999999 0 0
1024.999999999999 0 0
1025.999999999999 0 0
1026.999999999999 0 0
1027.999999999999 0 0
1028.999999999999 0 0
1029.999999999999 0 0
1030.999999999999 0 0
1031.999999999999 0 0
1032.999999999999 0 0
1033.999999999999 0 0
1034.999999999999 0 0
1035.999999999999 0 0
1036.999999999999 0 0
1037.999999999999 0 0
1038.999999999999 0 0
1039.999999999999 0 0
1040.999999999999 0 0
1041.999999999999 0 0
1042.999999999999 0 0
1043.999999999999 0 0
1044.999999999999 0 0
1045.999999999999 0 0
1046.999999999999 0 0
1047.999999999999 0 0
1048.999999999999 0 0
1049.999999999999 0 0
1050.999999999999 0 0
1051.999999999999 0 0
1052.999999999999 0 0
1053.999999999999 0 0
1054.999999999999 0 0
1055.999999999999 0 0
1056.999999999999 0 0
1057.999999999999 0 0
1058.999999999999 0 0
1059.999999999999 0 0
1060.999999999999 0 0
1061.999999999999 0 0
1062.999999999999 0 0
1063.999999999999 0 0
1064.999999999999 0 0
1065.999999999999 0 0
1066.999999999999 0 0
1067.999999999999 0 0
1068.999999999999 0 0
1069.999999999999 0 0
1070.999999999999 0 0
1071.999999999999 0 0
1072.999999999999 0 0
1073.999999999999 0 0
1074.999999999999 0 0
1075.999999999999 0 0
1076.999999999999 0 0
1077.999999999999 0 0
1078.999999999999 0 0
1079.999999999999 0 0
1080.999999999999 0 0
1081.999999999999 0 0
1082.999999999999 0 0
1083.999999999999 0 0
1084.999999999999 0 0
1085.999999999999 0 0
1086.999999999999 0 0
1087.999999999999 0 0
1088.999999999999 0 0
1089.999999999999 0 0
1090.999999999999 0 0
1091.999999999999 0 0
1092.999999999999 0 0
1093.999999999999 0 0
1094.999999999999 0 0
1095.999999999999 0 0
1096.999999999999 0 0
1097.999999999999 0 0
1098.999999999999 0 0
1099.999999999999 0 0
1100.999999999999 0 0
1101.999999999999 0 0
1102.999999999999 0 0
1103.999999999999 0 0
1104.999999999999 0 0
1105.999999999999 0 0
1106.999999999999 0 0
1107.999999999999 0 0
1108.999999999999 0 0
1109.999999999999 0 0
1110.999999999999 0 0
1111.999999999999 0 0
1112.999999999999 0 0
1113.999999999999 0 0
1114.999999999999 0 0
1115.999999999999 0 0
1116.999999999999 0 0
1117.999999999999 0 0
1118.999999999999 0 0
1119.999999999999 0 0
1120.999999999999 0 0
1121.999999999999 0 0
1122.999999999999 0 0
1123.999999999999 0 0
1124.999999999999 0 0
1125.999999999999 0 0
1126.999999999999 0 0
1127.999999999999 0 0
1128.999999999999 0 0
1129.999999999999 0 0
1130.999999999999 0 0
1131.999999999999 0 0
1132.999999999999 0 0
1133.999999999999 0 0
1134.999999999999 0 0
1135.999999999999 0 0
1136.999999999999 0 0
1137.999999999999 0 0
1138.999999999999 0 0
1139.999999999999 0 0
1140.999999999999 0 0
1141.999999999999 0 0
1142.999999999999 0 0
1143.999999999999 0 0
1144.999999999999 0 0
1145.999999999999 0 0
1146.999999999999 0 0
1147.999999999999 0 0
1148.999999999999 0 0
1149.999999999999 0 0
1150.999999999999 0 0
1151.999999999999 0 0
1152.999999999999 0 0
1153.999999999999 0 0
1154.999999999999 0 0
1155.999999999999 0 0
1156.999999999999 0 0
1157.999999999999 0 0
1158.999999999999 0 0
1159.999999999999 0 0
1160.999999999999 0 0
1161.999999999999 0 0
1162.999999999999 0 0
1163.999999999999 0 0
1164.999999999999 0 0
1165.999999999999 0 0
1166.999999999999 0 0
1167.999999999999 0 0
1168.999999999999 0 0
1169.999999999999 0 0
1170.999999999999 0 0
1171.999999999999 0 0
1172.999999999999 0 0
1173.999999999999 0 0
1174.999999999999 0 0
1175.999999999999 0 0
1176.999999999999 0 0
1177.999999999999 0 0
1178.999999999999 0 0
1179.999999999999 0 0
1180.999999999999 0 0
1181.999999999999 0 0
1182.999999999999 0 0
1183.999999999999 0 0
1184.999999999999 0 0
1185.999999999999 0 0
1186.999999999999 0 0
1187.999999999999 0 0
1188.999999999999 0 0
1189.999999999999 0 0
1190.999999999999 0 0
1191.999999999999 0 0
1192.999999999999 0 0
1193.999999999999 0 0
1194.999999999999 0 0
1195.999999999999 0 0
1196.999999999999 0 0
1197.999999999999 0 0
1198.999999999999 0 0
1199.999999999999 0 0
1200.999999999999 0 0
1201.999999999999 0 0
1202.999999999999 0 0
1203.999999999999 0 0
1204.999999999999 0 0
1205.999999999999 0 0
1206.999999999999 0 0
1207.999999999999 0 0
1208.999999999999 0 0
1209.999999999999 0 0
1210.999999999999 0 0
1211.999999999999 0 0
1212.999999999999 0 0
1213.999999999999 0 0
1214.999999999999 0 0
1216 0 0
1217 0 0
1218 0 0
1219 0 0
1220 0 0
1221 0 0
1222 0 0
1222.999999999999 0 0
1223.999999999999 0 0
1224.999999999999 0 0
1225.999999999999 0 0
1226.999999999999 0 0
1227.999999999999 0 0
1228.999999999999 0 0
1229.999999999999 0 0
1230.999999999999 0 0
1231.999999999999 0 0
1233 0 0
1234 0 0
1235 0 0
1236 0 0
1237 0 0
1238 0 0
1239 0 0
1240 0 0
1241 0 0
1242 0 0
1243 0 0
1244 0 0
1245 0 0
1246 0 0
1247 0 0
1248 0 0
1249 0 0
1250 0 0
1251 0 0
1252 0 0
1253 0 0
1254 0 0
1255 0 0
1256 0 0
1257 0 0
1258 0 0
1259 0 0
1260 0 0
1261 0 0
1262 0 0
1263 0 0
1264 0 0
1265 0 0
1266 0 0
1267 0 0
1268 0 0
1269 0 0
1270 0 0
1271 0 0
1272 0 0
1273 0 0
1274 0 0
1275 0 0
1276 0 0
1277 0 0
1278 0 0
1279 0 0
1280 0 0
1281 0 0
1282 0 0
1283 0 0
1284 0 0
1285 0 0
1286 0 0
1287 0 0
1288 0 0
1289 0 0
1290 0 0
1291 0 0
1292 0 0
1293 0 0
1294 0 0
1295 0 0
1296 0 0
1297 0 0
1298 0 0
1299 0 0
1300 0 0
1301 0 0
1302 0 0
1303 0 0
1304 0 0
1305 0 0
1306 0 0
1307 0 0
1308 0 0
1309 0 0
1310 0 0
1311 0 0
1312 0 0
1313 0 0
1314 0 0
1315 0 0
1316 0 0
1317 0 0
1318 0 0
1319 0 0
1320 0 0
1321 0 0
1322 0 0
1323 0 0
1324 0 0
1325 0 0
1326 0 0
1327 0 0
1328 0 0
1329 0 0
1330 0 0
1331 0 0
1332 0 0
1333 0 0
1334 0 0
1335 0 0
1336 0 0
1337 0 0
1338 0 0
1339 0 0
1340 0 0
1341 0 0
1342 0 0
1343 0 0
1344 0 0
1345 0 0
1346 0 0
1347 0 0
1348 0 0
1349 0 0
1350 0 0
1351 0 0
1352 0 0
1353 0 0
1354 0 0
1355 0 0
1356 0 0
1357 0 0
1358 0 0
1359 0 0
1360 0 0
1361 0 0
1362 0 0
1363 0 0
1364 0 0
1365 0 0
1366 0 0
1367 0 0
1368 0 0
1369 0 0
1370 0 0
1371 0 0
1372 0 0
1373 0 0
1374 0 0
1375 0 0
1376 0 0
1377 0 0
1378 0 0
1379 0 0
1380 0 0
1381 0 0
1382 0 0
1383 0 0
1384 0 0
1385 0 0
1386 0 0
1387 0 0
1388 0 0
1389 0 0
1390 0 0
1391 0 0
1392 0 0
1393 0 0
1394 0 0
1395 0 0
1396 0 0
1397 0 0
1398 0 0
1399 0 0
$EndNodes
$Elements
2 1400 1 1400
1 1 1 400
1 1 4 
2 4 5 
3 5 6 
4 6 7 
5 7 8 
6 8 9 
7 9 10 
8 10 11 
9 11 12 
10 12 13 
11 13 14 
12 14 15 
13 15 16 
14 16 17 
15 17 18 
16 18 19 
17 19 20 
18 20 21 
19 21 22 
20 22 23 
21 23 24 
22 24 25 
23 25 26 
24 26 27 
25 27 28 
26 28 29 
27 29 30 
28 30 31 
29 31 32 
30 32 33 
31 33 34 
32 34 35 
33 35 36 
34 36 37 
35 37 38 
36 38 39 
37 39 40 
38 40 41 
39 41 42 
40 42 43 
41 43 44 
42 44 45 
43 45 46 
44 46 47 
45 47 48 
46 48 49 
47 49 50 
48 50 51 
49 51 52 
50 52 53 
51 53 54 
52 54 55 
53 55 56 
54 56 57 
55 57 58 
56 58 59 
57 59 60 
58 60 61 
59 61 62 
60 62 63 
61 63 64 
62 64 65 
63 65 66 
64 66 67 
65 67 68 
66 68 69 
67 69 70 
68 70 71 
69 71 72 
70 72 73 
71 73 74 
72 74 75 
73 75 76 
74 76 77 
75 77 78 
76 78 79 
77 79 80 
78 80 81 
79 81 82 
80 82 83 
81 83 84 
82 84 85 
83 85 86 
84 86 87 
85 87 88 
86 88 89 
87 89 90 
88 90 91 
89 91 92 
90 92 93 
91 93 94 
92 94 95 
93 95 96 
94 96 97 
95 97 98 
96 98 99 
97 99 100 
98 100 101 
99 101 102 
100 102 103 
101 103 104 
102 104 105 
103 105 106 
104 106 107 
105 107 108 
106 108 109 
107 109 110 
108 110 111 
109 111 112 
110 112 113 
111 113 114 
112 114 115 
113 115 116 
114 116 117 
115 117 118 
116 118 119 
117 119 120 
118 120 121 
119 121 122 
120 122 123 
121 123 124 
122 124 125 
123 125 126 
124 126 127 
125 127 128 
126 128 129 
127 129 130 
128 130 131 
129 131 132 
130 132 133 
131 133 134 
132 134 135 
133 135 136 
134 136 137 
135 137 138 
136 138 139 
137 139 140 
138 140 141 
139 141 142 
140 142 143 
141 143 144 
142 144 145 
143 145 146 
144 146 147 
145 147 148 
146 148 149 
147 149 150 
148 150 151 
149 151 152 
150 152 153 
151 153 154 
152 154 155 
153 155 156 
154 156 157 
155 157 158 
156 158 159 
157 159 160 
158 160 161 
159 161 162 
160 162 163 
161 163 164 
162 164 165 
163 165 166 
164 166 167 
165 167 168 
166 168 169 
167 169 170 
168 170 171 
169 171 172 
170 172 173 
171 173 174 
172 174 175 
173 175 176 
174 176 177 
175 177 178 
176 178 179 
177 179 180 
178 180 181 
179 181 182 
180 182 183 
181 183 184 
182 184 185 
183 185 186 
184 186 187 
185 187 188 
186 188 189 
187 189 190 
188 190 191 
189 191 192 
190 192 193 
191 193 194 
192 194 195 
193 195 196 
194 196 197 
195 197 198 
196 198 199 
197 199 200 
198 200 201 
199 201 202 
200 202 203 
201 203 204 
202 204 205 
203 205 206 
204 206 207 
205 207 208 
206 208 209 
207 209 210 
208 210 211 
209 211 212 
210 212 213 
211 213 214 
212 214 215 
213 215 216 
214 216 217 
215 217 218 
216 218 219 
217 219 220 
218 220 221 
219 221 222 
220 222 223 
221 223 224 
222 224 225 
223 225 226 
224 226 227 
225 227 228 
226 228 229 
227 229 230 
228 230 231 
229 231 232 
230 232 233 
231 233 234 
232 234 235 
233 235 236 
234 236 237 
235 237 238 
236 238 239 
237 239 240 
238 240 241 
239 241 242 
240 242 243 
241 243 244 
242 244 245 
243 245 246 
244 246 247 
245 247 248 
246 248 249 
247 249 250 
248 250 251 
249 251 252 
250 252 253 
251 253 254 
252 254 255 
253 255 256 
254 256 257 
255 257 258 
256 258 259 
257 259 260 
258 260 261 
259 261 262 
260 262 263 
261 263 264 
262 264 265 
263 265 266 
264 266 267 
265 267 268 
266 268 269 
267 269 270 
268 270 271 
269 271 272 
270 272 273 
271 273 274 
272 274 275 
273 275 276 
274 276 277 
275 277 278 
276 278 279 
277 279 280 
278 280 281 
279 281 282 
280 282 283 
281 283 284 
282 284 285 
283 285 286 
284 286 287 
285 287 288 
286 288 289 
287 289 290 
288 290 291 
289 291 292 
290 292 293 
291 293 294 
292 294 295 
293 295 296 
294 296 297 
295 297 298 
296 298 299 
297 299 300 
298 300 301 
299 301 302 
300 302 303 
301 303 304 
302 304 305 
303 305 306 
304 306 307 
305 307 308 
306 308 309 
307 309 310 
308 310 311 
309 311 312 
310 312 313 
311 313 314 
312 314 315 
313 315 316 
314 316 317 
315 317 318 
316 318 319 
317 319 320 
318 320 321 
319 321 322 
320 322 323 
321 323 324 
322 324 325 
323 325 326 
324 326 327 
325 327 328 
326 328 329 
327 329 330 
328 330 331 
329 331 332 
330 332 333 
331 333 334 
332 334 335 
333 335 336 
334 336 337 
335 337 338 
336 338 339 
337 339 340 
338 340 341 
339 341 342 
340 342 343 
341 343 344 
342 344 345 
343 345 346 
344 346 347 
345 347 348 
346 348 349 
347 349 350 
348 350 351 
349 351 352 
350 352 353 
351 353 354 
352 354 355 
353 355 356 
354 356 357 
355 357 358 
356 358 359 
357 359 360 
358 360 361 
359 361 362 
360 362 363 
361 363 364 
362 364 365 
363 365 366 
364 366 367 
365 367 368 
366 368 369 
367 369 370 
368 370 371 
369 371 372 
370 372 373 
371 373 374 
372 374 375 
373 375 376 
374 376 377 
375 377 378 
376 378 379 
377 379 380 
378 380 381 
379 381 382 
380 382 383 
381 383 384 
382 384 385 
383 385 386 
384 386 387 
385 387 388 
386 388 389 
387 389 390 
388 390 391 
389 391 392 
390 392 393 
391 393 394 
392 394 395 
393 395 396 
394 396 397 
395 397 398 
396 398 399 
397 399 400 
398 400 401 
399 401 402 
400 402 2 
1 2 1 1000
401 2 403 
402 403 404 
403 404 405 
404 405 406 
405 406 407 
406 407 408 
407 408 409 
408 409 410 
409 410 411 
410 411 412 
411 412 413 
412 413 414 
413 414 415 
414 415 416 
415 416 417 
416 417 418 
417 418 419 
418 419 420 
419 420 421 
420 421 422 
421 422 423 
422 423 424 
423 424 425 
424 425 426 
425 426 427 
426 427 428 
427 428 429 
428 429 430 
429 430 431 
430 431 432 
431 432 433 
432 433 434 
433 434 435 
434 435 436 
435 436 437 
436 437 438 
437 438 439 
438 439 440 
439 440 441 
440 441 442 
441 442 443 
442 443 444 
443 444 445 
444 445 446 
445 446 447 
446 447 448 
447 448 449 
448 449 450 
449 450 451 
450 451 452 
451 452 453 
452 453 454 
453 454 455 
454 455 456 
455 456 457 
456 457 458 
457 458 459 
458 459 460 
459 460 461 
460 461 462 
461 462 463 
462 463 464 
463 464 465 
464 465 466 
465 466 467 
466 467 468 
467 468 469 
468 469 470 
469 470 471 
470 471 472 
471 472 473 
472 473 474 
473 474 475 
474 475 476 
475 476 477 
476 477 478 
477 478 479 
478 479 480 
479 480 481 
480 481 482 
481 482 483 
482 483 484 
483 484 485 
484 485 486 
485 486 487 
486 487 488 
487 488 489 
488 489 490 
489 490 491 
490 491 492 
491 492 493 
492 493 494 
493 494 495 
494 495 496 
495 496 497 
496 497 498 
497 498 499 
498 499 500 
499 500 501 
500 501 502 
501 502 503 
502 503 504 
503 504 505 
504 505 506 
505 506 507 
506 507 508 
507 508 509 
508 509 510 
509 510 511 
510 511 512 
511 512 513 
512 513 514 
513 514 515 
514 515 516 
515 516 517 
516 517 518 
517 518 519 
518 519 520 
519 520 521 
520 521 522 
521 522 523 
522 523 524 
523 524 525 
524 525 526 
525 526 527 
526 527 528 
527 528 529 
528 529 530 
529 530 531 
530 531 532 
531 532 533 
532 533 534 
533 534 535 
534 535 536 
535 536 537 
536 537 538 
537 538 539 
538 539 540 
539 540 541 
540 541 542 
541 542 543 
542 543 544 
543 544 545 
544 545 546 
545 546 547 
546 547 548 
547 548 549 
548 549 550 
549 550 551 
550 551 552 
551 552 553 
552 553 554 
553 554 555 
554 555 556 
555 556 557 
556 557 558 
557 558 559 
558 559 560 
559 560 561 
560 561 562 
561 562 563 
562 563 564 
563 564 565 
564 565 566 
565 566 567 
566 567 568 
567 568 569 
568 569 570 
569 570 571 
570 571 572 
571 572 573 
572 573 574 
573 574 575 
574 575 576 
575 576 577 
576 577 578 
577 578 579 
578 579 580 
579 580 581 
580 581 582 
581 582 583 
582 583 584 
583 584 585 
584 585 586 
585 586 587 
586 587 588 
587 588 589 
588 589 590 
589 590 591 
590 591 592 
591 592 593 
592 593 594 
593 594 595 
594 595 596 
595 596 597 
596 597 598 
597 598 599 
598 599 600 
599 600 601 
600 601 602 
601 602 603 
602 603 604 
603 604 605 
604 605 606 
605 606 607 
606 607 608 
607 608 609 
608 609 610 
609 610 611 
610 611 612 
611 612 613 
612 613 614 
613 614 615 
614 615 616 
615 616 617 
616 617 618 
617 618 619 
618 619 620 
619 620 621 
620 621 622 
621 622 623 
622 623 624 
623 624 625 
624 625 626 
625 626 627 
626 627 628 
627 628 629 
628 629 630 
629 630 631 
630 631 632 
631 632 633 
632 633 634 
633 634 635 
634 635 636 
635 636 637 
636 637 638 
637 638 639 
638 639 640 
639 640 641 
640 641 642 
641 642 643 
642 643 644 
643 644 645 
644 645 646 
645 646 647 
646 647 648 
647 648 649 
648 649 650 
649 650 651 
650 651 652 
651 652 653 
652 653 654 
653 654 655 
654 655 656 
655 656 657 
656 657 658 
657 658 659 
658 659 660 
659 660 661 
660 661 662 
661 662 663 
662 663 664 
663 664 665 
664 665 666 
665 666 667 
666 667 668 
667 668 669 
668 669 670 
669 670 671 
670 671 672 
671 672 673 
672 673 674 
673 674 675 
674 675 676 
675 676 677 
676 677 678 
677 678 679 
678 679 680 
679 680 681 
680 681 682 
681 682 683 
682 683 684 
683 684 685 
684 685 686 
685 686 687 
686 687 688 
687 688 689 
688 689 690 
689 690 691 
690 691 692 
691 692 693 
692 693 694 
693 694 695 
694 695 696 
695 696 697 
696 697 698 
697 698 699 
698 699 700 
699 700 701 
700 701 702 
701 702 703 
702 703 704 
703 704 705 
704 705 706 
705 706 707 
706 707 708 
707 708 709 
708 709 710 
709 710 711 
710 711 712 
711 712 713 
712 713 714 
713 714 715 
714 715 716 
715 716 717 
716 717 718 
717 718 719 
718 719 720 
719 720 721 
720 721 722 
721 722 723 
722 723 724 
723 724 725 
724 725 726 
725 726 727 
726 727 728 
727 728 729 
728 729 730 
729 730 731 
730 731 732 
731 732 733 
732 733 734 
733 734 735 
734 735 736 
735 736 737 
736 737 738 
737 738 739 
738 739 740 
739 740 741 
740 741 742 
741 742 743 
742 743 744 
743 744 745 
744 745 746 
745 746 747 
746 747 748 
747 748 749 
748 749 750 
749 750 751 
750 751 752 
751 752 753 
752 753 754 
753 754 755 
754 755 756 
755 756 757 
756 757 758 
757 758 759 
758 759 760 
759 760 761 
760 761 762 
761 762 763 
762 763 764 
763 764 765 
764 765 766 
765 766 767 
766 767 768 
767 768 769 
768 769 770 
769 770 771 
770 771 772 
771 772 773 
772 773 774 
773 774 775 
774 775 776 
775 776 777 
776 777 778 
777 778 779 
778 779 780 
779 780 781 
780 781 782 
781 782 783 
782 783 784 
783 784 785 
784 785 786 
785 786 787 
786 787 788 
787 788 789 
788 789 790 
789 790 791 
790 791 792 
791 792 793 
792 793 794 
793 794 795 
794 795 796 
795 796 797 
796 797 798 
797 798 799 
798 799 800 
799 800 801 
800 801 802 
801 802 803 
802 803 804 
803 804 805 
804 805 806 
805 806 807 
806 807 808 
807 808 809 
808 809 810 
809 810 811 
810 811 812 
811 812 813 
812 813 814 
813 814 815 
814 815 816 
815 816 817 
816 817 818 
817 818 819 
818 819 820 
819 820 821 
820 821 822 
821 822 823 
822 823 824 
823 824 825 
824 825 826 
825 826 827 
826 827 828 
827 828 829 
828 829 830 
829 830 831 
830 831 832 
831 832 833 
832 833 834 
833 834 835 
834 835 836 
835 836 837 
836 837 838 
837 838 839 
838 839 840 
839 840 841 
840 841 842 
841 842 843 
842 843 844 
843 844 845 
844 845 846 
845 846 847 
846 847 848 
847 848 849 
848 849 850 
849 850 851 
850 851 852 
851 852 853 
852 853 854 
853 854 855 
854 855 856 
855 856 857 
856 857 858 
857 858 859 
858 859 860 
859 860 861 
860 861 862 
861 862 863 
862 863 864 
863 864 865 
864 865 866 
865 866 867 
866 867 868 
867 868 869 
868 869 870 
869 870 871 
870 871 872 
871 872 873 
872 873 874 
873 874 875 
874 875 876 
875 876 877 
876 877 878 
877 878 879 
878 879 880 
879 880 881 
880 881 882 
881 882 883 
882 883 884 
883 884 885 
884 885 886 
885 886 887 
886 887 888 
887 888 889 
888 889 890 
889 890 891 
890 891 892 
891 892 893 
892 893 894 
893 894 895 
894 895 896 
895 896 897 
896 897 898 
897 898 899 
898 899 900 
899 900 901 
900 901 902 
901 902 903 
902 903 904 
903 904 905 
904 905 906 
905 906 907 
906 907 908 
907 908 909 
908 909 910 
909 910 911 
910 911 912 
911 912 913 
912 913 914 
913 914 915 
914 915 916 
915 916 917 
916 917 918 
917 918 919 
918 919 920 
919 920 921 
920 921 922 
921 922 923 
922 923 924 
923 924 925 
924 925 926 
925 926 927 
926 927 928 
927 928 929 
928 929 930 
929 930 931 
930 931 932 
931 932 933 
932 933 934 
933 934 935 
934 935 936 
935 936 937 
936 937 938 
937 938 939 
938 939 940 
939 940 941 
940 941 942 
941 942 943 
942 943 944 
943 944 945 
944 945 946 
945 946 947 
946 947 948 
947 948 949 
948 949 950 
949 950 951 
950 951 952 
951 952 953 
952 953 954 
953 954 955 
954 955 956 
955 956 957 
956 957 958 
957 958 959 
958 959 960 
959 960 961 
960 961 962 
961 962 963 
962 963 964 
963 964 965 
964 965 966 
965 966 967 
966 967 968 
967 968 969 
968 969 970 
969 970 971 
970 971 972 
971 972 973 
972 973 974 
973 974 975 
974 975 976 
975 976 977 
976 977 978 
977 978 979 
978 979 980 
979 980 981 
980 981 982 
981 982 983 
982 983 984 
983 984 985 
984 985 986 
985 986 987 
986 987 988 
987 988 989 
988 989 990 
989 990 991 
990 991 992 
991 992 993 
992 993 994 
993 994 995 
994 995 996 
995 996 997 
996 997 998 
997 998 999 
998 999 1000 
999 1000 1001 
1000 1001 1002 
1001 1002 1003 
1002 1003 1004 
1003 1004 1005 
1004 1005 1006 
1005 1006 1007 
1006 1007 1008 
1007 1008 1009 
1008 1009 1010 
1009 1010 1011 
1010 1011 1012 
1011 1012 1013 
1012 1013 1014 
1013 1014 1015 
1014 1015 1016 
1015 1016 1017 
1016 1017 1018 
1017 1018 1019 
1018 1019 1020 
1019 1020 1021 
1020 1021 1022 
1021 1022 1023 
1022 1023 1024 
1023 1024 1025 
1024 1025 1026 
1025 1026 1027 
1026 1027 1028 
1027 1028 1029 
1028 1029 1030 
1029 1030 1031 
1030 1031 1032 
1031 1032 1033 
1032 1033 1034 
1033 1034 1035 
1034 1035 1036 
1035 1036 1037 
1036 1037 1038 
1037 1038 1039 
1038 1039 1040 
1039 1040 1041 
1040 1041 1042 
1041 1042 1043 
1042 1043 1044 
1043 1044 1045 
1044 1045 1046 
1045 1046 1047 
1046 1047 1048 
1047 1048 1049 
1048 1049 1050 
1049 1050 1051 
1050 1051 1052 
1051 1052 1053 
1052 1053 1054 
1053 1054 1055 
1054 1055 1056 
1055 1056 1057 
1056 1057 1058 
1057 1058 1059 
1058 1059 1060 
1059 1060 1061 
1060 1061 1062 
1061 1062 1063 
1062 1063 1064 
1063 1064 1065 
1064 1065 1066 
1065 1066 1067 
1066 1067 1068 
1067 1068 1069 
1068 1069 1070 
1069 1070 1071 
1070 1071 1072 
1071 1072 1073 
1072 1073 1074 
1073 1074 1075 
1074 1075 1076 
1075 1076 1077 
1076 1077 1078 
1077 1078 1079 
1078 1079 1080 
1079 1080 1081 
1080 1081 1082 
1081 1082 1083 
1082 1083 1084 
1083 1084 1085 
1084 1085 1086 
1085 1086 1087 
1086 1087 1088 
1087 1088 1089 
1088 1089 1090 
1089 1090 1091 
1090 1091 1092 
1091 1092 1093 
1092 1093 1094 
1093 1094 1095 
1094 1095 1096 
1095 1096 1097 
1096 1097 1098 
1097 1098 1099 
1098 1099 1100 
1099 1100 1101 
1100 1101 1102 
1101 1102 1103 
1102 1103 1104 
1103 1104 1105 
1104 1105 1106 
1105 1106 1107 
1106 1107 1108 
1107 1108 1109 
1108 1109 1110 
1109 1110 1111 
1110 1111 1112 
1111 1112 1113 
1112 1113 1114 
1113 1114 1115 
1114 1115 1116 
1115 1116 1117 
1116 1117 1118 
1117 1118 1119 
1118 1119 1120 
1119 1120 1121 
1120 1121 1122 
1121 1122 1123 
1122 1123 1124 
1123 1124 1125 
1124 1125 1126 
1125 1126 1127 
1126 1127 1128 
1127 1128 1129 
1128 1129 1130 
1129 1130 1131 
1130 1131 1132 
1131 1132 1133 
1132 1133 1134 
1133 1134 1135 
1134 1135 1136 
1135 1136 1137 
1136 1137 1138 
1137 1138 1139 
1138 1139 1140 
1139 1140 1141 
1140 1141 1142 
1141 1142 1143 
1142 1143 1144 
1143 1144 1145 
1144 1145 1146 
1145 1146 1147 
1146 1147 1148 
1147 1148 1149 
1148 1149 1150 
1149 1150 1151 
1150 1151 1152 
1151 1152 1153 
1152 1153 1154 
1153 1154 1155 
1154 1155 1156 
1155 1156 1157 
1156 1157 1158 
1157 1158 1159 
1158 1159 1160 
1159 1160 1161 
1160 1161 1162 
1161 1162 1163 
1162 1163 1164 
1163 1164 1165 
1164 1165 1166 
1165 1166 1167 
1166 1167 1168 
1167 1168 1169 
1168 1169 1170 
1169 1170 1171 
1170 1171 1172 
1171 1172 1173 
1172 1173 1174 
1173 1174 1175 
1174 1175 1176 
1175 1176 1177 
1176 1177 1178 
1177 1178 1179 
1178 1179 1180 
1179 1180 1181 
1180 1181 1182 
1181 1182 1183 
1182 1183 1184 
1183 1184 1185 
1184 1185 1186 
1185 1186 1187 
1186 1187 1188 
1187 1188 1189 
1188 1189 1190 
1189 1190 1191 
1190 1191 1192 
1191 1192 1193 
1192 1193 1194 
1193 1194 1195 
1194 1195 1196 
1195 1196 1197 
1196 1197 1198 
1197 1198 1199 
1198 1199 1200 
1199 1200 1201 
1200 1201 1202 
1201 1202 1203 
1202 1203 1204 
1203 1204 1205 
1204 1205 1206 
1205 1206 1207 
1206 1207 1208 
1207 1208 1209 
1208 1209 1210 
1209 1210 1211 
1210 1211 1212 
1211 1212 1213 
1212 1213 1214 
1213 1214 1215 
1214 1215 1216 
1215 1216 1217 
1216 1217 1218 
1217 1218 1219 
1218 1219 1220 
1219 1220 1221 
1220 1221 1222 
1221 1222 1223 
1222 1223 1224 
1223 1224 1225 
1224 1225 1226 
1225 1226 1227 
1226 1227 1228 
1227 1228 1229 
1228 1229 1230 
1229 1230 1231 
1230 1231 1232 
1231 1232 1233 
1232 1233 1234 
1233 1234 1235 
1234 1235 1236 
1235 1236 1237 
1236 1237 1238 
1237 1238 1239 
1238 1239 1240 
1239 1240 1241 
1240 1241 1242 
1241 1242 1243 
1242 1243 1244 
1243 1244 1245 
1244 1245 1246 
1245 1246 1247 
1246 1247 1248 
1247 1248 1249 
1248 1249 1250 
1249 1250 1251 
1250 1251 1252 
1251 1252 1253 
1252 1253 1254 
1253 1254 1255 
1254 1255 1256 
1255 1256 1257 
1256 1257 1258 
1257 1258 1259 
1258 1259 1260 
1259 1260 1261 
1260 1261 1262 
1261 1262 1263 
1262 1263 1264 
1263 1264 1265 
1264 1265 1266 
1265 1266 1267 
1266 1267 1268 
1267 1268 1269 
1268 1269 1270 
1269 1270 1271 
1270 1271 1272 
1271 1272 1273 
1272 1273 1274 
1273 1274 1275 
1274 1275 1276 
1275 1276 1277 
1276 1277 1278 
1277 1278 1279 
1278 1279 1280 
1279 1280 1281 
1280 1281 1282 
1281 1282 1283 
1282 1283 1284 
1283 1284 1285 
1284 1285 1286 
1285 1286 1287 
1286 1287 1288 
1287 1288 1289 
1288 1289 1290 
1289 1290 1291 
1290 1291 1292 
1291 1292 1293 
1292 1293 1294 
1293 1294 1295 
1294 1295 1296 
1295 1296 1297 
1296 1297 1298 
1297 1298 1299 
1298 1299 1300 
1299 1300 1301 
1300 1301 1302 
1301 1302 1303 
1302 1303 1304 
1303 1304 1305 
1304 1305 1306 
1305 1306 1307 
1306 1307 1308 
1307 1308 1309 
1308 1309 1310 
1309 1310 1311 
1310 1311 1312 
1311 1312 1313 
1312 1313 1314 
1313 1314 1315 
1314 1315 1316 
1315 1316 1317 
1316 1317 1318 
1317 1318 1319 
1318 1319 1320 
1319 1320 1321 
1320 1321 1322 
1321 1322 1323 
1322 1323 1324 
1323 1324 1325 
1324 1325 1326 
1325 1326 1327 
1326 1327 1328 
1327 1328 1329 
1328 1329 1330 
1329 1330 1331 
1330 1331 1332 
1331 1332 1333 
1332 1333 1334 
1333 1334 1335 
1334 1335 1336 
1335 1336 1337 
1336 1337 1338 
1337 1338 1339 
1338 1339 1340 
1339 1340 1341 
1340 1341 1342 
1341 1342 1343 
1342 1343 1344 
1343 1344 1345 
1344 1345 1346 
1345 1346 1347 
1346 1347 1348 
1347 1348 1349 
1348 1349 1350 
1349 1350 1351 
1350 1351 1352 
1351 1352 1353 
1352 1353 1354 
1353 1354 1355 
1354 1355 1356 
1355 1356 1357 
1356 1357 1358 
1357 1358 1359 
1358 1359 1360 
1359 1360 1361 
1360 1361 1362 
1361 1362 1363 
1362 1363 1364 
1363 1364 1365 
1364 1365 1366 
1365 1366 1367 
1366 1367 1368 
1367 1368 1369 
1368 1369 1370 
1369 1370 1371 
1370 1371 1372 
1371 1372 1373 
1372 1373 1374 
1373 1374 1375 
1374 1375 1376 
1375 1376 1377 
1376 1377 1378 
1377 1378 1379 
1378 1379 1380 
1379 1380 1381 
1380 1381 1382 
1381 1382 1383 
1382 1383 1384 
1383 1384 1385 
1384 1385 1386 
1385 1386 1387 
1386 1387 1388 
1387 1388 1389 
1388 1389 1390 
1389 1390 1391 
1390 1391 1392 
1391 1392 1393 
1392 1393 1394 
1393 1394 1395 
1394 1395 1396 
1395 1396 1397 
1396 1397 1398 
1397 1398 1399 
1398 1399 1400 
1399 1400 1401 
1400 1401 3 
$EndElements
