$MeshFormat
4.1 0 8
$EndMeshFormat
$PhysicalNames
3
0 3 "point1"
1 1 "AIR"
1 2 "Ag"
$EndPhysicalNames
$Entities
4 3 0 0
1 0 0 0 1 3 
2 0.01 0 0 0 
3 0.03 0 0 0 
4 0.04 0 0 0 
1 0 0 0 0.01 0 0 1 1 2 1 -2 
2 0.01 0 0 0.03 0 0 1 2 2 2 -3 
3 0.03 0 0 0.04 0 0 1 1 2 3 -4 
$EndEntities
$Nodes
7 41 1 41
0 1 0 1
1
0 0 0
0 2 0 1
2
0.01 0 0
0 3 0 1
3
0.03 0 0
0 4 0 1
4
0.04 0 0
1 1 0 9
5
6
7
8
9
10
11
12
13
0.0009999999999981948 0 0
0.001999999999995523 0 0
0.002999999999992625 0 0
0.003999999999989711 0 0
0.004999999999986965 0 0
0.005999999999989505 0 0
0.006999999999992215 0 0
0.007999999999994584 0 0
0.008999999999997496 0 0
1 2 0 19
14
15
16
17
18
19
20
21
22
23
24
25
26
27
28
29
30
31
32
0.01099999999999807 0 0
0.01199999999999648 0 0
0.01299999999999442 0 0
0.01399999999998984 0 0
0.01499999999998798 0 0
0.01599999999998612 0 0
0.01699999999998155 0 0
0.01799999999997901 0 0
0.01899999999997484 0 0
0.01999999999997257 0 0
0.02099999999997504 0 0
0.02199999999997805 0 0
0.02299999999997944 0 0
0.02399999999998313 0 0
0.02499999999998493 0 0
0.02599999999998902 0 0
0.02699999999999312 0 0
0.02799999999999722 0 0
0.0289999999999959 0 0
1 3 0 9
33
34
35
36
37
38
39
40
41
0.03099999999999688 0 0
0.03199999999999974 0 0
0.03299999999999472 0 0
0.03399999999999297 0 0
0.0349999999999912 0 0
0.03599999999998944 0 0
0.03699999999999309 0 0
0.03799999999999458 0 0
0.03899999999999743 0 0
$EndNodes
$Elements
4 41 1 41
0 1 15 1
1 1 
1 1 1 10
2 1 5 
3 5 6 
4 6 7 
5 7 8 
6 8 9 
7 9 10 
8 10 11 
9 11 12 
10 12 13 
11 13 2 
1 2 1 20
12 2 14 
13 14 15 
14 15 16 
15 16 17 
16 17 18 
17 18 19 
18 19 20 
19 20 21 
20 21 22 
21 22 23 
22 23 24 
23 24 25 
24 25 26 
25 26 27 
26 27 28 
27 28 29 
28 29 30 
29 30 31 
30 31 32 
31 32 3 
1 3 1 10
32 3 33 
33 33 34 
34 34 35 
35 35 36 
36 36 37 
37 37 38 
38 38 39 
39 39 40 
40 40 41 
41 41 4 
$EndElements
