$MeshFormat
4.1 0 8
$EndMeshFormat
$PhysicalNames
17
0 9 "point1"
0 10 "point2"
0 11 "point3"
0 12 "point4"
0 13 "point5"
0 14 "point6"
0 15 "point7"
0 16 "point8"
0 17 "point9"
1 1 "AIR1"
1 2 "Glass"
1 3 "ITO"
1 4 "PTAA"
1 5 "PSK"
1 6 "SnO2"
1 7 "Ag"
1 8 "AIR2"
$EndPhysicalNames
$Entities
9 8 0 0
1 0 0 0 1 9 
2 20 0 0 1 10 
3 1020 0 0 1 11 
4 1160 0 0 1 12 
5 1180 0 0 1 13 
6 1580 0 0 1 14 
7 1600 0 0 1 15 
8 1700 0 0 1 16 
9 1710 0 0 1 17 
1 0 0 0 20 0 0 1 1 2 1 -2 
2 20 0 0 1020 0 0 1 2 2 2 -3 
3 1020 0 0 1160 0 0 1 3 2 3 -4 
4 1160 0 0 1180 0 0 1 4 2 4 -5 
5 1180 0 0 1580 0 0 1 5 2 5 -6 
6 1580 0 0 1600 0 0 1 6 2 6 -7 
7 1600 0 0 1700 0 0 1 7 2 7 -8 
8 1700 0 0 1710 0 0 1 8 2 8 -9 
$EndEntities
$Nodes
17 1711 1 1711
0 1 0 1
1
0 0 0
0 2 0 1
2
20 0 0
0 3 0 1
3
1020 0 0
0 4 0 1
4
1160 0 0
0 5 0 1
5
1180 0 0
0 6 0 1
6
1580 0 0
0 7 0 1
7
1600 0 0
0 8 0 1
8
1700 0 0
0 9 0 1
9
1710 0 0
1 1 0 19
10
11
12
13
14
15
16
17
18
19
20
21
22
23
24
25
26
27
28
0.9999999999991025 0 0
1.999999999998379 0 0
2.99999999999657 0 0
3.999999999993654 0 0
4.999999999990736 0 0
5.99999999998782 0 0
6.999999999984902 0 0
7.999999999982053 0 0
8.999999999983299 0 0
9.999999999984821 0 0
10.99999999998634 0 0
11.99999999998786 0 0
12.99999999998939 0 0
13.99999999999091 0 0
14.99999999999243 0 0
15.99999999999396 0 0
16.99999999999547 0 0
17.99999999999698 0 0
18.99999999999849 0 0
1 2 0 999
29
30
31
32
33
34
35
36
37
38
39
40
41
42
43
44
45
46
47
48
49
50
51
52
53
54
55
56
57
58
59
60
61
62
63
64
65
66
67
68
69
70
71
72
73
74
75
76
77
78
79
80
81
82
83
84
85
86
87
88
89
90
91
92
93
94
95
96
97
98
99
100
101
102
103
104
105
106
107
108
109
110
111
112
113
114
115
116
117
118
119
120
121
122
123
124
125
126
127
128
129
130
131
132
133
134
135
136
137
138
139
140
141
142
143
144
145
146
147
148
149
150
151
152
153
154
155
156
157
158
159
160
161
162
163
164
165
166
167
168
169
170
171
172
173
174
175
176
177
178
179
180
181
182
183
184
185
186
187
188
189
190
191
192
193
194
195
196
197
198
199
200
201
202
203
204
205
206
207
208
209
210
211
212
213
214
215
216
217
218
219
220
221
222
223
224
225
226
227
228
229
230
231
232
233
234
235
236
237
238
239
240
241
242
243
244
245
246
247
248
249
250
251
252
253
254
255
256
257
258
259
260
261
262
263
264
265
266
267
268
269
270
271
272
273
274
275
276
277
278
279
280
281
282
283
284
285
286
287
288
289
290
291
292
293
294
295
296
297
298
299
300
301
302
303
304
305
306
307
308
309
310
311
312
313
314
315
316
317
318
319
320
321
322
323
324
325
326
327
328
329
330
331
332
333
334
335
336
337
338
339
340
341
342
343
344
345
346
347
348
349
350
351
352
353
354
355
356
357
358
359
360
361
362
363
364
365
366
367
368
369
370
371
372
373
374
375
376
377
378
379
380
381
382
383
384
385
386
387
388
389
390
391
392
393
394
395
396
397
398
399
400
401
402
403
404
405
406
407
408
409
410
411
412
413
414
415
416
417
418
419
420
421
422
423
424
425
426
427
428
429
430
431
432
433
434
435
436
437
438
439
440
441
442
443
444
445
446
447
448
449
450
451
452
453
454
455
456
457
458
459
460
461
462
463
464
465
466
467
468
469
470
471
472
473
474
475
476
477
478
479
480
481
482
483
484
485
486
487
488
489
490
491
492
493
494
495
496
497
498
499
500
501
502
503
504
505
506
507
508
509
510
511
512
513
514
515
516
517
518
519
520
521
522
523
524
525
526
527
528
529
530
531
532
533
534
535
536
537
538
539
540
541
542
543
544
545
546
547
548
549
550
551
552
553
554
555
556
557
558
559
560
561
562
563
564
565
566
567
568
569
570
571
572
573
574
575
576
577
578
579
580
581
582
583
584
585
586
587
588
589
590
591
592
593
594
595
596
597
598
599
600
601
602
603
604
605
606
607
608
609
610
611
612
613
614
615
616
617
618
619
620
621
622
623
624
625
626
627
628
629
630
631
632
633
634
635
636
637
638
639
640
641
642
643
644
645
646
647
648
649
650
651
652
653
654
655
656
657
658
659
660
661
662
663
664
665
666
667
668
669
670
671
672
673
674
675
676
677
678
679
680
681
682
683
684
685
686
687
688
689
690
691
692
693
694
695
696
697
698
699
700
701
702
703
704
705
706
707
708
709
710
711
712
713
714
715
716
717
718
719
720
721
722
723
724
725
726
727
728
729
730
731
732
733
734
735
736
737
738
739
740
741
742
743
744
745
746
747
748
749
750
751
752
753
754
755
756
757
758
759
760
761
762
763
764
765
766
767
768
769
770
771
772
773
774
775
776
777
778
779
780
781
782
783
784
785
786
787
788
789
790
791
792
793
794
795
796
797
798
799
800
801
802
803
804
805
806
807
808
809
810
811
812
813
814
815
816
817
818
819
820
821
822
823
824
825
826
827
828
829
830
831
832
833
834
835
836
837
838
839
840
841
842
843
844
845
846
847
848
849
850
851
852
853
854
855
856
857
858
859
860
861
862
863
864
865
866
867
868
869
870
871
872
873
874
875
876
877
878
879
880
881
882
883
884
885
886
887
888
889
890
891
892
893
894
895
896
897
898
899
900
901
902
903
904
905
906
907
908
909
910
911
912
913
914
915
916
917
918
919
920
921
922
923
924
925
926
927
928
929
930
931
932
933
934
935
936
937
938
939
940
941
942
943
944
945
946
947
948
949
950
951
952
953
954
955
956
957
958
959
960
961
962
963
964
965
966
967
968
969
970
971
972
973
974
975
976
977
978
979
980
981
982
983
984
985
986
987
988
989
990
991
992
993
994
995
996
997
998
999
1000
1001
1002
1003
1004
1005
1006
1007
1008
1009
1010
1011
1012
1013
1014
1015
1016
1017
1018
1019
1020
1021
1022
1023
1024
1025
1026
1027
20.99999999999949 0 0
21.99999999999897 0 0
22.99999999999846 0 0
23.99999999999795 0 0
24.99999999999743 0 0
25.99999999999692 0 0
26.99999999999641 0 0
27.99999999999593 0 0
28.99999999999559 0 0
29.99999999999526 0 0
30.99999999999492 0 0
31.99999999999459 0 0
32.99999999999425 0 0
33.99999999999392 0 0
34.99999999999358 0 0
35.99999999999325 0 0
36.99999999999291 0 0
37.99999999999258 0 0
38.99999999999224 0 0
39.99999999999191 0 0
40.99999999999157 0 0
41.99999999999123 0 0
42.99999999999091 0 0
43.99999999999046 0 0
44.99999999998995 0 0
45.99999999998944 0 0
46.99999999998893 0 0
47.99999999998842 0 0
48.9999999999879 0 0
49.99999999998739 0 0
50.99999999998688 0 0
51.99999999998609 0 0
52.99999999998523 0 0
53.99999999998436 0 0
54.99999999998349 0 0
55.99999999998263 0 0
56.99999999998175 0 0
57.99999999998089 0 0
58.99999999998002 0 0
59.99999999997898 0 0
60.99999999997794 0 0
61.99999999997689 0 0
62.99999999997585 0 0
63.9999999999748 0 0
64.99999999997375 0 0
65.99999999997272 0 0
66.99999999997166 0 0
67.99999999997061 0 0
68.99999999996957 0 0
69.99999999996854 0 0
70.99999999996749 0 0
71.99999999996643 0 0
72.9999999999654 0 0
73.99999999996434 0 0
74.99999999996342 0 0
75.99999999996272 0 0
76.99999999996203 0 0
77.99999999996135 0 0
78.99999999996065 0 0
79.99999999995995 0 0
80.99999999995927 0 0
81.99999999995858 0 0
82.99999999995825 0 0
83.99999999995825 0 0
84.99999999995829 0 0
85.99999999995831 0 0
86.99999999995833 0 0
87.99999999995835 0 0
88.99999999995836 0 0
89.99999999995839 0 0
90.99999999995865 0 0
91.99999999995903 0 0
92.9999999999594 0 0
93.99999999995977 0 0
94.99999999996015 0 0
95.99999999996052 0 0
96.99999999996091 0 0
97.99999999996128 0 0
98.99999999996164 0 0
99.99999999996203 0 0
100.9999999999624 0 0
101.9999999999628 0 0
102.9999999999632 0 0
103.9999999999635 0 0
104.9999999999639 0 0
105.9999999999643 0 0
106.9999999999647 0 0
107.999999999965 0 0
108.9999999999654 0 0
109.9999999999658 0 0
110.9999999999661 0 0
111.9999999999665 0 0
112.9999999999669 0 0
113.9999999999673 0 0
114.9999999999677 0 0
115.999999999968 0 0
116.9999999999684 0 0
117.9999999999688 0 0
118.9999999999691 0 0
119.9999999999695 0 0
120.9999999999699 0 0
121.9999999999703 0 0
122.9999999999707 0 0
123.999999999971 0 0
124.9999999999714 0 0
125.9999999999718 0 0
126.9999999999722 0 0
127.9999999999725 0 0
128.9999999999729 0 0
129.9999999999733 0 0
130.9999999999737 0 0
131.999999999974 0 0
132.9999999999744 0 0
133.9999999999748 0 0
134.9999999999752 0 0
135.9999999999755 0 0
136.9999999999759 0 0
137.9999999999763 0 0
138.9999999999766 0 0
139.999999999977 0 0
140.9999999999774 0 0
141.9999999999778 0 0
142.9999999999782 0 0
143.9999999999785 0 0
144.9999999999789 0 0
145.9999999999778 0 0
146.9999999999768 0 0
147.9999999999758 0 0
148.9999999999747 0 0
149.9999999999737 0 0
150.9999999999726 0 0
151.9999999999715 0 0
152.9999999999702 0 0
153.9999999999678 0 0
154.9999999999654 0 0
155.9999999999629 0 0
156.9999999999604 0 0
157.9999999999579 0 0
158.9999999999555 0 0
159.999999999953 0 0
160.9999999999505 0 0
161.999999999948 0 0
162.9999999999456 0 0
163.9999999999432 0 0
164.9999999999407 0 0
165.9999999999382 0 0
166.9999999999357 0 0
167.9999999999333 0 0
168.9999999999308 0 0
169.9999999999283 0 0
170.9999999999258 0 0
171.9999999999234 0 0
172.9999999999209 0 0
173.9999999999185 0 0
174.999999999916 0 0
175.9999999999135 0 0
176.9999999999111 0 0
177.9999999999086 0 0
178.9999999999062 0 0
179.9999999999037 0 0
180.9999999999012 0 0
181.9999999998987 0 0
182.9999999998963 0 0
183.9999999998938 0 0
184.9999999998913 0 0
185.9999999998889 0 0
186.9999999998864 0 0
187.9999999998839 0 0
188.9999999998815 0 0
189.999999999879 0 0
190.9999999998766 0 0
191.9999999998741 0 0
192.9999999998716 0 0
193.9999999998692 0 0
194.9999999998667 0 0
195.9999999998642 0 0
196.9999999998617 0 0
197.9999999998593 0 0
198.9999999998568 0 0
199.9999999998544 0 0
200.9999999998519 0 0
201.9999999998494 0 0
202.9999999998469 0 0
203.9999999998445 0 0
204.999999999842 0 0
205.9999999998396 0 0
206.9999999998371 0 0
207.9999999998346 0 0
208.9999999998322 0 0
209.9999999998297 0 0
210.9999999998272 0 0
211.9999999998248 0 0
212.9999999998223 0 0
213.9999999998198 0 0
214.9999999998174 0 0
215.9999999998149 0 0
216.9999999998124 0 0
217.99999999981 0 0
218.9999999998075 0 0
219.999999999805 0 0
220.9999999998026 0 0
221.9999999998001 0 0
222.9999999997976 0 0
223.9999999997952 0 0
224.9999999997927 0 0
225.9999999997902 0 0
226.9999999997878 0 0
227.9999999997853 0 0
228.9999999997829 0 0
229.9999999997804 0 0
230.9999999997779 0 0
231.9999999997754 0 0
232.999999999773 0 0
233.9999999997705 0 0
234.9999999997681 0 0
235.9999999997656 0 0
236.9999999997631 0 0
237.9999999997606 0 0
238.9999999997582 0 0
239.9999999997557 0 0
240.9999999997532 0 0
241.9999999997508 0 0
242.9999999997483 0 0
243.9999999997459 0 0
244.9999999997434 0 0
245.9999999997409 0 0
246.9999999997384 0 0
247.999999999736 0 0
248.9999999997335 0 0
249.999999999731 0 0
250.9999999997286 0 0
251.9999999997261 0 0
252.9999999997237 0 0
253.9999999997212 0 0
254.9999999997196 0 0
255.9999999997185 0 0
256.9999999997175 0 0
257.9999999997165 0 0
258.9999999997154 0 0
259.9999999997144 0 0
260.9999999997133 0 0
261.9999999997123 0 0
262.9999999997124 0 0
263.9999999997128 0 0
264.9999999997132 0 0
265.9999999997135 0 0
266.9999999997139 0 0
267.9999999997142 0 0
268.9999999997146 0 0
269.999999999715 0 0
270.9999999997154 0 0
271.9999999997158 0 0
272.9999999997161 0 0
273.9999999997166 0 0
274.9999999997169 0 0
275.9999999997173 0 0
276.9999999997177 0 0
277.9999999997181 0 0
278.9999999997184 0 0
279.9999999997188 0 0
280.9999999997191 0 0
281.9999999997195 0 0
282.9999999997199 0 0
283.9999999997203 0 0
284.9999999997207 0 0
285.999999999721 0 0
286.9999999997214 0 0
287.9999999997218 0 0
288.9999999997221 0 0
289.9999999997225 0 0
290.9999999997229 0 0
291.9999999997233 0 0
292.9999999997237 0 0
293.999999999724 0 0
294.9999999997244 0 0
295.9999999997248 0 0
296.9999999997252 0 0
297.9999999997256 0 0
298.9999999997259 0 0
299.9999999997263 0 0
300.9999999997266 0 0
301.999999999727 0 0
302.9999999997274 0 0
303.9999999997278 0 0
304.9999999997282 0 0
305.9999999997285 0 0
306.9999999997289 0 0
307.9999999997293 0 0
308.9999999997297 0 0
309.9999999997301 0 0
310.9999999997304 0 0
311.9999999997308 0 0
312.9999999997312 0 0
313.9999999997315 0 0
314.9999999997319 0 0
315.9999999997323 0 0
316.9999999997327 0 0
317.9999999997331 0 0
318.9999999997334 0 0
319.9999999997338 0 0
320.9999999997341 0 0
321.9999999997345 0 0
322.9999999997349 0 0
323.9999999997353 0 0
324.9999999997357 0 0
325.999999999736 0 0
326.9999999997364 0 0
327.9999999997368 0 0
328.9999999997372 0 0
329.9999999997376 0 0
330.9999999997379 0 0
331.9999999997383 0 0
332.9999999997387 0 0
333.999999999739 0 0
334.9999999997394 0 0
335.9999999997398 0 0
336.9999999997402 0 0
337.9999999997406 0 0
338.9999999997409 0 0
339.9999999997413 0 0
340.9999999997416 0 0
341.999999999742 0 0
342.9999999997424 0 0
343.9999999997428 0 0
344.9999999997432 0 0
345.9999999997435 0 0
346.9999999997439 0 0
347.9999999997443 0 0
348.9999999997447 0 0
349.9999999997451 0 0
350.9999999997454 0 0
351.9999999997458 0 0
352.9999999997462 0 0
353.9999999997465 0 0
354.9999999997469 0 0
355.9999999997473 0 0
356.9999999997477 0 0
357.9999999997481 0 0
358.9999999997484 0 0
359.9999999997488 0 0
360.9999999997491 0 0
361.9999999997495 0 0
362.9999999997499 0 0
363.9999999997503 0 0
364.9999999997507 0 0
365.999999999751 0 0
366.9999999997514 0 0
367.9999999997518 0 0
368.9999999997522 0 0
369.9999999997526 0 0
370.9999999997529 0 0
371.9999999997533 0 0
372.9999999997537 0 0
373.999999999754 0 0
374.9999999997544 0 0
375.9999999997548 0 0
376.9999999997552 0 0
377.9999999997556 0 0
378.9999999997559 0 0
379.9999999997563 0 0
380.9999999997567 0 0
381.9999999997571 0 0
382.9999999997574 0 0
383.9999999997578 0 0
384.9999999997582 0 0
385.9999999997585 0 0
386.9999999997589 0 0
387.9999999997593 0 0
388.9999999997597 0 0
389.9999999997601 0 0
390.9999999997604 0 0
391.9999999997608 0 0
392.9999999997612 0 0
393.9999999997615 0 0
394.9999999997619 0 0
395.9999999997623 0 0
396.9999999997627 0 0
397.9999999997631 0 0
398.9999999997634 0 0
399.9999999997638 0 0
400.9999999997642 0 0
401.9999999997646 0 0
402.999999999765 0 0
403.9999999997653 0 0
404.9999999997657 0 0
405.999999999766 0 0
406.9999999997664 0 0
407.9999999997668 0 0
408.9999999997672 0 0
409.9999999997676 0 0
410.9999999997679 0 0
411.9999999997683 0 0
412.9999999997687 0 0
413.999999999769 0 0
414.9999999997694 0 0
415.9999999997698 0 0
416.9999999997702 0 0
417.9999999997706 0 0
418.9999999997709 0 0
419.9999999997713 0 0
420.9999999997717 0 0
421.9999999997721 0 0
422.9999999997725 0 0
423.9999999997728 0 0
424.9999999997732 0 0
425.9999999997735 0 0
426.9999999997739 0 0
427.9999999997743 0 0
428.9999999997747 0 0
429.9999999997751 0 0
430.9999999997754 0 0
431.9999999997758 0 0
432.9999999997762 0 0
433.9999999997765 0 0
434.9999999997769 0 0
435.9999999997773 0 0
436.9999999997777 0 0
437.9999999997781 0 0
438.9999999997784 0 0
439.9999999997788 0 0
440.9999999997792 0 0
441.9999999997796 0 0
442.99999999978 0 0
443.9999999997803 0 0
444.9999999997807 0 0
445.999999999781 0 0
446.9999999997814 0 0
447.9999999997818 0 0
448.9999999997822 0 0
449.9999999997826 0 0
450.9999999997829 0 0
451.9999999997833 0 0
452.9999999997837 0 0
453.9999999997841 0 0
454.9999999997844 0 0
455.9999999997848 0 0
456.9999999997852 0 0
457.9999999997856 0 0
458.9999999997859 0 0
459.9999999997863 0 0
460.9999999997867 0 0
461.9999999997871 0 0
462.9999999997875 0 0
463.9999999997878 0 0
464.9999999997882 0 0
465.9999999997885 0 0
466.9999999997889 0 0
467.9999999997893 0 0
468.9999999997897 0 0
469.9999999997901 0 0
470.9999999997904 0 0
471.9999999997908 0 0
472.9999999997912 0 0
473.9999999997916 0 0
474.999999999792 0 0
475.9999999997923 0 0
476.9999999997927 0 0
477.9999999997931 0 0
478.9999999997934 0 0
479.9999999997938 0 0
480.9999999997942 0 0
481.9999999997946 0 0
482.999999999795 0 0
483.9999999997953 0 0
484.9999999997957 0 0
485.999999999796 0 0
486.9999999997964 0 0
487.9999999997968 0 0
488.9999999997972 0 0
489.9999999997976 0 0
490.9999999997979 0 0
491.9999999997983 0 0
492.9999999997987 0 0
493.9999999997991 0 0
494.9999999997995 0 0
495.9999999997998 0 0
496.9999999998002 0 0
497.9999999998006 0 0
498.9999999998009 0 0
499.9999999998013 0 0
500.9999999998017 0 0
501.9999999998021 0 0
502.9999999998025 0 0
503.9999999998028 0 0
504.9999999998032 0 0
505.9999999998035 0 0
506.9999999998039 0 0
507.9999999998043 0 0
508.9999999998047 0 0
509.9999999998051 0 0
510.9999999998054 0 0
511.9999999998058 0 0
512.9999999998063 0 0
513.9999999998065 0 0
514.999999999807 0 0
515.9999999998073 0 0
516.9999999998076 0 0
517.9999999998081 0 0
518.9999999998084 0 0
519.9999999998088 0 0
520.9999999998092 0 0
521.9999999998096 0 0
522.9999999998099 0 0
523.9999999998103 0 0
524.9999999998107 0 0
525.9999999998111 0 0
526.9999999998115 0 0
527.9999999998118 0 0
528.9999999998122 0 0
529.9999999998126 0 0
530.9999999998129 0 0
531.9999999998133 0 0
532.9999999998137 0 0
533.9999999998141 0 0
534.9999999998145 0 0
535.9999999998149 0 0
536.9999999998153 0 0
537.9999999998156 0 0
538.9999999998161 0 0
539.9999999998164 0 0
540.9999999998167 0 0
541.9999999998172 0 0
542.9999999998176 0 0
543.999999999818 0 0
544.9999999998183 0 0
545.9999999998187 0 0
546.999999999819 0 0
547.9999999998194 0 0
548.9999999998199 0 0
549.9999999998203 0 0
550.9999999998206 0 0
551.9999999998209 0 0
552.9999999998214 0 0
553.9999999998217 0 0
554.9999999998221 0 0
555.9999999998226 0 0
556.999999999823 0 0
557.9999999998233 0 0
558.9999999998238 0 0
559.999999999824 0 0
560.9999999998244 0 0
561.9999999998247 0 0
562.9999999998253 0 0
563.9999999998256 0 0
564.9999999998259 0 0
565.9999999998264 0 0
566.9999999998267 0 0
567.9999999998271 0 0
568.9999999998275 0 0
569.9999999998279 0 0
570.9999999998283 0 0
571.9999999998287 0 0
572.9999999998291 0 0
573.9999999998294 0 0
574.9999999998297 0 0
575.9999999998302 0 0
576.9999999998305 0 0
577.9999999998309 0 0
578.9999999998314 0 0
579.9999999998317 0 0
580.9999999998321 0 0
581.9999999998324 0 0
582.9999999998329 0 0
583.9999999998332 0 0
584.9999999998337 0 0
585.9999999998341 0 0
586.9999999998344 0 0
587.9999999998347 0 0
588.9999999998352 0 0
589.9999999998355 0 0
590.9999999998358 0 0
591.9999999998362 0 0
592.9999999998367 0 0
593.9999999998371 0 0
594.9999999998374 0 0
595.9999999998379 0 0
596.9999999998382 0 0
597.9999999998386 0 0
598.999999999839 0 0
599.9999999998395 0 0
600.9999999998397 0 0
601.99999999984 0 0
602.9999999998405 0 0
603.9999999998408 0 0
604.9999999998412 0 0
605.9999999998416 0 0
606.9999999998421 0 0
607.9999999998424 0 0
608.9999999998429 0 0
609.9999999998432 0 0
610.9999999998436 0 0
611.9999999998439 0 0
612.9999999998444 0 0
613.9999999998447 0 0
614.999999999845 0 0
615.9999999998455 0 0
616.9999999998458 0 0
617.9999999998462 0 0
618.9999999998466 0 0
619.999999999847 0 0
620.9999999998473 0 0
621.9999999998478 0 0
622.9999999998482 0 0
623.9999999998486 0 0
624.9999999998489 0 0
625.9999999998494 0 0
626.9999999998497 0 0
627.99999999985 0 0
628.9999999998505 0 0
629.9999999998508 0 0
630.9999999998512 0 0
631.9999999998515 0 0
632.999999999852 0 0
633.9999999998523 0 0
634.9999999998527 0 0
635.9999999998531 0 0
636.9999999998536 0 0
637.9999999998539 0 0
638.9999999998544 0 0
639.9999999998547 0 0
640.999999999855 0 0
641.9999999998554 0 0
642.9999999998557 0 0
643.9999999998562 0 0
644.9999999998565 0 0
645.999999999857 0 0
646.9999999998573 0 0
647.9999999998577 0 0
648.9999999998581 0 0
649.9999999998585 0 0
650.9999999998589 0 0
651.9999999998593 0 0
652.9999999998597 0 0
653.9999999998601 0 0
654.9999999998604 0 0
655.9999999998607 0 0
656.9999999998611 0 0
657.9999999998614 0 0
658.999999999862 0 0
659.9999999998623 0 0
660.9999999998627 0 0
661.999999999863 0 0
662.9999999998635 0 0
663.9999999998638 0 0
664.9999999998641 0 0
665.9999999998647 0 0
666.9999999998651 0 0
667.9999999998654 0 0
668.9999999998658 0 0
669.9999999998661 0 0
670.9999999998664 0 0
671.9999999998668 0 0
672.9999999998673 0 0
673.9999999998677 0 0
674.999999999868 0 0
675.9999999998685 0 0
676.9999999998688 0 0
677.9999999998691 0 0
678.9999999998696 0 0
679.9999999998701 0 0
680.9999999998704 0 0
681.9999999998707 0 0
682.9999999998712 0 0
683.9999999998714 0 0
684.9999999998718 0 0
685.9999999998722 0 0
686.9999999998726 0 0
687.999999999873 0 0
688.9999999998735 0 0
689.9999999998738 0 0
690.9999999998741 0 0
691.9999999998745 0 0
692.9999999998749 0 0
693.9999999998753 0 0
694.9999999998757 0 0
695.9999999998762 0 0
696.9999999998764 0 0
697.9999999998768 0 0
698.9999999998772 0 0
699.9999999998776 0 0
700.9999999998779 0 0
701.9999999998784 0 0
702.9999999998788 0 0
703.9999999998792 0 0
704.9999999998795 0 0
705.9999999998799 0 0
706.9999999998803 0 0
707.9999999998806 0 0
708.9999999998811 0 0
709.9999999998815 0 0
710.9999999998818 0 0
711.9999999998821 0 0
712.9999999998826 0 0
713.9999999998829 0 0
714.9999999998832 0 0
715.9999999998837 0 0
716.9999999998842 0 0
717.9999999998845 0 0
718.9999999998849 0 0
719.9999999998853 0 0
720.9999999998856 0 0
721.999999999886 0 0
722.9999999998864 0 0
723.9999999998869 0 0
724.9999999998871 0 0
725.9999999998876 0 0
726.9999999998879 0 0
727.9999999998882 0 0
728.9999999998887 0 0
729.999999999889 0 0
730.9999999998894 0 0
731.9999999998898 0 0
732.9999999998903 0 0
733.9999999998906 0 0
734.999999999891 0 0
735.9999999998914 0 0
736.9999999998918 0 0
737.9999999998921 0 0
738.9999999998926 0 0
739.9999999998929 0 0
740.9999999998932 0 0
741.9999999998936 0 0
742.999999999894 0 0
743.9999999998944 0 0
744.9999999998947 0 0
745.9999999998953 0 0
746.9999999998956 0 0
747.999999999896 0 0
748.9999999998964 0 0
749.9999999998968 0 0
750.9999999998971 0 0
751.9999999998975 0 0
752.9999999998979 0 0
753.9999999998983 0 0
754.9999999998986 0 0
755.999999999899 0 0
756.9999999998994 0 0
757.9999999998997 0 0
758.9999999999002 0 0
759.9999999999005 0 0
760.999999999901 0 0
761.9999999999013 0 0
762.9999999999018 0 0
763.9999999999021 0 0
764.9999999999025 0 0
765.9999999999028 0 0
766.9999999999031 0 0
767.9999999999036 0 0
768.999999999904 0 0
769.9999999999044 0 0
770.9999999999047 0 0
771.9999999999051 0 0
772.9999999999055 0 0
773.9999999999059 0 0
774.9999999999062 0 0
775.9999999999068 0 0
776.9999999999071 0 0
777.9999999999075 0 0
778.9999999999079 0 0
779.9999999999081 0 0
780.9999999999085 0 0
781.9999999999088 0 0
782.9999999999094 0 0
783.9999999999097 0 0
784.9999999999101 0 0
785.9999999999105 0 0
786.9999999999109 0 0
787.9999999999112 0 0
788.9999999999117 0 0
789.9999999999121 0 0
790.9999999999125 0 0
791.9999999999128 0 0
792.9999999999133 0 0
793.9999999999135 0 0
794.9999999999138 0 0
795.9999999999143 0 0
796.9999999999147 0 0
797.9999999999151 0 0
798.9999999999155 0 0
799.9999999999159 0 0
800.9999999999162 0 0
801.9999999999166 0 0
802.999999999917 0 0
803.9999999999173 0 0
804.9999999999178 0 0
805.9999999999183 0 0
806.9999999999185 0 0
807.9999999999188 0 0
808.9999999999193 0 0
809.9999999999196 0 0
810.99999999992 0 0
811.9999999999204 0 0
812.9999999999209 0 0
813.9999999999212 0 0
814.9999999999216 0 0
815.999999999922 0 0
816.9999999999224 0 0
817.9999999999227 0 0
818.9999999999233 0 0
819.9999999999236 0 0
820.9999999999238 0 0
821.9999999999242 0 0
822.9999999999246 0 0
823.999999999925 0 0
824.9999999999253 0 0
825.9999999999258 0 0
826.9999999999262 0 0
827.9999999999266 0 0
828.999999999927 0 0
829.9999999999274 0 0
830.9999999999277 0 0
831.999999999928 0 0
832.9999999999285 0 0
833.9999999999289 0 0
834.9999999999292 0 0
835.9999999999296 0 0
836.99999999993 0 0
837.9999999999303 0 0
838.9999999999308 0 0
839.9999999999311 0 0
840.9999999999316 0 0
841.9999999999319 0 0
842.9999999999324 0 0
843.9999999999327 0 0
844.999999999933 0 0
845.9999999999335 0 0
846.9999999999338 0 0
847.9999999999342 0 0
848.9999999999346 0 0
849.999999999935 0 0
850.9999999999353 0 0
851.9999999999357 0 0
852.9999999999361 0 0
853.9999999999364 0 0
854.9999999999368 0 0
855.9999999999374 0 0
856.9999999999377 0 0
857.999999999938 0 0
858.9999999999385 0 0
859.9999999999388 0 0
860.9999999999392 0 0
861.9999999999395 0 0
862.99999999994 0 0
863.9999999999403 0 0
864.9999999999407 0 0
865.9999999999411 0 0
866.9999999999415 0 0
867.9999999999418 0 0
868.9999999999422 0 0
869.9999999999426 0 0
870.999999999943 0 0
871.9999999999434 0 0
872.9999999999438 0 0
873.9999999999442 0 0
874.9999999999445 0 0
875.9999999999449 0 0
876.9999999999452 0 0
877.9999999999457 0 0
878.9999999999461 0 0
879.9999999999465 0 0
880.9999999999468 0 0
881.9999999999471 0 0
882.9999999999476 0 0
883.9999999999479 0 0
884.9999999999484 0 0
885.9999999999488 0 0
886.9999999999492 0 0
887.9999999999495 0 0
888.99999999995 0 0
889.9999999999502 0 0
890.9999999999505 0 0
891.9999999999509 0 0
892.9999999999515 0 0
893.9999999999518 0 0
894.9999999999521 0 0
895.9999999999526 0 0
896.9999999999529 0 0
897.9999999999533 0 0
898.9999999999537 0 0
899.9999999999542 0 0
900.9999999999545 0 0
901.9999999999549 0 0
902.9999999999553 0 0
903.9999999999555 0 0
904.9999999999559 0 0
905.9999999999563 0 0
906.9999999999568 0 0
907.9999999999571 0 0
908.9999999999576 0 0
909.9999999999579 0 0
910.9999999999583 0 0
911.9999999999586 0 0
912.9999999999591 0 0
913.9999999999595 0 0
914.9999999999599 0 0
915.9999999999603 0 0
916.9999999999606 0 0
917.9999999999609 0 0
918.9999999999613 0 0
919.9999999999617 0 0
920.999999999962 0 0
921.9999999999625 0 0
922.9999999999629 0 0
923.9999999999633 0 0
924.9999999999636 0 0
925.9999999999641 0 0
926.9999999999644 0 0
927.9999999999648 0 0
928.9999999999653 0 0
929.9999999999657 0 0
930.9999999999659 0 0
931.9999999999662 0 0
932.9999999999667 0 0
933.999999999967 0 0
934.9999999999674 0 0
935.9999999999679 0 0
936.9999999999683 0 0
937.9999999999686 0 0
938.9999999999691 0 0
939.9999999999694 0 0
940.9999999999698 0 0
941.9999999999701 0 0
942.9999999999706 0 0
943.999999999971 0 0
944.9999999999712 0 0
945.9999999999717 0 0
946.999999999972 0 0
947.9999999999724 0 0
948.9999999999728 0 0
949.9999999999732 0 0
950.9999999999736 0 0
951.999999999974 0 0
952.9999999999744 0 0
953.9999999999748 0 0
954.9999999999751 0 0
955.9999999999756 0 0
956.9999999999759 0 0
957.9999999999764 0 0
958.9999999999767 0 0
959.999999999977 0 0
960.9999999999774 0 0
961.9999999999777 0 0
962.9999999999782 0 0
963.9999999999785 0 0
964.9999999999789 0 0
965.9999999999794 0 0
966.9999999999798 0 0
967.9999999999801 0 0
968.9999999999806 0 0
969.9999999999809 0 0
970.9999999999812 0 0
971.9999999999816 0 0
972.999999999982 0 0
973.9999999999824 0 0
974.9999999999827 0 0
975.9999999999832 0 0
976.9999999999835 0 0
977.9999999999839 0 0
978.9999999999843 0 0
979.9999999999848 0 0
980.9999999999851 0 0
981.9999999999854 0 0
982.9999999999859 0 0
983.9999999999862 0 0
984.9999999999866 0 0
985.9999999999869 0 0
986.9999999999873 0 0
987.9999999999877 0 0
988.9999999999882 0 0
989.9999999999885 0 0
990.9999999999889 0 0
991.9999999999892 0 0
992.9999999999897 0 0
993.99999999999 0 0
994.9999999999905 0 0
995.9999999999909 0 0
996.9999999999912 0 0
997.9999999999916 0 0
998.999999999992 0 0
999.9999999999923 0 0
1000.999999999993 0 0
1001.999999999993 0 0
1002.999999999994 0 0
1003.999999999994 0 0
1004.999999999994 0 0
1005.999999999995 0 0
1006.999999999995 0 0
1007.999999999995 0 0
1008.999999999996 0 0
1009.999999999996 0 0
1010.999999999997 0 0
1011.999999999997 0 0
1012.999999999997 0 0
1013.999999999998 0 0
1014.999999999998 0 0
1015.999999999998 0 0
1016.999999999999 0 0
1017.999999999999 0 0
1019 0 0
1 3 0 139
1028
1029
1030
1031
1032
1033
1034
1035
1036
1037
1038
1039
1040
1041
1042
1043
1044
1045
1046
1047
1048
1049
1050
1051
1052
1053
1054
1055
1056
1057
1058
1059
1060
1061
1062
1063
1064
1065
1066
1067
1068
1069
1070
1071
1072
1073
1074
1075
1076
1077
1078
1079
1080
1081
1082
1083
1084
1085
1086
1087
1088
1089
1090
1091
1092
1093
1094
1095
1096
1097
1098
1099
1100
1101
1102
1103
1104
1105
1106
1107
1108
1109
1110
1111
1112
1113
1114
1115
1116
1117
1118
1119
1120
1121
1122
1123
1124
1125
1126
1127
1128
1129
1130
1131
1132
1133
1134
1135
1136
1137
1138
1139
1140
1141
1142
1143
1144
1145
1146
1147
1148
1149
1150
1151
1152
1153
1154
1155
1156
1157
1158
1159
1160
1161
1162
1163
1164
1165
1166
1021.000000000079 0 0
1022.000000000158 0 0
1023.000000000237 0 0
1024.000000000287 0 0
1025.0000000003 0 0
1026.000000000298 0 0
1027.000000000295 0 0
1028.000000000293 0 0
1029.000000000291 0 0
1030.000000000289 0 0
1031.000000000286 0 0
1032.000000000284 0 0
1033.000000000282 0 0
1034.00000000028 0 0
1035.000000000278 0 0
1036.000000000275 0 0
1037.000000000273 0 0
1038.000000000271 0 0
1039.000000000269 0 0
1040.000000000266 0 0
1041.000000000264 0 0
1042.000000000262 0 0
1043.00000000026 0 0
1044.000000000258 0 0
1045.000000000255 0 0
1046.000000000253 0 0
1047.000000000251 0 0
1048.000000000249 0 0
1049.000000000246 0 0
1050.000000000244 0 0
1051.000000000242 0 0
1052.00000000024 0 0
1053.000000000238 0 0
1054.000000000235 0 0
1055.000000000233 0 0
1056.000000000231 0 0
1057.000000000229 0 0
1058.000000000226 0 0
1059.000000000224 0 0
1060.000000000222 0 0
1061.00000000022 0 0
1062.000000000218 0 0
1063.000000000215 0 0
1064.000000000213 0 0
1065.000000000211 0 0
1066.000000000209 0 0
1067.000000000206 0 0
1068.000000000204 0 0
1069.000000000202 0 0
1070.0000000002 0 0
1071.000000000198 0 0
1072.000000000195 0 0
1073.000000000193 0 0
1074.000000000191 0 0
1075.000000000189 0 0
1076.000000000186 0 0
1077.000000000184 0 0
1078.000000000182 0 0
1079.00000000018 0 0
1080.000000000178 0 0
1081.000000000175 0 0
1082.000000000173 0 0
1083.000000000171 0 0
1084.000000000169 0 0
1085.000000000166 0 0
1086.000000000164 0 0
1087.000000000162 0 0
1088.00000000016 0 0
1089.000000000158 0 0
1090.000000000156 0 0
1091.000000000153 0 0
1092.000000000151 0 0
1093.000000000149 0 0
1094.000000000146 0 0
1095.000000000144 0 0
1096.000000000142 0 0
1097.00000000014 0 0
1098.000000000138 0 0
1099.000000000136 0 0
1100.000000000133 0 0
1101.000000000131 0 0
1102.000000000129 0 0
1103.000000000127 0 0
1104.000000000124 0 0
1105.000000000122 0 0
1106.00000000012 0 0
1107.000000000118 0 0
1108.000000000116 0 0
1109.000000000113 0 0
1110.000000000111 0 0
1111.000000000109 0 0
1112.000000000107 0 0
1113.000000000104 0 0
1114.000000000102 0 0
1115.0000000001 0 0
1116.000000000098 0 0
1117.000000000095 0 0
1118.000000000093 0 0
1119.000000000091 0 0
1120.000000000089 0 0
1121.000000000087 0 0
1122.000000000084 0 0
1123.000000000082 0 0
1124.00000000008 0 0
1125.000000000078 0 0
1126.000000000075 0 0
1127.000000000073 0 0
1128.000000000071 0 0
1129.000000000069 0 0
1130.000000000067 0 0
1131.000000000064 0 0
1132.000000000062 0 0
1133.00000000006 0 0
1134.000000000058 0 0
1135.000000000055 0 0
1136.000000000053 0 0
1137.000000000051 0 0
1138.000000000049 0 0
1139.000000000047 0 0
1140.000000000044 0 0
1141.000000000042 0 0
1142.00000000004 0 0
1143.000000000038 0 0
1144.000000000035 0 0
1145.000000000033 0 0
1146.000000000031 0 0
1147.000000000029 0 0
1148.000000000027 0 0
1149.000000000024 0 0
1150.000000000022 0 0
1151.00000000002 0 0
1152.000000000018 0 0
1153.000000000015 0 0
1154.000000000013 0 0
1155.000000000011 0 0
1156.000000000009 0 0
1157.000000000007 0 0
1158.000000000005 0 0
1159.000000000002 0 0
1 4 0 19
1167
1168
1169
1170
1171
1172
1173
1174
1175
1176
1177
1178
1179
1180
1181
1182
1183
1184
1185
1161 0 0
1162 0 0
1163 0 0
1164 0 0
1165 0 0
1166 0 0
1167 0 0
1168 0 0
1169 0 0
1170 0 0
1171 0 0
1172 0 0
1173 0 0
1174 0 0
1175 0 0
1176 0 0
1177 0 0
1178 0 0
1179 0 0
1 5 0 399
1186
1187
1188
1189
1190
1191
1192
1193
1194
1195
1196
1197
1198
1199
1200
1201
1202
1203
1204
1205
1206
1207
1208
1209
1210
1211
1212
1213
1214
1215
1216
1217
1218
1219
1220
1221
1222
1223
1224
1225
1226
1227
1228
1229
1230
1231
1232
1233
1234
1235
1236
1237
1238
1239
1240
1241
1242
1243
1244
1245
1246
1247
1248
1249
1250
1251
1252
1253
1254
1255
1256
1257
1258
1259
1260
1261
1262
1263
1264
1265
1266
1267
1268
1269
1270
1271
1272
1273
1274
1275
1276
1277
1278
1279
1280
1281
1282
1283
1284
1285
1286
1287
1288
1289
1290
1291
1292
1293
1294
1295
1296
1297
1298
1299
1300
1301
1302
1303
1304
1305
1306
1307
1308
1309
1310
1311
1312
1313
1314
1315
1316
1317
1318
1319
1320
1321
1322
1323
1324
1325
1326
1327
1328
1329
1330
1331
1332
1333
1334
1335
1336
1337
1338
1339
1340
1341
1342
1343
1344
1345
1346
1347
1348
1349
1350
1351
1352
1353
1354
1355
1356
1357
1358
1359
1360
1361
1362
1363
1364
1365
1366
1367
1368
1369
1370
1371
1372
1373
1374
1375
1376
1377
1378
1379
1380
1381
1382
1383
1384
1385
1386
1387
1388
1389
1390
1391
1392
1393
1394
1395
1396
1397
1398
1399
1400
1401
1402
1403
1404
1405
1406
1407
1408
1409
1410
1411
1412
1413
1414
1415
1416
1417
1418
1419
1420
1421
1422
1423
1424
1425
1426
1427
1428
1429
1430
1431
1432
1433
1434
1435
1436
1437
1438
1439
1440
1441
1442
1443
1444
1445
1446
1447
1448
1449
1450
1451
1452
1453
1454
1455
1456
1457
1458
1459
1460
1461
1462
1463
1464
1465
1466
1467
1468
1469
1470
1471
1472
1473
1474
1475
1476
1477
1478
1479
1480
1481
1482
1483
1484
1485
1486
1487
1488
1489
1490
1491
1492
1493
1494
1495
1496
1497
1498
1499
1500
1501
1502
1503
1504
1505
1506
1507
1508
1509
1510
1511
1512
1513
1514
1515
1516
1517
1518
1519
1520
1521
1522
1523
1524
1525
1526
1527
1528
1529
1530
1531
1532
1533
1534
1535
1536
1537
1538
1539
1540
1541
1542
1543
1544
1545
1546
1547
1548
1549
1550
1551
1552
1553
1554
1555
1556
1557
1558
1559
1560
1561
1562
1563
1564
1565
1566
1567
1568
1569
1570
1571
1572
1573
1574
1575
1576
1577
1578
1579
1580
1581
1582
1583
1584
1181 0 0
1182 0 0
1183 0 0
1184 0 0
1185 0 0
1186 0 0
1187 0 0
1188 0 0
1189 0 0
1190 0 0
1191 0 0
1192 0 0
1193 0 0
1194 0 0
1195 0 0
1196 0 0
1197 0 0
1198 0 0
1199 0 0
1200 0 0
1201 0 0
1202 0 0
1203 0 0
1204 0 0
1205 0 0
1206 0 0
1207 0 0
1208 0 0
1209 0 0
1210 0 0
1211 0 0
1212 0 0
1213 0 0
1214 0 0
1215 0 0
1216 0 0
1217 0 0
1218 0 0
1219 0 0
1220 0 0
1221 0 0
1222 0 0
1223 0 0
1224 0 0
1225 0 0
1226 0 0
1227 0 0
1228 0 0
1229 0 0
1230 0 0
1231 0 0
1232 0 0
1233 0 0
1234 0 0
1235 0 0
1236 0 0
1237 0 0
1238 0 0
1239 0 0
1240 0 0
1241 0 0
1242 0 0
1243 0 0
1244 0 0
1245 0 0
1246 0 0
1247 0 0
1248 0 0
1249 0 0
1250 0 0
1251 0 0
1252 0 0
1253 0 0
1254 0 0
1255 0 0
1256 0 0
1257 0 0
1258 0 0
1259 0 0
1260 0 0
1261 0 0
1262 0 0
1263 0 0
1264 0 0
1265 0 0
1266 0 0
1267 0 0
1268 0 0
1269 0 0
1270 0 0
1271 0 0
1272 0 0
1273 0 0
1274 0 0
1275 0 0
1276 0 0
1277 0 0
1278 0 0
1279 0 0
1280 0 0
1281 0 0
1282 0 0
1283 0 0
1284 0 0
1285 0 0
1286 0 0
1287 0 0
1288 0 0
1289 0 0
1290 0 0
1291 0 0
1292 0 0
1293 0 0
1294 0 0
1295 0 0
1296 0 0
1297 0 0
1298 0 0
1299 0 0
1300 0 0
1301 0 0
1302 0 0
1303 0 0
1304 0 0
1305 0 0
1306 0 0
1307 0 0
1308 0 0
1309 0 0
1310 0 0
1311 0 0
1312 0 0
1313 0 0
1314 0 0
1315 0 0
1316 0 0
1317 0 0
1318 0 0
1319 0 0
1320 0 0
1321 0 0
1322 0 0
1323 0 0
1324 0 0
1325 0 0
1326 0 0
1327 0 0
1328 0 0
1329 0 0
1330 0 0
1331 0 0
1332 0 0
1333 0 0
1334 0 0
1335 0 0
1336 0 0
1337 0 0
1338 0 0
1339 0 0
1340 0 0
1341 0 0
1342 0 0
1343 0 0
1344 0 0
1345 0 0
1346 0 0
1347 0 0
1348 0 0
1349 0 0
1350 0 0
1351 0 0
1352 0 0
1353 0 0
1354 0 0
1355 0 0
1356 0 0
1357 0 0
1358 0 0
1359 0 0
1360 0 0
1361 0 0
1362 0 0
1363 0 0
1364 0 0
1365 0 0
1366 0 0
1367 0 0
1368 0 0
1369 0 0
1370 0 0
1371 0 0
1372 0 0
1373 0 0
1374 0 0
1375 0 0
1376 0 0
1377 0 0
1378 0 0
1379 0 0
1380 0 0
1381 0 0
1382 0 0
1383 0 0
1384 0 0
1385 0 0
1386 0 0
1387 0 0
1388 0 0
1389 0 0
1390 0 0
1391 0 0
1392 0 0
1393 0 0
1394 0 0
1395 0 0
1396 0 0
1397 0 0
1398 0 0
1399 0 0
1400 0 0
1401 0 0
1402 0 0
1403 0 0
1404 0 0
1405 0 0
1406 0 0
1407 0 0
1408 0 0
1409 0 0
1410 0 0
1411 0 0
1412 0 0
1413 0 0
1414 0 0
1415 0 0
1416 0 0
1417 0 0
1418 0 0
1419 0 0
1420 0 0
1421 0 0
1422 0 0
1423 0 0
1424 0 0
1425 0 0
1426 0 0
1427 0 0
1428 0 0
1429 0 0
1430 0 0
1431 0 0
1432 0 0
1433 0 0
1434 0 0
1435 0 0
1436 0 0
1437 0 0
1438 0 0
1439 0 0
1440 0 0
1441 0 0
1442 0 0
1443 0 0
1444 0 0
1445 0 0
1446 0 0
1447 0 0
1448 0 0
1449 0 0
1450 0 0
1451 0 0
1452 0 0
1453 0 0
1454 0 0
1455 0 0
1456 0 0
1457 0 0
1458 0 0
1459 0 0
1460 0 0
1461 0 0
1462 0 0
1463 0 0
1464 0 0
1465 0 0
1466 0 0
1467 0 0
1468 0 0
1469 0 0
1470 0 0
1471 0 0
1472 0 0
1473 0 0
1474 0 0
1475 0 0
1476 0 0
1477 0 0
1478 0 0
1479 0 0
1480 0 0
1481 0 0
1482 0 0
1483 0 0
1484 0 0
1485 0 0
1486 0 0
1487 0 0
1488 0 0
1489 0 0
1490 0 0
1491 0 0
1492 0 0
1493 0 0
1494 0 0
1495 0 0
1496 0 0
1497 0 0
1498 0 0
1499 0 0
1500 0 0
1501 0 0
1502 0 0
1503 0 0
1504 0 0
1505 0 0
1506 0 0
1507 0 0
1508 0 0
1509 0 0
1510 0 0
1511 0 0
1512 0 0
1513 0 0
1514 0 0
1515 0 0
1516 0 0
1517 0 0
1518 0 0
1519 0 0
1520 0 0
1521 0 0
1522 0 0
1523 0 0
1524 0 0
1525 0 0
1526 0 0
1527 0 0
1528 0 0
1529 0 0
1530 0 0
1531 0 0
1532 0 0
1533 0 0
1534 0 0
1535 0 0
1536 0 0
1537 0 0
1538 0 0
1539 0 0
1540 0 0
1541 0 0
1542 0 0
1543 0 0
1544 0 0
1545 0 0
1546 0 0
1547 0 0
1548 0 0
1549 0 0
1550 0 0
1551 0 0
1552 0 0
1553 0 0
1554 0 0
1555 0 0
1556 0 0
1557 0 0
1558 0 0
1559 0 0
1560 0 0
1561 0 0
1562 0 0
1563 0 0
1564 0 0
1565 0 0
1566 0 0
1567 0 0
1568 0 0
1569 0 0
1570 0 0
1571 0 0
1572 0 0
1573 0 0
1574 0 0
1575 0 0
1576 0 0
1577 0 0
1578 0 0
1579 0 0
1 6 0 19
1585
1586
1587
1588
1589
1590
1591
1592
1593
1594
1595
1596
1597
1598
1599
1600
1601
1602
1603
1581 0 0
1582 0 0
1583 0 0
1584 0 0
1585 0 0
1586 0 0
1587 0 0
1588 0 0
1589 0 0
1590 0 0
1591 0 0
1592 0 0
1593 0 0
1594 0 0
1595 0 0
1596 0 0
1597 0 0
1598 0 0
1599 0 0
1 7 0 99
1604
1605
1606
1607
1608
1609
1610
1611
1612
1613
1614
1615
1616
1617
1618
1619
1620
1621
1622
1623
1624
1625
1626
1627
1628
1629
1630
1631
1632
1633
1634
1635
1636
1637
1638
1639
1640
1641
1642
1643
1644
1645
1646
1647
1648
1649
1650
1651
1652
1653
1654
1655
1656
1657
1658
1659
1660
1661
1662
1663
1664
1665
1666
1667
1668
1669
1670
1671
1672
1673
1674
1675
1676
1677
1678
1679
1680
1681
1682
1683
1684
1685
1686
1687
1688
1689
1690
1691
1692
1693
1694
1695
1696
1697
1698
1699
1700
1701
1702
1601 0 0
1602 0 0
1603 0 0
1604 0 0
1605 0 0
1606 0 0
1607 0 0
1608 0 0
1609 0 0
1610 0 0
1611 0 0
1612 0 0
1613 0 0
1614 0 0
1615 0 0
1616 0 0
1617 0 0
1618 0 0
1619 0 0
1620 0 0
1621 0 0
1622 0 0
1623 0 0
1624 0 0
1625 0 0
1626 0 0
1627 0 0
1628 0 0
1629 0 0
1630 0 0
1631 0 0
1632 0 0
1633 0 0
1634 0 0
1635 0 0
1636 0 0
1637 0 0
1638 0 0
1639 0 0
1640 0 0
1641 0 0
1642 0 0
1643 0 0
1644 0 0
1645 0 0
1646 0 0
1647 0 0
1648 0 0
1649 0 0
1650 0 0
1651 0 0
1652 0 0
1653 0 0
1654 0 0
1655 0 0
1656 0 0
1657 0 0
1658 0 0
1659 0 0
1660 0 0
1661 0 0
1662 0 0
1663 0 0
1664 0 0
1665 0 0
1666 0 0
1667 0 0
1668 0 0
1669 0 0
1670 0 0
1671 0 0
1672 0 0
1673 0 0
1674 0 0
1675 0 0
1676 0 0
1677 0 0
1678 0 0
1679 0 0
1680 0 0
1681 0 0
1682 0 0
1683 0 0
1684 0 0
1685 0 0
1686 0 0
1687 0 0
1688 0 0
1689 0 0
1690 0 0
1691 0 0
1692 0 0
1693 0 0
1694 0 0
1695 0 0
1696 0 0
1697 0 0
1698 0 0
1699 0 0
1 8 0 9
1703
1704
1705
1706
1707
1708
1709
1710
1711
1701 0 0
1702 0 0
1703 0 0
1704 0 0
1705 0 0
1706 0 0
1707 0 0
1708 0 0
1709 0 0
$EndNodes
$Elements
17 1719 1 1719
0 1 15 1
1 1 
0 2 15 1
2 2 
0 3 15 1
3 3 
0 4 15 1
4 4 
0 5 15 1
5 5 
0 6 15 1
6 6 
0 7 15 1
7 7 
0 8 15 1
8 8 
0 9 15 1
9 9 
1 1 1 20
10 1 10 
11 10 11 
12 11 12 
13 12 13 
14 13 14 
15 14 15 
16 15 16 
17 16 17 
18 17 18 
19 18 19 
20 19 20 
21 20 21 
22 21 22 
23 22 23 
24 23 24 
25 24 25 
26 25 26 
27 26 27 
28 27 28 
29 28 2 
1 2 1 1000
30 2 29 
31 29 30 
32 30 31 
33 31 32 
34 32 33 
35 33 34 
36 34 35 
37 35 36 
38 36 37 
39 37 38 
40 38 39 
41 39 40 
42 40 41 
43 41 42 
44 42 43 
45 43 44 
46 44 45 
47 45 46 
48 46 47 
49 47 48 
50 48 49 
51 49 50 
52 50 51 
53 51 52 
54 52 53 
55 53 54 
56 54 55 
57 55 56 
58 56 57 
59 57 58 
60 58 59 
61 59 60 
62 60 61 
63 61 62 
64 62 63 
65 63 64 
66 64 65 
67 65 66 
68 66 67 
69 67 68 
70 68 69 
71 69 70 
72 70 71 
73 71 72 
74 72 73 
75 73 74 
76 74 75 
77 75 76 
78 76 77 
79 77 78 
80 78 79 
81 79 80 
82 80 81 
83 81 82 
84 82 83 
85 83 84 
86 84 85 
87 85 86 
88 86 87 
89 87 88 
90 88 89 
91 89 90 
92 90 91 
93 91 92 
94 92 93 
95 93 94 
96 94 95 
97 95 96 
98 96 97 
99 97 98 
100 98 99 
101 99 100 
102 100 101 
103 101 102 
104 102 103 
105 103 104 
106 104 105 
107 105 106 
108 106 107 
109 107 108 
110 108 109 
111 109 110 
112 110 111 
113 111 112 
114 112 113 
115 113 114 
116 114 115 
117 115 116 
118 116 117 
119 117 118 
120 118 119 
121 119 120 
122 120 121 
123 121 122 
124 122 123 
125 123 124 
126 124 125 
127 125 126 
128 126 127 
129 127 128 
130 128 129 
131 129 130 
132 130 131 
133 131 132 
134 132 133 
135 133 134 
136 134 135 
137 135 136 
138 136 137 
139 137 138 
140 138 139 
141 139 140 
142 140 141 
143 141 142 
144 142 143 
145 143 144 
146 144 145 
147 145 146 
148 146 147 
149 147 148 
150 148 149 
151 149 150 
152 150 151 
153 151 152 
154 152 153 
155 153 154 
156 154 155 
157 155 156 
158 156 157 
159 157 158 
160 158 159 
161 159 160 
162 160 161 
163 161 162 
164 162 163 
165 163 164 
166 164 165 
167 165 166 
168 166 167 
169 167 168 
170 168 169 
171 169 170 
172 170 171 
173 171 172 
174 172 173 
175 173 174 
176 174 175 
177 175 176 
178 176 177 
179 177 178 
180 178 179 
181 179 180 
182 180 181 
183 181 182 
184 182 183 
185 183 184 
186 184 185 
187 185 186 
188 186 187 
189 187 188 
190 188 189 
191 189 190 
192 190 191 
193 191 192 
194 192 193 
195 193 194 
196 194 195 
197 195 196 
198 196 197 
199 197 198 
200 198 199 
201 199 200 
202 200 201 
203 201 202 
204 202 203 
205 203 204 
206 204 205 
207 205 206 
208 206 207 
209 207 208 
210 208 209 
211 209 210 
212 210 211 
213 211 212 
214 212 213 
215 213 214 
216 214 215 
217 215 216 
218 216 217 
219 217 218 
220 218 219 
221 219 220 
222 220 221 
223 221 222 
224 222 223 
225 223 224 
226 224 225 
227 225 226 
228 226 227 
229 227 228 
230 228 229 
231 229 230 
232 230 231 
233 231 232 
234 232 233 
235 233 234 
236 234 235 
237 235 236 
238 236 237 
239 237 238 
240 238 239 
241 239 240 
242 240 241 
243 241 242 
244 242 243 
245 243 244 
246 244 245 
247 245 246 
248 246 247 
249 247 248 
250 248 249 
251 249 250 
252 250 251 
253 251 252 
254 252 253 
255 253 254 
256 254 255 
257 255 256 
258 256 257 
259 257 258 
260 258 259 
261 259 260 
262 260 261 
263 261 262 
264 262 263 
265 263 264 
266 264 265 
267 265 266 
268 266 267 
269 267 268 
270 268 269 
271 269 270 
272 270 271 
273 271 272 
274 272 273 
275 273 274 
276 274 275 
277 275 276 
278 276 277 
279 277 278 
280 278 279 
281 279 280 
282 280 281 
283 281 282 
284 282 283 
285 283 284 
286 284 285 
287 285 286 
288 286 287 
289 287 288 
290 288 289 
291 289 290 
292 290 291 
293 291 292 
294 292 293 
295 293 294 
296 294 295 
297 295 296 
298 296 297 
299 297 298 
300 298 299 
301 299 300 
302 300 301 
303 301 302 
304 302 303 
305 303 304 
306 304 305 
307 305 306 
308 306 307 
309 307 308 
310 308 309 
311 309 310 
312 310 311 
313 311 312 
314 312 313 
315 313 314 
316 314 315 
317 315 316 
318 316 317 
319 317 318 
320 318 319 
321 319 320 
322 320 321 
323 321 322 
324 322 323 
325 323 324 
326 324 325 
327 325 326 
328 326 327 
329 327 328 
330 328 329 
331 329 330 
332 330 331 
333 331 332 
334 332 333 
335 333 334 
336 334 335 
337 335 336 
338 336 337 
339 337 338 
340 338 339 
341 339 340 
342 340 341 
343 341 342 
344 342 343 
345 343 344 
346 344 345 
347 345 346 
348 346 347 
349 347 348 
350 348 349 
351 349 350 
352 350 351 
353 351 352 
354 352 353 
355 353 354 
356 354 355 
357 355 356 
358 356 357 
359 357 358 
360 358 359 
361 359 360 
362 360 361 
363 361 362 
364 362 363 
365 363 364 
366 364 365 
367 365 366 
368 366 367 
369 367 368 
370 368 369 
371 369 370 
372 370 371 
373 371 372 
374 372 373 
375 373 374 
376 374 375 
377 375 376 
378 376 377 
379 377 378 
380 378 379 
381 379 380 
382 380 381 
383 381 382 
384 382 383 
385 383 384 
386 384 385 
387 385 386 
388 386 387 
389 387 388 
390 388 389 
391 389 390 
392 390 391 
393 391 392 
394 392 393 
395 393 394 
396 394 395 
397 395 396 
398 396 397 
399 397 398 
400 398 399 
401 399 400 
402 400 401 
403 401 402 
404 402 403 
405 403 404 
406 404 405 
407 405 406 
408 406 407 
409 407 408 
410 408 409 
411 409 410 
412 410 411 
413 411 412 
414 412 413 
415 413 414 
416 414 415 
417 415 416 
418 416 417 
419 417 418 
420 418 419 
421 419 420 
422 420 421 
423 421 422 
424 422 423 
425 423 424 
426 424 425 
427 425 426 
428 426 427 
429 427 428 
430 428 429 
431 429 430 
432 430 431 
433 431 432 
434 432 433 
435 433 434 
436 434 435 
437 435 436 
438 436 437 
439 437 438 
440 438 439 
441 439 440 
442 440 441 
443 441 442 
444 442 443 
445 443 444 
446 444 445 
447 445 446 
448 446 447 
449 447 448 
450 448 449 
451 449 450 
452 450 451 
453 451 452 
454 452 453 
455 453 454 
456 454 455 
457 455 456 
458 456 457 
459 457 458 
460 458 459 
461 459 460 
462 460 461 
463 461 462 
464 462 463 
465 463 464 
466 464 465 
467 465 466 
468 466 467 
469 467 468 
470 468 469 
471 469 470 
472 470 471 
473 471 472 
474 472 473 
475 473 474 
476 474 475 
477 475 476 
478 476 477 
479 477 478 
480 478 479 
481 479 480 
482 480 481 
483 481 482 
484 482 483 
485 483 484 
486 484 485 
487 485 486 
488 486 487 
489 487 488 
490 488 489 
491 489 490 
492 490 491 
493 491 492 
494 492 493 
495 493 494 
496 494 495 
497 495 496 
498 496 497 
499 497 498 
500 498 499 
501 499 500 
502 500 501 
503 501 502 
504 502 503 
505 503 504 
506 504 505 
507 505 506 
508 506 507 
509 507 508 
510 508 509 
511 509 510 
512 510 511 
513 511 512 
514 512 513 
515 513 514 
516 514 515 
517 515 516 
518 516 517 
519 517 518 
520 518 519 
521 519 520 
522 520 521 
523 521 522 
524 522 523 
525 523 524 
526 524 525 
527 525 526 
528 526 527 
529 527 528 
530 528 529 
531 529 530 
532 530 531 
533 531 532 
534 532 533 
535 533 534 
536 534 535 
537 535 536 
538 536 537 
539 537 538 
540 538 539 
541 539 540 
542 540 541 
543 541 542 
544 542 543 
545 543 544 
546 544 545 
547 545 546 
548 546 547 
549 547 548 
550 548 549 
551 549 550 
552 550 551 
553 551 552 
554 552 553 
555 553 554 
556 554 555 
557 555 556 
558 556 557 
559 557 558 
560 558 559 
561 559 560 
562 560 561 
563 561 562 
564 562 563 
565 563 564 
566 564 565 
567 565 566 
568 566 567 
569 567 568 
570 568 569 
571 569 570 
572 570 571 
573 571 572 
574 572 573 
575 573 574 
576 574 575 
577 575 576 
578 576 577 
579 577 578 
580 578 579 
581 579 580 
582 580 581 
583 581 582 
584 582 583 
585 583 584 
586 584 585 
587 585 586 
588 586 587 
589 587 588 
590 588 589 
591 589 590 
592 590 591 
593 591 592 
594 592 593 
595 593 594 
596 594 595 
597 595 596 
598 596 597 
599 597 598 
600 598 599 
601 599 600 
602 600 601 
603 601 602 
604 602 603 
605 603 604 
606 604 605 
607 605 606 
608 606 607 
609 607 608 
610 608 609 
611 609 610 
612 610 611 
613 611 612 
614 612 613 
615 613 614 
616 614 615 
617 615 616 
618 616 617 
619 617 618 
620 618 619 
621 619 620 
622 620 621 
623 621 622 
624 622 623 
625 623 624 
626 624 625 
627 625 626 
628 626 627 
629 627 628 
630 628 629 
631 629 630 
632 630 631 
633 631 632 
634 632 633 
635 633 634 
636 634 635 
637 635 636 
638 636 637 
639 637 638 
640 638 639 
641 639 640 
642 640 641 
643 641 642 
644 642 643 
645 643 644 
646 644 645 
647 645 646 
648 646 647 
649 647 648 
650 648 649 
651 649 650 
652 650 651 
653 651 652 
654 652 653 
655 653 654 
656 654 655 
657 655 656 
658 656 657 
659 657 658 
660 658 659 
661 659 660 
662 660 661 
663 661 662 
664 662 663 
665 663 664 
666 664 665 
667 665 666 
668 666 667 
669 667 668 
670 668 669 
671 669 670 
672 670 671 
673 671 672 
674 672 673 
675 673 674 
676 674 675 
677 675 676 
678 676 677 
679 677 678 
680 678 679 
681 679 680 
682 680 681 
683 681 682 
684 682 683 
685 683 684 
686 684 685 
687 685 686 
688 686 687 
689 687 688 
690 688 689 
691 689 690 
692 690 691 
693 691 692 
694 692 693 
695 693 694 
696 694 695 
697 695 696 
698 696 697 
699 697 698 
700 698 699 
701 699 700 
702 700 701 
703 701 702 
704 702 703 
705 703 704 
706 704 705 
707 705 706 
708 706 707 
709 707 708 
710 708 709 
711 709 710 
712 710 711 
713 711 712 
714 712 713 
715 713 714 
716 714 715 
717 715 716 
718 716 717 
719 717 718 
720 718 719 
721 719 720 
722 720 721 
723 721 722 
724 722 723 
725 723 724 
726 724 725 
727 725 726 
728 726 727 
729 727 728 
730 728 729 
731 729 730 
732 730 731 
733 731 732 
734 732 733 
735 733 734 
736 734 735 
737 735 736 
738 736 737 
739 737 738 
740 738 739 
741 739 740 
742 740 741 
743 741 742 
744 742 743 
745 743 744 
746 744 745 
747 745 746 
748 746 747 
749 747 748 
750 748 749 
751 749 750 
752 750 751 
753 751 752 
754 752 753 
755 753 754 
756 754 755 
757 755 756 
758 756 757 
759 757 758 
760 758 759 
761 759 760 
762 760 761 
763 761 762 
764 762 763 
765 763 764 
766 764 765 
767 765 766 
768 766 767 
769 767 768 
770 768 769 
771 769 770 
772 770 771 
773 771 772 
774 772 773 
775 773 774 
776 774 775 
777 775 776 
778 776 777 
779 777 778 
780 778 779 
781 779 780 
782 780 781 
783 781 782 
784 782 783 
785 783 784 
786 784 785 
787 785 786 
788 786 787 
789 787 788 
790 788 789 
791 789 790 
792 790 791 
793 791 792 
794 792 793 
795 793 794 
796 794 795 
797 795 796 
798 796 797 
799 797 798 
800 798 799 
801 799 800 
802 800 801 
803 801 802 
804 802 803 
805 803 804 
806 804 805 
807 805 806 
808 806 807 
809 807 808 
810 808 809 
811 809 810 
812 810 811 
813 811 812 
814 812 813 
815 813 814 
816 814 815 
817 815 816 
818 816 817 
819 817 818 
820 818 819 
821 819 820 
822 820 821 
823 821 822 
824 822 823 
825 823 824 
826 824 825 
827 825 826 
828 826 827 
829 827 828 
830 828 829 
831 829 830 
832 830 831 
833 831 832 
834 832 833 
835 833 834 
836 834 835 
837 835 836 
838 836 837 
839 837 838 
840 838 839 
841 839 840 
842 840 841 
843 841 842 
844 842 843 
845 843 844 
846 844 845 
847 845 846 
848 846 847 
849 847 848 
850 848 849 
851 849 850 
852 850 851 
853 851 852 
854 852 853 
855 853 854 
856 854 855 
857 855 856 
858 856 857 
859 857 858 
860 858 859 
861 859 860 
862 860 861 
863 861 862 
864 862 863 
865 863 864 
866 864 865 
867 865 866 
868 866 867 
869 867 868 
870 868 869 
871 869 870 
872 870 871 
873 871 872 
874 872 873 
875 873 874 
876 874 875 
877 875 876 
878 876 877 
879 877 878 
880 878 879 
881 879 880 
882 880 881 
883 881 882 
884 882 883 
885 883 884 
886 884 885 
887 885 886 
888 886 887 
889 887 888 
890 888 889 
891 889 890 
892 890 891 
893 891 892 
894 892 893 
895 893 894 
896 894 895 
897 895 896 
898 896 897 
899 897 898 
900 898 899 
901 899 900 
902 900 901 
903 901 902 
904 902 903 
905 903 904 
906 904 905 
907 905 906 
908 906 907 
909 907 908 
910 908 909 
911 909 910 
912 910 911 
913 911 912 
914 912 913 
915 913 914 
916 914 915 
917 915 916 
918 916 917 
919 917 918 
920 918 919 
921 919 920 
922 920 921 
923 921 922 
924 922 923 
925 923 924 
926 924 925 
927 925 926 
928 926 927 
929 927 928 
930 928 929 
931 929 930 
932 930 931 
933 931 932 
934 932 933 
935 933 934 
936 934 935 
937 935 936 
938 936 937 
939 937 938 
940 938 939 
941 939 940 
942 940 941 
943 941 942 
944 942 943 
945 943 944 
946 944 945 
947 945 946 
948 946 947 
949 947 948 
950 948 949 
951 949 950 
952 950 951 
953 951 952 
954 952 953 
955 953 954 
956 954 955 
957 955 956 
958 956 957 
959 957 958 
960 958 959 
961 959 960 
962 960 961 
963 961 962 
964 962 963 
965 963 964 
966 964 965 
967 965 966 
968 966 967 
969 967 968 
970 968 969 
971 969 970 
972 970 971 
973 971 972 
974 972 973 
975 973 974 
976 974 975 
977 975 976 
978 976 977 
979 977 978 
980 978 979 
981 979 980 
982 980 981 
983 981 982 
984 982 983 
985 983 984 
986 984 985 
987 985 986 
988 986 987 
989 987 988 
990 988 989 
991 989 990 
992 990 991 
993 991 992 
994 992 993 
995 993 994 
996 994 995 
997 995 996 
998 996 997 
999 997 998 
1000 998 999 
1001 999 1000 
1002 1000 1001 
1003 1001 1002 
1004 1002 1003 
1005 1003 1004 
1006 1004 1005 
1007 1005 1006 
1008 1006 1007 
1009 1007 1008 
1010 1008 1009 
1011 1009 1010 
1012 1010 1011 
1013 1011 1012 
1014 1012 1013 
1015 1013 1014 
1016 1014 1015 
1017 1015 1016 
1018 1016 1017 
1019 1017 1018 
1020 1018 1019 
1021 1019 1020 
1022 1020 1021 
1023 1021 1022 
1024 1022 1023 
1025 1023 1024 
1026 1024 1025 
1027 1025 1026 
1028 1026 1027 
1029 1027 3 
1 3 1 140
1030 3 1028 
1031 1028 1029 
1032 1029 1030 
1033 1030 1031 
1034 1031 1032 
1035 1032 1033 
1036 1033 1034 
1037 1034 1035 
1038 1035 1036 
1039 1036 1037 
1040 1037 1038 
1041 1038 1039 
1042 1039 1040 
1043 1040 1041 
1044 1041 1042 
1045 1042 1043 
1046 1043 1044 
1047 1044 1045 
1048 1045 1046 
1049 1046 1047 
1050 1047 1048 
1051 1048 1049 
1052 1049 1050 
1053 1050 1051 
1054 1051 1052 
1055 1052 1053 
1056 1053 1054 
1057 1054 1055 
1058 1055 1056 
1059 1056 1057 
1060 1057 1058 
1061 1058 1059 
1062 1059 1060 
1063 1060 1061 
1064 1061 1062 
1065 1062 1063 
1066 1063 1064 
1067 1064 1065 
1068 1065 1066 
1069 1066 1067 
1070 1067 1068 
1071 1068 1069 
1072 1069 1070 
1073 1070 1071 
1074 1071 1072 
1075 1072 1073 
1076 1073 1074 
1077 1074 1075 
1078 1075 1076 
1079 1076 1077 
1080 1077 1078 
1081 1078 1079 
1082 1079 1080 
1083 1080 1081 
1084 1081 1082 
1085 1082 1083 
1086 1083 1084 
1087 1084 1085 
1088 1085 1086 
1089 1086 1087 
1090 1087 1088 
1091 1088 1089 
1092 1089 1090 
1093 1090 1091 
1094 1091 1092 
1095 1092 1093 
1096 1093 1094 
1097 1094 1095 
1098 1095 1096 
1099 1096 1097 
1100 1097 1098 
1101 1098 1099 
1102 1099 1100 
1103 1100 1101 
1104 1101 1102 
1105 1102 1103 
1106 1103 1104 
1107 1104 1105 
1108 1105 1106 
1109 1106 1107 
1110 1107 1108 
1111 1108 1109 
1112 1109 1110 
1113 1110 1111 
1114 1111 1112 
1115 1112 1113 
1116 1113 1114 
1117 1114 1115 
1118 1115 1116 
1119 1116 1117 
1120 1117 1118 
1121 1118 1119 
1122 1119 1120 
1123 1120 1121 
1124 1121 1122 
1125 1122 1123 
1126 1123 1124 
1127 1124 1125 
1128 1125 1126 
1129 1126 1127 
1130 1127 1128 
1131 1128 1129 
1132 1129 1130 
1133 1130 1131 
1134 1131 1132 
1135 1132 1133 
1136 1133 1134 
1137 1134 1135 
1138 1135 1136 
1139 1136 1137 
1140 1137 1138 
1141 1138 1139 
1142 1139 1140 
1143 1140 1141 
1144 1141 1142 
1145 1142 1143 
1146 1143 1144 
1147 1144 1145 
1148 1145 1146 
1149 1146 1147 
1150 1147 1148 
1151 1148 1149 
1152 1149 1150 
1153 1150 1151 
1154 1151 1152 
1155 1152 1153 
1156 1153 1154 
1157 1154 1155 
1158 1155 1156 
1159 1156 1157 
1160 1157 1158 
1161 1158 1159 
1162 1159 1160 
1163 1160 1161 
1164 1161 1162 
1165 1162 1163 
1166 1163 1164 
1167 1164 1165 
1168 1165 1166 
1169 1166 4 
1 4 1 20
1170 4 1167 
1171 1167 1168 
1172 1168 1169 
1173 1169 1170 
1174 1170 1171 
1175 1171 1172 
1176 1172 1173 
1177 1173 1174 
1178 1174 1175 
1179 1175 1176 
1180 1176 1177 
1181 1177 1178 
1182 1178 1179 
1183 1179 1180 
1184 1180 1181 
1185 1181 1182 
1186 1182 1183 
1187 1183 1184 
1188 1184 1185 
1189 1185 5 
1 5 1 400
1190 5 1186 
1191 1186 1187 
1192 1187 1188 
1193 1188 1189 
1194 1189 1190 
1195 1190 1191 
1196 1191 1192 
1197 1192 1193 
1198 1193 1194 
1199 1194 1195 
1200 1195 1196 
1201 1196 1197 
1202 1197 1198 
1203 1198 1199 
1204 1199 1200 
1205 1200 1201 
1206 1201 1202 
1207 1202 1203 
1208 1203 1204 
1209 1204 1205 
1210 1205 1206 
1211 1206 1207 
1212 1207 1208 
1213 1208 1209 
1214 1209 1210 
1215 1210 1211 
1216 1211 1212 
1217 1212 1213 
1218 1213 1214 
1219 1214 1215 
1220 1215 1216 
1221 1216 1217 
1222 1217 1218 
1223 1218 1219 
1224 1219 1220 
1225 1220 1221 
1226 1221 1222 
1227 1222 1223 
1228 1223 1224 
1229 1224 1225 
1230 1225 1226 
1231 1226 1227 
1232 1227 1228 
1233 1228 1229 
1234 1229 1230 
1235 1230 1231 
1236 1231 1232 
1237 1232 1233 
1238 1233 1234 
1239 1234 1235 
1240 1235 1236 
1241 1236 1237 
1242 1237 1238 
1243 1238 1239 
1244 1239 1240 
1245 1240 1241 
1246 1241 1242 
1247 1242 1243 
1248 1243 1244 
1249 1244 1245 
1250 1245 1246 
1251 1246 1247 
1252 1247 1248 
1253 1248 1249 
1254 1249 1250 
1255 1250 1251 
1256 1251 1252 
1257 1252 1253 
1258 1253 1254 
1259 1254 1255 
1260 1255 1256 
1261 1256 1257 
1262 1257 1258 
1263 1258 1259 
1264 1259 1260 
1265 1260 1261 
1266 1261 1262 
1267 1262 1263 
1268 1263 1264 
1269 1264 1265 
1270 1265 1266 
1271 1266 1267 
1272 1267 1268 
1273 1268 1269 
1274 1269 1270 
1275 1270 1271 
1276 1271 1272 
1277 1272 1273 
1278 1273 1274 
1279 1274 1275 
1280 1275 1276 
1281 1276 1277 
1282 1277 1278 
1283 1278 1279 
1284 1279 1280 
1285 1280 1281 
1286 1281 1282 
1287 1282 1283 
1288 1283 1284 
1289 1284 1285 
1290 1285 1286 
1291 1286 1287 
1292 1287 1288 
1293 1288 1289 
1294 1289 1290 
1295 1290 1291 
1296 1291 1292 
1297 1292 1293 
1298 1293 1294 
1299 1294 1295 
1300 1295 1296 
1301 1296 1297 
1302 1297 1298 
1303 1298 1299 
1304 1299 1300 
1305 1300 1301 
1306 1301 1302 
1307 1302 1303 
1308 1303 1304 
1309 1304 1305 
1310 1305 1306 
1311 1306 1307 
1312 1307 1308 
1313 1308 1309 
1314 1309 1310 
1315 1310 1311 
1316 1311 1312 
1317 1312 1313 
1318 1313 1314 
1319 1314 1315 
1320 1315 1316 
1321 1316 1317 
1322 1317 1318 
1323 1318 1319 
1324 1319 1320 
1325 1320 1321 
1326 1321 1322 
1327 1322 1323 
1328 1323 1324 
1329 1324 1325 
1330 1325 1326 
1331 1326 1327 
1332 1327 1328 
1333 1328 1329 
1334 1329 1330 
1335 1330 1331 
1336 1331 1332 
1337 1332 1333 
1338 1333 1334 
1339 1334 1335 
1340 1335 1336 
1341 1336 1337 
1342 1337 1338 
1343 1338 1339 
1344 1339 1340 
1345 1340 1341 
1346 1341 1342 
1347 1342 1343 
1348 1343 1344 
1349 1344 1345 
1350 1345 1346 
1351 1346 1347 
1352 1347 1348 
1353 1348 1349 
1354 1349 1350 
1355 1350 1351 
1356 1351 1352 
1357 1352 1353 
1358 1353 1354 
1359 1354 1355 
1360 1355 1356 
1361 1356 1357 
1362 1357 1358 
1363 1358 1359 
1364 1359 1360 
1365 1360 1361 
1366 1361 1362 
1367 1362 1363 
1368 1363 1364 
1369 1364 1365 
1370 1365 1366 
1371 1366 1367 
1372 1367 1368 
1373 1368 1369 
1374 1369 1370 
1375 1370 1371 
1376 1371 1372 
1377 1372 1373 
1378 1373 1374 
1379 1374 1375 
1380 1375 1376 
1381 1376 1377 
1382 1377 1378 
1383 1378 1379 
1384 1379 1380 
1385 1380 1381 
1386 1381 1382 
1387 1382 1383 
1388 1383 1384 
1389 1384 1385 
1390 1385 1386 
1391 1386 1387 
1392 1387 1388 
1393 1388 1389 
1394 1389 1390 
1395 1390 1391 
1396 1391 1392 
1397 1392 1393 
1398 1393 1394 
1399 1394 1395 
1400 1395 1396 
1401 1396 1397 
1402 1397 1398 
1403 1398 1399 
1404 1399 1400 
1405 1400 1401 
1406 1401 1402 
1407 1402 1403 
1408 1403 1404 
1409 1404 1405 
1410 1405 1406 
1411 1406 1407 
1412 1407 1408 
1413 1408 1409 
1414 1409 1410 
1415 1410 1411 
1416 1411 1412 
1417 1412 1413 
1418 1413 1414 
1419 1414 1415 
1420 1415 1416 
1421 1416 1417 
1422 1417 1418 
1423 1418 1419 
1424 1419 1420 
1425 1420 1421 
1426 1421 1422 
1427 1422 1423 
1428 1423 1424 
1429 1424 1425 
1430 1425 1426 
1431 1426 1427 
1432 1427 1428 
1433 1428 1429 
1434 1429 1430 
1435 1430 1431 
1436 1431 1432 
1437 1432 1433 
1438 1433 1434 
1439 1434 1435 
1440 1435 1436 
1441 1436 1437 
1442 1437 1438 
1443 1438 1439 
1444 1439 1440 
1445 1440 1441 
1446 1441 1442 
1447 1442 1443 
1448 1443 1444 
1449 1444 1445 
1450 1445 1446 
1451 1446 1447 
1452 1447 1448 
1453 1448 1449 
1454 1449 1450 
1455 1450 1451 
1456 1451 1452 
1457 1452 1453 
1458 1453 1454 
1459 1454 1455 
1460 1455 1456 
1461 1456 1457 
1462 1457 1458 
1463 1458 1459 
1464 1459 1460 
1465 1460 1461 
1466 1461 1462 
1467 1462 1463 
1468 1463 1464 
1469 1464 1465 
1470 1465 1466 
1471 1466 1467 
1472 1467 1468 
1473 1468 1469 
1474 1469 1470 
1475 1470 1471 
1476 1471 1472 
1477 1472 1473 
1478 1473 1474 
1479 1474 1475 
1480 1475 1476 
1481 1476 1477 
1482 1477 1478 
1483 1478 1479 
1484 1479 1480 
1485 1480 1481 
1486 1481 1482 
1487 1482 1483 
1488 1483 1484 
1489 1484 1485 
1490 1485 1486 
1491 1486 1487 
1492 1487 1488 
1493 1488 1489 
1494 1489 1490 
1495 1490 1491 
1496 1491 1492 
1497 1492 1493 
1498 1493 1494 
1499 1494 1495 
1500 1495 1496 
1501 1496 1497 
1502 1497 1498 
1503 1498 1499 
1504 1499 1500 
1505 1500 1501 
1506 1501 1502 
1507 1502 1503 
1508 1503 1504 
1509 1504 1505 
1510 1505 1506 
1511 1506 1507 
1512 1507 1508 
1513 1508 1509 
1514 1509 1510 
1515 1510 1511 
1516 1511 1512 
1517 1512 1513 
1518 1513 1514 
1519 1514 1515 
1520 1515 1516 
1521 1516 1517 
1522 1517 1518 
1523 1518 1519 
1524 1519 1520 
1525 1520 1521 
1526 1521 1522 
1527 1522 1523 
1528 1523 1524 
1529 1524 1525 
1530 1525 1526 
1531 1526 1527 
1532 1527 1528 
1533 1528 1529 
1534 1529 1530 
1535 1530 1531 
1536 1531 1532 
1537 1532 1533 
1538 1533 1534 
1539 1534 1535 
1540 1535 1536 
1541 1536 1537 
1542 1537 1538 
1543 1538 1539 
1544 1539 1540 
1545 1540 1541 
1546 1541 1542 
1547 1542 1543 
1548 1543 1544 
1549 1544 1545 
1550 1545 1546 
1551 1546 1547 
1552 1547 1548 
1553 1548 1549 
1554 1549 1550 
1555 1550 1551 
1556 1551 1552 
1557 1552 1553 
1558 1553 1554 
1559 1554 1555 
1560 1555 1556 
1561 1556 1557 
1562 1557 1558 
1563 1558 1559 
1564 1559 1560 
1565 1560 1561 
1566 1561 1562 
1567 1562 1563 
1568 1563 1564 
1569 1564 1565 
1570 1565 1566 
1571 1566 1567 
1572 1567 1568 
1573 1568 1569 
1574 1569 1570 
1575 1570 1571 
1576 1571 1572 
1577 1572 1573 
1578 1573 1574 
1579 1574 1575 
1580 1575 1576 
1581 1576 1577 
1582 1577 1578 
1583 1578 1579 
1584 1579 1580 
1585 1580 1581 
1586 1581 1582 
1587 1582 1583 
1588 1583 1584 
1589 1584 6 
1 6 1 20
1590 6 1585 
1591 1585 1586 
1592 1586 1587 
1593 1587 1588 
1594 1588 1589 
1595 1589 1590 
1596 1590 1591 
1597 1591 1592 
1598 1592 1593 
1599 1593 1594 
1600 1594 1595 
1601 1595 1596 
1602 1596 1597 
1603 1597 1598 
1604 1598 1599 
1605 1599 1600 
1606 1600 1601 
1607 1601 1602 
1608 1602 1603 
1609 1603 7 
1 7 1 100
1610 7 1604 
1611 1604 1605 
1612 1605 1606 
1613 1606 1607 
1614 1607 1608 
1615 1608 1609 
1616 1609 1610 
1617 1610 1611 
1618 1611 1612 
1619 1612 1613 
1620 1613 1614 
1621 1614 1615 
1622 1615 1616 
1623 1616 1617 
1624 1617 1618 
1625 1618 1619 
1626 1619 1620 
1627 1620 1621 
1628 1621 1622 
1629 1622 1623 
1630 1623 1624 
1631 1624 1625 
1632 1625 1626 
1633 1626 1627 
1634 1627 1628 
1635 1628 1629 
1636 1629 1630 
1637 1630 1631 
1638 1631 1632 
1639 1632 1633 
1640 1633 1634 
1641 1634 1635 
1642 1635 1636 
1643 1636 1637 
1644 1637 1638 
1645 1638 1639 
1646 1639 1640 
1647 1640 1641 
1648 1641 1642 
1649 1642 1643 
1650 1643 1644 
1651 1644 1645 
1652 1645 1646 
1653 1646 1647 
1654 1647 1648 
1655 1648 1649 
1656 1649 1650 
1657 1650 1651 
1658 1651 1652 
1659 1652 1653 
1660 1653 1654 
1661 1654 1655 
1662 1655 1656 
1663 1656 1657 
1664 1657 1658 
1665 1658 1659 
1666 1659 1660 
1667 1660 1661 
1668 1661 1662 
1669 1662 1663 
1670 1663 1664 
1671 1664 1665 
1672 1665 1666 
1673 1666 1667 
1674 1667 1668 
1675 1668 1669 
1676 1669 1670 
1677 1670 1671 
1678 1671 1672 
1679 1672 1673 
1680 1673 1674 
1681 1674 1675 
1682 1675 1676 
1683 1676 1677 
1684 1677 1678 
1685 1678 1679 
1686 1679 1680 
1687 1680 1681 
1688 1681 1682 
1689 1682 1683 
1690 1683 1684 
1691 1684 1685 
1692 1685 1686 
1693 1686 1687 
1694 1687 1688 
1695 1688 1689 
1696 1689 1690 
1697 1690 1691 
1698 1691 1692 
1699 1692 1693 
1700 1693 1694 
1701 1694 1695 
1702 1695 1696 
1703 1696 1697 
1704 1697 1698 
1705 1698 1699 
1706 1699 1700 
1707 1700 1701 
1708 1701 1702 
1709 1702 8 
1 8 1 10
1710 8 1703 
1711 1703 1704 
1712 1704 1705 
1713 1705 1706 
1714 1706 1707 
1715 1707 1708 
1716 1708 1709 
1717 1709 1710 
1718 1710 1711 
1719 1711 9 
$EndElements
