$MeshFormat
4.1 0 8
$EndMeshFormat
$PhysicalNames
3
1 1 "Air"
1 2 "GaN"
1 3 "Ag"
$EndPhysicalNames
$Entities
4 3 0 0
1 0 0 0 0 
2 200 0 0 0 
3 700 0 0 0 
4 900 0 0 0 
1 0 0 0 200 0 0 1 1 2 1 -2 
2 200 0 0 700 0 0 1 2 2 2 -3 
3 700 0 0 900 0 0 1 3 2 3 -4 
$EndEntities
$Nodes
7 901 1 901
0 1 0 1
1
0 0 0
0 2 0 1
2
200 0 0
0 3 0 1
3
700 0 0
0 4 0 1
4
900 0 0
1 1 0 199
5
6
7
8
9
10
11
12
13
14
15
16
17
18
19
20
21
22
23
24
25
26
27
28
29
30
31
32
33
34
35
36
37
38
39
40
41
42
43
44
45
46
47
48
49
50
51
52
53
54
55
56
57
58
59
60
61
62
63
64
65
66
67
68
69
70
71
72
73
74
75
76
77
78
79
80
81
82
83
84
85
86
87
88
89
90
91
92
93
94
95
96
97
98
99
100
101
102
103
104
105
106
107
108
109
110
111
112
113
114
115
116
117
118
119
120
121
122
123
124
125
126
127
128
129
130
131
132
133
134
135
136
137
138
139
140
141
142
143
144
145
146
147
148
149
150
151
152
153
154
155
156
157
158
159
160
161
162
163
164
165
166
167
168
169
170
171
172
173
174
175
176
177
178
179
180
181
182
183
184
185
186
187
188
189
190
191
192
193
194
195
196
197
198
199
200
201
202
203
0.9999999999960318 0 0
1.999999999992088 0 0
2.999999999988175 0 0
3.99999999998431 0 0
4.999999999980418 0 0
5.999999999976449 0 0
6.999999999972315 0 0
7.999999999968104 0 0
8.999999999963801 0 0
9.999999999959499 0 0
10.99999999995521 0 0
11.99999999995113 0 0
12.99999999994728 0 0
13.99999999994364 0 0
14.99999999994021 0 0
15.9999999999368 0 0
16.99999999993339 0 0
17.99999999992997 0 0
18.99999999992656 0 0
19.99999999992315 0 0
20.99999999991974 0 0
21.99999999991632 0 0
22.99999999991291 0 0
23.99999999990924 0 0
24.99999999990539 0 0
25.99999999990065 0 0
26.99999999989571 0 0
27.99999999989052 0 0
28.99999999988533 0 0
29.99999999988014 0 0
30.99999999987495 0 0
31.99999999986976 0 0
32.99999999986458 0 0
33.99999999985938 0 0
34.99999999985419 0 0
35.999999999849 0 0
36.99999999984381 0 0
37.99999999983862 0 0
38.99999999983342 0 0
39.99999999982824 0 0
40.99999999982305 0 0
41.99999999981785 0 0
42.99999999981267 0 0
43.99999999980747 0 0
44.99999999980228 0 0
45.99999999979708 0 0
46.9999999997919 0 0
47.9999999997867 0 0
48.99999999978152 0 0
49.99999999977633 0 0
50.99999999977113 0 0
51.99999999976595 0 0
52.99999999976075 0 0
53.99999999975557 0 0
54.99999999975037 0 0
55.99999999974518 0 0
56.99999999973999 0 0
57.9999999997348 0 0
58.9999999997296 0 0
59.99999999972442 0 0
60.99999999971922 0 0
61.99999999971404 0 0
62.99999999970973 0 0
63.99999999970631 0 0
64.99999999970456 0 0
65.99999999970294 0 0
66.99999999970127 0 0
67.99999999969964 0 0
68.99999999969801 0 0
69.99999999969637 0 0
70.99999999969472 0 0
71.99999999969307 0 0
72.99999999969144 0 0
73.99999999968981 0 0
74.99999999968817 0 0
75.99999999968652 0 0
76.99999999968489 0 0
77.99999999968324 0 0
78.99999999968162 0 0
79.99999999967997 0 0
80.99999999967834 0 0
81.99999999967669 0 0
82.99999999967505 0 0
83.99999999967342 0 0
84.99999999967179 0 0
85.99999999967014 0 0
86.99999999966849 0 0
87.99999999966685 0 0
88.99999999966522 0 0
89.99999999966359 0 0
90.99999999966194 0 0
91.9999999996603 0 0
92.99999999965866 0 0
93.99999999965702 0 0
94.99999999965539 0 0
95.99999999965372 0 0
96.9999999996521 0 0
97.99999999965046 0 0
98.99999999964882 0 0
99.99999999964719 0 0
100.9999999996455 0 0
101.9999999996439 0 0
102.9999999996423 0 0
103.9999999996406 0 0
104.999999999639 0 0
105.9999999996373 0 0
106.9999999996357 0 0
107.9999999996341 0 0
108.9999999996324 0 0
109.9999999996308 0 0
110.9999999996292 0 0
111.9999999996275 0 0
112.9999999996259 0 0
113.9999999996242 0 0
114.9999999996226 0 0
115.9999999996209 0 0
116.9999999996193 0 0
117.9999999996177 0 0
118.999999999616 0 0
119.9999999996144 0 0
120.9999999996128 0 0
121.9999999996111 0 0
122.9999999996095 0 0
123.9999999996079 0 0
124.9999999996062 0 0
125.9999999996046 0 0
126.9999999996045 0 0
127.9999999996064 0 0
128.9999999996114 0 0
129.9999999996169 0 0
130.9999999996224 0 0
131.9999999996278 0 0
132.9999999996333 0 0
133.9999999996388 0 0
134.9999999996443 0 0
135.9999999996497 0 0
136.9999999996552 0 0
137.9999999996607 0 0
138.9999999996662 0 0
139.9999999996716 0 0
140.9999999996771 0 0
141.9999999996826 0 0
142.999999999688 0 0
143.9999999996935 0 0
144.999999999699 0 0
145.9999999997044 0 0
146.9999999997099 0 0
147.9999999997154 0 0
148.9999999997209 0 0
149.9999999997264 0 0
150.9999999997318 0 0
151.9999999997373 0 0
152.9999999997428 0 0
153.9999999997482 0 0
154.9999999997537 0 0
155.9999999997592 0 0
156.9999999997647 0 0
157.9999999997701 0 0
158.9999999997756 0 0
159.9999999997811 0 0
160.9999999997865 0 0
161.999999999792 0 0
162.9999999997975 0 0
163.999999999803 0 0
164.9999999998085 0 0
165.9999999998139 0 0
166.9999999998194 0 0
167.9999999998249 0 0
168.9999999998303 0 0
169.9999999998358 0 0
170.9999999998413 0 0
171.9999999998468 0 0
172.9999999998522 0 0
173.9999999998577 0 0
174.9999999998632 0 0
175.9999999998686 0 0
176.9999999998741 0 0
177.9999999998796 0 0
178.9999999998851 0 0
179.9999999998905 0 0
180.999999999896 0 0
181.9999999999015 0 0
182.9999999999069 0 0
183.9999999999124 0 0
184.9999999999179 0 0
185.9999999999233 0 0
186.9999999999289 0 0
187.9999999999343 0 0
188.9999999999398 0 0
189.9999999999453 0 0
190.9999999999507 0 0
191.9999999999562 0 0
192.9999999999617 0 0
193.9999999999671 0 0
194.9999999999726 0 0
195.9999999999781 0 0
196.9999999999836 0 0
197.9999999999891 0 0
198.9999999999945 0 0
1 2 0 499
204
205
206
207
208
209
210
211
212
213
214
215
216
217
218
219
220
221
222
223
224
225
226
227
228
229
230
231
232
233
234
235
236
237
238
239
240
241
242
243
244
245
246
247
248
249
250
251
252
253
254
255
256
257
258
259
260
261
262
263
264
265
266
267
268
269
270
271
272
273
274
275
276
277
278
279
280
281
282
283
284
285
286
287
288
289
290
291
292
293
294
295
296
297
298
299
300
301
302
303
304
305
306
307
308
309
310
311
312
313
314
315
316
317
318
319
320
321
322
323
324
325
326
327
328
329
330
331
332
333
334
335
336
337
338
339
340
341
342
343
344
345
346
347
348
349
350
351
352
353
354
355
356
357
358
359
360
361
362
363
364
365
366
367
368
369
370
371
372
373
374
375
376
377
378
379
380
381
382
383
384
385
386
387
388
389
390
391
392
393
394
395
396
397
398
399
400
401
402
403
404
405
406
407
408
409
410
411
412
413
414
415
416
417
418
419
420
421
422
423
424
425
426
427
428
429
430
431
432
433
434
435
436
437
438
439
440
441
442
443
444
445
446
447
448
449
450
451
452
453
454
455
456
457
458
459
460
461
462
463
464
465
466
467
468
469
470
471
472
473
474
475
476
477
478
479
480
481
482
483
484
485
486
487
488
489
490
491
492
493
494
495
496
497
498
499
500
501
502
503
504
505
506
507
508
509
510
511
512
513
514
515
516
517
518
519
520
521
522
523
524
525
526
527
528
529
530
531
532
533
534
535
536
537
538
539
540
541
542
543
544
545
546
547
548
549
550
551
552
553
554
555
556
557
558
559
560
561
562
563
564
565
566
567
568
569
570
571
572
573
574
575
576
577
578
579
580
581
582
583
584
585
586
587
588
589
590
591
592
593
594
595
596
597
598
599
600
601
602
603
604
605
606
607
608
609
610
611
612
613
614
615
616
617
618
619
620
621
622
623
624
625
626
627
628
629
630
631
632
633
634
635
636
637
638
639
640
641
642
643
644
645
646
647
648
649
650
651
652
653
654
655
656
657
658
659
660
661
662
663
664
665
666
667
668
669
670
671
672
673
674
675
676
677
678
679
680
681
682
683
684
685
686
687
688
689
690
691
692
693
694
695
696
697
698
699
700
701
702
201 0 0
202 0 0
203 0 0
204 0 0
205 0 0
206 0 0
207 0 0
208 0 0
209 0 0
210 0 0
211 0 0
211.9999999999999 0 0
212.9999999999999 0 0
213.9999999999999 0 0
214.9999999999999 0 0
215.9999999999999 0 0
216.9999999999999 0 0
217.9999999999999 0 0
218.9999999999999 0 0
219.9999999999999 0 0
220.9999999999999 0 0
221.9999999999999 0 0
222.9999999999999 0 0
223.9999999999999 0 0
224.9999999999999 0 0
225.9999999999999 0 0
226.9999999999999 0 0
227.9999999999999 0 0
228.9999999999999 0 0
229.9999999999999 0 0
230.9999999999999 0 0
231.9999999999999 0 0
232.9999999999999 0 0
233.9999999999999 0 0
234.9999999999999 0 0
235.9999999999999 0 0
236.9999999999999 0 0
237.9999999999999 0 0
238.9999999999999 0 0
239.9999999999999 0 0
240.9999999999999 0 0
241.9999999999999 0 0
242.9999999999999 0 0
243.9999999999998 0 0
244.9999999999998 0 0
245.9999999999998 0 0
246.9999999999998 0 0
247.9999999999998 0 0
248.9999999999998 0 0
249.9999999999998 0 0
250.9999999999998 0 0
251.9999999999998 0 0
252.9999999999998 0 0
253.9999999999998 0 0
254.9999999999998 0 0
255.9999999999998 0 0
256.9999999999998 0 0
257.9999999999998 0 0
258.9999999999998 0 0
259.9999999999998 0 0
260.9999999999998 0 0
261.9999999999998 0 0
262.9999999999998 0 0
263.9999999999998 0 0
264.9999999999998 0 0
265.9999999999998 0 0
266.9999999999998 0 0
267.9999999999998 0 0
268.9999999999998 0 0
269.9999999999998 0 0
270.9999999999998 0 0
271.9999999999998 0 0
272.9999999999998 0 0
273.9999999999998 0 0
274.9999999999998 0 0
275.9999999999997 0 0
276.9999999999997 0 0
277.9999999999997 0 0
278.9999999999997 0 0
279.9999999999997 0 0
280.9999999999997 0 0
281.9999999999997 0 0
282.9999999999997 0 0
283.9999999999997 0 0
284.9999999999997 0 0
285.9999999999997 0 0
286.9999999999997 0 0
287.9999999999997 0 0
288.9999999999997 0 0
289.9999999999997 0 0
290.9999999999997 0 0
291.9999999999997 0 0
292.9999999999997 0 0
293.9999999999997 0 0
294.9999999999997 0 0
295.9999999999997 0 0
296.9999999999997 0 0
297.9999999999997 0 0
298.9999999999997 0 0
299.9999999999997 0 0
300.9999999999997 0 0
301.9999999999997 0 0
302.9999999999997 0 0
303.9999999999997 0 0
304.9999999999997 0 0
305.9999999999997 0 0
306.9999999999996 0 0
307.9999999999996 0 0
308.9999999999996 0 0
309.9999999999996 0 0
310.9999999999996 0 0
311.9999999999996 0 0
312.9999999999996 0 0
313.9999999999996 0 0
314.9999999999996 0 0
315.9999999999996 0 0
316.9999999999996 0 0
317.9999999999996 0 0
318.9999999999995 0 0
319.9999999999995 0 0
320.9999999999995 0 0
321.9999999999995 0 0
322.9999999999995 0 0
323.9999999999995 0 0
324.9999999999995 0 0
325.9999999999995 0 0
326.9999999999995 0 0
327.9999999999995 0 0
328.9999999999995 0 0
329.9999999999995 0 0
330.9999999999995 0 0
331.9999999999995 0 0
332.9999999999995 0 0
333.9999999999995 0 0
334.9999999999995 0 0
335.9999999999995 0 0
336.9999999999995 0 0
337.9999999999995 0 0
338.9999999999995 0 0
339.9999999999995 0 0
340.9999999999995 0 0
341.9999999999995 0 0
342.9999999999995 0 0
343.9999999999995 0 0
344.9999999999995 0 0
345.9999999999995 0 0
346.9999999999995 0 0
347.9999999999995 0 0
348.9999999999995 0 0
349.9999999999995 0 0
350.9999999999995 0 0
351.9999999999994 0 0
352.9999999999994 0 0
353.9999999999994 0 0
354.9999999999994 0 0
355.9999999999994 0 0
356.9999999999994 0 0
357.9999999999994 0 0
358.9999999999994 0 0
359.9999999999994 0 0
360.9999999999994 0 0
361.9999999999994 0 0
362.9999999999994 0 0
363.9999999999994 0 0
364.9999999999994 0 0
365.9999999999994 0 0
366.9999999999994 0 0
367.9999999999994 0 0
368.9999999999994 0 0
369.9999999999994 0 0
370.9999999999994 0 0
371.9999999999994 0 0
372.9999999999994 0 0
373.9999999999994 0 0
374.9999999999994 0 0
375.9999999999994 0 0
376.9999999999994 0 0
377.9999999999994 0 0
378.9999999999994 0 0
379.9999999999994 0 0
380.9999999999994 0 0
381.9999999999994 0 0
382.9999999999993 0 0
383.9999999999993 0 0
384.9999999999993 0 0
385.9999999999993 0 0
386.9999999999993 0 0
387.9999999999993 0 0
388.9999999999993 0 0
389.9999999999993 0 0
390.9999999999993 0 0
391.9999999999993 0 0
392.9999999999993 0 0
393.9999999999993 0 0
394.9999999999993 0 0
395.9999999999993 0 0
396.9999999999993 0 0
397.9999999999993 0 0
398.9999999999993 0 0
399.9999999999993 0 0
400.9999999999993 0 0
401.9999999999993 0 0
402.9999999999993 0 0
403.9999999999993 0 0
404.9999999999993 0 0
405.9999999999993 0 0
406.9999999999993 0 0
407.9999999999993 0 0
408.9999999999993 0 0
409.9999999999993 0 0
410.9999999999993 0 0
411.9999999999993 0 0
412.9999999999993 0 0
413.9999999999992 0 0
414.9999999999992 0 0
415.9999999999992 0 0
416.9999999999992 0 0
417.9999999999992 0 0
418.9999999999992 0 0
419.9999999999992 0 0
420.9999999999992 0 0
421.9999999999992 0 0
422.9999999999992 0 0
423.9999999999992 0 0
424.9999999999992 0 0
425.9999999999992 0 0
426.9999999999992 0 0
427.9999999999992 0 0
428.9999999999992 0 0
429.9999999999992 0 0
430.9999999999992 0 0
431.9999999999992 0 0
432.9999999999992 0 0
433.9999999999992 0 0
434.9999999999992 0 0
435.9999999999992 0 0
436.9999999999991 0 0
437.9999999999991 0 0
438.9999999999991 0 0
439.9999999999991 0 0
440.9999999999991 0 0
441.9999999999991 0 0
442.9999999999991 0 0
443.9999999999991 0 0
444.9999999999991 0 0
445.9999999999991 0 0
446.9999999999991 0 0
447.9999999999991 0 0
448.9999999999991 0 0
449.9999999999991 0 0
450.9999999999991 0 0
451.9999999999991 0 0
452.9999999999991 0 0
453.9999999999991 0 0
454.9999999999991 0 0
455.9999999999991 0 0
456.9999999999991 0 0
457.9999999999991 0 0
458.9999999999991 0 0
459.9999999999991 0 0
460.9999999999991 0 0
461.9999999999991 0 0
462.9999999999991 0 0
463.9999999999991 0 0
464.9999999999991 0 0
465.9999999999991 0 0
466.9999999999992 0 0
467.9999999999992 0 0
468.9999999999992 0 0
469.9999999999992 0 0
470.9999999999992 0 0
471.9999999999991 0 0
472.9999999999991 0 0
473.9999999999991 0 0
474.9999999999991 0 0
475.9999999999992 0 0
476.9999999999992 0 0
477.9999999999992 0 0
478.9999999999992 0 0
479.9999999999992 0 0
480.9999999999992 0 0
481.9999999999992 0 0
482.9999999999992 0 0
483.9999999999992 0 0
484.9999999999993 0 0
485.9999999999993 0 0
486.9999999999993 0 0
487.9999999999992 0 0
488.9999999999992 0 0
489.9999999999992 0 0
490.9999999999992 0 0
491.9999999999992 0 0
492.9999999999992 0 0
493.9999999999993 0 0
494.9999999999993 0 0
495.9999999999993 0 0
496.9999999999993 0 0
497.9999999999993 0 0
498.9999999999993 0 0
499.9999999999993 0 0
500.9999999999993 0 0
501.9999999999993 0 0
502.9999999999993 0 0
503.9999999999993 0 0
504.9999999999993 0 0
505.9999999999993 0 0
506.9999999999993 0 0
507.9999999999993 0 0
508.9999999999993 0 0
509.9999999999993 0 0
510.9999999999993 0 0
511.9999999999993 0 0
512.9999999999993 0 0
513.9999999999993 0 0
514.9999999999993 0 0
515.9999999999993 0 0
516.9999999999993 0 0
517.9999999999993 0 0
518.9999999999993 0 0
519.9999999999993 0 0
520.9999999999993 0 0
521.9999999999993 0 0
522.9999999999993 0 0
523.9999999999993 0 0
524.9999999999993 0 0
525.9999999999993 0 0
526.9999999999993 0 0
527.9999999999993 0 0
528.9999999999994 0 0
529.9999999999994 0 0
530.9999999999994 0 0
531.9999999999994 0 0
532.9999999999994 0 0
533.9999999999993 0 0
534.9999999999993 0 0
535.9999999999993 0 0
536.9999999999993 0 0
537.9999999999994 0 0
538.9999999999994 0 0
539.9999999999994 0 0
540.9999999999994 0 0
541.9999999999994 0 0
542.9999999999994 0 0
543.9999999999994 0 0
544.9999999999994 0 0
545.9999999999995 0 0
546.9999999999995 0 0
547.9999999999995 0 0
548.9999999999995 0 0
549.9999999999994 0 0
550.9999999999994 0 0
551.9999999999994 0 0
552.9999999999994 0 0
553.9999999999994 0 0
554.9999999999995 0 0
555.9999999999995 0 0
556.9999999999995 0 0
557.9999999999995 0 0
558.9999999999995 0 0
559.9999999999995 0 0
560.9999999999995 0 0
561.9999999999995 0 0
562.9999999999995 0 0
563.9999999999995 0 0
564.9999999999995 0 0
565.9999999999995 0 0
566.9999999999995 0 0
567.9999999999995 0 0
568.9999999999995 0 0
569.9999999999995 0 0
570.9999999999995 0 0
571.9999999999995 0 0
572.9999999999995 0 0
573.9999999999995 0 0
574.9999999999995 0 0
575.9999999999995 0 0
576.9999999999995 0 0
577.9999999999995 0 0
578.9999999999995 0 0
579.9999999999995 0 0
580.9999999999995 0 0
581.9999999999995 0 0
582.9999999999995 0 0
583.9999999999995 0 0
584.9999999999995 0 0
585.9999999999995 0 0
586.9999999999995 0 0
587.9999999999995 0 0
588.9999999999995 0 0
589.9999999999995 0 0
590.9999999999995 0 0
591.9999999999995 0 0
592.9999999999995 0 0
593.9999999999995 0 0
594.9999999999995 0 0
595.9999999999995 0 0
596.9999999999995 0 0
597.9999999999995 0 0
598.9999999999997 0 0
599.9999999999997 0 0
600.9999999999997 0 0
601.9999999999997 0 0
602.9999999999997 0 0
603.9999999999997 0 0
604.9999999999997 0 0
605.9999999999997 0 0
606.9999999999997 0 0
607.9999999999998 0 0
608.9999999999998 0 0
609.9999999999998 0 0
610.9999999999998 0 0
611.9999999999997 0 0
612.9999999999997 0 0
613.9999999999997 0 0
614.9999999999997 0 0
615.9999999999997 0 0
616.9999999999998 0 0
617.9999999999998 0 0
618.9999999999998 0 0
619.9999999999998 0 0
620.9999999999998 0 0
621.9999999999998 0 0
622.9999999999998 0 0
623.9999999999998 0 0
624.9999999999998 0 0
625.9999999999998 0 0
626.9999999999998 0 0
627.9999999999998 0 0
628.9999999999998 0 0
629.9999999999998 0 0
630.9999999999998 0 0
631.9999999999998 0 0
632.9999999999998 0 0
633.9999999999998 0 0
634.9999999999998 0 0
635.9999999999998 0 0
636.9999999999998 0 0
637.9999999999998 0 0
638.9999999999998 0 0
639.9999999999998 0 0
640.9999999999998 0 0
641.9999999999998 0 0
642.9999999999998 0 0
643.9999999999998 0 0
644.9999999999998 0 0
645.9999999999998 0 0
646.9999999999998 0 0
647.9999999999998 0 0
648.9999999999998 0 0
649.9999999999998 0 0
650.9999999999998 0 0
651.9999999999998 0 0
652.9999999999998 0 0
653.9999999999998 0 0
654.9999999999998 0 0
655.9999999999998 0 0
656.9999999999998 0 0
657.9999999999998 0 0
658.9999999999998 0 0
659.9999999999998 0 0
660.9999999999998 0 0
661.9999999999998 0 0
662.9999999999998 0 0
663.9999999999998 0 0
664.9999999999999 0 0
665.9999999999999 0 0
666.9999999999999 0 0
667.9999999999999 0 0
668.9999999999999 0 0
670 0 0
671 0 0
672 0 0
673 0 0
673.9999999999999 0 0
674.9999999999999 0 0
675.9999999999999 0 0
676.9999999999999 0 0
677.9999999999999 0 0
679 0 0
680 0 0
681 0 0
682 0 0
683 0 0
684 0 0
685 0 0
686 0 0
687 0 0
688 0 0
689 0 0
690 0 0
691 0 0
692 0 0
693 0 0
694 0 0
695 0 0
696 0 0
697 0 0
698 0 0
699 0 0
1 3 0 199
703
704
705
706
707
708
709
710
711
712
713
714
715
716
717
718
719
720
721
722
723
724
725
726
727
728
729
730
731
732
733
734
735
736
737
738
739
740
741
742
743
744
745
746
747
748
749
750
751
752
753
754
755
756
757
758
759
760
761
762
763
764
765
766
767
768
769
770
771
772
773
774
775
776
777
778
779
780
781
782
783
784
785
786
787
788
789
790
791
792
793
794
795
796
797
798
799
800
801
802
803
804
805
806
807
808
809
810
811
812
813
814
815
816
817
818
819
820
821
822
823
824
825
826
827
828
829
830
831
832
833
834
835
836
837
838
839
840
841
842
843
844
845
846
847
848
849
850
851
852
853
854
855
856
857
858
859
860
861
862
863
864
865
866
867
868
869
870
871
872
873
874
875
876
877
878
879
880
881
882
883
884
885
886
887
888
889
890
891
892
893
894
895
896
897
898
899
900
901
701 0 0
702 0 0
703 0 0
704 0 0
705 0 0
706 0 0
707 0 0
708 0 0
709 0 0
710 0 0
711 0 0
712 0 0
713 0 0
714 0 0
715 0 0
716 0 0
717 0 0
718 0 0
719 0 0
720 0 0
721 0 0
722 0 0
723 0 0
724 0 0
725 0 0
726 0 0
727 0 0
728 0 0
729 0 0
730 0 0
731 0 0
732 0 0
733 0 0
734 0 0
735 0 0
736 0 0
737 0 0
738 0 0
739 0 0
740 0 0
741 0 0
742 0 0
743 0 0
744 0 0
745 0 0
746 0 0
747 0 0
748 0 0
749 0 0
750 0 0
751 0 0
752 0 0
753 0 0
754 0 0
755 0 0
756 0 0
757 0 0
758 0 0
759 0 0
760 0 0
761 0 0
762 0 0
763 0 0
764 0 0
765 0 0
766 0 0
767 0 0
768 0 0
769 0 0
770 0 0
771 0 0
772 0 0
773 0 0
774 0 0
775 0 0
776 0 0
777 0 0
778 0 0
779 0 0
780 0 0
781 0 0
782 0 0
783 0 0
784 0 0
785 0 0
786 0 0
787 0 0
788 0 0
789 0 0
790 0 0
791 0 0
792 0 0
793 0 0
794 0 0
795 0 0
796 0 0
797 0 0
798 0 0
799 0 0
800 0 0
801 0 0
802 0 0
803 0 0
804 0 0
805 0 0
806 0 0
807 0 0
808 0 0
809 0 0
810 0 0
811 0 0
812 0 0
813 0 0
814 0 0
815 0 0
816 0 0
817 0 0
818 0 0
819 0 0
820 0 0
821 0 0
822 0 0
823 0 0
824 0 0
825 0 0
826 0 0
827 0 0
828 0 0
829 0 0
830 0 0
831 0 0
832 0 0
833 0 0
834 0 0
835 0 0
836 0 0
837 0 0
838 0 0
839 0 0
840 0 0
841 0 0
842 0 0
843 0 0
844 0 0
845 0 0
846 0 0
847 0 0
848 0 0
849 0 0
850 0 0
851 0 0
852 0 0
853 0 0
854 0 0
855 0 0
856 0 0
857 0 0
858 0 0
859 0 0
860 0 0
861 0 0
862 0 0
863 0 0
864 0 0
865 0 0
866 0 0
867 0 0
868 0 0
869 0 0
870 0 0
871 0 0
872 0 0
873 0 0
874 0 0
875 0 0
876 0 0
877 0 0
878 0 0
879 0 0
880 0 0
881 0 0
882 0 0
883 0 0
884 0 0
885 0 0
886 0 0
887 0 0
888 0 0
889 0 0
890 0 0
891 0 0
892 0 0
893 0 0
894 0 0
895 0 0
896 0 0
897 0 0
898 0 0
899 0 0
$EndNodes
$Elements
3 900 1 900
1 1 1 200
1 1 5 
2 5 6 
3 6 7 
4 7 8 
5 8 9 
6 9 10 
7 10 11 
8 11 12 
9 12 13 
10 13 14 
11 14 15 
12 15 16 
13 16 17 
14 17 18 
15 18 19 
16 19 20 
17 20 21 
18 21 22 
19 22 23 
20 23 24 
21 24 25 
22 25 26 
23 26 27 
24 27 28 
25 28 29 
26 29 30 
27 30 31 
28 31 32 
29 32 33 
30 33 34 
31 34 35 
32 35 36 
33 36 37 
34 37 38 
35 38 39 
36 39 40 
37 40 41 
38 41 42 
39 42 43 
40 43 44 
41 44 45 
42 45 46 
43 46 47 
44 47 48 
45 48 49 
46 49 50 
47 50 51 
48 51 52 
49 52 53 
50 53 54 
51 54 55 
52 55 56 
53 56 57 
54 57 58 
55 58 59 
56 59 60 
57 60 61 
58 61 62 
59 62 63 
60 63 64 
61 64 65 
62 65 66 
63 66 67 
64 67 68 
65 68 69 
66 69 70 
67 70 71 
68 71 72 
69 72 73 
70 73 74 
71 74 75 
72 75 76 
73 76 77 
74 77 78 
75 78 79 
76 79 80 
77 80 81 
78 81 82 
79 82 83 
80 83 84 
81 84 85 
82 85 86 
83 86 87 
84 87 88 
85 88 89 
86 89 90 
87 90 91 
88 91 92 
89 92 93 
90 93 94 
91 94 95 
92 95 96 
93 96 97 
94 97 98 
95 98 99 
96 99 100 
97 100 101 
98 101 102 
99 102 103 
100 103 104 
101 104 105 
102 105 106 
103 106 107 
104 107 108 
105 108 109 
106 109 110 
107 110 111 
108 111 112 
109 112 113 
110 113 114 
111 114 115 
112 115 116 
113 116 117 
114 117 118 
115 118 119 
116 119 120 
117 120 121 
118 121 122 
119 122 123 
120 123 124 
121 124 125 
122 125 126 
123 126 127 
124 127 128 
125 128 129 
126 129 130 
127 130 131 
128 131 132 
129 132 133 
130 133 134 
131 134 135 
132 135 136 
133 136 137 
134 137 138 
135 138 139 
136 139 140 
137 140 141 
138 141 142 
139 142 143 
140 143 144 
141 144 145 
142 145 146 
143 146 147 
144 147 148 
145 148 149 
146 149 150 
147 150 151 
148 151 152 
149 152 153 
150 153 154 
151 154 155 
152 155 156 
153 156 157 
154 157 158 
155 158 159 
156 159 160 
157 160 161 
158 161 162 
159 162 163 
160 163 164 
161 164 165 
162 165 166 
163 166 167 
164 167 168 
165 168 169 
166 169 170 
167 170 171 
168 171 172 
169 172 173 
170 173 174 
171 174 175 
172 175 176 
173 176 177 
174 177 178 
175 178 179 
176 179 180 
177 180 181 
178 181 182 
179 182 183 
180 183 184 
181 184 185 
182 185 186 
183 186 187 
184 187 188 
185 188 189 
186 189 190 
187 190 191 
188 191 192 
189 192 193 
190 193 194 
191 194 195 
192 195 196 
193 196 197 
194 197 198 
195 198 199 
196 199 200 
197 200 201 
198 201 202 
199 202 203 
200 203 2 
1 2 1 500
201 2 204 
202 204 205 
203 205 206 
204 206 207 
205 207 208 
206 208 209 
207 209 210 
208 210 211 
209 211 212 
210 212 213 
211 213 214 
212 214 215 
213 215 216 
214 216 217 
215 217 218 
216 218 219 
217 219 220 
218 220 221 
219 221 222 
220 222 223 
221 223 224 
222 224 225 
223 225 226 
224 226 227 
225 227 228 
226 228 229 
227 229 230 
228 230 231 
229 231 232 
230 232 233 
231 233 234 
232 234 235 
233 235 236 
234 236 237 
235 237 238 
236 238 239 
237 239 240 
238 240 241 
239 241 242 
240 242 243 
241 243 244 
242 244 245 
243 245 246 
244 246 247 
245 247 248 
246 248 249 
247 249 250 
248 250 251 
249 251 252 
250 252 253 
251 253 254 
252 254 255 
253 255 256 
254 256 257 
255 257 258 
256 258 259 
257 259 260 
258 260 261 
259 261 262 
260 262 263 
261 263 264 
262 264 265 
263 265 266 
264 266 267 
265 267 268 
266 268 269 
267 269 270 
268 270 271 
269 271 272 
270 272 273 
271 273 274 
272 274 275 
273 275 276 
274 276 277 
275 277 278 
276 278 279 
277 279 280 
278 280 281 
279 281 282 
280 282 283 
281 283 284 
282 284 285 
283 285 286 
284 286 287 
285 287 288 
286 288 289 
287 289 290 
288 290 291 
289 291 292 
290 292 293 
291 293 294 
292 294 295 
293 295 296 
294 296 297 
295 297 298 
296 298 299 
297 299 300 
298 300 301 
299 301 302 
300 302 303 
301 303 304 
302 304 305 
303 305 306 
304 306 307 
305 307 308 
306 308 309 
307 309 310 
308 310 311 
309 311 312 
310 312 313 
311 313 314 
312 314 315 
313 315 316 
314 316 317 
315 317 318 
316 318 319 
317 319 320 
318 320 321 
319 321 322 
320 322 323 
321 323 324 
322 324 325 
323 325 326 
324 326 327 
325 327 328 
326 328 329 
327 329 330 
328 330 331 
329 331 332 
330 332 333 
331 333 334 
332 334 335 
333 335 336 
334 336 337 
335 337 338 
336 338 339 
337 339 340 
338 340 341 
339 341 342 
340 342 343 
341 343 344 
342 344 345 
343 345 346 
344 346 347 
345 347 348 
346 348 349 
347 349 350 
348 350 351 
349 351 352 
350 352 353 
351 353 354 
352 354 355 
353 355 356 
354 356 357 
355 357 358 
356 358 359 
357 359 360 
358 360 361 
359 361 362 
360 362 363 
361 363 364 
362 364 365 
363 365 366 
364 366 367 
365 367 368 
366 368 369 
367 369 370 
368 370 371 
369 371 372 
370 372 373 
371 373 374 
372 374 375 
373 375 376 
374 376 377 
375 377 378 
376 378 379 
377 379 380 
378 380 381 
379 381 382 
380 382 383 
381 383 384 
382 384 385 
383 385 386 
384 386 387 
385 387 388 
386 388 389 
387 389 390 
388 390 391 
389 391 392 
390 392 393 
391 393 394 
392 394 395 
393 395 396 
394 396 397 
395 397 398 
396 398 399 
397 399 400 
398 400 401 
399 401 402 
400 402 403 
401 403 404 
402 404 405 
403 405 406 
404 406 407 
405 407 408 
406 408 409 
407 409 410 
408 410 411 
409 411 412 
410 412 413 
411 413 414 
412 414 415 
413 415 416 
414 416 417 
415 417 418 
416 418 419 
417 419 420 
418 420 421 
419 421 422 
420 422 423 
421 423 424 
422 424 425 
423 425 426 
424 426 427 
425 427 428 
426 428 429 
427 429 430 
428 430 431 
429 431 432 
430 432 433 
431 433 434 
432 434 435 
433 435 436 
434 436 437 
435 437 438 
436 438 439 
437 439 440 
438 440 441 
439 441 442 
440 442 443 
441 443 444 
442 444 445 
443 445 446 
444 446 447 
445 447 448 
446 448 449 
447 449 450 
448 450 451 
449 451 452 
450 452 453 
451 453 454 
452 454 455 
453 455 456 
454 456 457 
455 457 458 
456 458 459 
457 459 460 
458 460 461 
459 461 462 
460 462 463 
461 463 464 
462 464 465 
463 465 466 
464 466 467 
465 467 468 
466 468 469 
467 469 470 
468 470 471 
469 471 472 
470 472 473 
471 473 474 
472 474 475 
473 475 476 
474 476 477 
475 477 478 
476 478 479 
477 479 480 
478 480 481 
479 481 482 
480 482 483 
481 483 484 
482 484 485 
483 485 486 
484 486 487 
485 487 488 
486 488 489 
487 489 490 
488 490 491 
489 491 492 
490 492 493 
491 493 494 
492 494 495 
493 495 496 
494 496 497 
495 497 498 
496 498 499 
497 499 500 
498 500 501 
499 501 502 
500 502 503 
501 503 504 
502 504 505 
503 505 506 
504 506 507 
505 507 508 
506 508 509 
507 509 510 
508 510 511 
509 511 512 
510 512 513 
511 513 514 
512 514 515 
513 515 516 
514 516 517 
515 517 518 
516 518 519 
517 519 520 
518 520 521 
519 521 522 
520 522 523 
521 523 524 
522 524 525 
523 525 526 
524 526 527 
525 527 528 
526 528 529 
527 529 530 
528 530 531 
529 531 532 
530 532 533 
531 533 534 
532 534 535 
533 535 536 
534 536 537 
535 537 538 
536 538 539 
537 539 540 
538 540 541 
539 541 542 
540 542 543 
541 543 544 
542 544 545 
543 545 546 
544 546 547 
545 547 548 
546 548 549 
547 549 550 
548 550 551 
549 551 552 
550 552 553 
551 553 554 
552 554 555 
553 555 556 
554 556 557 
555 557 558 
556 558 559 
557 559 560 
558 560 561 
559 561 562 
560 562 563 
561 563 564 
562 564 565 
563 565 566 
564 566 567 
565 567 568 
566 568 569 
567 569 570 
568 570 571 
569 571 572 
570 572 573 
571 573 574 
572 574 575 
573 575 576 
574 576 577 
575 577 578 
576 578 579 
577 579 580 
578 580 581 
579 581 582 
580 582 583 
581 583 584 
582 584 585 
583 585 586 
584 586 587 
585 587 588 
586 588 589 
587 589 590 
588 590 591 
589 591 592 
590 592 593 
591 593 594 
592 594 595 
593 595 596 
594 596 597 
595 597 598 
596 598 599 
597 599 600 
598 600 601 
599 601 602 
600 602 603 
601 603 604 
602 604 605 
603 605 606 
604 606 607 
605 607 608 
606 608 609 
607 609 610 
608 610 611 
609 611 612 
610 612 613 
611 613 614 
612 614 615 
613 615 616 
614 616 617 
615 617 618 
616 618 619 
617 619 620 
618 620 621 
619 621 622 
620 622 623 
621 623 624 
622 624 625 
623 625 626 
624 626 627 
625 627 628 
626 628 629 
627 629 630 
628 630 631 
629 631 632 
630 632 633 
631 633 634 
632 634 635 
633 635 636 
634 636 637 
635 637 638 
636 638 639 
637 639 640 
638 640 641 
639 641 642 
640 642 643 
641 643 644 
642 644 645 
643 645 646 
644 646 647 
645 647 648 
646 648 649 
647 649 650 
648 650 651 
649 651 652 
650 652 653 
651 653 654 
652 654 655 
653 655 656 
654 656 657 
655 657 658 
656 658 659 
657 659 660 
658 660 661 
659 661 662 
660 662 663 
661 663 664 
662 664 665 
663 665 666 
664 666 667 
665 667 668 
666 668 669 
667 669 670 
668 670 671 
669 671 672 
670 672 673 
671 673 674 
672 674 675 
673 675 676 
674 676 677 
675 677 678 
676 678 679 
677 679 680 
678 680 681 
679 681 682 
680 682 683 
681 683 684 
682 684 685 
683 685 686 
684 686 687 
685 687 688 
686 688 689 
687 689 690 
688 690 691 
689 691 692 
690 692 693 
691 693 694 
692 694 695 
693 695 696 
694 696 697 
695 697 698 
696 698 699 
697 699 700 
698 700 701 
699 701 702 
700 702 3 
1 3 1 200
701 3 703 
702 703 704 
703 704 705 
704 705 706 
705 706 707 
706 707 708 
707 708 709 
708 709 710 
709 710 711 
710 711 712 
711 712 713 
712 713 714 
713 714 715 
714 715 716 
715 716 717 
716 717 718 
717 718 719 
718 719 720 
719 720 721 
720 721 722 
721 722 723 
722 723 724 
723 724 725 
724 725 726 
725 726 727 
726 727 728 
727 728 729 
728 729 730 
729 730 731 
730 731 732 
731 732 733 
732 733 734 
733 734 735 
734 735 736 
735 736 737 
736 737 738 
737 738 739 
738 739 740 
739 740 741 
740 741 742 
741 742 743 
742 743 744 
743 744 745 
744 745 746 
745 746 747 
746 747 748 
747 748 749 
748 749 750 
749 750 751 
750 751 752 
751 752 753 
752 753 754 
753 754 755 
754 755 756 
755 756 757 
756 757 758 
757 758 759 
758 759 760 
759 760 761 
760 761 762 
761 762 763 
762 763 764 
763 764 765 
764 765 766 
765 766 767 
766 767 768 
767 768 769 
768 769 770 
769 770 771 
770 771 772 
771 772 773 
772 773 774 
773 774 775 
774 775 776 
775 776 777 
776 777 778 
777 778 779 
778 779 780 
779 780 781 
780 781 782 
781 782 783 
782 783 784 
783 784 785 
784 785 786 
785 786 787 
786 787 788 
787 788 789 
788 789 790 
789 790 791 
790 791 792 
791 792 793 
792 793 794 
793 794 795 
794 795 796 
795 796 797 
796 797 798 
797 798 799 
798 799 800 
799 800 801 
800 801 802 
801 802 803 
802 803 804 
803 804 805 
804 805 806 
805 806 807 
806 807 808 
807 808 809 
808 809 810 
809 810 811 
810 811 812 
811 812 813 
812 813 814 
813 814 815 
814 815 816 
815 816 817 
816 817 818 
817 818 819 
818 819 820 
819 820 821 
820 821 822 
821 822 823 
822 823 824 
823 824 825 
824 825 826 
825 826 827 
826 827 828 
827 828 829 
828 829 830 
829 830 831 
830 831 832 
831 832 833 
832 833 834 
833 834 835 
834 835 836 
835 836 837 
836 837 838 
837 838 839 
838 839 840 
839 840 841 
840 841 842 
841 842 843 
842 843 844 
843 844 845 
844 845 846 
845 846 847 
846 847 848 
847 848 849 
848 849 850 
849 850 851 
850 851 852 
851 852 853 
852 853 854 
853 854 855 
854 855 856 
855 856 857 
856 857 858 
857 858 859 
858 859 860 
859 860 861 
860 861 862 
861 862 863 
862 863 864 
863 864 865 
864 865 866 
865 866 867 
866 867 868 
867 868 869 
868 869 870 
869 870 871 
870 871 872 
871 872 873 
872 873 874 
873 874 875 
874 875 876 
875 876 877 
876 877 878 
877 878 879 
878 879 880 
879 880 881 
880 881 882 
881 882 883 
882 883 884 
883 884 885 
884 885 886 
885 886 887 
886 887 888 
887 888 889 
888 889 890 
889 890 891 
890 891 892 
891 892 893 
892 893 894 
893 894 895 
894 895 896 
895 896 897 
896 897 898 
897 898 899 
898 899 900 
899 900 901 
900 901 4 
$EndElements
