$MeshFormat
2.2 0 8
$EndMeshFormat
$PhysicalNames
4
0 3 "anode"
0 4 "cathode"
1 1 "n_side"
1 2 "p_side"
$EndPhysicalNames
$Nodes
557
1 -25 0 0
2 0 0 0
3 25 0 0
4 -24.50638983113626 0 0
5 -24.02248665539276 0 0
6 -23.54809960970222 0 0
7 -23.08304158011627 0 0
8 -22.62712923484837 0 0
9 -22.18018236941834 0 0
10 -21.74202509861412 0 0
11 -21.31248432502046 0 0
12 -20.89139066061986 0 0
13 -20.478577993448 0 0
14 -20.0738834387773 0 0
15 -19.67714739796553 0 0
16 -19.2882133609036 0 0
17 -18.90692786579725 0 0
18 -18.5331404651803 0 0
19 -18.16670381566874 0 0
20 -17.8074732902795 0 0
21 -17.45530720011013 0 0
22 -17.11006660766713 0 0
23 -16.77161529889954 0 0
24 -16.43981973419707 0 0
25 -16.11454919673853 0 0
26 -15.79567512696077 0 0
27 -15.48307195748021 0 0
28 -15.17661615696291 0 0
29 -14.87618704703462 0 0
30 -14.58166591580668 0 0
31 -14.29293675562572 0 0
32 -14.00988551245021 0 0
33 -13.73240060111351 0 0
34 -13.46037258986962 0 0
35 -13.19369410380745 0 0
36 -12.93225997072395 0 0
37 -12.67596704567728 0 0
38 -12.4247142328249 0 0
39 -12.17840242196086 0 0
40 -11.93693443965845 0 0
41 -11.70021495284317 0 0
42 -11.4681507401356 0 0
43 -11.24065020665773 0 0
44 -11.01762345364414 0 0
45 -10.79898267390715 0 0
46 -10.58464156931332 0 0
47 -10.37451555747777 0 0
48 -10.16852178023124 0 0
49 -9.966578979482696 0 0
50 -9.768607432582993 0 0
51 -9.574529117360306 0 0
52 -9.384267406523264 0 0
53 -9.197747296519143 0 0
54 -9.014895159551056 0 0
55 -8.835638937907341 0 0
56 -8.659907833814614 0 0
57 -8.487632562976543 0 0
58 -8.318745147520453 0 0
59 -8.153178988679308 0 0
60 -7.990868742530761 0 0
61 -7.831750432808587 0 0
62 -7.675761233441271 0 0
63 -7.522839614264001 0 0
64 -7.372925268848775 0 0
65 -7.225959090220428 0 0
66 -7.081883025290448 0 0
67 -6.940640306851499 0 0
68 -6.80217515268345 0 0
69 -6.666432990652655 0 0
70 -6.533360284987872 0 0
71 -6.402904481870365 0 0
72 -6.275014169793927 0 0
73 -6.149638851347021 0 0
74 -6.026729112273429 0 0
75 -5.906236436052737 0 0
76 -5.788113303685218 0 0
77 -5.672313119672879 0 0
78 -5.558790142326924 0 0
79 -5.447499693485671 0 0
80 -5.33839781457382 0 0
81 -5.231441466990528 0 0
82 -5.126588478004074 0 0
83 -5.023797452572328 0 0
84 -4.923027864116694 0 0
85 -4.824239949227181 0 0
86 -4.72739474495074 0 0
87 -4.632454036928664 0 0
88 -4.53938038339269 0 0
89 -4.448137068334486 0 0
90 -4.358688076848718 0 0
91 -4.27099815318708 0 0
92 -4.185032697432568 0 0
93 -4.100757765671684 0 0
94 -4.01814016180013 0 0
95 -3.937147258849468 0 0
96 -3.857747114302761 0 0
97 -3.779908408039923 0 0
98 -3.703600433641903 0 0
99 -3.628793087745446 0 0
100 -3.555456857284273 0 0
101 -3.483562808432715 0 0
102 -3.413082616141622 0 0
103 -3.343988412389486 0 0
104 -3.276253006533643 0 0
105 -3.209849632117731 0 0
106 -3.144752104180803 0 0
107 -3.080934761165921 0 0
108 -3.018372406235752 0 0
109 -2.957040361783143 0 0
110 -2.896914435545401 0 0
111 -2.837970932117326 0 0
112 -2.780186553541427 0 0
113 -2.723538554068718 0 0
114 -2.668004533221648 0 0
115 -2.613562634121376 0 0
116 -2.560191354271758 0 0
117 -2.507869641306954 0 0
118 -2.456576859115707 0 0
119 -2.406292767830436 0 0
120 -2.356997543165278 0 0
121 -2.30867172138332 0 0
122 -2.261296254890105 0 0
123 -2.214852443927025 0 0
124 -2.169321974717629 0 0
125 -2.124686879048728 0 0
126 -2.080929546331944 0 0
127 -2.038032732923256 0 0
128 -1.995979496310881 0 0
129 -1.954753254436088 0 0
130 -1.914337746202307 0 0
131 -1.874717026787447 0 0
132 -1.835875464265289 0 0
133 -1.797797735330775 0 0
134 -1.760468820051152 0 0
135 -1.723873998132859 0 0
136 -1.687998828609697 0 0
137 -1.652829166885034 0 0
138 -1.618351128993499 0 0
139 -1.584551109808292 0 0
140 -1.551415781634052 0 0
141 -1.518932083472372 0 0
142 -1.487087188604221 0 0
143 -1.455868536946888 0 0
144 -1.425263808907204 0 0
145 -1.395260941858808 0 0
146 -1.365848091936105 0 0
147 -1.337013649909455 0 0
148 -1.308746261153988 0 0
149 -1.281034753469342 0 0
150 -1.25386820848497 0 0
151 -1.227235907906792 0 0
152 -1.201127342578847 0 0
153 -1.175532211634327 0 0
154 -1.150440422556002 0 0
155 -1.125842072954764 0 0
156 -1.1017274598961 0 0
157 -1.078087072322177 0 0
158 -1.054911582355402 0 0
159 -1.032191849660286 0 0
160 -1.009918907560873 0 0
161 -0.9880839767430203 0 0
162 -0.9666784354667577 0 0
163 -0.9456938447409335 0 0
164 -0.9251219266645201 0 0
165 -0.9049545635613399 0 0
166 -0.8851837967391987 0 0
167 -0.8658018359504105 0 0
168 -0.8468010277045899 0 0
169 -0.8281738744009601 0 0
170 -0.8099130396320291 0 0
171 -0.7920113094327661 0 0
172 -0.77446162362045 0 0
173 -0.7572570583808478 0 0
174 -0.7403908300851647 0 0
175 -0.7238562813831706 0 0
176 -0.7076468939017992 0 0
177 -0.6917562722974893 0 0
178 -0.6761781438468617 0 0
179 -0.660906365968625 0 0
180 -0.6459349202955558 0 0
181 -0.6312578897742256 0 0
182 -0.6168694872038678 0 0
183 -0.6027640390157174 0 0
184 -0.5889359824710816 0 0
185 -0.5753798603823235 0 0
186 -0.5620903244844726 0 0
187 -0.5490621352743368 0 0
188 -0.5362901500412427 0 0
189 -0.5237693302965738 0 0
190 -0.5114947398651744 0 0
191 -0.4994615331126511 0 0
192 -0.4876649655753198 0 0
193 -0.4761003817383234 0 0
194 -0.4647632211456916 0 0
195 -0.4536490094716612 0 0
196 -0.4427533654464497 0 0
197 -0.4320719880596862 0 0
198 -0.4216006638703362 0 0
199 -0.4113352632929228 0 0
200 -0.4012717373014638 0 0
201 -0.3914061133772613 0 0
202 -0.381734502080274 0 0
203 -0.3722530875673868 0 0
204 -0.3629581273559346 0 0
205 -0.3538459591067387 0 0
206 -0.3449129842870811 0 0
207 -0.3361556794037739 0 0
208 -0.327570591769085 0 0
209 -0.3191543345478927 0 0
210 -0.3109035835448672 0 0
211 -0.3028150905792053 0 0
212 -0.2948856588345272 0 0
213 -0.2871121656357332 0 0
214 -0.2794915395375419 0 0
215 -0.2720207767440321 0 0
216 -0.2646969299071635 0 0
217 -0.2575171087434676 0 0
218 -0.2504784802684128 0 0
219 -0.2435782718648376 0 0
220 -0.2368137589823931 0 0
221 -0.2301822728776344 0 0
222 -0.2236811974282773 0 0
223 -0.2173079694034996 0 0
224 -0.2110600731374106 0 0
225 -0.2049350443997646 0 0
226 -0.1989304669096725 0 0
227 -0.1930439727399893 0 0
228 -0.187273238511267 0 0
229 -0.1816159880401429 0 0
230 -0.1760699903584069 0 0
231 -0.1706330568462882 0 0
232 -0.1653030429087856 0 0
233 -0.1600778454059117 0 0
234 -0.1549554050271809 0 0
235 -0.14993369896548 0 0
236 -0.1450107463093779 0 0
237 -0.1401846063326424 0 0
238 -0.1354533749995461 0 0
239 -0.1308151848931871 0 0
240 -0.1262682057099802 0 0
241 -0.1218106469078855 0 0
242 -0.1174407460208897 0 0
243 -0.1131567818720356 0 0
244 -0.1089570634895658 0 0
245 -0.1048399359297889 0 0
246 -0.1008037710509626 0 0
247 -0.0968469803991816 0 0
248 -0.09296800275781791 0 0
249 -0.08916530489465302 0 0
250 -0.08543739037271791 0 0
251 -0.08178278562402141 0 0
252 -0.07820005033703836 0 0
253 -0.07468777173547991 0 0
254 -0.07124456327775164 0 0
255 -0.06786906721512409 0 0
256 -0.06455995147143057 0 0
257 -0.06131591115323332 0 0
258 -0.0581356663375594 0 0
259 -0.05501796230089795 0 0
260 -0.05196156928348827 0 0
261 -0.0489652814303021 0 0
262 -0.04602791710048848 0 0
263 -0.04314831705646682 0 0
264 -0.04032534584270664 0 0
265 -0.03755788941781546 0 0
266 -0.03484485636329637 0 0
267 -0.03218517576817348 0 0
268 -0.02957779976567565 0 0
269 -0.02702169851986014 0 0
270 -0.02451586404867356 0 0
271 -0.022059307936523 0 0
272 -0.01965106109122772 0 0
273 -0.01729017344252171 0 0
274 -0.01497571357711891 0 0
275 -0.01270676850359109 0 0
276 -0.01048244386633712 0 0
277 -0.008301860925875815 0 0
278 -0.006164160469129598 0 0
279 -0.004068498547681543 0 0
280 -0.002014048832389648 0 0
281 0.002014048832388398 0 0
282 0.004068498547672742 0 0
283 0.006164160469112611 0 0
284 0.008301860925851182 0 0
285 0.01048244386630781 0 0
286 0.01270676850355649 0 0
287 0.01497571357707501 0 0
288 0.01729017344246835 0 0
289 0.01965106109116682 0 0
290 0.02205930793645537 0 0
291 0.02451586404859702 0 0
292 0.02702169851977489 0 0
293 0.02957779976558406 0 0
294 0.03218517576807146 0 0
295 0.03484485636318502 0 0
296 0.03755788941769421 0 0
297 0.0403253458425733 0 0
298 0.04314831705632636 0 0
299 0.04602791710033485 0 0
300 0.04896528143013826 0 0
301 0.051961569283311 0 0
302 0.05501796230071037 0 0
303 0.05813566633735994 0 0
304 0.06131591115302168 0 0
305 0.06455995147120476 0 0
306 0.06786906721488295 0 0
307 0.07124456327749751 0 0
308 0.07468777173521 0 0
309 0.07820005033675421 0 0
310 0.08178278562372067 0 0
311 0.08543739037239981 0 0
312 0.08916530489431825 0 0
313 0.09296800275746663 0 0
314 0.0968469803988109 0 0
315 0.1008037710505748 0 0
316 0.1048399359293803 0 0
317 0.1089570634891377 0 0
318 0.1131567818715874 0 0
319 0.1174407460204225 0 0
320 0.1218106469073979 0 0
321 0.126268205709471 0 0
322 0.130815184892654 0 0
323 0.1354533749989909 0 0
324 0.1401846063320616 0 0
325 0.1450107463087709 0 0
326 0.1499336989648462 0 0
327 0.1549554050265204 0 0
328 0.1600778454052246 0 0
329 0.1653030429080669 0 0
330 0.1706330568455443 0 0
331 0.1760699903576294 0 0
332 0.1816159880393337 0 0
333 0.187273238510427 0 0
334 0.1930439727391161 0 0
335 0.1989304669087643 0 0
336 0.2049350443988232 0 0
337 0.2110600731364298 0 0
338 0.2173079694024814 0 0
339 0.2236811974272242 0 0
340 0.2301822728765419 0 0
341 0.2368137589812588 0 0
342 0.2435782718636613 0 0
343 0.250478480267196 0 0
344 0.2575171087422064 0 0
345 0.2646969299058572 0 0
346 0.2720207767426794 0 0
347 0.2794915395361424 0 0
348 0.287112165634286 0 0
349 0.2948856588330304 0 0
350 0.3028150905776593 0 0
351 0.3109035835432649 0 0
352 0.3191543345462387 0 0
353 0.3275705917673755 0 0
354 0.336155679402008 0 0
355 0.3449129842852506 0 0
356 0.3538459591048519 0 0
357 0.3629581273539825 0 0
358 0.3722530875653718 0 0
359 0.3817345020781955 0 0
360 0.3914061133751144 0 0
361 0.4012717372992454 0 0
362 0.4113352632906297 0 0
363 0.4216006638679693 0 0
364 0.4320719880572436 0 0
365 0.4427533654439286 0 0
366 0.4536490094690644 0 0
367 0.4647632211430092 0 0
368 0.4761003817355591 0 0
369 0.4876649655724704 0 0
370 0.4994615331097082 0 0
371 0.5114947398621417 0 0
372 0.5237693302934496 0 0
373 0.5362901500380207 0 0
374 0.5490621352710152 0 0
375 0.5620903244810539 0 0
376 0.5753798603787978 0 0
377 0.5889359824674465 0 0
378 0.6027640390119737 0 0
379 0.6168694872000082 0 0
380 0.6312578897702537 0 0
381 0.6459349202914642 0 0
382 0.6609063659644102 0 0
383 0.6761781438425218 0 0
384 0.6917562722930222 0 0
385 0.7076468938972013 0 0
386 0.7238562813784365 0 0
387 0.7403908300802937 0 0
388 0.7572570583758287 0 0
389 0.7744616236152847 0 0
390 0.7920113094274446 0 0
391 0.8099130396265478 0 0
392 0.8281738743953148 0 0
393 0.8468010276987761 0 0
394 0.8658018359444162 0 0
395 0.8851837967330267 0 0
396 0.9049545635549809 0 0
397 0.9251219266579686 0 0
398 0.9456938447341843 0 0
399 0.966678435459809 0 0
400 0.9880839767358676 0 0
401 1.009918907553509 0 0
402 1.032191849652704 0 0
403 1.054911582347593 0 0
404 1.078087072314141 0 0
405 1.101727459887824 0 0
406 1.125842072946245 0 0
407 1.150440422547237 0 0
408 1.175532211625307 0 0
409 1.201127342569565 0 0
410 1.227235907897245 0 0
411 1.25386820847515 0 0
412 1.281034753459233 0 0
413 1.30874626114359 0 0
414 1.337013649898757 0 0
415 1.365848091925097 0 0
416 1.395260941847493 0 0
417 1.425263808895565 0 0
418 1.455868536934917 0 0
419 1.487087188591913 0 0
420 1.518932083459718 0 0
421 1.551415781621043 0 0
422 1.584551109794937 0 0
423 1.618351128979797 0 0
424 1.652829166870983 0 0
425 1.687998828595291 0 0
426 1.723873998118079 0 0
427 1.760468820036 0 0
428 1.797797735315241 0 0
429 1.835875464249359 0 0
430 1.874717026771107 0 0
431 1.914337746185545 0 0
432 1.954753254418904 0 0
433 1.995979496293264 0 0
434 2.038032732905203 0 0
435 2.080929546313425 0 0
436 2.124686879029737 0 0
437 2.169321974698157 0 0
438 2.214852443907053 0 0
439 2.26129625486963 0 0
440 2.30867172136233 0 0
441 2.35699754314377 0 0
442 2.406292767808387 0 0
443 2.456576859093092 0 0
444 2.507869641283773 0 0
445 2.560191354247988 0 0
446 2.613562634097004 0 0
447 2.668004533196666 0 0
448 2.723538554043119 0 0
449 2.780186553515183 0 0
450 2.83797093209044 0 0
451 2.896914435517841 0 0
452 2.957040361754903 0 0
453 3.018372406206798 0 0
454 3.08093476113624 0 0
455 3.144752104150364 0 0
456 3.209849632086415 0 0
457 3.276253006501432 0 0
458 3.343988412356353 0 0
459 3.413082616107552 0 0
460 3.483562808397676 0 0
461 3.555456857248221 0 0
462 3.628793087708369 0 0
463 3.703600433603775 0 0
464 3.77990840800072 0 0
465 3.85774711426247 0 0
466 3.937147258808066 0 0
467 4.018140161757575 0 0
468 4.100757765627943 0 0
469 4.185032697387599 0 0
470 4.270998153140846 0 0
471 4.358688076801225 0 0
472 4.448137068285674 0 0
473 4.539380383342547 0 0
474 4.632454036877145 0 0
475 4.727394744897798 0 0
476 4.824239949172778 0 0
477 4.923027864060809 0 0
478 5.023797452514907 0 0
479 5.126588477945075 0 0
480 5.231441466929913 0 0
481 5.338397814511562 0 0
482 5.447499693421719 0 0
483 5.558790142261222 0 0
484 5.672313119605424 0 0
485 5.788113303615943 0 0
486 5.906236435981592 0 0
487 6.026729112200359 0 0
488 6.149638851271958 0 0
489 6.275014169716863 0 0
490 6.402904481791246 0 0
491 6.533360284906642 0 0
492 6.666432990569268 0 0
493 6.802175152597849 0 0
494 6.94064030676364 0 0
495 7.081883025200248 0 0
496 7.225959090127843 0 0
497 7.372925268753774 0 0
498 7.52283961416646 0 0
499 7.675761233341155 0 0
500 7.831750432705824 0 0
501 7.990868742425306 0 0
502 8.153178988571621 0 0
503 8.318745147410544 0 0
504 8.487632562864368 0 0
505 8.659907833700101 0 0
506 8.835638937790453 0 0
507 9.014895159431832 0 0
508 9.197747296398781 0 0
509 9.384267406401747 0 0
510 9.574529117237638 0 0
511 9.768607432459193 0 0
512 9.966578979357758 0 0
513 10.16852178010516 0 0
514 10.37451555735055 0 0
515 10.58464156918495 0 0
516 10.79898267377763 0 0
517 11.01762345351351 0 0
518 11.24065020652597 0 0
519 11.46815074000275 0 0
520 11.70021495270922 0 0
521 11.93693443952337 0 0
522 12.17840242182471 0 0
523 12.42471423268765 0 0
524 12.67596704553896 0 0
525 12.93225997058459 0 0
526 13.19369410366703 0 0
527 13.46037258972819 0 0
528 13.73240060097106 0 0
529 14.00988551230679 0 0
530 14.29293675548134 0 0
531 14.58166591566131 0 0
532 14.87618704688836 0 0
533 15.17661615681569 0 0
534 15.48307195733213 0 0
535 15.79567512681184 0 0
536 16.1145491965904 0 0
537 16.43981973405279 0 0
538 16.77161529875942 0 0
539 17.11006660753123 0 0
540 17.45530719997875 0 0
541 17.80747329015283 0 0
542 18.16670381554712 0 0
543 18.5331404650639 0 0
544 18.90692786568646 0 0
545 19.28821336079856 0 0
546 19.67714739786648 0 0
547 20.07388343868476 0 0
548 20.4785779933623 0 0
549 20.89139066054125 0 0
550 21.31248432494919 0 0
551 21.74202509855051 0 0
552 22.18018236936279 0 0
553 22.62712923480101 0 0
554 23.08304158007762 0 0
555 23.54809960967253 0 0
556 24.02248665537258 0 0
557 24.506389831126 0 0
$EndNodes
$Elements
558
1 15 2 3 1 1
2 15 2 4 3 3
3 1 2 2 1 1 4
4 1 2 2 1 4 5
5 1 2 2 1 5 6
6 1 2 2 1 6 7
7 1 2 2 1 7 8
8 1 2 2 1 8 9
9 1 2 2 1 9 10
10 1 2 2 1 10 11
11 1 2 2 1 11 12
12 1 2 2 1 12 13
13 1 2 2 1 13 14
14 1 2 2 1 14 15
15 1 2 2 1 15 16
16 1 2 2 1 16 17
17 1 2 2 1 17 18
18 1 2 2 1 18 19
19 1 2 2 1 19 20
20 1 2 2 1 20 21
21 1 2 2 1 21 22
22 1 2 2 1 22 23
23 1 2 2 1 23 24
24 1 2 2 1 24 25
25 1 2 2 1 25 26
26 1 2 2 1 26 27
27 1 2 2 1 27 28
28 1 2 2 1 28 29
29 1 2 2 1 29 30
30 1 2 2 1 30 31
31 1 2 2 1 31 32
32 1 2 2 1 32 33
33 1 2 2 1 33 34
34 1 2 2 1 34 35
35 1 2 2 1 35 36
36 1 2 2 1 36 37
37 1 2 2 1 37 38
38 1 2 2 1 38 39
39 1 2 2 1 39 40
40 1 2 2 1 40 41
41 1 2 2 1 41 42
42 1 2 2 1 42 43
43 1 2 2 1 43 44
44 1 2 2 1 44 45
45 1 2 2 1 45 46
46 1 2 2 1 46 47
47 1 2 2 1 47 48
48 1 2 2 1 48 49
49 1 2 2 1 49 50
50 1 2 2 1 50 51
51 1 2 2 1 51 52
52 1 2 2 1 52 53
53 1 2 2 1 53 54
54 1 2 2 1 54 55
55 1 2 2 1 55 56
56 1 2 2 1 56 57
57 1 2 2 1 57 58
58 1 2 2 1 58 59
59 1 2 2 1 59 60
60 1 2 2 1 60 61
61 1 2 2 1 61 62
62 1 2 2 1 62 63
63 1 2 2 1 63 64
64 1 2 2 1 64 65
65 1 2 2 1 65 66
66 1 2 2 1 66 67
67 1 2 2 1 67 68
68 1 2 2 1 68 69
69 1 2 2 1 69 70
70 1 2 2 1 70 71
71 1 2 2 1 71 72
72 1 2 2 1 72 73
73 1 2 2 1 73 74
74 1 2 2 1 74 75
75 1 2 2 1 75 76
76 1 2 2 1 76 77
77 1 2 2 1 77 78
78 1 2 2 1 78 79
79 1 2 2 1 79 80
80 1 2 2 1 80 81
81 1 2 2 1 81 82
82 1 2 2 1 82 83
83 1 2 2 1 83 84
84 1 2 2 1 84 85
85 1 2 2 1 85 86
86 1 2 2 1 86 87
87 1 2 2 1 87 88
88 1 2 2 1 88 89
89 1 2 2 1 89 90
90 1 2 2 1 90 91
91 1 2 2 1 91 92
92 1 2 2 1 92 93
93 1 2 2 1 93 94
94 1 2 2 1 94 95
95 1 2 2 1 95 96
96 1 2 2 1 96 97
97 1 2 2 1 97 98
98 1 2 2 1 98 99
99 1 2 2 1 99 100
100 1 2 2 1 100 101
101 1 2 2 1 101 102
102 1 2 2 1 102 103
103 1 2 2 1 103 104
104 1 2 2 1 104 105
105 1 2 2 1 105 106
106 1 2 2 1 106 107
107 1 2 2 1 107 108
108 1 2 2 1 108 109
109 1 2 2 1 109 110
110 1 2 2 1 110 111
111 1 2 2 1 111 112
112 1 2 2 1 112 113
113 1 2 2 1 113 114
114 1 2 2 1 114 115
115 1 2 2 1 115 116
116 1 2 2 1 116 117
117 1 2 2 1 117 118
118 1 2 2 1 118 119
119 1 2 2 1 119 120
120 1 2 2 1 120 121
121 1 2 2 1 121 122
122 1 2 2 1 122 123
123 1 2 2 1 123 124
124 1 2 2 1 124 125
125 1 2 2 1 125 126
126 1 2 2 1 126 127
127 1 2 2 1 127 128
128 1 2 2 1 128 129
129 1 2 2 1 129 130
130 1 2 2 1 130 131
131 1 2 2 1 131 132
132 1 2 2 1 132 133
133 1 2 2 1 133 134
134 1 2 2 1 134 135
135 1 2 2 1 135 136
136 1 2 2 1 136 137
137 1 2 2 1 137 138
138 1 2 2 1 138 139
139 1 2 2 1 139 140
140 1 2 2 1 140 141
141 1 2 2 1 141 142
142 1 2 2 1 142 143
143 1 2 2 1 143 144
144 1 2 2 1 144 145
145 1 2 2 1 145 146
146 1 2 2 1 146 147
147 1 2 2 1 147 148
148 1 2 2 1 148 149
149 1 2 2 1 149 150
150 1 2 2 1 150 151
151 1 2 2 1 151 152
152 1 2 2 1 152 153
153 1 2 2 1 153 154
154 1 2 2 1 154 155
155 1 2 2 1 155 156
156 1 2 2 1 156 157
157 1 2 2 1 157 158
158 1 2 2 1 158 159
159 1 2 2 1 159 160
160 1 2 2 1 160 161
161 1 2 2 1 161 162
162 1 2 2 1 162 163
163 1 2 2 1 163 164
164 1 2 2 1 164 165
165 1 2 2 1 165 166
166 1 2 2 1 166 167
167 1 2 2 1 167 168
168 1 2 2 1 168 169
169 1 2 2 1 169 170
170 1 2 2 1 170 171
171 1 2 2 1 171 172
172 1 2 2 1 172 173
173 1 2 2 1 173 174
174 1 2 2 1 174 175
175 1 2 2 1 175 176
176 1 2 2 1 176 177
177 1 2 2 1 177 178
178 1 2 2 1 178 179
179 1 2 2 1 179 180
180 1 2 2 1 180 181
181 1 2 2 1 181 182
182 1 2 2 1 182 183
183 1 2 2 1 183 184
184 1 2 2 1 184 185
185 1 2 2 1 185 186
186 1 2 2 1 186 187
187 1 2 2 1 187 188
188 1 2 2 1 188 189
189 1 2 2 1 189 190
190 1 2 2 1 190 191
191 1 2 2 1 191 192
192 1 2 2 1 192 193
193 1 2 2 1 193 194
194 1 2 2 1 194 195
195 1 2 2 1 195 196
196 1 2 2 1 196 197
197 1 2 2 1 197 198
198 1 2 2 1 198 199
199 1 2 2 1 199 200
200 1 2 2 1 200 201
201 1 2 2 1 201 202
202 1 2 2 1 202 203
203 1 2 2 1 203 204
204 1 2 2 1 204 205
205 1 2 2 1 205 206
206 1 2 2 1 206 207
207 1 2 2 1 207 208
208 1 2 2 1 208 209
209 1 2 2 1 209 210
210 1 2 2 1 210 211
211 1 2 2 1 211 212
212 1 2 2 1 212 213
213 1 2 2 1 213 214
214 1 2 2 1 214 215
215 1 2 2 1 215 216
216 1 2 2 1 216 217
217 1 2 2 1 217 218
218 1 2 2 1 218 219
219 1 2 2 1 219 220
220 1 2 2 1 220 221
221 1 2 2 1 221 222
222 1 2 2 1 222 223
223 1 2 2 1 223 224
224 1 2 2 1 224 225
225 1 2 2 1 225 226
226 1 2 2 1 226 227
227 1 2 2 1 227 228
228 1 2 2 1 228 229
229 1 2 2 1 229 230
230 1 2 2 1 230 231
231 1 2 2 1 231 232
232 1 2 2 1 232 233
233 1 2 2 1 233 234
234 1 2 2 1 234 235
235 1 2 2 1 235 236
236 1 2 2 1 236 237
237 1 2 2 1 237 238
238 1 2 2 1 238 239
239 1 2 2 1 239 240
240 1 2 2 1 240 241
241 1 2 2 1 241 242
242 1 2 2 1 242 243
243 1 2 2 1 243 244
244 1 2 2 1 244 245
245 1 2 2 1 245 246
246 1 2 2 1 246 247
247 1 2 2 1 247 248
248 1 2 2 1 248 249
249 1 2 2 1 249 250
250 1 2 2 1 250 251
251 1 2 2 1 251 252
252 1 2 2 1 252 253
253 1 2 2 1 253 254
254 1 2 2 1 254 255
255 1 2 2 1 255 256
256 1 2 2 1 256 257
257 1 2 2 1 257 258
258 1 2 2 1 258 259
259 1 2 2 1 259 260
260 1 2 2 1 260 261
261 1 2 2 1 261 262
262 1 2 2 1 262 263
263 1 2 2 1 263 264
264 1 2 2 1 264 265
265 1 2 2 1 265 266
266 1 2 2 1 266 267
267 1 2 2 1 267 268
268 1 2 2 1 268 269
269 1 2 2 1 269 270
270 1 2 2 1 270 271
271 1 2 2 1 271 272
272 1 2 2 1 272 273
273 1 2 2 1 273 274
274 1 2 2 1 274 275
275 1 2 2 1 275 276
276 1 2 2 1 276 277
277 1 2 2 1 277 278
278 1 2 2 1 278 279
279 1 2 2 1 279 280
280 1 2 2 1 280 2
281 1 2 1 2 2 281
282 1 2 1 2 281 282
283 1 2 1 2 282 283
284 1 2 1 2 283 284
285 1 2 1 2 284 285
286 1 2 1 2 285 286
287 1 2 1 2 286 287
288 1 2 1 2 287 288
289 1 2 1 2 288 289
290 1 2 1 2 289 290
291 1 2 1 2 290 291
292 1 2 1 2 291 292
293 1 2 1 2 292 293
294 1 2 1 2 293 294
295 1 2 1 2 294 295
296 1 2 1 2 295 296
297 1 2 1 2 296 297
298 1 2 1 2 297 298
299 1 2 1 2 298 299
300 1 2 1 2 299 300
301 1 2 1 2 300 301
302 1 2 1 2 301 302
303 1 2 1 2 302 303
304 1 2 1 2 303 304
305 1 2 1 2 304 305
306 1 2 1 2 305 306
307 1 2 1 2 306 307
308 1 2 1 2 307 308
309 1 2 1 2 308 309
310 1 2 1 2 309 310
311 1 2 1 2 310 311
312 1 2 1 2 311 312
313 1 2 1 2 312 313
314 1 2 1 2 313 314
315 1 2 1 2 314 315
316 1 2 1 2 315 316
317 1 2 1 2 316 317
318 1 2 1 2 317 318
319 1 2 1 2 318 319
320 1 2 1 2 319 320
321 1 2 1 2 320 321
322 1 2 1 2 321 322
323 1 2 1 2 322 323
324 1 2 1 2 323 324
325 1 2 1 2 324 325
326 1 2 1 2 325 326
327 1 2 1 2 326 327
328 1 2 1 2 327 328
329 1 2 1 2 328 329
330 1 2 1 2 329 330
331 1 2 1 2 330 331
332 1 2 1 2 331 332
333 1 2 1 2 332 333
334 1 2 1 2 333 334
335 1 2 1 2 334 335
336 1 2 1 2 335 336
337 1 2 1 2 336 337
338 1 2 1 2 337 338
339 1 2 1 2 338 339
340 1 2 1 2 339 340
341 1 2 1 2 340 341
342 1 2 1 2 341 342
343 1 2 1 2 342 343
344 1 2 1 2 343 344
345 1 2 1 2 344 345
346 1 2 1 2 345 346
347 1 2 1 2 346 347
348 1 2 1 2 347 348
349 1 2 1 2 348 349
350 1 2 1 2 349 350
351 1 2 1 2 350 351
352 1 2 1 2 351 352
353 1 2 1 2 352 353
354 1 2 1 2 353 354
355 1 2 1 2 354 355
356 1 2 1 2 355 356
357 1 2 1 2 356 357
358 1 2 1 2 357 358
359 1 2 1 2 358 359
360 1 2 1 2 359 360
361 1 2 1 2 360 361
362 1 2 1 2 361 362
363 1 2 1 2 362 363
364 1 2 1 2 363 364
365 1 2 1 2 364 365
366 1 2 1 2 365 366
367 1 2 1 2 366 367
368 1 2 1 2 367 368
369 1 2 1 2 368 369
370 1 2 1 2 369 370
371 1 2 1 2 370 371
372 1 2 1 2 371 372
373 1 2 1 2 372 373
374 1 2 1 2 373 374
375 1 2 1 2 374 375
376 1 2 1 2 375 376
377 1 2 1 2 376 377
378 1 2 1 2 377 378
379 1 2 1 2 378 379
380 1 2 1 2 379 380
381 1 2 1 2 380 381
382 1 2 1 2 381 382
383 1 2 1 2 382 383
384 1 2 1 2 383 384
385 1 2 1 2 384 385
386 1 2 1 2 385 386
387 1 2 1 2 386 387
388 1 2 1 2 387 388
389 1 2 1 2 388 389
390 1 2 1 2 389 390
391 1 2 1 2 390 391
392 1 2 1 2 391 392
393 1 2 1 2 392 393
394 1 2 1 2 393 394
395 1 2 1 2 394 395
396 1 2 1 2 395 396
397 1 2 1 2 396 397
398 1 2 1 2 397 398
399 1 2 1 2 398 399
400 1 2 1 2 399 400
401 1 2 1 2 400 401
402 1 2 1 2 401 402
403 1 2 1 2 402 403
404 1 2 1 2 403 404
405 1 2 1 2 404 405
406 1 2 1 2 405 406
407 1 2 1 2 406 407
408 1 2 1 2 407 408
409 1 2 1 2 408 409
410 1 2 1 2 409 410
411 1 2 1 2 410 411
412 1 2 1 2 411 412
413 1 2 1 2 412 413
414 1 2 1 2 413 414
415 1 2 1 2 414 415
416 1 2 1 2 415 416
417 1 2 1 2 416 417
418 1 2 1 2 417 418
419 1 2 1 2 418 419
420 1 2 1 2 419 420
421 1 2 1 2 420 421
422 1 2 1 2 421 422
423 1 2 1 2 422 423
424 1 2 1 2 423 424
425 1 2 1 2 424 425
426 1 2 1 2 425 426
427 1 2 1 2 426 427
428 1 2 1 2 427 428
429 1 2 1 2 428 429
430 1 2 1 2 429 430
431 1 2 1 2 430 431
432 1 2 1 2 431 432
433 1 2 1 2 432 433
434 1 2 1 2 433 434
435 1 2 1 2 434 435
436 1 2 1 2 435 436
437 1 2 1 2 436 437
438 1 2 1 2 437 438
439 1 2 1 2 438 439
440 1 2 1 2 439 440
441 1 2 1 2 440 441
442 1 2 1 2 441 442
443 1 2 1 2 442 443
444 1 2 1 2 443 444
445 1 2 1 2 444 445
446 1 2 1 2 445 446
447 1 2 1 2 446 447
448 1 2 1 2 447 448
449 1 2 1 2 448 449
450 1 2 1 2 449 450
451 1 2 1 2 450 451
452 1 2 1 2 451 452
453 1 2 1 2 452 453
454 1 2 1 2 453 454
455 1 2 1 2 454 455
456 1 2 1 2 455 456
457 1 2 1 2 456 457
458 1 2 1 2 457 458
459 1 2 1 2 458 459
460 1 2 1 2 459 460
461 1 2 1 2 460 461
462 1 2 1 2 461 462
463 1 2 1 2 462 463
464 1 2 1 2 463 464
465 1 2 1 2 464 465
466 1 2 1 2 465 466
467 1 2 1 2 466 467
468 1 2 1 2 467 468
469 1 2 1 2 468 469
470 1 2 1 2 469 470
471 1 2 1 2 470 471
472 1 2 1 2 471 472
473 1 2 1 2 472 473
474 1 2 1 2 473 474
475 1 2 1 2 474 475
476 1 2 1 2 475 476
477 1 2 1 2 476 477
478 1 2 1 2 477 478
479 1 2 1 2 478 479
480 1 2 1 2 479 480
481 1 2 1 2 480 481
482 1 2 1 2 481 482
483 1 2 1 2 482 483
484 1 2 1 2 483 484
485 1 2 1 2 484 485
486 1 2 1 2 485 486
487 1 2 1 2 486 487
488 1 2 1 2 487 488
489 1 2 1 2 488 489
490 1 2 1 2 489 490
491 1 2 1 2 490 491
492 1 2 1 2 491 492
493 1 2 1 2 492 493
494 1 2 1 2 493 494
495 1 2 1 2 494 495
496 1 2 1 2 495 496
497 1 2 1 2 496 497
498 1 2 1 2 497 498
499 1 2 1 2 498 499
500 1 2 1 2 499 500
501 1 2 1 2 500 501
502 1 2 1 2 501 502
503 1 2 1 2 502 503
504 1 2 1 2 503 504
505 1 2 1 2 504 505
506 1 2 1 2 505 506
507 1 2 1 2 506 507
508 1 2 1 2 507 508
509 1 2 1 2 508 509
510 1 2 1 2 509 510
511 1 2 1 2 510 511
512 1 2 1 2 511 512
513 1 2 1 2 512 513
514 1 2 1 2 513 514
515 1 2 1 2 514 515
516 1 2 1 2 515 516
517 1 2 1 2 516 517
518 1 2 1 2 517 518
519 1 2 1 2 518 519
520 1 2 1 2 519 520
521 1 2 1 2 520 521
522 1 2 1 2 521 522
523 1 2 1 2 522 523
524 1 2 1 2 523 524
525 1 2 1 2 524 525
526 1 2 1 2 525 526
527 1 2 1 2 526 527
528 1 2 1 2 527 528
529 1 2 1 2 528 529
530 1 2 1 2 529 530
531 1 2 1 2 530 531
532 1 2 1 2 531 532
533 1 2 1 2 532 533
534 1 2 1 2 533 534
535 1 2 1 2 534 535
536 1 2 1 2 535 536
537 1 2 1 2 536 537
538 1 2 1 2 537 538
539 1 2 1 2 538 539
540 1 2 1 2 539 540
541 1 2 1 2 540 541
542 1 2 1 2 541 542
543 1 2 1 2 542 543
544 1 2 1 2 543 544
545 1 2 1 2 544 545
546 1 2 1 2 545 546
547 1 2 1 2 546 547
548 1 2 1 2 547 548
549 1 2 1 2 548 549
550 1 2 1 2 549 550
551 1 2 1 2 550 551
552 1 2 1 2 551 552
553 1 2 1 2 552 553
554 1 2 1 2 553 554
555 1 2 1 2 554 555
556 1 2 1 2 555 556
557 1 2 1 2 556 557
558 1 2 1 2 557 3
$EndElements
