$MeshFormat
2.2 0 8
$EndMeshFormat
$PhysicalNames
4
0 3 "anode"
0 4 "cathode"
1 1 "n_side"
1 2 "p_side"
$EndPhysicalNames
$Nodes
101
1 -5 0 0
2 0 0 0
3 5 0 0
4 -4.899999999999999 0 0
5 -4.8 0 0
6 -4.699999999999999 0 0
7 -4.6 0 0
8 -4.499999999999999 0 0
9 -4.399999999999999 0 0
10 -4.299999999999999 0 0
11 -4.199999999999998 0 0
12 -4.099999999999999 0 0
13 -3.999999999999999 0 0
14 -3.899999999999999 0 0
15 -3.799999999999999 0 0
16 -3.699999999999998 0 0
17 -3.599999999999999 0 0
18 -3.499999999999999 0 0
19 -3.399999999999999 0 0
20 -3.299999999999999 0 0
21 -3.199999999999998 0 0
22 -3.099999999999999 0 0
23 -2.999999999999999 0 0
24 -2.899999999999999 0 0
25 -2.799999999999999 0 0
26 -2.699999999999999 0 0
27 -2.599999999999999 0 0
28 -2.5 0 0
29 -2.399999999999999 0 0
30 -2.299999999999999 0 0
31 -2.199999999999999 0 0
32 -2.1 0 0
33 -2 0 0
34 -1.899999999999999 0 0
35 -1.799999999999999 0 0
36 -1.699999999999999 0 0
37 -1.599999999999999 0 0
38 -1.5 0 0
39 -1.399999999999999 0 0
40 -1.299999999999999 0 0
41 -1.199999999999999 0 0
42 -1.1 0 0
43 -0.9999999999999991 0 0
44 -0.8999999999999995 0 0
45 -0.7999999999999998 0 0
46 -0.7000000000000002 0 0
47 -0.5999999999999996 0 0
48 -0.4999999999999991 0 0
49 -0.3999999999999995 0 0
50 -0.3000000000000007 0 0
51 -0.1999999999999993 0 0
52 -0.09999999999999964 0 0
53 0.09999999999992801 0 0
54 0.1999999999998339 0 0
55 0.2999999999997341 0 0
56 0.3999999999996643 0 0
57 0.4999999999995944 0 0
58 0.5999999999995166 0 0
59 0.699999999999288 0 0
60 0.7999999999989961 0 0
61 0.8999999999987042 0 0
62 0.9999999999984124 0 0
63 1.09999999999812 0 0
64 1.199999999997829 0 0
65 1.299999999997537 0 0
66 1.399999999997245 0 0
67 1.499999999996953 0 0
68 1.599999999996661 0 0
69 1.699999999996369 0 0
70 1.799999999996077 0 0
71 1.899999999995785 0 0
72 1.999999999995511 0 0
73 2.099999999995593 0 0
74 2.199999999995745 0 0
75 2.299999999995897 0 0
76 2.399999999996049 0 0
77 2.499999999996201 0 0
78 2.599999999996353 0 0
79 2.699999999996505 0 0
80 2.799999999996657 0 0
81 2.899999999996809 0 0
82 2.999999999996961 0 0
83 3.099999999997114 0 0
84 3.199999999997265 0 0
85 3.299999999997417 0 0
86 3.399999999997569 0 0
87 3.499999999997721 0 0
88 3.599999999997873 0 0
89 3.699999999998025 0 0
90 3.799999999998176 0 0
91 3.899999999998329 0 0
92 3.999999999998481 0 0
93 4.099999999998633 0 0
94 4.199999999998784 0 0
95 4.299999999998937 0 0
96 4.399999999999088 0 0
97 4.49999999999924 0 0
98 4.599999999999393 0 0
99 4.699999999999545 0 0
100 4.799999999999696 0 0
101 4.899999999999848 0 0
$EndNodes
$Elements
102
1 15 2 4 1 1
2 15 2 3 3 3
3 1 2 1 1 1 4
4 1 2 1 1 4 5
5 1 2 1 1 5 6
6 1 2 1 1 6 7
7 1 2 1 1 7 8
8 1 2 1 1 8 9
9 1 2 1 1 9 10
10 1 2 1 1 10 11
11 1 2 1 1 11 12
12 1 2 1 1 12 13
13 1 2 1 1 13 14
14 1 2 1 1 14 15
15 1 2 1 1 15 16
16 1 2 1 1 16 17
17 1 2 1 1 17 18
18 1 2 1 1 18 19
19 1 2 1 1 19 20
20 1 2 1 1 20 21
21 1 2 1 1 21 22
22 1 2 1 1 22 23
23 1 2 1 1 23 24
24 1 2 1 1 24 25
25 1 2 1 1 25 26
26 1 2 1 1 26 27
27 1 2 1 1 27 28
28 1 2 1 1 28 29
29 1 2 1 1 29 30
30 1 2 1 1 30 31
31 1 2 1 1 31 32
32 1 2 1 1 32 33
33 1 2 1 1 33 34
34 1 2 1 1 34 35
35 1 2 1 1 35 36
36 1 2 1 1 36 37
37 1 2 1 1 37 38
38 1 2 1 1 38 39
39 1 2 1 1 39 40
40 1 2 1 1 40 41
41 1 2 1 1 41 42
42 1 2 1 1 42 43
43 1 2 1 1 43 44
44 1 2 1 1 44 45
45 1 2 1 1 45 46
46 1 2 1 1 46 47
47 1 2 1 1 47 48
48 1 2 1 1 48 49
49 1 2 1 1 49 50
50 1 2 1 1 50 51
51 1 2 1 1 51 52
52 1 2 1 1 52 2
53 1 2 2 2 2 53
54 1 2 2 2 53 54
55 1 2 2 2 54 55
56 1 2 2 2 55 56
57 1 2 2 2 56 57
58 1 2 2 2 57 58
59 1 2 2 2 58 59
60 1 2 2 2 59 60
61 1 2 2 2 60 61
62 1 2 2 2 61 62
63 1 2 2 2 62 63
64 1 2 2 2 63 64
65 1 2 2 2 64 65
66 1 2 2 2 65 66
67 1 2 2 2 66 67
68 1 2 2 2 67 68
69 1 2 2 2 68 69
70 1 2 2 2 69 70
71 1 2 2 2 70 71
72 1 2 2 2 71 72
73 1 2 2 2 72 73
74 1 2 2 2 73 74
75 1 2 2 2 74 75
76 1 2 2 2 75 76
77 1 2 2 2 76 77
78 1 2 2 2 77 78
79 1 2 2 2 78 79
80 1 2 2 2 79 80
81 1 2 2 2 80 81
82 1 2 2 2 81 82
83 1 2 2 2 82 83
84 1 2 2 2 83 84
85 1 2 2 2 84 85
86 1 2 2 2 85 86
87 1 2 2 2 86 87
88 1 2 2 2 87 88
89 1 2 2 2 88 89
90 1 2 2 2 89 90
91 1 2 2 2 90 91
92 1 2 2 2 91 92
93 1 2 2 2 92 93
94 1 2 2 2 93 94
95 1 2 2 2 94 95
96 1 2 2 2 95 96
97 1 2 2 2 96 97
98 1 2 2 2 97 98
99 1 2 2 2 98 99
100 1 2 2 2 99 100
101 1 2 2 2 100 101
102 1 2 2 2 101 3
$EndElements
