$MeshFormat
2.2 0 8
$EndMeshFormat
$PhysicalNames
3
0 2 "left"
0 3 "right"
1 1 "bulk"
$EndPhysicalNames
$Nodes
100
1 0 0 0
2 0.9851499999999999 0 0
3 0.009951010100991033 0 0
4 0.01990202020198219 0 0
5 0.02985303030297334 0 0
6 0.03980404040396358 0 0
7 0.04975505050495235 0 0
8 0.05970606060594 0 0
9 0.06965707070693342 0 0
10 0.0796080808079289 0 0
11 0.08955909090892181 0 0
12 0.0995101010099147 0 0
13 0.1094611111109109 0 0
14 0.1194121212119059 0 0
15 0.1293631313128966 0 0
16 0.1393141414138771 0 0
17 0.1492651515148581 0 0
18 0.1592161616158403 0 0
19 0.1691671717168191 0 0
20 0.179118181817805 0 0
21 0.1890691919187878 0 0
22 0.1990202020197666 0 0
23 0.2089712121207509 0 0
24 0.2189222222217274 0 0
25 0.2288732323227032 0 0
26 0.2388242424236876 0 0
27 0.2487752525246682 0 0
28 0.2587262626256541 0 0
29 0.2686772727266301 0 0
30 0.278628282827615 0 0
31 0.2885792929285956 0 0
32 0.298530303029576 0 0
33 0.308481313130561 0 0
34 0.3184323232315369 0 0
35 0.3283833333325229 0 0
36 0.3383343434334984 0 0
37 0.3482853535344703 0 0
38 0.3582363636354481 0 0
39 0.3681873737364341 0 0
40 0.3781383838374091 0 0
41 0.3880893939383951 0 0
42 0.3980404040393732 0 0
43 0.4079914141403561 0 0
44 0.4179424242413387 0 0
45 0.427893434342317 0 0
46 0.437844444443303 0 0
47 0.4477954545442889 0 0
48 0.4577464646452697 0 0
49 0.46769747474625 0 0
50 0.4776484848472353 0 0
51 0.4875994949482148 0 0
52 0.4975505050492357 0 0
53 0.5075015151502674 0 0
54 0.5174525252513005 0 0
55 0.527403535352345 0 0
56 0.5373545454533729 0 0
57 0.5473055555544225 0 0
58 0.5572565656554505 0 0
59 0.5672075757564935 0 0
60 0.5771585858575279 0 0
61 0.587109595958562 0 0
62 0.5970606060596054 0 0
63 0.6070116161606335 0 0
64 0.616962626261683 0 0
65 0.6269136363627109 0 0
66 0.6368646464637551 0 0
67 0.6468156565647885 0 0
68 0.6567666666658237 0 0
69 0.666717676766866 0 0
70 0.6766686868678942 0 0
71 0.6866196969689436 0 0
72 0.6965707070699608 0 0
73 0.706521717170978 0 0
74 0.7164727272720276 0 0
75 0.7264237373730557 0 0
76 0.7363747474740983 0 0
77 0.7463257575751333 0 0
78 0.756276767676167 0 0
79 0.766227777777211 0 0
80 0.776178787878239 0 0
81 0.7861297979792885 0 0
82 0.7960808080803166 0 0
83 0.8060318181813603 0 0
84 0.8159828282823942 0 0
85 0.8259338383834289 0 0
86 0.8358848484844719 0 0
87 0.8458358585854998 0 0
88 0.8557868686865494 0 0
89 0.8657378787875775 0 0
90 0.8756888888886223 0 0
91 0.8856398989896536 0 0
92 0.8955909090906614 0 0
93 0.9055419191917036 0 0
94 0.9154929292927391 0 0
95 0.9254439393937722 0 0
96 0.9353949494948167 0 0
97 0.9453459595958446 0 0
98 0.9552969696968944 0 0
99 0.9652479797979222 0 0
100 0.9751989898989656 0 0
$EndNodes
$Elements
101
1 15 2 2 1 1
2 15 2 3 2 2
3 1 2 1 1 1 3
4 1 2 1 1 3 4
5 1 2 1 1 4 5
6 1 2 1 1 5 6
7 1 2 1 1 6 7
8 1 2 1 1 7 8
9 1 2 1 1 8 9
10 1 2 1 1 9 10
11 1 2 1 1 10 11
12 1 2 1 1 11 12
13 1 2 1 1 12 13
14 1 2 1 1 13 14
15 1 2 1 1 14 15
16 1 2 1 1 15 16
17 1 2 1 1 16 17
18 1 2 1 1 17 18
19 1 2 1 1 18 19
20 1 2 1 1 19 20
21 1 2 1 1 20 21
22 1 2 1 1 21 22
23 1 2 1 1 22 23
24 1 2 1 1 23 24
25 1 2 1 1 24 25
26 1 2 1 1 25 26
27 1 2 1 1 26 27
28 1 2 1 1 27 28
29 1 2 1 1 28 29
30 1 2 1 1 29 30
31 1 2 1 1 30 31
32 1 2 1 1 31 32
33 1 2 1 1 32 33
34 1 2 1 1 33 34
35 1 2 1 1 34 35
36 1 2 1 1 35 36
37 1 2 1 1 36 37
38 1 2 1 1 37 38
39 1 2 1 1 38 39
40 1 2 1 1 39 40
41 1 2 1 1 40 41
42 1 2 1 1 41 42
43 1 2 1 1 42 43
44 1 2 1 1 43 44
45 1 2 1 1 44 45
46 1 2 1 1 45 46
47 1 2 1 1 46 47
48 1 2 1 1 47 48
49 1 2 1 1 48 49
50 1 2 1 1 49 50
51 1 2 1 1 50 51
52 1 2 1 1 51 52
53 1 2 1 1 52 53
54 1 2 1 1 53 54
55 1 2 1 1 54 55
56 1 2 1 1 55 56
57 1 2 1 1 56 57
58 1 2 1 1 57 58
59 1 2 1 1 58 59
60 1 2 1 1 59 60
61 1 2 1 1 60 61
62 1 2 1 1 61 62
63 1 2 1 1 62 63
64 1 2 1 1 63 64
65 1 2 1 1 64 65
66 1 2 1 1 65 66
67 1 2 1 1 66 67
68 1 2 1 1 67 68
69 1 2 1 1 68 69
70 1 2 1 1 69 70
71 1 2 1 1 70 71
72 1 2 1 1 71 72
73 1 2 1 1 72 73
74 1 2 1 1 73 74
75 1 2 1 1 74 75
76 1 2 1 1 75 76
77 1 2 1 1 76 77
78 1 2 1 1 77 78
79 1 2 1 1 78 79
80 1 2 1 1 79 80
81 1 2 1 1 80 81
82 1 2 1 1 81 82
83 1 2 1 1 82 83
84 1 2 1 1 83 84
85 1 2 1 1 84 85
86 1 2 1 1 85 86
87 1 2 1 1 86 87
88 1 2 1 1 87 88
89 1 2 1 1 88 89
90 1 2 1 1 89 90
91 1 2 1 1 90 91
92 1 2 1 1 91 92
93 1 2 1 1 92 93
94 1 2 1 1 93 94
95 1 2 1 1 94 95
96 1 2 1 1 95 96
97 1 2 1 1 96 97
98 1 2 1 1 97 98
99 1 2 1 1 98 99
100 1 2 1 1 99 100
101 1 2 1 1 100 2
$EndElements
