$MeshFormat
2.2 0 8
$EndMeshFormat
$PhysicalNames
6
2 1 "Left"
2 6 "Right"
3 2 "Bulk1"
3 3 "Bulk2"
3 4 "Bulk3"
3 5 "Bulk4"
$EndPhysicalNames
$Nodes
656
1 0 0 0
2 5 0 0
3 0 5 0
4 5 5 0
5 0 0 20
6 5 0 20
7 5 5 20
8 0 5 20
9 0 0 40
10 5 0 40
11 5 5 40
12 0 5 40
13 0 0 60
14 5 0 60
15 5 5 60
16 0 5 60
17 0 0 80
18 5 0 80
19 5 5 80
20 0 5 80
21 1.666666666666667 0 0
22 3.333333333333333 0 0
23 1.666666666666667 5 0
24 3.333333333333333 5 0
25 0 1.666666666666667 0
26 0 3.333333333333333 0
27 5 1.666666666666667 0
28 5 3.333333333333333 0
29 1.666666666666667 0 20
30 3.333333333333333 0 20
31 5 1.666666666666667 20
32 5 3.333333333333333 20
33 3.333333333333333 5 20
34 1.666666666666667 5 20
35 0 3.333333333333333 20
36 0 1.666666666666667 20
37 0 0 2
38 0 0 4
39 0 0 6
40 0 0 8
41 0 0 10
42 0 0 12
43 0 0 14
44 0 0 16
45 0 0 18
46 5 0 2
47 5 0 4
48 5 0 6
49 5 0 8
50 5 0 10
51 5 0 12
52 5 0 14
53 5 0 16
54 5 0 18
55 5 5 2
56 5 5 4
57 5 5 6
58 5 5 8
59 5 5 10
60 5 5 12
61 5 5 14
62 5 5 16
63 5 5 18
64 0 5 2
65 0 5 4
66 0 5 6
67 0 5 8
68 0 5 10
69 0 5 12
70 0 5 14
71 0 5 16
72 0 5 18
73 1.666666666666667 0 40
74 3.333333333333333 0 40
75 5 1.666666666666667 40
76 5 3.333333333333333 40
77 3.333333333333333 5 40
78 1.666666666666667 5 40
79 0 3.333333333333333 40
80 0 1.666666666666667 40
81 0 0 22
82 0 0 24
83 0 0 26
84 0 0 28
85 0 0 30
86 0 0 32
87 0 0 34
88 0 0 36
89 0 0 38
90 5 0 22
91 5 0 24
92 5 0 26
93 5 0 28
94 5 0 30
95 5 0 32
96 5 0 34
97 5 0 36
98 5 0 38
99 5 5 22
100 5 5 24
101 5 5 26
102 5 5 28
103 5 5 30
104 5 5 32
105 5 5 34
106 5 5 36
107 5 5 38
108 0 5 22
109 0 5 24
110 0 5 26
111 0 5 28
112 0 5 30
113 0 5 32
114 0 5 34
115 0 5 36
116 0 5 38
117 1.666666666666667 0 60
118 3.333333333333333 0 60
119 5 1.666666666666667 60
120 5 3.333333333333333 60
121 3.333333333333333 5 60
122 1.666666666666667 5 60
123 0 3.333333333333333 60
124 0 1.666666666666667 60
125 0 0 42
126 0 0 44
127 0 0 46
128 0 0 48
129 0 0 50
130 0 0 52
131 0 0 54
132 0 0 56
133 0 0 58
134 5 0 42
135 5 0 44
136 5 0 46
137 5 0 48
138 5 0 50
139 5 0 52
140 5 0 54
141 5 0 56
142 5 0 58
143 5 5 42
144 5 5 44
145 5 5 46
146 5 5 48
147 5 5 50
148 5 5 52
149 5 5 54
150 5 5 56
151 5 5 58
152 0 5 42
153 0 5 44
154 0 5 46
155 0 5 48
156 0 5 50
157 0 5 52
158 0 5 54
159 0 5 56
160 0 5 58
161 1.666666666666667 0 80
162 3.333333333333333 0 80
163 5 1.666666666666667 80
164 5 3.333333333333333 80
165 3.333333333333333 5 80
166 1.666666666666667 5 80
167 0 3.333333333333333 80
168 0 1.666666666666667 80
169 0 0 62
170 0 0 64
171 0 0 66
172 0 0 68
173 0 0 70
174 0 0 72
175 0 0 74
176 0 0 76
177 0 0 78
178 5 0 62
179 5 0 64
180 5 0 66
181 5 0 68
182 5 0 70
183 5 0 72
184 5 0 74
185 5 0 76
186 5 0 78
187 5 5 62
188 5 5 64
189 5 5 66
190 5 5 68
191 5 5 70
192 5 5 72
193 5 5 74
194 5 5 76
195 5 5 78
196 0 5 62
197 0 5 64
198 0 5 66
199 0 5 68
200 0 5 70
201 0 5 72
202 0 5 74
203 0 5 76
204 0 5 78
205 1.666666666666667 1.666666666666667 0
206 1.666666666666667 3.333333333333333 0
207 3.333333333333333 1.666666666666667 0
208 3.333333333333333 3.333333333333333 0
209 1.666666666666667 0 2
210 1.666666666666667 0 4
211 1.666666666666667 0 6
212 1.666666666666667 0 8
213 1.666666666666667 0 10
214 1.666666666666667 0 12
215 1.666666666666667 0 14
216 1.666666666666667 0 16
217 1.666666666666667 0 18
218 3.333333333333333 0 2
219 3.333333333333333 0 4
220 3.333333333333333 0 6
221 3.333333333333333 0 8
222 3.333333333333333 0 10
223 3.333333333333333 0 12
224 3.333333333333333 0 14
225 3.333333333333333 0 16
226 3.333333333333333 0 18
227 5 1.666666666666667 2
228 5 1.666666666666667 4
229 5 1.666666666666667 6
230 5 1.666666666666667 8
231 5 1.666666666666667 10
232 5 1.666666666666667 12
233 5 1.666666666666667 14
234 5 1.666666666666667 16
235 5 1.666666666666667 18
236 5 3.333333333333333 2
237 5 3.333333333333333 4
238 5 3.333333333333333 6
239 5 3.333333333333333 8
240 5 3.333333333333333 10
241 5 3.333333333333333 12
242 5 3.333333333333333 14
243 5 3.333333333333333 16
244 5 3.333333333333333 18
245 1.666666666666667 5 2
246 1.666666666666667 5 4
247 1.666666666666667 5 6
248 1.666666666666667 5 8
249 1.666666666666667 5 10
250 1.666666666666667 5 12
251 1.666666666666667 5 14
252 1.666666666666667 5 16
253 1.666666666666667 5 18
254 3.333333333333333 5 2
255 3.333333333333333 5 4
256 3.333333333333333 5 6
257 3.333333333333333 5 8
258 3.333333333333333 5 10
259 3.333333333333333 5 12
260 3.333333333333333 5 14
261 3.333333333333333 5 16
262 3.333333333333333 5 18
263 0 1.666666666666667 2
264 0 1.666666666666667 4
265 0 1.666666666666667 6
266 0 1.666666666666667 8
267 0 1.666666666666667 10
268 0 1.666666666666667 12
269 0 1.666666666666667 14
270 0 1.666666666666667 16
271 0 1.666666666666667 18
272 0 3.333333333333333 2
273 0 3.333333333333333 4
274 0 3.333333333333333 6
275 0 3.333333333333333 8
276 0 3.333333333333333 10
277 0 3.333333333333333 12
278 0 3.333333333333333 14
279 0 3.333333333333333 16
280 0 3.333333333333333 18
281 1.666666666666667 1.666666666666667 20
282 1.666666666666667 3.333333333333333 20
283 3.333333333333333 1.666666666666667 20
284 3.333333333333333 3.333333333333333 20
285 1.666666666666667 0 22
286 1.666666666666667 0 24
287 1.666666666666667 0 26
288 1.666666666666667 0 28
289 1.666666666666667 0 30
290 1.666666666666667 0 32
291 1.666666666666667 0 34
292 1.666666666666667 0 36
293 1.666666666666667 0 38
294 3.333333333333333 0 22
295 3.333333333333333 0 24
296 3.333333333333333 0 26
297 3.333333333333333 0 28
298 3.333333333333333 0 30
299 3.333333333333333 0 32
300 3.333333333333333 0 34
301 3.333333333333333 0 36
302 3.333333333333333 0 38
303 5 1.666666666666667 22
304 5 1.666666666666667 24
305 5 1.666666666666667 26
306 5 1.666666666666667 28
307 5 1.666666666666667 30
308 5 1.666666666666667 32
309 5 1.666666666666667 34
310 5 1.666666666666667 36
311 5 1.666666666666667 38
312 5 3.333333333333333 22
313 5 3.333333333333333 24
314 5 3.333333333333333 26
315 5 3.333333333333333 28
316 5 3.333333333333333 30
317 5 3.333333333333333 32
318 5 3.333333333333333 34
319 5 3.333333333333333 36
320 5 3.333333333333333 38
321 3.333333333333333 5 22
322 3.333333333333333 5 24
323 3.333333333333333 5 26
324 3.333333333333333 5 28
325 3.333333333333333 5 30
326 3.333333333333333 5 32
327 3.333333333333333 5 34
328 3.333333333333333 5 36
329 3.333333333333333 5 38
330 1.666666666666667 5 22
331 1.666666666666667 5 24
332 1.666666666666667 5 26
333 1.666666666666667 5 28
334 1.666666666666667 5 30
335 1.666666666666667 5 32
336 1.666666666666667 5 34
337 1.666666666666667 5 36
338 1.666666666666667 5 38
339 0 3.333333333333333 22
340 0 3.333333333333333 24
341 0 3.333333333333333 26
342 0 3.333333333333333 28
343 0 3.333333333333333 30
344 0 3.333333333333333 32
345 0 3.333333333333333 34
346 0 3.333333333333333 36
347 0 3.333333333333333 38
348 0 1.666666666666667 22
349 0 1.666666666666667 24
350 0 1.666666666666667 26
351 0 1.666666666666667 28
352 0 1.666666666666667 30
353 0 1.666666666666667 32
354 0 1.666666666666667 34
355 0 1.666666666666667 36
356 0 1.666666666666667 38
357 1.666666666666667 1.666666666666667 40
358 1.666666666666667 3.333333333333333 40
359 3.333333333333333 1.666666666666667 40
360 3.333333333333333 3.333333333333333 40
361 1.666666666666667 0 42
362 1.666666666666667 0 44
363 1.666666666666667 0 46
364 1.666666666666667 0 48
365 1.666666666666667 0 50
366 1.666666666666667 0 52
367 1.666666666666667 0 54
368 1.666666666666667 0 56
369 1.666666666666667 0 58
370 3.333333333333333 0 42
371 3.333333333333333 0 44
372 3.333333333333333 0 46
373 3.333333333333333 0 48
374 3.333333333333333 0 50
375 3.333333333333333 0 52
376 3.333333333333333 0 54
377 3.333333333333333 0 56
378 3.333333333333333 0 58
379 5 1.666666666666667 42
380 5 1.666666666666667 44
381 5 1.666666666666667 46
382 5 1.666666666666667 48
383 5 1.666666666666667 50
384 5 1.666666666666667 52
385 5 1.666666666666667 54
386 5 1.666666666666667 56
387 5 1.666666666666667 58
388 5 3.333333333333333 42
389 5 3.333333333333333 44
390 5 3.333333333333333 46
391 5 3.333333333333333 48
392 5 3.333333333333333 50
393 5 3.333333333333333 52
394 5 3.333333333333333 54
395 5 3.333333333333333 56
396 5 3.333333333333333 58
397 3.333333333333333 5 42
398 3.333333333333333 5 44
399 3.333333333333333 5 46
400 3.333333333333333 5 48
401 3.333333333333333 5 50
402 3.333333333333333 5 52
403 3.333333333333333 5 54
404 3.333333333333333 5 56
405 3.333333333333333 5 58
406 1.666666666666667 5 42
407 1.666666666666667 5 44
408 1.666666666666667 5 46
409 1.666666666666667 5 48
410 1.666666666666667 5 50
411 1.666666666666667 5 52
412 1.666666666666667 5 54
413 1.666666666666667 5 56
414 1.666666666666667 5 58
415 0 3.333333333333333 42
416 0 3.333333333333333 44
417 0 3.333333333333333 46
418 0 3.333333333333333 48
419 0 3.333333333333333 50
420 0 3.333333333333333 52
421 0 3.333333333333333 54
422 0 3.333333333333333 56
423 0 3.333333333333333 58
424 0 1.666666666666667 42
425 0 1.666666666666667 44
426 0 1.666666666666667 46
427 0 1.666666666666667 48
428 0 1.666666666666667 50
429 0 1.666666666666667 52
430 0 1.666666666666667 54
431 0 1.666666666666667 56
432 0 1.666666666666667 58
433 1.666666666666667 1.666666666666667 60
434 1.666666666666667 3.333333333333333 60
435 3.333333333333333 1.666666666666667 60
436 3.333333333333333 3.333333333333333 60
437 1.666666666666667 0 62
438 1.666666666666667 0 64
439 1.666666666666667 0 66
440 1.666666666666667 0 68
441 1.666666666666667 0 70
442 1.666666666666667 0 72
443 1.666666666666667 0 74
444 1.666666666666667 0 76
445 1.666666666666667 0 78
446 3.333333333333333 0 62
447 3.333333333333333 0 64
448 3.333333333333333 0 66
449 3.333333333333333 0 68
450 3.333333333333333 0 70
451 3.333333333333333 0 72
452 3.333333333333333 0 74
453 3.333333333333333 0 76
454 3.333333333333333 0 78
455 5 1.666666666666667 62
456 5 1.666666666666667 64
457 5 1.666666666666667 66
458 5 1.666666666666667 68
459 5 1.666666666666667 70
460 5 1.666666666666667 72
461 5 1.666666666666667 74
462 5 1.666666666666667 76
463 5 1.666666666666667 78
464 5 3.333333333333333 62
465 5 3.333333333333333 64
466 5 3.333333333333333 66
467 5 3.333333333333333 68
468 5 3.333333333333333 70
469 5 3.333333333333333 72
470 5 3.333333333333333 74
471 5 3.333333333333333 76
472 5 3.333333333333333 78
473 3.333333333333333 5 62
474 3.333333333333333 5 64
475 3.333333333333333 5 66
476 3.333333333333333 5 68
477 3.333333333333333 5 70
478 3.333333333333333 5 72
479 3.333333333333333 5 74
480 3.333333333333333 5 76
481 3.333333333333333 5 78
482 1.666666666666667 5 62
483 1.666666666666667 5 64
484 1.666666666666667 5 66
485 1.666666666666667 5 68
486 1.666666666666667 5 70
487 1.666666666666667 5 72
488 1.666666666666667 5 74
489 1.666666666666667 5 76
490 1.666666666666667 5 78
491 0 3.333333333333333 62
492 0 3.333333333333333 64
493 0 3.333333333333333 66
494 0 3.333333333333333 68
495 0 3.333333333333333 70
496 0 3.333333333333333 72
497 0 3.333333333333333 74
498 0 3.333333333333333 76
499 0 3.333333333333333 78
500 0 1.666666666666667 62
501 0 1.666666666666667 64
502 0 1.666666666666667 66
503 0 1.666666666666667 68
504 0 1.666666666666667 70
505 0 1.666666666666667 72
506 0 1.666666666666667 74
507 0 1.666666666666667 76
508 0 1.666666666666667 78
509 1.666666666666667 1.666666666666667 80
510 1.666666666666667 3.333333333333333 80
511 3.333333333333333 1.666666666666667 80
512 3.333333333333333 3.333333333333333 80
513 1.666666666666667 1.666666666666667 2
514 1.666666666666667 1.666666666666667 4
515 1.666666666666667 1.666666666666667 6
516 1.666666666666667 1.666666666666667 8
517 1.666666666666667 1.666666666666667 10
518 1.666666666666667 1.666666666666667 12
519 1.666666666666667 1.666666666666667 14
520 1.666666666666667 1.666666666666667 16
521 1.666666666666667 1.666666666666667 18
522 1.666666666666667 3.333333333333333 2
523 1.666666666666667 3.333333333333333 4
524 1.666666666666667 3.333333333333333 6
525 1.666666666666667 3.333333333333333 8
526 1.666666666666667 3.333333333333333 10
527 1.666666666666667 3.333333333333333 12
528 1.666666666666667 3.333333333333333 14
529 1.666666666666667 3.333333333333333 16
530 1.666666666666667 3.333333333333333 18
531 3.333333333333333 1.666666666666667 2
532 3.333333333333333 1.666666666666667 4
533 3.333333333333333 1.666666666666667 6
534 3.333333333333333 1.666666666666667 8
535 3.333333333333333 1.666666666666667 10
536 3.333333333333333 1.666666666666667 12
537 3.333333333333333 1.666666666666667 14
538 3.333333333333333 1.666666666666667 16
539 3.333333333333333 1.666666666666667 18
540 3.333333333333333 3.333333333333333 2
541 3.333333333333333 3.333333333333333 4
542 3.333333333333333 3.333333333333333 6
543 3.333333333333333 3.333333333333333 8
544 3.333333333333333 3.333333333333333 10
545 3.333333333333333 3.333333333333333 12
546 3.333333333333333 3.333333333333333 14
547 3.333333333333333 3.333333333333333 16
548 3.333333333333333 3.333333333333333 18
549 1.666666666666667 1.666666666666667 22
550 1.666666666666667 1.666666666666667 24
551 1.666666666666667 1.666666666666667 26
552 1.666666666666667 1.666666666666667 28
553 1.666666666666667 1.666666666666667 30
554 1.666666666666667 1.666666666666667 32
555 1.666666666666667 1.666666666666667 34
556 1.666666666666667 1.666666666666667 36
557 1.666666666666667 1.666666666666667 38
558 1.666666666666667 3.333333333333333 22
559 1.666666666666667 3.333333333333333 24
560 1.666666666666667 3.333333333333333 26
561 1.666666666666667 3.333333333333333 28
562 1.666666666666667 3.333333333333333 30
563 1.666666666666667 3.333333333333333 32
564 1.666666666666667 3.333333333333333 34
565 1.666666666666667 3.333333333333333 36
566 1.666666666666667 3.333333333333333 38
567 3.333333333333333 1.666666666666667 22
568 3.333333333333333 1.666666666666667 24
569 3.333333333333333 1.666666666666667 26
570 3.333333333333333 1.666666666666667 28
571 3.333333333333333 1.666666666666667 30
572 3.333333333333333 1.666666666666667 32
573 3.333333333333333 1.666666666666667 34
574 3.333333333333333 1.666666666666667 36
575 3.333333333333333 1.666666666666667 38
576 3.333333333333333 3.333333333333333 22
577 3.333333333333333 3.333333333333333 24
578 3.333333333333333 3.333333333333333 26
579 3.333333333333333 3.333333333333333 28
580 3.333333333333333 3.333333333333333 30
581 3.333333333333333 3.333333333333333 32
582 3.333333333333333 3.333333333333333 34
583 3.333333333333333 3.333333333333333 36
584 3.333333333333333 3.333333333333333 38
585 1.666666666666667 1.666666666666667 42
586 1.666666666666667 1.666666666666667 44
587 1.666666666666667 1.666666666666667 46
588 1.666666666666667 1.666666666666667 48
589 1.666666666666667 1.666666666666667 50
590 1.666666666666667 1.666666666666667 52
591 1.666666666666667 1.666666666666667 54
592 1.666666666666667 1.666666666666667 56
593 1.666666666666667 1.666666666666667 58
594 1.666666666666667 3.333333333333333 42
595 1.666666666666667 3.333333333333333 44
596 1.666666666666667 3.333333333333333 46
597 1.666666666666667 3.333333333333333 48
598 1.666666666666667 3.333333333333333 50
599 1.666666666666667 3.333333333333333 52
600 1.666666666666667 3.333333333333333 54
601 1.666666666666667 3.333333333333333 56
602 1.666666666666667 3.333333333333333 58
603 3.333333333333333 1.666666666666667 42
604 3.333333333333333 1.666666666666667 44
605 3.333333333333333 1.666666666666667 46
606 3.333333333333333 1.666666666666667 48
607 3.333333333333333 1.666666666666667 50
608 3.333333333333333 1.666666666666667 52
609 3.333333333333333 1.666666666666667 54
610 3.333333333333333 1.666666666666667 56
611 3.333333333333333 1.666666666666667 58
612 3.333333333333333 3.333333333333333 42
613 3.333333333333333 3.333333333333333 44
614 3.333333333333333 3.333333333333333 46
615 3.333333333333333 3.333333333333333 48
616 3.333333333333333 3.333333333333333 50
617 3.333333333333333 3.333333333333333 52
618 3.333333333333333 3.333333333333333 54
619 3.333333333333333 3.333333333333333 56
620 3.333333333333333 3.333333333333333 58
621 1.666666666666667 1.666666666666667 62
622 1.666666666666667 1.666666666666667 64
623 1.666666666666667 1.666666666666667 66
624 1.666666666666667 1.666666666666667 68
625 1.666666666666667 1.666666666666667 70
626 1.666666666666667 1.666666666666667 72
627 1.666666666666667 1.666666666666667 74
628 1.666666666666667 1.666666666666667 76
629 1.666666666666667 1.666666666666667 78
630 1.666666666666667 3.333333333333333 62
631 1.666666666666667 3.333333333333333 64
632 1.666666666666667 3.333333333333333 66
633 1.666666666666667 3.333333333333333 68
634 1.666666666666667 3.333333333333333 70
635 1.666666666666667 3.333333333333333 72
636 1.666666666666667 3.333333333333333 74
637 1.666666666666667 3.333333333333333 76
638 1.666666666666667 3.333333333333333 78
639 3.333333333333333 1.666666666666667 62
640 3.333333333333333 1.666666666666667 64
641 3.333333333333333 1.666666666666667 66
642 3.333333333333333 1.666666666666667 68
643 3.333333333333333 1.666666666666667 70
644 3.333333333333333 1.666666666666667 72
645 3.333333333333333 1.666666666666667 74
646 3.333333333333333 1.666666666666667 76
647 3.333333333333333 1.666666666666667 78
648 3.333333333333333 3.333333333333333 62
649 3.333333333333333 3.333333333333333 64
650 3.333333333333333 3.333333333333333 66
651 3.333333333333333 3.333333333333333 68
652 3.333333333333333 3.333333333333333 70
653 3.333333333333333 3.333333333333333 72
654 3.333333333333333 3.333333333333333 74
655 3.333333333333333 3.333333333333333 76
656 3.333333333333333 3.333333333333333 78
$EndNodes
$Elements
378
1 3 2 1 5 1 21 205 25
2 3 2 1 5 25 205 206 26
3 3 2 1 5 26 206 23 3
4 3 2 1 5 21 22 207 205
5 3 2 1 5 205 207 208 206
6 3 2 1 5 206 208 24 23
7 3 2 1 5 22 2 27 207
8 3 2 1 5 207 27 28 208
9 3 2 1 5 208 28 4 24
10 3 2 6 93 17 161 509 168
11 3 2 6 93 168 509 510 167
12 3 2 6 93 167 510 166 20
13 3 2 6 93 161 162 511 509
14 3 2 6 93 509 511 512 510
15 3 2 6 93 510 512 165 166
16 3 2 6 93 162 18 163 511
17 3 2 6 93 511 163 164 512
18 3 2 6 93 512 164 19 165
19 5 2 2 1 1 21 205 25 37 209 513 263
20 5 2 2 1 37 209 513 263 38 210 514 264
21 5 2 2 1 38 210 514 264 39 211 515 265
22 5 2 2 1 39 211 515 265 40 212 516 266
23 5 2 2 1 40 212 516 266 41 213 517 267
24 5 2 2 1 41 213 517 267 42 214 518 268
25 5 2 2 1 42 214 518 268 43 215 519 269
26 5 2 2 1 43 215 519 269 44 216 520 270
27 5 2 2 1 44 216 520 270 45 217 521 271
28 5 2 2 1 45 217 521 271 5 29 281 36
29 5 2 2 1 25 205 206 26 263 513 522 272
30 5 2 2 1 263 513 522 272 264 514 523 273
31 5 2 2 1 264 514 523 273 265 515 524 274
32 5 2 2 1 265 515 524 274 266 516 525 275
33 5 2 2 1 266 516 525 275 267 517 526 276
34 5 2 2 1 267 517 526 276 268 518 527 277
35 5 2 2 1 268 518 527 277 269 519 528 278
36 5 2 2 1 269 519 528 278 270 520 529 279
37 5 2 2 1 270 520 529 279 271 521 530 280
38 5 2 2 1 271 521 530 280 36 281 282 35
39 5 2 2 1 26 206 23 3 272 522 245 64
40 5 2 2 1 272 522 245 64 273 523 246 65
41 5 2 2 1 273 523 246 65 274 524 247 66
42 5 2 2 1 274 524 247 66 275 525 248 67
43 5 2 2 1 275 525 248 67 276 526 249 68
44 5 2 2 1 276 526 249 68 277 527 250 69
45 5 2 2 1 277 527 250 69 278 528 251 70
46 5 2 2 1 278 528 251 70 279 529 252 71
47 5 2 2 1 279 529 252 71 280 530 253 72
48 5 2 2 1 280 530 253 72 35 282 34 8
49 5 2 2 1 21 22 207 205 209 218 531 513
50 5 2 2 1 209 218 531 513 210 219 532 514
51 5 2 2 1 210 219 532 514 211 220 533 515
52 5 2 2 1 211 220 533 515 212 221 534 516
53 5 2 2 1 212 221 534 516 213 222 535 517
54 5 2 2 1 213 222 535 517 214 223 536 518
55 5 2 2 1 214 223 536 518 215 224 537 519
56 5 2 2 1 215 224 537 519 216 225 538 520
57 5 2 2 1 216 225 538 520 217 226 539 521
58 5 2 2 1 217 226 539 521 29 30 283 281
59 5 2 2 1 205 207 208 206 513 531 540 522
60 5 2 2 1 513 531 540 522 514 532 541 523
61 5 2 2 1 514 532 541 523 515 533 542 524
62 5 2 2 1 515 533 542 524 516 534 543 525
63 5 2 2 1 516 534 543 525 517 535 544 526
64 5 2 2 1 517 535 544 526 518 536 545 527
65 5 2 2 1 518 536 545 527 519 537 546 528
66 5 2 2 1 519 537 546 528 520 538 547 529
67 5 2 2 1 520 538 547 529 521 539 548 530
68 5 2 2 1 521 539 548 530 281 283 284 282
69 5 2 2 1 206 208 24 23 522 540 254 245
70 5 2 2 1 522 540 254 245 523 541 255 246
71 5 2 2 1 523 541 255 246 524 542 256 247
72 5 2 2 1 524 542 256 247 525 543 257 248
73 5 2 2 1 525 543 257 248 526 544 258 249
74 5 2 2 1 526 544 258 249 527 545 259 250
75 5 2 2 1 527 545 259 250 528 546 260 251
76 5 2 2 1 528 546 260 251 529 547 261 252
77 5 2 2 1 529 547 261 252 530 548 262 253
78 5 2 2 1 530 548 262 253 282 284 33 34
79 5 2 2 1 22 2 27 207 218 46 227 531
80 5 2 2 1 218 46 227 531 219 47 228 532
81 5 2 2 1 219 47 228 532 220 48 229 533
82 5 2 2 1 220 48 229 533 221 49 230 534
83 5 2 2 1 221 49 230 534 222 50 231 535
84 5 2 2 1 222 50 231 535 223 51 232 536
85 5 2 2 1 223 51 232 536 224 52 233 537
86 5 2 2 1 224 52 233 537 225 53 234 538
87 5 2 2 1 225 53 234 538 226 54 235 539
88 5 2 2 1 226 54 235 539 30 6 31 283
89 5 2 2 1 207 27 28 208 531 227 236 540
90 5 2 2 1 531 227 236 540 532 228 237 541
91 5 2 2 1 532 228 237 541 533 229 238 542
92 5 2 2 1 533 229 238 542 534 230 239 543
93 5 2 2 1 534 230 239 543 535 231 240 544
94 5 2 2 1 535 231 240 544 536 232 241 545
95 5 2 2 1 536 232 241 545 537 233 242 546
96 5 2 2 1 537 233 242 546 538 234 243 547
97 5 2 2 1 538 234 243 547 539 235 244 548
98 5 2 2 1 539 235 244 548 283 31 32 284
99 5 2 2 1 208 28 4 24 540 236 55 254
100 5 2 2 1 540 236 55 254 541 237 56 255
101 5 2 2 1 541 237 56 255 542 238 57 256
102 5 2 2 1 542 238 57 256 543 239 58 257
103 5 2 2 1 543 239 58 257 544 240 59 258
104 5 2 2 1 544 240 59 258 545 241 60 259
105 5 2 2 1 545 241 60 259 546 242 61 260
106 5 2 2 1 546 242 61 260 547 243 62 261
107 5 2 2 1 547 243 62 261 548 244 63 262
108 5 2 2 1 548 244 63 262 284 32 7 33
109 5 2 3 2 5 29 281 36 81 285 549 348
110 5 2 3 2 81 285 549 348 82 286 550 349
111 5 2 3 2 82 286 550 349 83 287 551 350
112 5 2 3 2 83 287 551 350 84 288 552 351
113 5 2 3 2 84 288 552 351 85 289 553 352
114 5 2 3 2 85 289 553 352 86 290 554 353
115 5 2 3 2 86 290 554 353 87 291 555 354
116 5 2 3 2 87 291 555 354 88 292 556 355
117 5 2 3 2 88 292 556 355 89 293 557 356
118 5 2 3 2 89 293 557 356 9 73 357 80
119 5 2 3 2 36 281 282 35 348 549 558 339
120 5 2 3 2 348 549 558 339 349 550 559 340
121 5 2 3 2 349 550 559 340 350 551 560 341
122 5 2 3 2 350 551 560 341 351 552 561 342
123 5 2 3 2 351 552 561 342 352 553 562 343
124 5 2 3 2 352 553 562 343 353 554 563 344
125 5 2 3 2 353 554 563 344 354 555 564 345
126 5 2 3 2 354 555 564 345 355 556 565 346
127 5 2 3 2 355 556 565 346 356 557 566 347
128 5 2 3 2 356 557 566 347 80 357 358 79
129 5 2 3 2 35 282 34 8 339 558 330 108
130 5 2 3 2 339 558 330 108 340 559 331 109
131 5 2 3 2 340 559 331 109 341 560 332 110
132 5 2 3 2 341 560 332 110 342 561 333 111
133 5 2 3 2 342 561 333 111 343 562 334 112
134 5 2 3 2 343 562 334 112 344 563 335 113
135 5 2 3 2 344 563 335 113 345 564 336 114
136 5 2 3 2 345 564 336 114 346 565 337 115
137 5 2 3 2 346 565 337 115 347 566 338 116
138 5 2 3 2 347 566 338 116 79 358 78 12
139 5 2 3 2 29 30 283 281 285 294 567 549
140 5 2 3 2 285 294 567 549 286 295 568 550
141 5 2 3 2 286 295 568 550 287 296 569 551
142 5 2 3 2 287 296 569 551 288 297 570 552
143 5 2 3 2 288 297 570 552 289 298 571 553
144 5 2 3 2 289 298 571 553 290 299 572 554
145 5 2 3 2 290 299 572 554 291 300 573 555
146 5 2 3 2 291 300 573 555 292 301 574 556
147 5 2 3 2 292 301 574 556 293 302 575 557
148 5 2 3 2 293 302 575 557 73 74 359 357
149 5 2 3 2 281 283 284 282 549 567 576 558
150 5 2 3 2 549 567 576 558 550 568 577 559
151 5 2 3 2 550 568 577 559 551 569 578 560
152 5 2 3 2 551 569 578 560 552 570 579 561
153 5 2 3 2 552 570 579 561 553 571 580 562
154 5 2 3 2 553 571 580 562 554 572 581 563
155 5 2 3 2 554 572 581 563 555 573 582 564
156 5 2 3 2 555 573 582 564 556 574 583 565
157 5 2 3 2 556 574 583 565 557 575 584 566
158 5 2 3 2 557 575 584 566 357 359 360 358
159 5 2 3 2 282 284 33 34 558 576 321 330
160 5 2 3 2 558 576 321 330 559 577 322 331
161 5 2 3 2 559 577 322 331 560 578 323 332
162 5 2 3 2 560 578 323 332 561 579 324 333
163 5 2 3 2 561 579 324 333 562 580 325 334
164 5 2 3 2 562 580 325 334 563 581 326 335
165 5 2 3 2 563 581 326 335 564 582 327 336
166 5 2 3 2 564 582 327 336 565 583 328 337
167 5 2 3 2 565 583 328 337 566 584 329 338
168 5 2 3 2 566 584 329 338 358 360 77 78
169 5 2 3 2 30 6 31 283 294 90 303 567
170 5 2 3 2 294 90 303 567 295 91 304 568
171 5 2 3 2 295 91 304 568 296 92 305 569
172 5 2 3 2 296 92 305 569 297 93 306 570
173 5 2 3 2 297 93 306 570 298 94 307 571
174 5 2 3 2 298 94 307 571 299 95 308 572
175 5 2 3 2 299 95 308 572 300 96 309 573
176 5 2 3 2 300 96 309 573 301 97 310 574
177 5 2 3 2 301 97 310 574 302 98 311 575
178 5 2 3 2 302 98 311 575 74 10 75 359
179 5 2 3 2 283 31 32 284 567 303 312 576
180 5 2 3 2 567 303 312 576 568 304 313 577
181 5 2 3 2 568 304 313 577 569 305 314 578
182 5 2 3 2 569 305 314 578 570 306 315 579
183 5 2 3 2 570 306 315 579 571 307 316 580
184 5 2 3 2 571 307 316 580 572 308 317 581
185 5 2 3 2 572 308 317 581 573 309 318 582
186 5 2 3 2 573 309 318 582 574 310 319 583
187 5 2 3 2 574 310 319 583 575 311 320 584
188 5 2 3 2 575 311 320 584 359 75 76 360
189 5 2 3 2 284 32 7 33 576 312 99 321
190 5 2 3 2 576 312 99 321 577 313 100 322
191 5 2 3 2 577 313 100 322 578 314 101 323
192 5 2 3 2 578 314 101 323 579 315 102 324
193 5 2 3 2 579 315 102 324 580 316 103 325
194 5 2 3 2 580 316 103 325 581 317 104 326
195 5 2 3 2 581 317 104 326 582 318 105 327
196 5 2 3 2 582 318 105 327 583 319 106 328
197 5 2 3 2 583 319 106 328 584 320 107 329
198 5 2 3 2 584 320 107 329 360 76 11 77
199 5 2 4 3 9 73 357 80 125 361 585 424
200 5 2 4 3 125 361 585 424 126 362 586 425
201 5 2 4 3 126 362 586 425 127 363 587 426
202 5 2 4 3 127 363 587 426 128 364 588 427
203 5 2 4 3 128 364 588 427 129 365 589 428
204 5 2 4 3 129 365 589 428 130 366 590 429
205 5 2 4 3 130 366 590 429 131 367 591 430
206 5 2 4 3 131 367 591 430 132 368 592 431
207 5 2 4 3 132 368 592 431 133 369 593 432
208 5 2 4 3 133 369 593 432 13 117 433 124
209 5 2 4 3 80 357 358 79 424 585 594 415
210 5 2 4 3 424 585 594 415 425 586 595 416
211 5 2 4 3 425 586 595 416 426 587 596 417
212 5 2 4 3 426 587 596 417 427 588 597 418
213 5 2 4 3 427 588 597 418 428 589 598 419
214 5 2 4 3 428 589 598 419 429 590 599 420
215 5 2 4 3 429 590 599 420 430 591 600 421
216 5 2 4 3 430 591 600 421 431 592 601 422
217 5 2 4 3 431 592 601 422 432 593 602 423
218 5 2 4 3 432 593 602 423 124 433 434 123
219 5 2 4 3 79 358 78 12 415 594 406 152
220 5 2 4 3 415 594 406 152 416 595 407 153
221 5 2 4 3 416 595 407 153 417 596 408 154
222 5 2 4 3 417 596 408 154 418 597 409 155
223 5 2 4 3 418 597 409 155 419 598 410 156
224 5 2 4 3 419 598 410 156 420 599 411 157
225 5 2 4 3 420 599 411 157 421 600 412 158
226 5 2 4 3 421 600 412 158 422 601 413 159
227 5 2 4 3 422 601 413 159 423 602 414 160
228 5 2 4 3 423 602 414 160 123 434 122 16
229 5 2 4 3 73 74 359 357 361 370 603 585
230 5 2 4 3 361 370 603 585 362 371 604 586
231 5 2 4 3 362 371 604 586 363 372 605 587
232 5 2 4 3 363 372 605 587 364 373 606 588
233 5 2 4 3 364 373 606 588 365 374 607 589
234 5 2 4 3 365 374 607 589 366 375 608 590
235 5 2 4 3 366 375 608 590 367 376 609 591
236 5 2 4 3 367 376 609 591 368 377 610 592
237 5 2 4 3 368 377 610 592 369 378 611 593
238 5 2 4 3 369 378 611 593 117 118 435 433
239 5 2 4 3 357 359 360 358 585 603 612 594
240 5 2 4 3 585 603 612 594 586 604 613 595
241 5 2 4 3 586 604 613 595 587 605 614 596
242 5 2 4 3 587 605 614 596 588 606 615 597
243 5 2 4 3 588 606 615 597 589 607 616 598
244 5 2 4 3 589 607 616 598 590 608 617 599
245 5 2 4 3 590 608 617 599 591 609 618 600
246 5 2 4 3 591 609 618 600 592 610 619 601
247 5 2 4 3 592 610 619 601 593 611 620 602
248 5 2 4 3 593 611 620 602 433 435 436 434
249 5 2 4 3 358 360 77 78 594 612 397 406
250 5 2 4 3 594 612 397 406 595 613 398 407
251 5 2 4 3 595 613 398 407 596 614 399 408
252 5 2 4 3 596 614 399 408 597 615 400 409
253 5 2 4 3 597 615 400 409 598 616 401 410
254 5 2 4 3 598 616 401 410 599 617 402 411
255 5 2 4 3 599 617 402 411 600 618 403 412
256 5 2 4 3 600 618 403 412 601 619 404 413
257 5 2 4 3 601 619 404 413 602 620 405 414
258 5 2 4 3 602 620 405 414 434 436 121 122
259 5 2 4 3 74 10 75 359 370 134 379 603
260 5 2 4 3 370 134 379 603 371 135 380 604
261 5 2 4 3 371 135 380 604 372 136 381 605
262 5 2 4 3 372 136 381 605 373 137 382 606
263 5 2 4 3 373 137 382 606 374 138 383 607
264 5 2 4 3 374 138 383 607 375 139 384 608
265 5 2 4 3 375 139 384 608 376 140 385 609
266 5 2 4 3 376 140 385 609 377 141 386 610
267 5 2 4 3 377 141 386 610 378 142 387 611
268 5 2 4 3 378 142 387 611 118 14 119 435
269 5 2 4 3 359 75 76 360 603 379 388 612
270 5 2 4 3 603 379 388 612 604 380 389 613
271 5 2 4 3 604 380 389 613 605 381 390 614
272 5 2 4 3 605 381 390 614 606 382 391 615
273 5 2 4 3 606 382 391 615 607 383 392 616
274 5 2 4 3 607 383 392 616 608 384 393 617
275 5 2 4 3 608 384 393 617 609 385 394 618
276 5 2 4 3 609 385 394 618 610 386 395 619
277 5 2 4 3 610 386 395 619 611 387 396 620
278 5 2 4 3 611 387 396 620 435 119 120 436
279 5 2 4 3 360 76 11 77 612 388 143 397
280 5 2 4 3 612 388 143 397 613 389 144 398
281 5 2 4 3 613 389 144 398 614 390 145 399
282 5 2 4 3 614 390 145 399 615 391 146 400
283 5 2 4 3 615 391 146 400 616 392 147 401
284 5 2 4 3 616 392 147 401 617 393 148 402
285 5 2 4 3 617 393 148 402 618 394 149 403
286 5 2 4 3 618 394 149 403 619 395 150 404
287 5 2 4 3 619 395 150 404 620 396 151 405
288 5 2 4 3 620 396 151 405 436 120 15 121
289 5 2 5 4 13 117 433 124 169 437 621 500
290 5 2 5 4 169 437 621 500 170 438 622 501
291 5 2 5 4 170 438 622 501 171 439 623 502
292 5 2 5 4 171 439 623 502 172 440 624 503
293 5 2 5 4 172 440 624 503 173 441 625 504
294 5 2 5 4 173 441 625 504 174 442 626 505
295 5 2 5 4 174 442 626 505 175 443 627 506
296 5 2 5 4 175 443 627 506 176 444 628 507
297 5 2 5 4 176 444 628 507 177 445 629 508
298 5 2 5 4 177 445 629 508 17 161 509 168
299 5 2 5 4 124 433 434 123 500 621 630 491
300 5 2 5 4 500 621 630 491 501 622 631 492
301 5 2 5 4 501 622 631 492 502 623 632 493
302 5 2 5 4 502 623 632 493 503 624 633 494
303 5 2 5 4 503 624 633 494 504 625 634 495
304 5 2 5 4 504 625 634 495 505 626 635 496
305 5 2 5 4 505 626 635 496 506 627 636 497
306 5 2 5 4 506 627 636 497 507 628 637 498
307 5 2 5 4 507 628 637 498 508 629 638 499
308 5 2 5 4 508 629 638 499 168 509 510 167
309 5 2 5 4 123 434 122 16 491 630 482 196
310 5 2 5 4 491 630 482 196 492 631 483 197
311 5 2 5 4 492 631 483 197 493 632 484 198
312 5 2 5 4 493 632 484 198 494 633 485 199
313 5 2 5 4 494 633 485 199 495 634 486 200
314 5 2 5 4 495 634 486 200 496 635 487 201
315 5 2 5 4 496 635 487 201 497 636 488 202
316 5 2 5 4 497 636 488 202 498 637 489 203
317 5 2 5 4 498 637 489 203 499 638 490 204
318 5 2 5 4 499 638 490 204 167 510 166 20
319 5 2 5 4 117 118 435 433 437 446 639 621
320 5 2 5 4 437 446 639 621 438 447 640 622
321 5 2 5 4 438 447 640 622 439 448 641 623
322 5 2 5 4 439 448 641 623 440 449 642 624
323 5 2 5 4 440 449 642 624 441 450 643 625
324 5 2 5 4 441 450 643 625 442 451 644 626
325 5 2 5 4 442 451 644 626 443 452 645 627
326 5 2 5 4 443 452 645 627 444 453 646 628
327 5 2 5 4 444 453 646 628 445 454 647 629
328 5 2 5 4 445 454 647 629 161 162 511 509
329 5 2 5 4 433 435 436 434 621 639 648 630
330 5 2 5 4 621 639 648 630 622 640 649 631
331 5 2 5 4 622 640 649 631 623 641 650 632
332 5 2 5 4 623 641 650 632 624 642 651 633
333 5 2 5 4 624 642 651 633 625 643 652 634
334 5 2 5 4 625 643 652 634 626 644 653 635
335 5 2 5 4 626 644 653 635 627 645 654 636
336 5 2 5 4 627 645 654 636 628 646 655 637
337 5 2 5 4 628 646 655 637 629 647 656 638
338 5 2 5 4 629 647 656 638 509 511 512 510
339 5 2 5 4 434 436 121 122 630 648 473 482
340 5 2 5 4 630 648 473 482 631 649 474 483
341 5 2 5 4 631 649 474 483 632 650 475 484
342 5 2 5 4 632 650 475 484 633 651 476 485
343 5 2 5 4 633 651 476 485 634 652 477 486
344 5 2 5 4 634 652 477 486 635 653 478 487
345 5 2 5 4 635 653 478 487 636 654 479 488
346 5 2 5 4 636 654 479 488 637 655 480 489
347 5 2 5 4 637 655 480 489 638 656 481 490
348 5 2 5 4 638 656 481 490 510 512 165 166
349 5 2 5 4 118 14 119 435 446 178 455 639
350 5 2 5 4 446 178 455 639 447 179 456 640
351 5 2 5 4 447 179 456 640 448 180 457 641
352 5 2 5 4 448 180 457 641 449 181 458 642
353 5 2 5 4 449 181 458 642 450 182 459 643
354 5 2 5 4 450 182 459 643 451 183 460 644
355 5 2 5 4 451 183 460 644 452 184 461 645
356 5 2 5 4 452 184 461 645 453 185 462 646
357 5 2 5 4 453 185 462 646 454 186 463 647
358 5 2 5 4 454 186 463 647 162 18 163 511
359 5 2 5 4 435 119 120 436 639 455 464 648
360 5 2 5 4 639 455 464 648 640 456 465 649
361 5 2 5 4 640 456 465 649 641 457 466 650
362 5 2 5 4 641 457 466 650 642 458 467 651
363 5 2 5 4 642 458 467 651 643 459 468 652
364 5 2 5 4 643 459 468 652 644 460 469 653
365 5 2 5 4 644 460 469 653 645 461 470 654
366 5 2 5 4 645 461 470 654 646 462 471 655
367 5 2 5 4 646 462 471 655 647 463 472 656
368 5 2 5 4 647 463 472 656 511 163 164 512
369 5 2 5 4 436 120 15 121 648 464 187 473
370 5 2 5 4 648 464 187 473 649 465 188 474
371 5 2 5 4 649 465 188 474 650 466 189 475
372 5 2 5 4 650 466 189 475 651 467 190 476
373 5 2 5 4 651 467 190 476 652 468 191 477
374 5 2 5 4 652 468 191 477 653 469 192 478
375 5 2 5 4 653 469 192 478 654 470 193 479
376 5 2 5 4 654 470 193 479 655 471 194 480
377 5 2 5 4 655 471 194 480 656 472 195 481
378 5 2 5 4 656 472 195 481 512 164 19 165
$EndElements
