$MeshFormat
4.1 0 8
$EndMeshFormat
$PhysicalNames
1
1 1 "Air"
$EndPhysicalNames
$Entities
2 1 0 0
1 0 0 0 0 
2 1000 0 0 0 
1 0 0 0 1000 0 0 1 1 2 1 -2 
$EndEntities
$Nodes
3 1001 1 1001
0 1 0 1
1
0 0 0
0 2 0 1
2
1000 0 0
1 1 0 999
3
4
5
6
7
8
9
10
11
12
13
14
15
16
17
18
19
20
21
22
23
24
25
26
27
28
29
30
31
32
33
34
35
36
37
38
39
40
41
42
43
44
45
46
47
48
49
50
51
52
53
54
55
56
57
58
59
60
61
62
63
64
65
66
67
68
69
70
71
72
73
74
75
76
77
78
79
80
81
82
83
84
85
86
87
88
89
90
91
92
93
94
95
96
97
98
99
100
101
102
103
104
105
106
107
108
109
110
111
112
113
114
115
116
117
118
119
120
121
122
123
124
125
126
127
128
129
130
131
132
133
134
135
136
137
138
139
140
141
142
143
144
145
146
147
148
149
150
151
152
153
154
155
156
157
158
159
160
161
162
163
164
165
166
167
168
169
170
171
172
173
174
175
176
177
178
179
180
181
182
183
184
185
186
187
188
189
190
191
192
193
194
195
196
197
198
199
200
201
202
203
204
205
206
207
208
209
210
211
212
213
214
215
216
217
218
219
220
221
222
223
224
225
226
227
228
229
230
231
232
233
234
235
236
237
238
239
240
241
242
243
244
245
246
247
248
249
250
251
252
253
254
255
256
257
258
259
260
261
262
263
264
265
266
267
268
269
270
271
272
273
274
275
276
277
278
279
280
281
282
283
284
285
286
287
288
289
290
291
292
293
294
295
296
297
298
299
300
301
302
303
304
305
306
307
308
309
310
311
312
313
314
315
316
317
318
319
320
321
322
323
324
325
326
327
328
329
330
331
332
333
334
335
336
337
338
339
340
341
342
343
344
345
346
347
348
349
350
351
352
353
354
355
356
357
358
359
360
361
362
363
364
365
366
367
368
369
370
371
372
373
374
375
376
377
378
379
380
381
382
383
384
385
386
387
388
389
390
391
392
393
394
395
396
397
398
399
400
401
402
403
404
405
406
407
408
409
410
411
412
413
414
415
416
417
418
419
420
421
422
423
424
425
426
427
428
429
430
431
432
433
434
435
436
437
438
439
440
441
442
443
444
445
446
447
448
449
450
451
452
453
454
455
456
457
458
459
460
461
462
463
464
465
466
467
468
469
470
471
472
473
474
475
476
477
478
479
480
481
482
483
484
485
486
487
488
489
490
491
492
493
494
495
496
497
498
499
500
501
502
503
504
505
506
507
508
509
510
511
512
513
514
515
516
517
518
519
520
521
522
523
524
525
526
527
528
529
530
531
532
533
534
535
536
537
538
539
540
541
542
543
544
545
546
547
548
549
550
551
552
553
554
555
556
557
558
559
560
561
562
563
564
565
566
567
568
569
570
571
572
573
574
575
576
577
578
579
580
581
582
583
584
585
586
587
588
589
590
591
592
593
594
595
596
597
598
599
600
601
602
603
604
605
606
607
608
609
610
611
612
613
614
615
616
617
618
619
620
621
622
623
624
625
626
627
628
629
630
631
632
633
634
635
636
637
638
639
640
641
642
643
644
645
646
647
648
649
650
651
652
653
654
655
656
657
658
659
660
661
662
663
664
665
666
667
668
669
670
671
672
673
674
675
676
677
678
679
680
681
682
683
684
685
686
687
688
689
690
691
692
693
694
695
696
697
698
699
700
701
702
703
704
705
706
707
708
709
710
711
712
713
714
715
716
717
718
719
720
721
722
723
724
725
726
727
728
729
730
731
732
733
734
735
736
737
738
739
740
741
742
743
744
745
746
747
748
749
750
751
752
753
754
755
756
757
758
759
760
761
762
763
764
765
766
767
768
769
770
771
772
773
774
775
776
777
778
779
780
781
782
783
784
785
786
787
788
789
790
791
792
793
794
795
796
797
798
799
800
801
802
803
804
805
806
807
808
809
810
811
812
813
814
815
816
817
818
819
820
821
822
823
824
825
826
827
828
829
830
831
832
833
834
835
836
837
838
839
840
841
842
843
844
845
846
847
848
849
850
851
852
853
854
855
856
857
858
859
860
861
862
863
864
865
866
867
868
869
870
871
872
873
874
875
876
877
878
879
880
881
882
883
884
885
886
887
888
889
890
891
892
893
894
895
896
897
898
899
900
901
902
903
904
905
906
907
908
909
910
911
912
913
914
915
916
917
918
919
920
921
922
923
924
925
926
927
928
929
930
931
932
933
934
935
936
937
938
939
940
941
942
943
944
945
946
947
948
949
950
951
952
953
954
955
956
957
958
959
960
961
962
963
964
965
966
967
968
969
970
971
972
973
974
975
976
977
978
979
980
981
982
983
984
985
986
987
988
989
990
991
992
993
994
995
996
997
998
999
1000
1001
0.9999999999994631 0 0
1.999999999998926 0 0
2.99999999999839 0 0
3.999999999997852 0 0
4.999999999997316 0 0
5.999999999996779 0 0
6.999999999996242 0 0
7.999999999995708 0 0
8.999999999995183 0 0
9.999999999994655 0 0
10.99999999999413 0 0
11.9999999999936 0 0
12.99999999999308 0 0
13.99999999999255 0 0
14.99999999999202 0 0
15.99999999999153 0 0
16.9999999999911 0 0
17.99999999999066 0 0
18.99999999999022 0 0
19.99999999998978 0 0
20.99999999998935 0 0
21.99999999998891 0 0
22.99999999998847 0 0
23.99999999998804 0 0
24.9999999999876 0 0
25.99999999998716 0 0
26.99999999998672 0 0
27.99999999998629 0 0
28.99999999998585 0 0
29.99999999998541 0 0
30.99999999998498 0 0
31.99999999998427 0 0
32.99999999998347 0 0
33.99999999998268 0 0
34.9999999999819 0 0
35.99999999998109 0 0
36.9999999999803 0 0
37.99999999997952 0 0
38.99999999997872 0 0
39.99999999997768 0 0
40.99999999997662 0 0
41.99999999997556 0 0
42.99999999997451 0 0
43.99999999997345 0 0
44.99999999997239 0 0
45.99999999997133 0 0
46.99999999997027 0 0
47.99999999996921 0 0
48.99999999996815 0 0
49.9999999999671 0 0
50.99999999996604 0 0
51.99999999996498 0 0
52.99999999996393 0 0
53.99999999996285 0 0
54.99999999996185 0 0
55.99999999996097 0 0
56.99999999996009 0 0
57.99999999995921 0 0
58.99999999995833 0 0
59.99999999995745 0 0
60.99999999995657 0 0
61.99999999995569 0 0
62.99999999995516 0 0
63.99999999995499 0 0
64.99999999995481 0 0
65.99999999995465 0 0
66.99999999995448 0 0
67.99999999995431 0 0
68.99999999995414 0 0
69.99999999995396 0 0
70.99999999995417 0 0
71.99999999995453 0 0
72.99999999995489 0 0
73.99999999995525 0 0
74.99999999995562 0 0
75.99999999995597 0 0
76.99999999995634 0 0
77.9999999999567 0 0
78.99999999995707 0 0
79.99999999995742 0 0
80.99999999995779 0 0
81.99999999995815 0 0
82.99999999995852 0 0
83.99999999995887 0 0
84.99999999995924 0 0
85.9999999999596 0 0
86.99999999995995 0 0
87.99999999996032 0 0
88.99999999996068 0 0
89.99999999996105 0 0
90.9999999999614 0 0
91.99999999996177 0 0
92.99999999996213 0 0
93.9999999999625 0 0
94.99999999996285 0 0
95.99999999996322 0 0
96.99999999996358 0 0
97.99999999996395 0 0
98.9999999999643 0 0
99.99999999996467 0 0
100.999999999965 0 0
101.9999999999654 0 0
102.9999999999658 0 0
103.9999999999661 0 0
104.9999999999665 0 0
105.9999999999668 0 0
106.9999999999672 0 0
107.9999999999676 0 0
108.9999999999679 0 0
109.9999999999683 0 0
110.9999999999687 0 0
111.999999999969 0 0
112.9999999999694 0 0
113.9999999999697 0 0
114.9999999999701 0 0
115.9999999999705 0 0
116.9999999999708 0 0
117.9999999999709 0 0
118.9999999999709 0 0
119.9999999999709 0 0
120.9999999999709 0 0
121.9999999999709 0 0
122.9999999999709 0 0
123.9999999999709 0 0
124.999999999971 0 0
125.9999999999695 0 0
126.9999999999681 0 0
127.9999999999667 0 0
128.9999999999653 0 0
129.9999999999639 0 0
130.9999999999625 0 0
131.999999999961 0 0
132.9999999999594 0 0
133.999999999957 0 0
134.9999999999545 0 0
135.999999999952 0 0
136.9999999999495 0 0
137.999999999947 0 0
138.9999999999445 0 0
139.999999999942 0 0
140.9999999999396 0 0
141.9999999999371 0 0
142.9999999999347 0 0
143.9999999999322 0 0
144.9999999999297 0 0
145.9999999999272 0 0
146.9999999999247 0 0
147.9999999999222 0 0
148.9999999999198 0 0
149.9999999999173 0 0
150.9999999999148 0 0
151.9999999999123 0 0
152.9999999999098 0 0
153.9999999999074 0 0
154.9999999999049 0 0
155.9999999999024 0 0
156.9999999998999 0 0
157.9999999998975 0 0
158.999999999895 0 0
159.9999999998925 0 0
160.99999999989 0 0
161.9999999998875 0 0
162.999999999885 0 0
163.9999999998826 0 0
164.9999999998801 0 0
165.9999999998776 0 0
166.9999999998751 0 0
167.9999999998726 0 0
168.9999999998702 0 0
169.9999999998677 0 0
170.9999999998652 0 0
171.9999999998627 0 0
172.9999999998603 0 0
173.9999999998578 0 0
174.9999999998553 0 0
175.9999999998528 0 0
176.9999999998504 0 0
177.9999999998478 0 0
178.9999999998454 0 0
179.9999999998429 0 0
180.9999999998404 0 0
181.9999999998379 0 0
182.9999999998355 0 0
183.999999999833 0 0
184.9999999998305 0 0
185.999999999828 0 0
186.9999999998255 0 0
187.9999999998231 0 0
188.9999999998206 0 0
189.9999999998181 0 0
190.9999999998156 0 0
191.9999999998132 0 0
192.9999999998107 0 0
193.9999999998082 0 0
194.9999999998057 0 0
195.9999999998032 0 0
196.9999999998008 0 0
197.9999999997983 0 0
198.9999999997958 0 0
199.9999999997933 0 0
200.9999999997908 0 0
201.9999999997883 0 0
202.9999999997859 0 0
203.9999999997834 0 0
204.9999999997809 0 0
205.9999999997785 0 0
206.999999999776 0 0
207.9999999997735 0 0
208.999999999771 0 0
209.9999999997685 0 0
210.999999999766 0 0
211.9999999997636 0 0
212.9999999997611 0 0
213.9999999997586 0 0
214.9999999997561 0 0
215.9999999997536 0 0
216.9999999997512 0 0
217.9999999997487 0 0
218.9999999997462 0 0
219.9999999997437 0 0
220.9999999997412 0 0
221.9999999997388 0 0
222.9999999997363 0 0
223.9999999997338 0 0
224.9999999997313 0 0
225.9999999997289 0 0
226.9999999997264 0 0
227.9999999997239 0 0
228.9999999997214 0 0
229.999999999719 0 0
230.9999999997165 0 0
231.999999999714 0 0
232.9999999997115 0 0
233.999999999709 0 0
234.9999999997065 0 0
235.999999999704 0 0
236.9999999997016 0 0
237.9999999996991 0 0
238.9999999996966 0 0
239.9999999996942 0 0
240.9999999996917 0 0
241.9999999996892 0 0
242.9999999996867 0 0
243.9999999996842 0 0
244.9999999996818 0 0
245.9999999996793 0 0
246.9999999996768 0 0
247.9999999996743 0 0
248.9999999996718 0 0
249.9999999996694 0 0
250.9999999996683 0 0
251.9999999996673 0 0
252.9999999996662 0 0
253.9999999996652 0 0
254.9999999996641 0 0
255.999999999663 0 0
256.999999999662 0 0
257.9999999996612 0 0
258.9999999996616 0 0
259.9999999996619 0 0
260.9999999996622 0 0
261.9999999996626 0 0
262.999999999663 0 0
263.9999999996633 0 0
264.9999999996637 0 0
265.9999999996641 0 0
266.9999999996645 0 0
267.9999999996648 0 0
268.9999999996651 0 0
269.9999999996655 0 0
270.9999999996659 0 0
271.9999999996662 0 0
272.9999999996666 0 0
273.999999999667 0 0
274.9999999996674 0 0
275.9999999996677 0 0
276.999999999668 0 0
277.9999999996684 0 0
278.9999999996688 0 0
279.9999999996691 0 0
280.9999999996695 0 0
281.9999999996699 0 0
282.9999999996702 0 0
283.9999999996706 0 0
284.9999999996709 0 0
285.9999999996713 0 0
286.9999999996717 0 0
287.999999999672 0 0
288.9999999996724 0 0
289.9999999996728 0 0
290.9999999996731 0 0
291.9999999996735 0 0
292.9999999996738 0 0
293.9999999996742 0 0
294.9999999996746 0 0
295.9999999996749 0 0
296.9999999996753 0 0
297.9999999996757 0 0
298.999999999676 0 0
299.9999999996764 0 0
300.9999999996767 0 0
301.9999999996771 0 0
302.9999999996775 0 0
303.9999999996778 0 0
304.9999999996782 0 0
305.9999999996786 0 0
306.9999999996789 0 0
307.9999999996793 0 0
308.9999999996796 0 0
309.99999999968 0 0
310.9999999996804 0 0
311.9999999996807 0 0
312.9999999996811 0 0
313.9999999996814 0 0
314.9999999996818 0 0
315.9999999996822 0 0
316.9999999996825 0 0
317.9999999996829 0 0
318.9999999996833 0 0
319.9999999996836 0 0
320.999999999684 0 0
321.9999999996843 0 0
322.9999999996847 0 0
323.9999999996851 0 0
324.9999999996854 0 0
325.9999999996858 0 0
326.9999999996862 0 0
327.9999999996865 0 0
328.9999999996868 0 0
329.9999999996872 0 0
330.9999999996876 0 0
331.999999999688 0 0
332.9999999996883 0 0
333.9999999996887 0 0
334.9999999996891 0 0
335.9999999996894 0 0
336.9999999996897 0 0
337.9999999996901 0 0
338.9999999996905 0 0
339.9999999996909 0 0
340.9999999996912 0 0
341.9999999996916 0 0
342.999999999692 0 0
343.9999999996923 0 0
344.9999999996926 0 0
345.999999999693 0 0
346.9999999996934 0 0
347.9999999996937 0 0
348.9999999996941 0 0
349.9999999996945 0 0
350.9999999996949 0 0
351.9999999996952 0 0
352.9999999996955 0 0
353.9999999996959 0 0
354.9999999996963 0 0
355.9999999996966 0 0
356.999999999697 0 0
357.9999999996974 0 0
358.9999999996978 0 0
359.9999999996981 0 0
360.9999999996984 0 0
361.9999999996988 0 0
362.9999999996992 0 0
363.9999999996995 0 0
364.9999999996999 0 0
365.9999999997003 0 0
366.9999999997006 0 0
367.999999999701 0 0
368.9999999997013 0 0
369.9999999997017 0 0
370.9999999997021 0 0
371.9999999997024 0 0
372.9999999997028 0 0
373.9999999997032 0 0
374.9999999997035 0 0
375.9999999997039 0 0
376.9999999997042 0 0
377.9999999997046 0 0
378.999999999705 0 0
379.9999999997053 0 0
380.9999999997057 0 0
381.9999999997061 0 0
382.9999999997064 0 0
383.9999999997068 0 0
384.9999999997071 0 0
385.9999999997075 0 0
386.9999999997079 0 0
387.9999999997082 0 0
388.9999999997086 0 0
389.999999999709 0 0
390.9999999997093 0 0
391.9999999997097 0 0
392.99999999971 0 0
393.9999999997104 0 0
394.9999999997108 0 0
395.9999999997111 0 0
396.9999999997115 0 0
397.9999999997119 0 0
398.9999999997122 0 0
399.9999999997126 0 0
400.9999999997129 0 0
401.9999999997133 0 0
402.9999999997137 0 0
403.999999999714 0 0
404.9999999997144 0 0
405.9999999997148 0 0
406.9999999997151 0 0
407.9999999997155 0 0
408.9999999997158 0 0
409.9999999997162 0 0
410.9999999997166 0 0
411.9999999997169 0 0
412.9999999997173 0 0
413.9999999997177 0 0
414.999999999718 0 0
415.9999999997184 0 0
416.9999999997187 0 0
417.9999999997191 0 0
418.9999999997195 0 0
419.9999999997198 0 0
420.9999999997202 0 0
421.9999999997206 0 0
422.9999999997209 0 0
423.9999999997213 0 0
424.9999999997216 0 0
425.999999999722 0 0
426.9999999997224 0 0
427.9999999997227 0 0
428.9999999997231 0 0
429.9999999997235 0 0
430.9999999997238 0 0
431.9999999997241 0 0
432.9999999997245 0 0
433.9999999997249 0 0
434.9999999997253 0 0
435.9999999997256 0 0
436.999999999726 0 0
437.9999999997264 0 0
438.9999999997267 0 0
439.999999999727 0 0
440.9999999997274 0 0
441.9999999997278 0 0
442.9999999997282 0 0
443.9999999997285 0 0
444.9999999997289 0 0
445.9999999997293 0 0
446.9999999997296 0 0
447.9999999997299 0 0
448.9999999997303 0 0
449.9999999997307 0 0
450.999999999731 0 0
451.9999999997314 0 0
452.9999999997318 0 0
453.9999999997322 0 0
454.9999999997325 0 0
455.9999999997328 0 0
456.9999999997332 0 0
457.9999999997336 0 0
458.9999999997339 0 0
459.9999999997343 0 0
460.9999999997347 0 0
461.9999999997351 0 0
462.9999999997354 0 0
463.9999999997357 0 0
464.9999999997361 0 0
465.9999999997365 0 0
466.9999999997368 0 0
467.9999999997372 0 0
468.9999999997376 0 0
469.9999999997379 0 0
470.9999999997383 0 0
471.9999999997386 0 0
472.999999999739 0 0
473.9999999997394 0 0
474.9999999997397 0 0
475.9999999997401 0 0
476.9999999997405 0 0
477.9999999997408 0 0
478.9999999997412 0 0
479.9999999997415 0 0
480.9999999997419 0 0
481.9999999997423 0 0
482.9999999997426 0 0
483.999999999743 0 0
484.9999999997434 0 0
485.9999999997437 0 0
486.9999999997441 0 0
487.9999999997444 0 0
488.9999999997448 0 0
489.9999999997452 0 0
490.9999999997455 0 0
491.9999999997459 0 0
492.9999999997474 0 0
493.9999999997491 0 0
494.999999999751 0 0
495.9999999997527 0 0
496.9999999997546 0 0
497.9999999997563 0 0
498.9999999997581 0 0
499.9999999997599 0 0
500.9999999997645 0 0
501.9999999997691 0 0
502.9999999997738 0 0
503.9999999997784 0 0
504.999999999783 0 0
505.9999999997876 0 0
506.9999999997923 0 0
507.9999999997966 0 0
508.9999999997999 0 0
509.999999999803 0 0
510.9999999998063 0 0
511.9999999998094 0 0
512.9999999998128 0 0
513.9999999998158 0 0
514.999999999819 0 0
515.9999999998212 0 0
516.9999999998215 0 0
517.999999999822 0 0
518.9999999998224 0 0
519.9999999998228 0 0
520.9999999998231 0 0
521.9999999998233 0 0
522.9999999998238 0 0
523.9999999998241 0 0
524.9999999998245 0 0
525.9999999998248 0 0
526.9999999998253 0 0
527.9999999998256 0 0
528.9999999998261 0 0
529.9999999998264 0 0
530.9999999998267 0 0
531.9999999998271 0 0
532.9999999998274 0 0
533.999999999828 0 0
534.9999999998283 0 0
535.9999999998286 0 0
536.9999999998289 0 0
537.9999999998292 0 0
538.9999999998296 0 0
539.99999999983 0 0
540.9999999998305 0 0
541.9999999998308 0 0
542.9999999998312 0 0
543.9999999998315 0 0
544.999999999832 0 0
545.9999999998323 0 0
546.9999999998327 0 0
547.999999999833 0 0
548.9999999998334 0 0
549.9999999998338 0 0
550.9999999998341 0 0
551.9999999998345 0 0
552.9999999998348 0 0
553.9999999998352 0 0
554.9999999998355 0 0
555.9999999998361 0 0
556.9999999998364 0 0
557.9999999998367 0 0
558.9999999998371 0 0
559.9999999998374 0 0
560.9999999998379 0 0
561.9999999998382 0 0
562.9999999998386 0 0
563.999999999839 0 0
564.9999999998392 0 0
565.9999999998396 0 0
566.99999999984 0 0
567.9999999998404 0 0
568.9999999998407 0 0
569.9999999998411 0 0
570.9999999998415 0 0
571.999999999842 0 0
572.9999999998423 0 0
573.9999999998427 0 0
574.999999999843 0 0
575.9999999998433 0 0
576.9999999998437 0 0
577.9999999998441 0 0
578.9999999998445 0 0
579.9999999998448 0 0
580.9999999998452 0 0
581.9999999998455 0 0
582.999999999846 0 0
583.9999999998463 0 0
584.9999999998466 0 0
585.9999999998471 0 0
586.9999999998474 0 0
587.9999999998479 0 0
588.9999999998482 0 0
589.9999999998486 0 0
590.9999999998489 0 0
591.9999999998493 0 0
592.9999999998496 0 0
593.99999999985 0 0
594.9999999998504 0 0
595.9999999998507 0 0
596.9999999998511 0 0
597.9999999998514 0 0
598.9999999998519 0 0
599.9999999998522 0 0
600.9999999998527 0 0
601.999999999853 0 0
602.9999999998533 0 0
603.9999999998537 0 0
604.9999999998541 0 0
605.9999999998545 0 0
606.9999999998548 0 0
607.999999999855 0 0
608.9999999998555 0 0
609.999999999856 0 0
610.9999999998563 0 0
611.9999999998566 0 0
612.999999999857 0 0
613.9999999998573 0 0
614.9999999998578 0 0
615.9999999998582 0 0
616.9999999998586 0 0
617.9999999998589 0 0
618.9999999998593 0 0
619.9999999998596 0 0
620.9999999998601 0 0
621.9999999998603 0 0
622.9999999998606 0 0
623.9999999998611 0 0
624.9999999998614 0 0
625.9999999998619 0 0
626.9999999998622 0 0
627.9999999998626 0 0
628.9999999998629 0 0
629.9999999998632 0 0
630.9999999998637 0 0
631.9999999998641 0 0
632.9999999998645 0 0
633.9999999998648 0 0
634.9999999998652 0 0
635.9999999998654 0 0
636.9999999998658 0 0
637.9999999998662 0 0
638.9999999998666 0 0
639.999999999867 0 0
640.9999999998673 0 0
641.9999999998677 0 0
642.9999999998681 0 0
643.9999999998685 0 0
644.9999999998688 0 0
645.9999999998693 0 0
646.9999999998696 0 0
647.9999999998701 0 0
648.9999999998704 0 0
649.9999999998706 0 0
650.999999999871 0 0
651.9999999998713 0 0
652.9999999998719 0 0
653.9999999998722 0 0
654.9999999998726 0 0
655.9999999998729 0 0
656.9999999998732 0 0
657.9999999998736 0 0
658.999999999874 0 0
659.9999999998744 0 0
660.9999999998748 0 0
661.9999999998752 0 0
662.9999999998755 0 0
663.999999999876 0 0
664.9999999998762 0 0
665.9999999998765 0 0
666.9999999998769 0 0
667.9999999998773 0 0
668.9999999998777 0 0
669.9999999998781 0 0
670.9999999998785 0 0
671.9999999998788 0 0
672.9999999998792 0 0
673.9999999998795 0 0
674.9999999998799 0 0
675.9999999998804 0 0
676.9999999998807 0 0
677.9999999998811 0 0
678.9999999998813 0 0
679.9999999998818 0 0
680.9999999998821 0 0
681.9999999998824 0 0
682.9999999998829 0 0
683.9999999998832 0 0
684.9999999998836 0 0
685.999999999884 0 0
686.9999999998844 0 0
687.9999999998847 0 0
688.9999999998851 0 0
689.9999999998854 0 0
690.999999999886 0 0
691.9999999998863 0 0
692.9999999998865 0 0
693.9999999998869 0 0
694.9999999998872 0 0
695.9999999998876 0 0
696.999999999888 0 0
697.9999999998885 0 0
698.9999999998888 0 0
699.9999999998892 0 0
700.9999999998895 0 0
701.99999999989 0 0
702.9999999998903 0 0
703.9999999998906 0 0
704.999999999891 0 0
705.9999999998914 0 0
706.9999999998918 0 0
707.9999999998921 0 0
708.9999999998925 0 0
709.9999999998928 0 0
710.9999999998931 0 0
711.9999999998935 0 0
712.999999999894 0 0
713.9999999998944 0 0
714.9999999998947 0 0
715.9999999998951 0 0
716.9999999998954 0 0
717.9999999998959 0 0
718.9999999998962 0 0
719.9999999998965 0 0
720.999999999897 0 0
721.9999999998972 0 0
722.9999999998976 0 0
723.999999999898 0 0
724.9999999998984 0 0
725.9999999998987 0 0
726.999999999899 0 0
727.9999999998995 0 0
728.9999999999 0 0
729.9999999999003 0 0
730.9999999999006 0 0
731.999999999901 0 0
732.9999999999013 0 0
733.9999999999017 0 0
734.9999999999021 0 0
735.9999999999025 0 0
736.9999999999028 0 0
737.9999999999031 0 0
738.9999999999035 0 0
739.9999999999039 0 0
740.9999999999043 0 0
741.9999999999046 0 0
742.9999999999051 0 0
743.9999999999054 0 0
744.9999999999059 0 0
745.9999999999062 0 0
746.9999999999065 0 0
747.9999999999069 0 0
748.9999999999072 0 0
749.9999999999076 0 0
750.999999999908 0 0
751.9999999999084 0 0
752.9999999999087 0 0
753.9999999999091 0 0
754.9999999999094 0 0
755.9999999999098 0 0
756.9999999999102 0 0
757.9999999999106 0 0
758.999999999911 0 0
759.9999999999113 0 0
760.9999999999117 0 0
761.9999999999121 0 0
762.9999999999125 0 0
763.9999999999128 0 0
764.9999999999131 0 0
765.9999999999135 0 0
766.9999999999139 0 0
767.9999999999143 0 0
768.9999999999146 0 0
769.999999999915 0 0
770.9999999999153 0 0
771.9999999999156 0 0
772.9999999999162 0 0
773.9999999999166 0 0
774.9999999999169 0 0
775.9999999999172 0 0
776.9999999999176 0 0
777.999999999918 0 0
778.9999999999183 0 0
779.9999999999187 0 0
780.9999999999191 0 0
781.9999999999194 0 0
782.9999999999199 0 0
783.9999999999202 0 0
784.9999999999205 0 0
785.9999999999209 0 0
786.9999999999212 0 0
787.9999999999217 0 0
788.9999999999221 0 0
789.9999999999225 0 0
790.9999999999228 0 0
791.9999999999231 0 0
792.9999999999235 0 0
793.9999999999238 0 0
794.9999999999243 0 0
795.9999999999246 0 0
796.999999999925 0 0
797.9999999999253 0 0
798.9999999999256 0 0
799.9999999999261 0 0
800.9999999999264 0 0
801.9999999999268 0 0
802.9999999999272 0 0
803.9999999999276 0 0
804.999999999928 0 0
805.9999999999284 0 0
806.9999999999287 0 0
807.9999999999289 0 0
808.9999999999293 0 0
809.9999999999299 0 0
810.9999999999302 0 0
811.9999999999305 0 0
812.9999999999309 0 0
813.9999999999312 0 0
814.9999999999316 0 0
815.999999999932 0 0
816.9999999999324 0 0
817.9999999999328 0 0
818.9999999999332 0 0
819.9999999999335 0 0
820.9999999999339 0 0
821.9999999999342 0 0
822.9999999999345 0 0
823.9999999999349 0 0
824.9999999999353 0 0
825.9999999999357 0 0
826.9999999999361 0 0
827.9999999999364 0 0
828.9999999999368 0 0
829.9999999999371 0 0
830.9999999999375 0 0
831.9999999999379 0 0
832.9999999999384 0 0
833.9999999999387 0 0
834.9999999999391 0 0
835.9999999999393 0 0
836.9999999999396 0 0
837.9999999999401 0 0
838.9999999999404 0 0
839.9999999999409 0 0
840.9999999999412 0 0
841.9999999999416 0 0
842.999999999942 0 0
843.9999999999424 0 0
844.9999999999427 0 0
845.999999999943 0 0
846.9999999999434 0 0
847.999999999944 0 0
848.9999999999443 0 0
849.9999999999445 0 0
850.9999999999449 0 0
851.9999999999452 0 0
852.9999999999455 0 0
853.999999999946 0 0
854.9999999999465 0 0
855.9999999999468 0 0
856.9999999999471 0 0
857.9999999999475 0 0
858.9999999999479 0 0
859.9999999999483 0 0
860.9999999999486 0 0
861.9999999999491 0 0
862.9999999999494 0 0
863.9999999999498 0 0
864.9999999999501 0 0
865.9999999999504 0 0
866.9999999999508 0 0
867.9999999999511 0 0
868.9999999999515 0 0
869.999999999952 0 0
870.9999999999524 0 0
871.9999999999527 0 0
872.999999999953 0 0
873.9999999999534 0 0
874.9999999999537 0 0
875.9999999999542 0 0
876.9999999999546 0 0
877.999999999955 0 0
878.9999999999552 0 0
879.9999999999555 0 0
880.999999999956 0 0
881.9999999999563 0 0
882.9999999999567 0 0
883.999999999957 0 0
884.9999999999575 0 0
885.9999999999579 0 0
886.9999999999583 0 0
887.9999999999586 0 0
888.999999999959 0 0
889.9999999999593 0 0
890.9999999999596 0 0
891.9999999999602 0 0
892.9999999999604 0 0
893.9999999999608 0 0
894.9999999999611 0 0
895.9999999999615 0 0
896.9999999999619 0 0
897.9999999999623 0 0
898.9999999999626 0 0
899.9999999999631 0 0
900.9999999999634 0 0
901.9999999999637 0 0
902.9999999999642 0 0
903.9999999999645 0 0
904.9999999999649 0 0
905.9999999999652 0 0
906.9999999999657 0 0
907.999999999966 0 0
908.9999999999663 0 0
909.9999999999667 0 0
910.999999999967 0 0
911.9999999999674 0 0
912.9999999999678 0 0
913.9999999999682 0 0
914.9999999999686 0 0
915.999999999969 0 0
916.9999999999693 0 0
917.9999999999696 0 0
918.9999999999701 0 0
919.9999999999704 0 0
920.9999999999708 0 0
921.9999999999711 0 0
922.9999999999715 0 0
923.9999999999719 0 0
924.9999999999723 0 0
925.9999999999726 0 0
926.9999999999729 0 0
927.9999999999733 0 0
928.9999999999736 0 0
929.9999999999742 0 0
930.9999999999745 0 0
931.9999999999749 0 0
932.9999999999752 0 0
933.9999999999756 0 0
934.999999999976 0 0
935.9999999999762 0 0
936.9999999999767 0 0
937.999999999977 0 0
938.9999999999774 0 0
939.9999999999777 0 0
940.9999999999782 0 0
941.9999999999785 0 0
942.9999999999789 0 0
943.9999999999792 0 0
944.9999999999797 0 0
945.9999999999801 0 0
946.9999999999804 0 0
947.9999999999808 0 0
948.9999999999811 0 0
949.9999999999815 0 0
950.9999999999818 0 0
951.9999999999823 0 0
952.9999999999826 0 0
953.9999999999829 0 0
954.9999999999833 0 0
955.9999999999836 0 0
956.9999999999841 0 0
957.9999999999844 0 0
958.9999999999848 0 0
959.9999999999852 0 0
960.9999999999856 0 0
961.999999999986 0 0
962.9999999999864 0 0
963.9999999999867 0 0
964.9999999999869 0 0
965.9999999999873 0 0
966.9999999999877 0 0
967.9999999999882 0 0
968.9999999999885 0 0
969.9999999999889 0 0
970.9999999999892 0 0
971.9999999999895 0 0
972.99999999999 0 0
973.9999999999905 0 0
974.9999999999908 0 0
975.9999999999911 0 0
976.9999999999915 0 0
977.9999999999919 0 0
978.9999999999922 0 0
979.9999999999925 0 0
980.9999999999928 0 0
981.9999999999933 0 0
982.9999999999936 0 0
983.9999999999941 0 0
984.9999999999944 0 0
985.9999999999948 0 0
986.9999999999951 0 0
987.9999999999955 0 0
988.999999999996 0 0
989.9999999999964 0 0
990.9999999999967 0 0
991.999999999997 0 0
992.9999999999974 0 0
993.9999999999976 0 0
994.9999999999981 0 0
995.9999999999984 0 0
996.9999999999989 0 0
997.9999999999992 0 0
998.9999999999995 0 0
$EndNodes
$Elements
1 1000 1 1000
1 1 1 1000
1 1 3 
2 3 4 
3 4 5 
4 5 6 
5 6 7 
6 7 8 
7 8 9 
8 9 10 
9 10 11 
10 11 12 
11 12 13 
12 13 14 
13 14 15 
14 15 16 
15 16 17 
16 17 18 
17 18 19 
18 19 20 
19 20 21 
20 21 22 
21 22 23 
22 23 24 
23 24 25 
24 25 26 
25 26 27 
26 27 28 
27 28 29 
28 29 30 
29 30 31 
30 31 32 
31 32 33 
32 33 34 
33 34 35 
34 35 36 
35 36 37 
36 37 38 
37 38 39 
38 39 40 
39 40 41 
40 41 42 
41 42 43 
42 43 44 
43 44 45 
44 45 46 
45 46 47 
46 47 48 
47 48 49 
48 49 50 
49 50 51 
50 51 52 
51 52 53 
52 53 54 
53 54 55 
54 55 56 
55 56 57 
56 57 58 
57 58 59 
58 59 60 
59 60 61 
60 61 62 
61 62 63 
62 63 64 
63 64 65 
64 65 66 
65 66 67 
66 67 68 
67 68 69 
68 69 70 
69 70 71 
70 71 72 
71 72 73 
72 73 74 
73 74 75 
74 75 76 
75 76 77 
76 77 78 
77 78 79 
78 79 80 
79 80 81 
80 81 82 
81 82 83 
82 83 84 
83 84 85 
84 85 86 
85 86 87 
86 87 88 
87 88 89 
88 89 90 
89 90 91 
90 91 92 
91 92 93 
92 93 94 
93 94 95 
94 95 96 
95 96 97 
96 97 98 
97 98 99 
98 99 100 
99 100 101 
100 101 102 
101 102 103 
102 103 104 
103 104 105 
104 105 106 
105 106 107 
106 107 108 
107 108 109 
108 109 110 
109 110 111 
110 111 112 
111 112 113 
112 113 114 
113 114 115 
114 115 116 
115 116 117 
116 117 118 
117 118 119 
118 119 120 
119 120 121 
120 121 122 
121 122 123 
122 123 124 
123 124 125 
124 125 126 
125 126 127 
126 127 128 
127 128 129 
128 129 130 
129 130 131 
130 131 132 
131 132 133 
132 133 134 
133 134 135 
134 135 136 
135 136 137 
136 137 138 
137 138 139 
138 139 140 
139 140 141 
140 141 142 
141 142 143 
142 143 144 
143 144 145 
144 145 146 
145 146 147 
146 147 148 
147 148 149 
148 149 150 
149 150 151 
150 151 152 
151 152 153 
152 153 154 
153 154 155 
154 155 156 
155 156 157 
156 157 158 
157 158 159 
158 159 160 
159 160 161 
160 161 162 
161 162 163 
162 163 164 
163 164 165 
164 165 166 
165 166 167 
166 167 168 
167 168 169 
168 169 170 
169 170 171 
170 171 172 
171 172 173 
172 173 174 
173 174 175 
174 175 176 
175 176 177 
176 177 178 
177 178 179 
178 179 180 
179 180 181 
180 181 182 
181 182 183 
182 183 184 
183 184 185 
184 185 186 
185 186 187 
186 187 188 
187 188 189 
188 189 190 
189 190 191 
190 191 192 
191 192 193 
192 193 194 
193 194 195 
194 195 196 
195 196 197 
196 197 198 
197 198 199 
198 199 200 
199 200 201 
200 201 202 
201 202 203 
202 203 204 
203 204 205 
204 205 206 
205 206 207 
206 207 208 
207 208 209 
208 209 210 
209 210 211 
210 211 212 
211 212 213 
212 213 214 
213 214 215 
214 215 216 
215 216 217 
216 217 218 
217 218 219 
218 219 220 
219 220 221 
220 221 222 
221 222 223 
222 223 224 
223 224 225 
224 225 226 
225 226 227 
226 227 228 
227 228 229 
228 229 230 
229 230 231 
230 231 232 
231 232 233 
232 233 234 
233 234 235 
234 235 236 
235 236 237 
236 237 238 
237 238 239 
238 239 240 
239 240 241 
240 241 242 
241 242 243 
242 243 244 
243 244 245 
244 245 246 
245 246 247 
246 247 248 
247 248 249 
248 249 250 
249 250 251 
250 251 252 
251 252 253 
252 253 254 
253 254 255 
254 255 256 
255 256 257 
256 257 258 
257 258 259 
258 259 260 
259 260 261 
260 261 262 
261 262 263 
262 263 264 
263 264 265 
264 265 266 
265 266 267 
266 267 268 
267 268 269 
268 269 270 
269 270 271 
270 271 272 
271 272 273 
272 273 274 
273 274 275 
274 275 276 
275 276 277 
276 277 278 
277 278 279 
278 279 280 
279 280 281 
280 281 282 
281 282 283 
282 283 284 
283 284 285 
284 285 286 
285 286 287 
286 287 288 
287 288 289 
288 289 290 
289 290 291 
290 291 292 
291 292 293 
292 293 294 
293 294 295 
294 295 296 
295 296 297 
296 297 298 
297 298 299 
298 299 300 
299 300 301 
300 301 302 
301 302 303 
302 303 304 
303 304 305 
304 305 306 
305 306 307 
306 307 308 
307 308 309 
308 309 310 
309 310 311 
310 311 312 
311 312 313 
312 313 314 
313 314 315 
314 315 316 
315 316 317 
316 317 318 
317 318 319 
318 319 320 
319 320 321 
320 321 322 
321 322 323 
322 323 324 
323 324 325 
324 325 326 
325 326 327 
326 327 328 
327 328 329 
328 329 330 
329 330 331 
330 331 332 
331 332 333 
332 333 334 
333 334 335 
334 335 336 
335 336 337 
336 337 338 
337 338 339 
338 339 340 
339 340 341 
340 341 342 
341 342 343 
342 343 344 
343 344 345 
344 345 346 
345 346 347 
346 347 348 
347 348 349 
348 349 350 
349 350 351 
350 351 352 
351 352 353 
352 353 354 
353 354 355 
354 355 356 
355 356 357 
356 357 358 
357 358 359 
358 359 360 
359 360 361 
360 361 362 
361 362 363 
362 363 364 
363 364 365 
364 365 366 
365 366 367 
366 367 368 
367 368 369 
368 369 370 
369 370 371 
370 371 372 
371 372 373 
372 373 374 
373 374 375 
374 375 376 
375 376 377 
376 377 378 
377 378 379 
378 379 380 
379 380 381 
380 381 382 
381 382 383 
382 383 384 
383 384 385 
384 385 386 
385 386 387 
386 387 388 
387 388 389 
388 389 390 
389 390 391 
390 391 392 
391 392 393 
392 393 394 
393 394 395 
394 395 396 
395 396 397 
396 397 398 
397 398 399 
398 399 400 
399 400 401 
400 401 402 
401 402 403 
402 403 404 
403 404 405 
404 405 406 
405 406 407 
406 407 408 
407 408 409 
408 409 410 
409 410 411 
410 411 412 
411 412 413 
412 413 414 
413 414 415 
414 415 416 
415 416 417 
416 417 418 
417 418 419 
418 419 420 
419 420 421 
420 421 422 
421 422 423 
422 423 424 
423 424 425 
424 425 426 
425 426 427 
426 427 428 
427 428 429 
428 429 430 
429 430 431 
430 431 432 
431 432 433 
432 433 434 
433 434 435 
434 435 436 
435 436 437 
436 437 438 
437 438 439 
438 439 440 
439 440 441 
440 441 442 
441 442 443 
442 443 444 
443 444 445 
444 445 446 
445 446 447 
446 447 448 
447 448 449 
448 449 450 
449 450 451 
450 451 452 
451 452 453 
452 453 454 
453 454 455 
454 455 456 
455 456 457 
456 457 458 
457 458 459 
458 459 460 
459 460 461 
460 461 462 
461 462 463 
462 463 464 
463 464 465 
464 465 466 
465 466 467 
466 467 468 
467 468 469 
468 469 470 
469 470 471 
470 471 472 
471 472 473 
472 473 474 
473 474 475 
474 475 476 
475 476 477 
476 477 478 
477 478 479 
478 479 480 
479 480 481 
480 481 482 
481 482 483 
482 483 484 
483 484 485 
484 485 486 
485 486 487 
486 487 488 
487 488 489 
488 489 490 
489 490 491 
490 491 492 
491 492 493 
492 493 494 
493 494 495 
494 495 496 
495 496 497 
496 497 498 
497 498 499 
498 499 500 
499 500 501 
500 501 502 
501 502 503 
502 503 504 
503 504 505 
504 505 506 
505 506 507 
506 507 508 
507 508 509 
508 509 510 
509 510 511 
510 511 512 
511 512 513 
512 513 514 
513 514 515 
514 515 516 
515 516 517 
516 517 518 
517 518 519 
518 519 520 
519 520 521 
520 521 522 
521 522 523 
522 523 524 
523 524 525 
524 525 526 
525 526 527 
526 527 528 
527 528 529 
528 529 530 
529 530 531 
530 531 532 
531 532 533 
532 533 534 
533 534 535 
534 535 536 
535 536 537 
536 537 538 
537 538 539 
538 539 540 
539 540 541 
540 541 542 
541 542 543 
542 543 544 
543 544 545 
544 545 546 
545 546 547 
546 547 548 
547 548 549 
548 549 550 
549 550 551 
550 551 552 
551 552 553 
552 553 554 
553 554 555 
554 555 556 
555 556 557 
556 557 558 
557 558 559 
558 559 560 
559 560 561 
560 561 562 
561 562 563 
562 563 564 
563 564 565 
564 565 566 
565 566 567 
566 567 568 
567 568 569 
568 569 570 
569 570 571 
570 571 572 
571 572 573 
572 573 574 
573 574 575 
574 575 576 
575 576 577 
576 577 578 
577 578 579 
578 579 580 
579 580 581 
580 581 582 
581 582 583 
582 583 584 
583 584 585 
584 585 586 
585 586 587 
586 587 588 
587 588 589 
588 589 590 
589 590 591 
590 591 592 
591 592 593 
592 593 594 
593 594 595 
594 595 596 
595 596 597 
596 597 598 
597 598 599 
598 599 600 
599 600 601 
600 601 602 
601 602 603 
602 603 604 
603 604 605 
604 605 606 
605 606 607 
606 607 608 
607 608 609 
608 609 610 
609 610 611 
610 611 612 
611 612 613 
612 613 614 
613 614 615 
614 615 616 
615 616 617 
616 617 618 
617 618 619 
618 619 620 
619 620 621 
620 621 622 
621 622 623 
622 623 624 
623 624 625 
624 625 626 
625 626 627 
626 627 628 
627 628 629 
628 629 630 
629 630 631 
630 631 632 
631 632 633 
632 633 634 
633 634 635 
634 635 636 
635 636 637 
636 637 638 
637 638 639 
638 639 640 
639 640 641 
640 641 642 
641 642 643 
642 643 644 
643 644 645 
644 645 646 
645 646 647 
646 647 648 
647 648 649 
648 649 650 
649 650 651 
650 651 652 
651 652 653 
652 653 654 
653 654 655 
654 655 656 
655 656 657 
656 657 658 
657 658 659 
658 659 660 
659 660 661 
660 661 662 
661 662 663 
662 663 664 
663 664 665 
664 665 666 
665 666 667 
666 667 668 
667 668 669 
668 669 670 
669 670 671 
670 671 672 
671 672 673 
672 673 674 
673 674 675 
674 675 676 
675 676 677 
676 677 678 
677 678 679 
678 679 680 
679 680 681 
680 681 682 
681 682 683 
682 683 684 
683 684 685 
684 685 686 
685 686 687 
686 687 688 
687 688 689 
688 689 690 
689 690 691 
690 691 692 
691 692 693 
692 693 694 
693 694 695 
694 695 696 
695 696 697 
696 697 698 
697 698 699 
698 699 700 
699 700 701 
700 701 702 
701 702 703 
702 703 704 
703 704 705 
704 705 706 
705 706 707 
706 707 708 
707 708 709 
708 709 710 
709 710 711 
710 711 712 
711 712 713 
712 713 714 
713 714 715 
714 715 716 
715 716 717 
716 717 718 
717 718 719 
718 719 720 
719 720 721 
720 721 722 
721 722 723 
722 723 724 
723 724 725 
724 725 726 
725 726 727 
726 727 728 
727 728 729 
728 729 730 
729 730 731 
730 731 732 
731 732 733 
732 733 734 
733 734 735 
734 735 736 
735 736 737 
736 737 738 
737 738 739 
738 739 740 
739 740 741 
740 741 742 
741 742 743 
742 743 744 
743 744 745 
744 745 746 
745 746 747 
746 747 748 
747 748 749 
748 749 750 
749 750 751 
750 751 752 
751 752 753 
752 753 754 
753 754 755 
754 755 756 
755 756 757 
756 757 758 
757 758 759 
758 759 760 
759 760 761 
760 761 762 
761 762 763 
762 763 764 
763 764 765 
764 765 766 
765 766 767 
766 767 768 
767 768 769 
768 769 770 
769 770 771 
770 771 772 
771 772 773 
772 773 774 
773 774 775 
774 775 776 
775 776 777 
776 777 778 
777 778 779 
778 779 780 
779 780 781 
780 781 782 
781 782 783 
782 783 784 
783 784 785 
784 785 786 
785 786 787 
786 787 788 
787 788 789 
788 789 790 
789 790 791 
790 791 792 
791 792 793 
792 793 794 
793 794 795 
794 795 796 
795 796 797 
796 797 798 
797 798 799 
798 799 800 
799 800 801 
800 801 802 
801 802 803 
802 803 804 
803 804 805 
804 805 806 
805 806 807 
806 807 808 
807 808 809 
808 809 810 
809 810 811 
810 811 812 
811 812 813 
812 813 814 
813 814 815 
814 815 816 
815 816 817 
816 817 818 
817 818 819 
818 819 820 
819 820 821 
820 821 822 
821 822 823 
822 823 824 
823 824 825 
824 825 826 
825 826 827 
826 827 828 
827 828 829 
828 829 830 
829 830 831 
830 831 832 
831 832 833 
832 833 834 
833 834 835 
834 835 836 
835 836 837 
836 837 838 
837 838 839 
838 839 840 
839 840 841 
840 841 842 
841 842 843 
842 843 844 
843 844 845 
844 845 846 
845 846 847 
846 847 848 
847 848 849 
848 849 850 
849 850 851 
850 851 852 
851 852 853 
852 853 854 
853 854 855 
854 855 856 
855 856 857 
856 857 858 
857 858 859 
858 859 860 
859 860 861 
860 861 862 
861 862 863 
862 863 864 
863 864 865 
864 865 866 
865 866 867 
866 867 868 
867 868 869 
868 869 870 
869 870 871 
870 871 872 
871 872 873 
872 873 874 
873 874 875 
874 875 876 
875 876 877 
876 877 878 
877 878 879 
878 879 880 
879 880 881 
880 881 882 
881 882 883 
882 883 884 
883 884 885 
884 885 886 
885 886 887 
886 887 888 
887 888 889 
888 889 890 
889 890 891 
890 891 892 
891 892 893 
892 893 894 
893 894 895 
894 895 896 
895 896 897 
896 897 898 
897 898 899 
898 899 900 
899 900 901 
900 901 902 
901 902 903 
902 903 904 
903 904 905 
904 905 906 
905 906 907 
906 907 908 
907 908 909 
908 909 910 
909 910 911 
910 911 912 
911 912 913 
912 913 914 
913 914 915 
914 915 916 
915 916 917 
916 917 918 
917 918 919 
918 919 920 
919 920 921 
920 921 922 
921 922 923 
922 923 924 
923 924 925 
924 925 926 
925 926 927 
926 927 928 
927 928 929 
928 929 930 
929 930 931 
930 931 932 
931 932 933 
932 933 934 
933 934 935 
934 935 936 
935 936 937 
936 937 938 
937 938 939 
938 939 940 
939 940 941 
940 941 942 
941 942 943 
942 943 944 
943 944 945 
944 945 946 
945 946 947 
946 947 948 
947 948 949 
948 949 950 
949 950 951 
950 951 952 
951 952 953 
952 953 954 
953 954 955 
954 955 956 
955 956 957 
956 957 958 
957 958 959 
958 959 960 
959 960 961 
960 961 962 
961 962 963 
962 963 964 
963 964 965 
964 965 966 
965 966 967 
966 967 968 
967 968 969 
968 969 970 
969 970 971 
970 971 972 
971 972 973 
972 973 974 
973 974 975 
974 975 976 
975 976 977 
976 977 978 
977 978 979 
978 979 980 
979 980 981 
980 981 982 
981 982 983 
982 983 984 
983 984 985 
984 985 986 
985 986 987 
986 987 988 
987 988 989 
988 989 990 
989 990 991 
990 991 992 
991 992 993 
992 993 994 
993 994 995 
994 995 996 
995 996 997 
996 997 998 
997 998 999 
998 999 1000 
999 1000 1001 
1000 1001 2 
$EndElements
