$MeshFormat
4.1 0 8
$EndMeshFormat
$PhysicalNames
5
0 5 "dipole"
1 1 "AIR"
1 2 "Ag"
1 3 "GaN"
1 4 "Sapphire"
$EndPhysicalNames
$Entities
7 6 0 0
1 0 0 0 0 
2 100 0 0 0 
3 120 0 0 0 
4 370 0 0 0 
5 620 0 0 1 5 
6 1120 0 0 0 
7 1220 0 0 0 
1 0 0 0 100 0 0 1 1 2 1 -2 
2 100 0 0 120 0 0 1 2 2 2 -3 
3 120 0 0 370 0 0 1 3 2 3 -4 
4 370 0 0 620 0 0 1 3 2 4 -5 
5 620 0 0 1120 0 0 1 4 2 5 -6 
6 1120 0 0 1220 0 0 1 4 2 6 -7 
$EndEntities
$Nodes
13 1221 1 1221
0 1 0 1
1
0 0 0
0 2 0 1
2
100 0 0
0 3 0 1
3
120 0 0
0 4 0 1
4
370 0 0
0 5 0 1
5
620 0 0
0 6 0 1
6
1120 0 0
0 7 0 1
7
1220 0 0
1 1 0 99
8
9
10
11
12
13
14
15
16
17
18
19
20
21
22
23
24
25
26
27
28
29
30
31
32
33
34
35
36
37
38
39
40
41
42
43
44
45
46
47
48
49
50
51
52
53
54
55
56
57
58
59
60
61
62
63
64
65
66
67
68
69
70
71
72
73
74
75
76
77
78
79
80
81
82
83
84
85
86
87
88
89
90
91
92
93
94
95
96
97
98
99
100
101
102
103
104
105
106
0.9999999999960439 0 0
1.999999999992155 0 0
2.999999999988225 0 0
3.999999999984052 0 0
4.99999999997975 0 0
5.999999999975566 0 0
6.999999999971819 0 0
7.999999999968399 0 0
8.999999999964986 0 0
9.999999999961574 0 0
10.99999999995816 0 0
11.99999999995462 0 0
12.99999999995032 0 0
13.99999999994526 0 0
14.99999999994007 0 0
15.99999999993488 0 0
16.99999999992969 0 0
17.9999999999245 0 0
18.99999999991931 0 0
19.99999999991412 0 0
20.99999999990893 0 0
21.99999999990374 0 0
22.99999999989854 0 0
23.99999999989335 0 0
24.99999999988816 0 0
25.99999999988297 0 0
26.99999999987778 0 0
27.99999999987259 0 0
28.9999999998674 0 0
29.99999999986221 0 0
30.99999999985702 0 0
31.99999999985316 0 0
32.99999999985147 0 0
33.99999999984982 0 0
34.99999999984819 0 0
35.99999999984654 0 0
36.9999999998449 0 0
37.99999999984326 0 0
38.99999999984162 0 0
39.99999999983999 0 0
40.99999999983834 0 0
41.99999999983671 0 0
42.99999999983507 0 0
43.99999999983343 0 0
44.99999999983179 0 0
45.99999999983015 0 0
46.99999999982851 0 0
47.99999999982686 0 0
48.99999999982523 0 0
49.99999999982359 0 0
50.99999999982195 0 0
51.99999999982031 0 0
52.99999999981867 0 0
53.99999999981704 0 0
54.99999999981539 0 0
55.99999999981375 0 0
56.99999999981211 0 0
57.99999999981047 0 0
58.99999999980884 0 0
59.99999999980719 0 0
60.99999999980555 0 0
61.99999999980393 0 0
62.99999999980228 0 0
63.99999999980319 0 0
64.99999999980844 0 0
65.99999999981392 0 0
66.99999999981938 0 0
67.99999999982487 0 0
68.99999999983034 0 0
69.99999999983582 0 0
70.99999999984129 0 0
71.99999999984675 0 0
72.99999999985222 0 0
73.99999999985771 0 0
74.99999999986318 0 0
75.99999999986865 0 0
76.99999999987412 0 0
77.99999999987959 0 0
78.99999999988506 0 0
79.99999999989055 0 0
80.99999999989602 0 0
81.99999999990149 0 0
82.99999999990696 0 0
83.99999999991243 0 0
84.9999999999179 0 0
85.99999999992338 0 0
86.99999999992885 0 0
87.99999999993432 0 0
88.99999999993979 0 0
89.99999999994527 0 0
90.99999999995075 0 0
91.9999999999562 0 0
92.99999999996167 0 0
93.99999999996716 0 0
94.99999999997264 0 0
95.99999999997809 0 0
96.99999999998357 0 0
97.99999999998906 0 0
98.99999999999453 0 0
1 2 0 19
107
108
109
110
111
112
113
114
115
116
117
118
119
120
121
122
123
124
125
101 0 0
102 0 0
103 0 0
104 0 0
105 0 0
106 0 0
107 0 0
108 0 0
109 0 0
110 0 0
111 0 0
112 0 0
113 0 0
114 0 0
115 0 0
116 0 0
117 0 0
118 0 0
119 0 0
1 3 0 249
126
127
128
129
130
131
132
133
134
135
136
137
138
139
140
141
142
143
144
145
146
147
148
149
150
151
152
153
154
155
156
157
158
159
160
161
162
163
164
165
166
167
168
169
170
171
172
173
174
175
176
177
178
179
180
181
182
183
184
185
186
187
188
189
190
191
192
193
194
195
196
197
198
199
200
201
202
203
204
205
206
207
208
209
210
211
212
213
214
215
216
217
218
219
220
221
222
223
224
225
226
227
228
229
230
231
232
233
234
235
236
237
238
239
240
241
242
243
244
245
246
247
248
249
250
251
252
253
254
255
256
257
258
259
260
261
262
263
264
265
266
267
268
269
270
271
272
273
274
275
276
277
278
279
280
281
282
283
284
285
286
287
288
289
290
291
292
293
294
295
296
297
298
299
300
301
302
303
304
305
306
307
308
309
310
311
312
313
314
315
316
317
318
319
320
321
322
323
324
325
326
327
328
329
330
331
332
333
334
335
336
337
338
339
340
341
342
343
344
345
346
347
348
349
350
351
352
353
354
355
356
357
358
359
360
361
362
363
364
365
366
367
368
369
370
371
372
373
374
121 0 0
122 0 0
123 0 0
124 0 0
125 0 0
126 0 0
127 0 0
128 0 0
129 0 0
130 0 0
131 0 0
131.9999999999999 0 0
132.9999999999999 0 0
133.9999999999999 0 0
134.9999999999999 0 0
135.9999999999999 0 0
136.9999999999999 0 0
137.9999999999999 0 0
138.9999999999999 0 0
139.9999999999999 0 0
140.9999999999999 0 0
141.9999999999999 0 0
142.9999999999999 0 0
143.9999999999999 0 0
144.9999999999999 0 0
145.9999999999999 0 0
146.9999999999999 0 0
147.9999999999999 0 0
148.9999999999999 0 0
149.9999999999999 0 0
150.9999999999999 0 0
151.9999999999999 0 0
152.9999999999999 0 0
153.9999999999999 0 0
154.9999999999999 0 0
155.9999999999999 0 0
156.9999999999999 0 0
157.9999999999999 0 0
158.9999999999999 0 0
159.9999999999999 0 0
160.9999999999999 0 0
161.9999999999999 0 0
162.9999999999999 0 0
163.9999999999998 0 0
164.9999999999998 0 0
165.9999999999998 0 0
166.9999999999998 0 0
167.9999999999998 0 0
168.9999999999998 0 0
169.9999999999998 0 0
170.9999999999998 0 0
171.9999999999998 0 0
172.9999999999998 0 0
173.9999999999998 0 0
174.9999999999998 0 0
175.9999999999998 0 0
176.9999999999998 0 0
177.9999999999998 0 0
178.9999999999998 0 0
179.9999999999998 0 0
180.9999999999998 0 0
181.9999999999998 0 0
182.9999999999998 0 0
183.9999999999998 0 0
184.9999999999998 0 0
185.9999999999998 0 0
186.9999999999998 0 0
187.9999999999998 0 0
188.9999999999998 0 0
189.9999999999998 0 0
190.9999999999998 0 0
191.9999999999997 0 0
192.9999999999997 0 0
193.9999999999997 0 0
194.9999999999997 0 0
195.9999999999997 0 0
196.9999999999997 0 0
197.9999999999997 0 0
198.9999999999997 0 0
199.9999999999997 0 0
200.9999999999997 0 0
201.9999999999997 0 0
202.9999999999997 0 0
203.9999999999997 0 0
204.9999999999997 0 0
205.9999999999997 0 0
206.9999999999997 0 0
207.9999999999997 0 0
208.9999999999997 0 0
209.9999999999997 0 0
210.9999999999997 0 0
211.9999999999997 0 0
212.9999999999997 0 0
213.9999999999997 0 0
214.9999999999997 0 0
215.9999999999997 0 0
216.9999999999997 0 0
217.9999999999997 0 0
218.9999999999997 0 0
219.9999999999997 0 0
220.9999999999997 0 0
221.9999999999997 0 0
222.9999999999996 0 0
223.9999999999996 0 0
224.9999999999996 0 0
225.9999999999996 0 0
226.9999999999996 0 0
227.9999999999996 0 0
228.9999999999996 0 0
229.9999999999996 0 0
230.9999999999996 0 0
231.9999999999996 0 0
232.9999999999996 0 0
233.9999999999996 0 0
234.9999999999996 0 0
235.9999999999996 0 0
236.9999999999996 0 0
237.9999999999996 0 0
238.9999999999996 0 0
239.9999999999996 0 0
240.9999999999996 0 0
241.9999999999996 0 0
242.9999999999995 0 0
243.9999999999995 0 0
244.9999999999995 0 0
245.9999999999995 0 0
246.9999999999995 0 0
247.9999999999995 0 0
248.9999999999995 0 0
249.9999999999996 0 0
250.9999999999996 0 0
251.9999999999996 0 0
252.9999999999996 0 0
253.9999999999996 0 0
254.9999999999996 0 0
255.9999999999996 0 0
256.9999999999995 0 0
257.9999999999996 0 0
258.9999999999996 0 0
259.9999999999996 0 0
260.9999999999996 0 0
261.9999999999996 0 0
262.9999999999997 0 0
263.9999999999996 0 0
264.9999999999996 0 0
265.9999999999996 0 0
266.9999999999997 0 0
267.9999999999997 0 0
268.9999999999997 0 0
269.9999999999997 0 0
270.9999999999997 0 0
271.9999999999997 0 0
272.9999999999997 0 0
273.9999999999997 0 0
274.9999999999997 0 0
275.9999999999997 0 0
276.9999999999997 0 0
277.9999999999997 0 0
278.9999999999997 0 0
279.9999999999997 0 0
280.9999999999997 0 0
281.9999999999997 0 0
282.9999999999997 0 0
283.9999999999997 0 0
284.9999999999997 0 0
285.9999999999997 0 0
286.9999999999997 0 0
287.9999999999997 0 0
288.9999999999997 0 0
289.9999999999997 0 0
290.9999999999997 0 0
291.9999999999997 0 0
292.9999999999998 0 0
293.9999999999998 0 0
294.9999999999997 0 0
295.9999999999997 0 0
296.9999999999997 0 0
297.9999999999998 0 0
298.9999999999998 0 0
299.9999999999998 0 0
300.9999999999998 0 0
301.9999999999998 0 0
302.9999999999998 0 0
303.9999999999998 0 0
304.9999999999998 0 0
305.9999999999998 0 0
306.9999999999998 0 0
307.9999999999998 0 0
308.9999999999998 0 0
309.9999999999998 0 0
310.9999999999998 0 0
311.9999999999998 0 0
312.9999999999998 0 0
313.9999999999998 0 0
314.9999999999998 0 0
315.9999999999998 0 0
316.9999999999998 0 0
317.9999999999998 0 0
318.9999999999998 0 0
319.9999999999998 0 0
320.9999999999998 0 0
321.9999999999998 0 0
322.9999999999998 0 0
323.9999999999999 0 0
324.9999999999999 0 0
325.9999999999998 0 0
326.9999999999998 0 0
327.9999999999998 0 0
328.9999999999999 0 0
329.9999999999999 0 0
330.9999999999999 0 0
331.9999999999999 0 0
332.9999999999999 0 0
333.9999999999999 0 0
334.9999999999999 0 0
335.9999999999999 0 0
336.9999999999999 0 0
337.9999999999999 0 0
338.9999999999999 0 0
339.9999999999999 0 0
340.9999999999999 0 0
341.9999999999999 0 0
342.9999999999999 0 0
343.9999999999999 0 0
344.9999999999999 0 0
345.9999999999999 0 0
346.9999999999999 0 0
347.9999999999999 0 0
348.9999999999999 0 0
349.9999999999999 0 0
350.9999999999999 0 0
351.9999999999999 0 0
352.9999999999999 0 0
353.9999999999999 0 0
355 0 0
356 0 0
356.9999999999999 0 0
357.9999999999999 0 0
358.9999999999999 0 0
360 0 0
361 0 0
362 0 0
363 0 0
364 0 0
365 0 0
366 0 0
367 0 0
368 0 0
369 0 0
1 4 0 249
375
376
377
378
379
380
381
382
383
384
385
386
387
388
389
390
391
392
393
394
395
396
397
398
399
400
401
402
403
404
405
406
407
408
409
410
411
412
413
414
415
416
417
418
419
420
421
422
423
424
425
426
427
428
429
430
431
432
433
434
435
436
437
438
439
440
441
442
443
444
445
446
447
448
449
450
451
452
453
454
455
456
457
458
459
460
461
462
463
464
465
466
467
468
469
470
471
472
473
474
475
476
477
478
479
480
481
482
483
484
485
486
487
488
489
490
491
492
493
494
495
496
497
498
499
500
501
502
503
504
505
506
507
508
509
510
511
512
513
514
515
516
517
518
519
520
521
522
523
524
525
526
527
528
529
530
531
532
533
534
535
536
537
538
539
540
541
542
543
544
545
546
547
548
549
550
551
552
553
554
555
556
557
558
559
560
561
562
563
564
565
566
567
568
569
570
571
572
573
574
575
576
577
578
579
580
581
582
583
584
585
586
587
588
589
590
591
592
593
594
595
596
597
598
599
600
601
602
603
604
605
606
607
608
609
610
611
612
613
614
615
616
617
618
619
620
621
622
623
371.0000000000098 0 0
372.0000000000197 0 0
373.0000000000296 0 0
374.0000000000394 0 0
375.0000000000493 0 0
376.0000000000592 0 0
377.000000000069 0 0
378.0000000000788 0 0
379.0000000000887 0 0
380.0000000000986 0 0
381.0000000001085 0 0
382.0000000001183 0 0
383.0000000001282 0 0
384.000000000138 0 0
385.0000000001478 0 0
386.0000000001577 0 0
387.0000000001676 0 0
388.0000000001775 0 0
389.0000000001873 0 0
390.0000000001972 0 0
391.000000000207 0 0
392.0000000002169 0 0
393.0000000002267 0 0
394.0000000002366 0 0
395.0000000002465 0 0
396.0000000002563 0 0
397.0000000002662 0 0
398.000000000276 0 0
399.0000000002859 0 0
400.0000000002958 0 0
401.0000000003056 0 0
402.0000000003155 0 0
403.0000000003253 0 0
404.0000000003352 0 0
405.000000000345 0 0
406.0000000003549 0 0
407.0000000003648 0 0
408.0000000003746 0 0
409.0000000003845 0 0
410.0000000003943 0 0
411.0000000004042 0 0
412.000000000414 0 0
413.0000000004239 0 0
414.0000000004338 0 0
415.0000000004436 0 0
416.0000000004535 0 0
417.0000000004633 0 0
418.0000000004732 0 0
419.0000000004831 0 0
420.0000000004929 0 0
421.0000000005028 0 0
422.0000000005126 0 0
423.0000000005225 0 0
424.0000000005323 0 0
425.0000000005422 0 0
426.0000000005521 0 0
427.000000000562 0 0
428.0000000005718 0 0
429.0000000005816 0 0
430.0000000005915 0 0
431.0000000006013 0 0
432.0000000006112 0 0
433.0000000006211 0 0
434.000000000631 0 0
435.0000000006408 0 0
436.0000000006506 0 0
437.0000000006605 0 0
438.0000000006704 0 0
439.0000000006802 0 0
440.0000000006901 0 0
441.0000000007 0 0
442.0000000007098 0 0
443.0000000007196 0 0
444.0000000007295 0 0
445.0000000007394 0 0
446.0000000007493 0 0
447.0000000007591 0 0
448.000000000769 0 0
449.0000000007788 0 0
450.0000000007887 0 0
451.0000000007985 0 0
452.0000000008084 0 0
453.0000000008183 0 0
454.0000000008281 0 0
455.000000000838 0 0
456.0000000008478 0 0
457.0000000008577 0 0
458.0000000008675 0 0
459.0000000008774 0 0
460.0000000008873 0 0
461.0000000008971 0 0
462.000000000907 0 0
463.0000000009168 0 0
464.0000000009267 0 0
465.0000000009366 0 0
466.0000000009464 0 0
467.0000000009563 0 0
468.0000000009661 0 0
469.000000000976 0 0
470.0000000009858 0 0
471.0000000009957 0 0
472.0000000010056 0 0
473.0000000010155 0 0
474.0000000010253 0 0
475.0000000010351 0 0
476.000000001045 0 0
477.0000000010548 0 0
478.0000000010647 0 0
479.0000000010746 0 0
480.0000000010845 0 0
481.0000000010943 0 0
482.0000000011041 0 0
483.000000001114 0 0
484.0000000011239 0 0
485.0000000011337 0 0
486.0000000011436 0 0
487.0000000011535 0 0
488.0000000011633 0 0
489.0000000011731 0 0
490.000000001183 0 0
491.0000000011929 0 0
492.0000000012027 0 0
493.0000000012126 0 0
494.0000000012225 0 0
495.0000000012323 0 0
496.0000000012421 0 0
497.000000001252 0 0
498.0000000012619 0 0
499.0000000012718 0 0
500.0000000012816 0 0
501.0000000012915 0 0
502.0000000013013 0 0
503.0000000013112 0 0
504.0000000013211 0 0
505.0000000013309 0 0
506.0000000013408 0 0
507.0000000013507 0 0
508.0000000013606 0 0
509.0000000013704 0 0
510.0000000013803 0 0
511.0000000013858 0 0
512.0000000013844 0 0
513.0000000013781 0 0
514.0000000013652 0 0
515.0000000013523 0 0
516.0000000013395 0 0
517.0000000013265 0 0
518.0000000013137 0 0
519.0000000013008 0 0
520.0000000012878 0 0
521.000000001275 0 0
522.0000000012622 0 0
523.0000000012492 0 0
524.0000000012363 0 0
525.0000000012235 0 0
526.0000000012107 0 0
527.0000000011978 0 0
528.0000000011848 0 0
529.000000001172 0 0
530.0000000011592 0 0
531.0000000011462 0 0
532.0000000011333 0 0
533.0000000011205 0 0
534.0000000011075 0 0
535.0000000010947 0 0
536.0000000010818 0 0
537.000000001069 0 0
538.000000001056 0 0
539.0000000010432 0 0
540.0000000010303 0 0
541.0000000010175 0 0
542.0000000010045 0 0
543.0000000009917 0 0
544.0000000009788 0 0
545.0000000009659 0 0
546.000000000953 0 0
547.0000000009402 0 0
548.0000000009272 0 0
549.0000000009144 0 0
550.0000000009015 0 0
551.0000000008887 0 0
552.0000000008757 0 0
553.0000000008629 0 0
554.00000000085 0 0
555.0000000008372 0 0
556.0000000008242 0 0
557.0000000008114 0 0
558.0000000007985 0 0
559.0000000007856 0 0
560.0000000007727 0 0
561.0000000007599 0 0
562.0000000007469 0 0
563.0000000007341 0 0
564.0000000007212 0 0
565.0000000007084 0 0
566.0000000006954 0 0
567.0000000006826 0 0
568.0000000006697 0 0
569.0000000006569 0 0
570.0000000006439 0 0
571.0000000006311 0 0
572.0000000006182 0 0
573.0000000006053 0 0
574.0000000005924 0 0
575.0000000005796 0 0
576.0000000005666 0 0
577.0000000005538 0 0
578.0000000005409 0 0
579.0000000005281 0 0
580.0000000005151 0 0
581.0000000005023 0 0
582.0000000004894 0 0
583.0000000004766 0 0
584.0000000004636 0 0
585.0000000004508 0 0
586.0000000004379 0 0
587.000000000425 0 0
588.0000000004121 0 0
589.0000000003993 0 0
590.0000000003863 0 0
591.0000000003735 0 0
592.0000000003606 0 0
593.0000000003478 0 0
594.0000000003348 0 0
595.000000000322 0 0
596.0000000003091 0 0
597.0000000002963 0 0
598.0000000002833 0 0
599.0000000002705 0 0
600.0000000002576 0 0
601.0000000002447 0 0
602.0000000002318 0 0
603.000000000219 0 0
604.000000000206 0 0
605.0000000001932 0 0
606.0000000001803 0 0
607.0000000001675 0 0
608.0000000001546 0 0
609.0000000001417 0 0
610.0000000001288 0 0
611.000000000116 0 0
612.000000000103 0 0
613.0000000000902 0 0
614.0000000000773 0 0
615.0000000000643 0 0
616.0000000000515 0 0
617.0000000000387 0 0
618.0000000000257 0 0
619.0000000000128 0 0
1 5 0 499
624
625
626
627
628
629
630
631
632
633
634
635
636
637
638
639
640
641
642
643
644
645
646
647
648
649
650
651
652
653
654
655
656
657
658
659
660
661
662
663
664
665
666
667
668
669
670
671
672
673
674
675
676
677
678
679
680
681
682
683
684
685
686
687
688
689
690
691
692
693
694
695
696
697
698
699
700
701
702
703
704
705
706
707
708
709
710
711
712
713
714
715
716
717
718
719
720
721
722
723
724
725
726
727
728
729
730
731
732
733
734
735
736
737
738
739
740
741
742
743
744
745
746
747
748
749
750
751
752
753
754
755
756
757
758
759
760
761
762
763
764
765
766
767
768
769
770
771
772
773
774
775
776
777
778
779
780
781
782
783
784
785
786
787
788
789
790
791
792
793
794
795
796
797
798
799
800
801
802
803
804
805
806
807
808
809
810
811
812
813
814
815
816
817
818
819
820
821
822
823
824
825
826
827
828
829
830
831
832
833
834
835
836
837
838
839
840
841
842
843
844
845
846
847
848
849
850
851
852
853
854
855
856
857
858
859
860
861
862
863
864
865
866
867
868
869
870
871
872
873
874
875
876
877
878
879
880
881
882
883
884
885
886
887
888
889
890
891
892
893
894
895
896
897
898
899
900
901
902
903
904
905
906
907
908
909
910
911
912
913
914
915
916
917
918
919
920
921
922
923
924
925
926
927
928
929
930
931
932
933
934
935
936
937
938
939
940
941
942
943
944
945
946
947
948
949
950
951
952
953
954
955
956
957
958
959
960
961
962
963
964
965
966
967
968
969
970
971
972
973
974
975
976
977
978
979
980
981
982
983
984
985
986
987
988
989
990
991
992
993
994
995
996
997
998
999
1000
1001
1002
1003
1004
1005
1006
1007
1008
1009
1010
1011
1012
1013
1014
1015
1016
1017
1018
1019
1020
1021
1022
1023
1024
1025
1026
1027
1028
1029
1030
1031
1032
1033
1034
1035
1036
1037
1038
1039
1040
1041
1042
1043
1044
1045
1046
1047
1048
1049
1050
1051
1052
1053
1054
1055
1056
1057
1058
1059
1060
1061
1062
1063
1064
1065
1066
1067
1068
1069
1070
1071
1072
1073
1074
1075
1076
1077
1078
1079
1080
1081
1082
1083
1084
1085
1086
1087
1088
1089
1090
1091
1092
1093
1094
1095
1096
1097
1098
1099
1100
1101
1102
1103
1104
1105
1106
1107
1108
1109
1110
1111
1112
1113
1114
1115
1116
1117
1118
1119
1120
1121
1122
621.0000000000043 0 0
622.0000000000088 0 0
623.0000000000131 0 0
624.0000000000174 0 0
625.0000000000217 0 0
626.0000000000261 0 0
627.0000000000305 0 0
628.0000000000348 0 0
629.0000000000391 0 0
630.0000000000435 0 0
631.0000000000479 0 0
632.0000000000522 0 0
633.0000000000565 0 0
634.0000000000609 0 0
635.0000000000653 0 0
636.0000000000696 0 0
637.0000000000739 0 0
638.0000000000783 0 0
639.0000000000827 0 0
640.000000000087 0 0
641.0000000000914 0 0
642.0000000000957 0 0
643.0000000001 0 0
644.0000000001044 0 0
645.0000000001088 0 0
646.0000000001131 0 0
647.0000000001174 0 0
648.0000000001218 0 0
649.0000000001262 0 0
650.0000000001305 0 0
651.0000000001348 0 0
652.0000000001392 0 0
653.0000000001436 0 0
654.0000000001479 0 0
655.0000000001522 0 0
656.0000000001567 0 0
657.000000000161 0 0
658.0000000001653 0 0
659.0000000001696 0 0
660.0000000001741 0 0
661.0000000001784 0 0
662.0000000001827 0 0
663.000000000187 0 0
664.0000000001914 0 0
665.0000000001958 0 0
666.0000000002001 0 0
667.0000000002044 0 0
668.0000000002088 0 0
669.0000000002132 0 0
670.0000000002175 0 0
671.0000000002218 0 0
672.0000000002262 0 0
673.0000000002306 0 0
674.0000000002349 0 0
675.0000000002392 0 0
676.0000000002436 0 0
677.000000000248 0 0
678.0000000002523 0 0
679.0000000002567 0 0
680.000000000261 0 0
681.0000000002653 0 0
682.0000000002697 0 0
683.000000000274 0 0
684.0000000002784 0 0
685.0000000002827 0 0
686.0000000002871 0 0
687.0000000002915 0 0
688.0000000002958 0 0
689.0000000003001 0 0
690.0000000003045 0 0
691.0000000003089 0 0
692.0000000003132 0 0
693.0000000003175 0 0
694.000000000322 0 0
695.0000000003263 0 0
696.0000000003306 0 0
697.0000000003349 0 0
698.0000000003392 0 0
699.0000000003437 0 0
700.000000000348 0 0
701.0000000003523 0 0
702.0000000003567 0 0
703.0000000003611 0 0
704.0000000003654 0 0
705.0000000003697 0 0
706.0000000003741 0 0
707.0000000003785 0 0
708.0000000003828 0 0
709.0000000003871 0 0
710.0000000003915 0 0
711.0000000003959 0 0
712.0000000004002 0 0
713.0000000004045 0 0
714.0000000004089 0 0
715.0000000004133 0 0
716.0000000004176 0 0
717.000000000422 0 0
718.0000000004263 0 0
719.0000000004306 0 0
720.000000000435 0 0
721.0000000004393 0 0
722.0000000004437 0 0
723.000000000448 0 0
724.0000000004524 0 0
725.0000000004568 0 0
726.0000000004611 0 0
727.0000000004654 0 0
728.0000000004698 0 0
729.0000000004742 0 0
730.0000000004785 0 0
731.0000000004828 0 0
732.0000000004871 0 0
733.0000000004916 0 0
734.0000000004959 0 0
735.0000000005002 0 0
736.0000000005045 0 0
737.000000000509 0 0
738.0000000005133 0 0
739.0000000005176 0 0
740.000000000522 0 0
741.0000000005264 0 0
742.0000000005307 0 0
743.000000000535 0 0
744.0000000005394 0 0
745.0000000005438 0 0
746.0000000005481 0 0
747.0000000005524 0 0
748.0000000005568 0 0
749.0000000005612 0 0
750.0000000005655 0 0
751.0000000005698 0 0
752.0000000005742 0 0
753.0000000005786 0 0
754.0000000005829 0 0
755.0000000005873 0 0
756.0000000005916 0 0
757.0000000005959 0 0
758.0000000006003 0 0
759.0000000006047 0 0
760.000000000609 0 0
761.0000000006133 0 0
762.0000000006178 0 0
763.0000000006221 0 0
764.0000000006264 0 0
765.0000000006307 0 0
766.0000000006351 0 0
767.0000000006395 0 0
768.0000000006438 0 0
769.0000000006481 0 0
770.0000000006526 0 0
771.0000000006569 0 0
772.0000000006612 0 0
773.0000000006655 0 0
774.0000000006698 0 0
775.0000000006743 0 0
776.0000000006786 0 0
777.0000000006829 0 0
778.0000000006874 0 0
779.0000000006917 0 0
780.000000000696 0 0
781.0000000007003 0 0
782.0000000007047 0 0
783.0000000007091 0 0
784.0000000007134 0 0
785.0000000007178 0 0
786.0000000007221 0 0
787.0000000007265 0 0
788.0000000007308 0 0
789.0000000007351 0 0
790.0000000007395 0 0
791.0000000007439 0 0
792.0000000007482 0 0
793.0000000007526 0 0
794.0000000007569 0 0
795.0000000007612 0 0
796.0000000007656 0 0
797.0000000007699 0 0
798.0000000007743 0 0
799.0000000007786 0 0
800.000000000783 0 0
801.0000000007874 0 0
802.0000000007917 0 0
803.000000000796 0 0
804.0000000008004 0 0
805.0000000008048 0 0
806.0000000008091 0 0
807.0000000008134 0 0
808.0000000008179 0 0
809.0000000008222 0 0
810.0000000008265 0 0
811.0000000008308 0 0
812.0000000008351 0 0
813.0000000008396 0 0
814.0000000008439 0 0
815.0000000008482 0 0
816.0000000008527 0 0
817.000000000857 0 0
818.0000000008613 0 0
819.0000000008656 0 0
820.0000000008699 0 0
821.0000000008744 0 0
822.0000000008787 0 0
823.0000000008831 0 0
824.0000000008874 0 0
825.0000000008918 0 0
826.0000000008961 0 0
827.0000000009004 0 0
828.0000000009048 0 0
829.0000000009092 0 0
830.0000000009135 0 0
831.0000000009179 0 0
832.0000000009222 0 0
833.0000000009265 0 0
834.0000000009309 0 0
835.0000000009352 0 0
836.0000000009396 0 0
837.0000000009439 0 0
838.0000000009483 0 0
839.0000000009527 0 0
840.000000000957 0 0
841.0000000009613 0 0
842.0000000009657 0 0
843.00000000097 0 0
844.0000000009744 0 0
845.0000000009787 0 0
846.0000000009832 0 0
847.0000000009875 0 0
848.0000000009918 0 0
849.0000000009961 0 0
850.0000000010004 0 0
851.0000000010049 0 0
852.0000000010092 0 0
853.0000000010135 0 0
854.000000001018 0 0
855.0000000010223 0 0
856.0000000010266 0 0
857.0000000010309 0 0
858.0000000010352 0 0
859.0000000010397 0 0
860.000000001044 0 0
861.0000000010483 0 0
862.0000000010527 0 0
863.0000000010571 0 0
864.0000000010614 0 0
865.0000000010657 0 0
866.0000000010701 0 0
867.0000000010745 0 0
868.0000000010788 0 0
869.0000000010832 0 0
870.0000000010875 0 0
871.0000000010918 0 0
872.0000000010962 0 0
873.0000000011006 0 0
874.0000000011049 0 0
875.0000000011092 0 0
876.0000000011137 0 0
877.000000001118 0 0
878.0000000011223 0 0
879.0000000011266 0 0
880.0000000011311 0 0
881.0000000011355 0 0
882.0000000011398 0 0
883.0000000011441 0 0
884.0000000011485 0 0
885.0000000011528 0 0
886.0000000011571 0 0
887.0000000011615 0 0
888.0000000011659 0 0
889.0000000011703 0 0
890.0000000011746 0 0
891.0000000011789 0 0
892.0000000011833 0 0
893.0000000011877 0 0
894.000000001192 0 0
895.0000000011964 0 0
896.0000000012008 0 0
897.0000000012051 0 0
898.0000000012095 0 0
899.0000000012138 0 0
900.0000000012183 0 0
901.0000000012226 0 0
902.0000000012269 0 0
903.0000000012312 0 0
904.0000000012357 0 0
905.0000000012399 0 0
906.0000000012443 0 0
907.0000000012486 0 0
908.0000000012531 0 0
909.0000000012574 0 0
910.0000000012617 0 0
911.000000001266 0 0
912.0000000012705 0 0
913.0000000012748 0 0
914.0000000012792 0 0
915.0000000012835 0 0
916.0000000012878 0 0
917.0000000012922 0 0
918.0000000012966 0 0
919.000000001301 0 0
920.0000000013054 0 0
921.0000000013097 0 0
922.000000001314 0 0
923.0000000013184 0 0
924.0000000013227 0 0
925.0000000013272 0 0
926.0000000013315 0 0
927.0000000013358 0 0
928.0000000013401 0 0
929.0000000013445 0 0
930.0000000013488 0 0
931.0000000013533 0 0
932.0000000013576 0 0
933.000000001362 0 0
934.0000000013663 0 0
935.0000000013706 0 0
936.000000001375 0 0
937.0000000013795 0 0
938.0000000013838 0 0
939.0000000013881 0 0
940.0000000013924 0 0
941.0000000013968 0 0
942.0000000014013 0 0
943.0000000014056 0 0
944.0000000014099 0 0
945.0000000014143 0 0
946.0000000014186 0 0
947.0000000014229 0 0
948.0000000014273 0 0
949.0000000014317 0 0
950.0000000014361 0 0
951.0000000014404 0 0
952.0000000014447 0 0
953.0000000014491 0 0
954.0000000014535 0 0
955.0000000014578 0 0
956.0000000014622 0 0
957.0000000014666 0 0
958.0000000014709 0 0
959.0000000014752 0 0
960.0000000014796 0 0
961.000000001484 0 0
962.0000000014884 0 0
963.0000000014927 0 0
964.000000001497 0 0
965.0000000015015 0 0
966.0000000015058 0 0
967.0000000015101 0 0
968.0000000015144 0 0
969.0000000015189 0 0
970.0000000015232 0 0
971.0000000015275 0 0
972.0000000015318 0 0
973.0000000015363 0 0
974.0000000015406 0 0
975.000000001545 0 0
976.0000000015493 0 0
977.0000000015536 0 0
978.000000001558 0 0
979.0000000015624 0 0
980.0000000015667 0 0
981.0000000015712 0 0
982.0000000015755 0 0
983.0000000015798 0 0
984.0000000015842 0 0
985.0000000015885 0 0
986.000000001593 0 0
987.0000000015973 0 0
988.0000000016016 0 0
989.0000000016059 0 0
990.0000000016103 0 0
991.0000000016146 0 0
992.000000001619 0 0
993.0000000016234 0 0
994.0000000016278 0 0
995.0000000016321 0 0
996.0000000016364 0 0
997.0000000016407 0 0
998.0000000016452 0 0
999.0000000016496 0 0
1000.000000001654 0 0
1001.000000001658 0 0
1002.000000001663 0 0
1003.000000001667 0 0
1004.000000001671 0 0
1005.000000001676 0 0
1006.00000000168 0 0
1007.000000001684 0 0
1008.000000001689 0 0
1009.000000001693 0 0
1010.000000001697 0 0
1011.000000001702 0 0
1012.000000001706 0 0
1013.000000001711 0 0
1014.000000001715 0 0
1015.000000001719 0 0
1016.000000001724 0 0
1017.000000001728 0 0
1018.000000001732 0 0
1019.000000001737 0 0
1020.000000001741 0 0
1021.000000001745 0 0
1022.00000000175 0 0
1023.000000001747 0 0
1024.00000000174 0 0
1025.000000001733 0 0
1026.000000001726 0 0
1027.00000000171 0 0
1028.000000001692 0 0
1029.000000001673 0 0
1030.000000001655 0 0
1031.000000001636 0 0
1032.000000001618 0 0
1033.0000000016 0 0
1034.000000001581 0 0
1035.000000001563 0 0
1036.000000001545 0 0
1037.000000001526 0 0
1038.000000001508 0 0
1039.000000001489 0 0
1040.000000001471 0 0
1041.000000001452 0 0
1042.000000001434 0 0
1043.000000001416 0 0
1044.000000001397 0 0
1045.000000001379 0 0
1046.000000001361 0 0
1047.000000001342 0 0
1048.000000001324 0 0
1049.000000001306 0 0
1050.000000001287 0 0
1051.000000001269 0 0
1052.00000000125 0 0
1053.000000001232 0 0
1054.000000001213 0 0
1055.000000001195 0 0
1056.000000001177 0 0
1057.000000001158 0 0
1058.00000000114 0 0
1059.000000001122 0 0
1060.000000001103 0 0
1061.000000001085 0 0
1062.000000001066 0 0
1063.000000001048 0 0
1064.00000000103 0 0
1065.000000001011 0 0
1066.000000000993 0 0
1067.000000000975 0 0
1068.000000000956 0 0
1069.000000000938 0 0
1070.000000000919 0 0
1071.000000000901 0 0
1072.000000000883 0 0
1073.000000000864 0 0
1074.000000000846 0 0
1075.000000000827 0 0
1076.000000000809 0 0
1077.000000000791 0 0
1078.000000000772 0 0
1079.000000000754 0 0
1080.000000000736 0 0
1081.000000000717 0 0
1082.000000000699 0 0
1083.00000000068 0 0
1084.000000000662 0 0
1085.000000000643 0 0
1086.000000000625 0 0
1087.000000000607 0 0
1088.000000000588 0 0
1089.00000000057 0 0
1090.000000000552 0 0
1091.000000000533 0 0
1092.000000000515 0 0
1093.000000000497 0 0
1094.000000000478 0 0
1095.00000000046 0 0
1096.000000000441 0 0
1097.000000000423 0 0
1098.000000000404 0 0
1099.000000000386 0 0
1100.000000000368 0 0
1101.000000000349 0 0
1102.000000000331 0 0
1103.000000000313 0 0
1104.000000000294 0 0
1105.000000000276 0 0
1106.000000000257 0 0
1107.000000000239 0 0
1108.000000000221 0 0
1109.000000000202 0 0
1110.000000000184 0 0
1111.000000000166 0 0
1112.000000000147 0 0
1113.000000000129 0 0
1114.00000000011 0 0
1115.000000000092 0 0
1116.000000000074 0 0
1117.000000000055 0 0
1118.000000000037 0 0
1119.000000000018 0 0
1 6 0 99
1123
1124
1125
1126
1127
1128
1129
1130
1131
1132
1133
1134
1135
1136
1137
1138
1139
1140
1141
1142
1143
1144
1145
1146
1147
1148
1149
1150
1151
1152
1153
1154
1155
1156
1157
1158
1159
1160
1161
1162
1163
1164
1165
1166
1167
1168
1169
1170
1171
1172
1173
1174
1175
1176
1177
1178
1179
1180
1181
1182
1183
1184
1185
1186
1187
1188
1189
1190
1191
1192
1193
1194
1195
1196
1197
1198
1199
1200
1201
1202
1203
1204
1205
1206
1207
1208
1209
1210
1211
1212
1213
1214
1215
1216
1217
1218
1219
1220
1221
1121 0 0
1122 0 0
1123 0 0
1124 0 0
1125 0 0
1126 0 0
1127 0 0
1128 0 0
1129 0 0
1130 0 0
1131 0 0
1132 0 0
1133 0 0
1134 0 0
1135 0 0
1136 0 0
1137 0 0
1138 0 0
1139 0 0
1140 0 0
1141 0 0
1142 0 0
1143 0 0
1144 0 0
1145 0 0
1146 0 0
1147 0 0
1148 0 0
1149 0 0
1150 0 0
1151 0 0
1152 0 0
1153 0 0
1154 0 0
1155 0 0
1156 0 0
1157 0 0
1158 0 0
1159 0 0
1160 0 0
1161 0 0
1162 0 0
1163 0 0
1164 0 0
1165 0 0
1166 0 0
1167 0 0
1168 0 0
1169 0 0
1170 0 0
1171 0 0
1172 0 0
1173 0 0
1174 0 0
1175 0 0
1176 0 0
1177 0 0
1178 0 0
1179 0 0
1180 0 0
1181 0 0
1182 0 0
1183 0 0
1184 0 0
1185 0 0
1186 0 0
1187 0 0
1188 0 0
1189 0 0
1190 0 0
1191 0 0
1192 0 0
1193 0 0
1194 0 0
1195 0 0
1196 0 0
1197 0 0
1198 0 0
1199 0 0
1200 0 0
1201 0 0
1202 0 0
1203 0 0
1204 0 0
1205 0 0
1206 0 0
1207 0 0
1208 0 0
1209 0 0
1210 0 0
1211 0 0
1212 0 0
1213 0 0
1214 0 0
1215 0 0
1216 0 0
1217 0 0
1218 0 0
1219 0 0
$EndNodes
$Elements
7 1221 1 1221
0 5 15 1
1 5 
1 1 1 100
2 1 8 
3 8 9 
4 9 10 
5 10 11 
6 11 12 
7 12 13 
8 13 14 
9 14 15 
10 15 16 
11 16 17 
12 17 18 
13 18 19 
14 19 20 
15 20 21 
16 21 22 
17 22 23 
18 23 24 
19 24 25 
20 25 26 
21 26 27 
22 27 28 
23 28 29 
24 29 30 
25 30 31 
26 31 32 
27 32 33 
28 33 34 
29 34 35 
30 35 36 
31 36 37 
32 37 38 
33 38 39 
34 39 40 
35 40 41 
36 41 42 
37 42 43 
38 43 44 
39 44 45 
40 45 46 
41 46 47 
42 47 48 
43 48 49 
44 49 50 
45 50 51 
46 51 52 
47 52 53 
48 53 54 
49 54 55 
50 55 56 
51 56 57 
52 57 58 
53 58 59 
54 59 60 
55 60 61 
56 61 62 
57 62 63 
58 63 64 
59 64 65 
60 65 66 
61 66 67 
62 67 68 
63 68 69 
64 69 70 
65 70 71 
66 71 72 
67 72 73 
68 73 74 
69 74 75 
70 75 76 
71 76 77 
72 77 78 
73 78 79 
74 79 80 
75 80 81 
76 81 82 
77 82 83 
78 83 84 
79 84 85 
80 85 86 
81 86 87 
82 87 88 
83 88 89 
84 89 90 
85 90 91 
86 91 92 
87 92 93 
88 93 94 
89 94 95 
90 95 96 
91 96 97 
92 97 98 
93 98 99 
94 99 100 
95 100 101 
96 101 102 
97 102 103 
98 103 104 
99 104 105 
100 105 106 
101 106 2 
1 2 1 20
102 2 107 
103 107 108 
104 108 109 
105 109 110 
106 110 111 
107 111 112 
108 112 113 
109 113 114 
110 114 115 
111 115 116 
112 116 117 
113 117 118 
114 118 119 
115 119 120 
116 120 121 
117 121 122 
118 122 123 
119 123 124 
120 124 125 
121 125 3 
1 3 1 250
122 3 126 
123 126 127 
124 127 128 
125 128 129 
126 129 130 
127 130 131 
128 131 132 
129 132 133 
130 133 134 
131 134 135 
132 135 136 
133 136 137 
134 137 138 
135 138 139 
136 139 140 
137 140 141 
138 141 142 
139 142 143 
140 143 144 
141 144 145 
142 145 146 
143 146 147 
144 147 148 
145 148 149 
146 149 150 
147 150 151 
148 151 152 
149 152 153 
150 153 154 
151 154 155 
152 155 156 
153 156 157 
154 157 158 
155 158 159 
156 159 160 
157 160 161 
158 161 162 
159 162 163 
160 163 164 
161 164 165 
162 165 166 
163 166 167 
164 167 168 
165 168 169 
166 169 170 
167 170 171 
168 171 172 
169 172 173 
170 173 174 
171 174 175 
172 175 176 
173 176 177 
174 177 178 
175 178 179 
176 179 180 
177 180 181 
178 181 182 
179 182 183 
180 183 184 
181 184 185 
182 185 186 
183 186 187 
184 187 188 
185 188 189 
186 189 190 
187 190 191 
188 191 192 
189 192 193 
190 193 194 
191 194 195 
192 195 196 
193 196 197 
194 197 198 
195 198 199 
196 199 200 
197 200 201 
198 201 202 
199 202 203 
200 203 204 
201 204 205 
202 205 206 
203 206 207 
204 207 208 
205 208 209 
206 209 210 
207 210 211 
208 211 212 
209 212 213 
210 213 214 
211 214 215 
212 215 216 
213 216 217 
214 217 218 
215 218 219 
216 219 220 
217 220 221 
218 221 222 
219 222 223 
220 223 224 
221 224 225 
222 225 226 
223 226 227 
224 227 228 
225 228 229 
226 229 230 
227 230 231 
228 231 232 
229 232 233 
230 233 234 
231 234 235 
232 235 236 
233 236 237 
234 237 238 
235 238 239 
236 239 240 
237 240 241 
238 241 242 
239 242 243 
240 243 244 
241 244 245 
242 245 246 
243 246 247 
244 247 248 
245 248 249 
246 249 250 
247 250 251 
248 251 252 
249 252 253 
250 253 254 
251 254 255 
252 255 256 
253 256 257 
254 257 258 
255 258 259 
256 259 260 
257 260 261 
258 261 262 
259 262 263 
260 263 264 
261 264 265 
262 265 266 
263 266 267 
264 267 268 
265 268 269 
266 269 270 
267 270 271 
268 271 272 
269 272 273 
270 273 274 
271 274 275 
272 275 276 
273 276 277 
274 277 278 
275 278 279 
276 279 280 
277 280 281 
278 281 282 
279 282 283 
280 283 284 
281 284 285 
282 285 286 
283 286 287 
284 287 288 
285 288 289 
286 289 290 
287 290 291 
288 291 292 
289 292 293 
290 293 294 
291 294 295 
292 295 296 
293 296 297 
294 297 298 
295 298 299 
296 299 300 
297 300 301 
298 301 302 
299 302 303 
300 303 304 
301 304 305 
302 305 306 
303 306 307 
304 307 308 
305 308 309 
306 309 310 
307 310 311 
308 311 312 
309 312 313 
310 313 314 
311 314 315 
312 315 316 
313 316 317 
314 317 318 
315 318 319 
316 319 320 
317 320 321 
318 321 322 
319 322 323 
320 323 324 
321 324 325 
322 325 326 
323 326 327 
324 327 328 
325 328 329 
326 329 330 
327 330 331 
328 331 332 
329 332 333 
330 333 334 
331 334 335 
332 335 336 
333 336 337 
334 337 338 
335 338 339 
336 339 340 
337 340 341 
338 341 342 
339 342 343 
340 343 344 
341 344 345 
342 345 346 
343 346 347 
344 347 348 
345 348 349 
346 349 350 
347 350 351 
348 351 352 
349 352 353 
350 353 354 
351 354 355 
352 355 356 
353 356 357 
354 357 358 
355 358 359 
356 359 360 
357 360 361 
358 361 362 
359 362 363 
360 363 364 
361 364 365 
362 365 366 
363 366 367 
364 367 368 
365 368 369 
366 369 370 
367 370 371 
368 371 372 
369 372 373 
370 373 374 
371 374 4 
1 4 1 250
372 4 375 
373 375 376 
374 376 377 
375 377 378 
376 378 379 
377 379 380 
378 380 381 
379 381 382 
380 382 383 
381 383 384 
382 384 385 
383 385 386 
384 386 387 
385 387 388 
386 388 389 
387 389 390 
388 390 391 
389 391 392 
390 392 393 
391 393 394 
392 394 395 
393 395 396 
394 396 397 
395 397 398 
396 398 399 
397 399 400 
398 400 401 
399 401 402 
400 402 403 
401 403 404 
402 404 405 
403 405 406 
404 406 407 
405 407 408 
406 408 409 
407 409 410 
408 410 411 
409 411 412 
410 412 413 
411 413 414 
412 414 415 
413 415 416 
414 416 417 
415 417 418 
416 418 419 
417 419 420 
418 420 421 
419 421 422 
420 422 423 
421 423 424 
422 424 425 
423 425 426 
424 426 427 
425 427 428 
426 428 429 
427 429 430 
428 430 431 
429 431 432 
430 432 433 
431 433 434 
432 434 435 
433 435 436 
434 436 437 
435 437 438 
436 438 439 
437 439 440 
438 440 441 
439 441 442 
440 442 443 
441 443 444 
442 444 445 
443 445 446 
444 446 447 
445 447 448 
446 448 449 
447 449 450 
448 450 451 
449 451 452 
450 452 453 
451 453 454 
452 454 455 
453 455 456 
454 456 457 
455 457 458 
456 458 459 
457 459 460 
458 460 461 
459 461 462 
460 462 463 
461 463 464 
462 464 465 
463 465 466 
464 466 467 
465 467 468 
466 468 469 
467 469 470 
468 470 471 
469 471 472 
470 472 473 
471 473 474 
472 474 475 
473 475 476 
474 476 477 
475 477 478 
476 478 479 
477 479 480 
478 480 481 
479 481 482 
480 482 483 
481 483 484 
482 484 485 
483 485 486 
484 486 487 
485 487 488 
486 488 489 
487 489 490 
488 490 491 
489 491 492 
490 492 493 
491 493 494 
492 494 495 
493 495 496 
494 496 497 
495 497 498 
496 498 499 
497 499 500 
498 500 501 
499 501 502 
500 502 503 
501 503 504 
502 504 505 
503 505 506 
504 506 507 
505 507 508 
506 508 509 
507 509 510 
508 510 511 
509 511 512 
510 512 513 
511 513 514 
512 514 515 
513 515 516 
514 516 517 
515 517 518 
516 518 519 
517 519 520 
518 520 521 
519 521 522 
520 522 523 
521 523 524 
522 524 525 
523 525 526 
524 526 527 
525 527 528 
526 528 529 
527 529 530 
528 530 531 
529 531 532 
530 532 533 
531 533 534 
532 534 535 
533 535 536 
534 536 537 
535 537 538 
536 538 539 
537 539 540 
538 540 541 
539 541 542 
540 542 543 
541 543 544 
542 544 545 
543 545 546 
544 546 547 
545 547 548 
546 548 549 
547 549 550 
548 550 551 
549 551 552 
550 552 553 
551 553 554 
552 554 555 
553 555 556 
554 556 557 
555 557 558 
556 558 559 
557 559 560 
558 560 561 
559 561 562 
560 562 563 
561 563 564 
562 564 565 
563 565 566 
564 566 567 
565 567 568 
566 568 569 
567 569 570 
568 570 571 
569 571 572 
570 572 573 
571 573 574 
572 574 575 
573 575 576 
574 576 577 
575 577 578 
576 578 579 
577 579 580 
578 580 581 
579 581 582 
580 582 583 
581 583 584 
582 584 585 
583 585 586 
584 586 587 
585 587 588 
586 588 589 
587 589 590 
588 590 591 
589 591 592 
590 592 593 
591 593 594 
592 594 595 
593 595 596 
594 596 597 
595 597 598 
596 598 599 
597 599 600 
598 600 601 
599 601 602 
600 602 603 
601 603 604 
602 604 605 
603 605 606 
604 606 607 
605 607 608 
606 608 609 
607 609 610 
608 610 611 
609 611 612 
610 612 613 
611 613 614 
612 614 615 
613 615 616 
614 616 617 
615 617 618 
616 618 619 
617 619 620 
618 620 621 
619 621 622 
620 622 623 
621 623 5 
1 5 1 500
622 5 624 
623 624 625 
624 625 626 
625 626 627 
626 627 628 
627 628 629 
628 629 630 
629 630 631 
630 631 632 
631 632 633 
632 633 634 
633 634 635 
634 635 636 
635 636 637 
636 637 638 
637 638 639 
638 639 640 
639 640 641 
640 641 642 
641 642 643 
642 643 644 
643 644 645 
644 645 646 
645 646 647 
646 647 648 
647 648 649 
648 649 650 
649 650 651 
650 651 652 
651 652 653 
652 653 654 
653 654 655 
654 655 656 
655 656 657 
656 657 658 
657 658 659 
658 659 660 
659 660 661 
660 661 662 
661 662 663 
662 663 664 
663 664 665 
664 665 666 
665 666 667 
666 667 668 
667 668 669 
668 669 670 
669 670 671 
670 671 672 
671 672 673 
672 673 674 
673 674 675 
674 675 676 
675 676 677 
676 677 678 
677 678 679 
678 679 680 
679 680 681 
680 681 682 
681 682 683 
682 683 684 
683 684 685 
684 685 686 
685 686 687 
686 687 688 
687 688 689 
688 689 690 
689 690 691 
690 691 692 
691 692 693 
692 693 694 
693 694 695 
694 695 696 
695 696 697 
696 697 698 
697 698 699 
698 699 700 
699 700 701 
700 701 702 
701 702 703 
702 703 704 
703 704 705 
704 705 706 
705 706 707 
706 707 708 
707 708 709 
708 709 710 
709 710 711 
710 711 712 
711 712 713 
712 713 714 
713 714 715 
714 715 716 
715 716 717 
716 717 718 
717 718 719 
718 719 720 
719 720 721 
720 721 722 
721 722 723 
722 723 724 
723 724 725 
724 725 726 
725 726 727 
726 727 728 
727 728 729 
728 729 730 
729 730 731 
730 731 732 
731 732 733 
732 733 734 
733 734 735 
734 735 736 
735 736 737 
736 737 738 
737 738 739 
738 739 740 
739 740 741 
740 741 742 
741 742 743 
742 743 744 
743 744 745 
744 745 746 
745 746 747 
746 747 748 
747 748 749 
748 749 750 
749 750 751 
750 751 752 
751 752 753 
752 753 754 
753 754 755 
754 755 756 
755 756 757 
756 757 758 
757 758 759 
758 759 760 
759 760 761 
760 761 762 
761 762 763 
762 763 764 
763 764 765 
764 765 766 
765 766 767 
766 767 768 
767 768 769 
768 769 770 
769 770 771 
770 771 772 
771 772 773 
772 773 774 
773 774 775 
774 775 776 
775 776 777 
776 777 778 
777 778 779 
778 779 780 
779 780 781 
780 781 782 
781 782 783 
782 783 784 
783 784 785 
784 785 786 
785 786 787 
786 787 788 
787 788 789 
788 789 790 
789 790 791 
790 791 792 
791 792 793 
792 793 794 
793 794 795 
794 795 796 
795 796 797 
796 797 798 
797 798 799 
798 799 800 
799 800 801 
800 801 802 
801 802 803 
802 803 804 
803 804 805 
804 805 806 
805 806 807 
806 807 808 
807 808 809 
808 809 810 
809 810 811 
810 811 812 
811 812 813 
812 813 814 
813 814 815 
814 815 816 
815 816 817 
816 817 818 
817 818 819 
818 819 820 
819 820 821 
820 821 822 
821 822 823 
822 823 824 
823 824 825 
824 825 826 
825 826 827 
826 827 828 
827 828 829 
828 829 830 
829 830 831 
830 831 832 
831 832 833 
832 833 834 
833 834 835 
834 835 836 
835 836 837 
836 837 838 
837 838 839 
838 839 840 
839 840 841 
840 841 842 
841 842 843 
842 843 844 
843 844 845 
844 845 846 
845 846 847 
846 847 848 
847 848 849 
848 849 850 
849 850 851 
850 851 852 
851 852 853 
852 853 854 
853 854 855 
854 855 856 
855 856 857 
856 857 858 
857 858 859 
858 859 860 
859 860 861 
860 861 862 
861 862 863 
862 863 864 
863 864 865 
864 865 866 
865 866 867 
866 867 868 
867 868 869 
868 869 870 
869 870 871 
870 871 872 
871 872 873 
872 873 874 
873 874 875 
874 875 876 
875 876 877 
876 877 878 
877 878 879 
878 879 880 
879 880 881 
880 881 882 
881 882 883 
882 883 884 
883 884 885 
884 885 886 
885 886 887 
886 887 888 
887 888 889 
888 889 890 
889 890 891 
890 891 892 
891 892 893 
892 893 894 
893 894 895 
894 895 896 
895 896 897 
896 897 898 
897 898 899 
898 899 900 
899 900 901 
900 901 902 
901 902 903 
902 903 904 
903 904 905 
904 905 906 
905 906 907 
906 907 908 
907 908 909 
908 909 910 
909 910 911 
910 911 912 
911 912 913 
912 913 914 
913 914 915 
914 915 916 
915 916 917 
916 917 918 
917 918 919 
918 919 920 
919 920 921 
920 921 922 
921 922 923 
922 923 924 
923 924 925 
924 925 926 
925 926 927 
926 927 928 
927 928 929 
928 929 930 
929 930 931 
930 931 932 
931 932 933 
932 933 934 
933 934 935 
934 935 936 
935 936 937 
936 937 938 
937 938 939 
938 939 940 
939 940 941 
940 941 942 
941 942 943 
942 943 944 
943 944 945 
944 945 946 
945 946 947 
946 947 948 
947 948 949 
948 949 950 
949 950 951 
950 951 952 
951 952 953 
952 953 954 
953 954 955 
954 955 956 
955 956 957 
956 957 958 
957 958 959 
958 959 960 
959 960 961 
960 961 962 
961 962 963 
962 963 964 
963 964 965 
964 965 966 
965 966 967 
966 967 968 
967 968 969 
968 969 970 
969 970 971 
970 971 972 
971 972 973 
972 973 974 
973 974 975 
974 975 976 
975 976 977 
976 977 978 
977 978 979 
978 979 980 
979 980 981 
980 981 982 
981 982 983 
982 983 984 
983 984 985 
984 985 986 
985 986 987 
986 987 988 
987 988 989 
988 989 990 
989 990 991 
990 991 992 
991 992 993 
992 993 994 
993 994 995 
994 995 996 
995 996 997 
996 997 998 
997 998 999 
998 999 1000 
999 1000 1001 
1000 1001 1002 
1001 1002 1003 
1002 1003 1004 
1003 1004 1005 
1004 1005 1006 
1005 1006 1007 
1006 1007 1008 
1007 1008 1009 
1008 1009 1010 
1009 1010 1011 
1010 1011 1012 
1011 1012 1013 
1012 1013 1014 
1013 1014 1015 
1014 1015 1016 
1015 1016 1017 
1016 1017 1018 
1017 1018 1019 
1018 1019 1020 
1019 1020 1021 
1020 1021 1022 
1021 1022 1023 
1022 1023 1024 
1023 1024 1025 
1024 1025 1026 
1025 1026 1027 
1026 1027 1028 
1027 1028 1029 
1028 1029 1030 
1029 1030 1031 
1030 1031 1032 
1031 1032 1033 
1032 1033 1034 
1033 1034 1035 
1034 1035 1036 
1035 1036 1037 
1036 1037 1038 
1037 1038 1039 
1038 1039 1040 
1039 1040 1041 
1040 1041 1042 
1041 1042 1043 
1042 1043 1044 
1043 1044 1045 
1044 1045 1046 
1045 1046 1047 
1046 1047 1048 
1047 1048 1049 
1048 1049 1050 
1049 1050 1051 
1050 1051 1052 
1051 1052 1053 
1052 1053 1054 
1053 1054 1055 
1054 1055 1056 
1055 1056 1057 
1056 1057 1058 
1057 1058 1059 
1058 1059 1060 
1059 1060 1061 
1060 1061 1062 
1061 1062 1063 
1062 1063 1064 
1063 1064 1065 
1064 1065 1066 
1065 1066 1067 
1066 1067 1068 
1067 1068 1069 
1068 1069 1070 
1069 1070 1071 
1070 1071 1072 
1071 1072 1073 
1072 1073 1074 
1073 1074 1075 
1074 1075 1076 
1075 1076 1077 
1076 1077 1078 
1077 1078 1079 
1078 1079 1080 
1079 1080 1081 
1080 1081 1082 
1081 1082 1083 
1082 1083 1084 
1083 1084 1085 
1084 1085 1086 
1085 1086 1087 
1086 1087 1088 
1087 1088 1089 
1088 1089 1090 
1089 1090 1091 
1090 1091 1092 
1091 1092 1093 
1092 1093 1094 
1093 1094 1095 
1094 1095 1096 
1095 1096 1097 
1096 1097 1098 
1097 1098 1099 
1098 1099 1100 
1099 1100 1101 
1100 1101 1102 
1101 1102 1103 
1102 1103 1104 
1103 1104 1105 
1104 1105 1106 
1105 1106 1107 
1106 1107 1108 
1107 1108 1109 
1108 1109 1110 
1109 1110 1111 
1110 1111 1112 
1111 1112 1113 
1112 1113 1114 
1113 1114 1115 
1114 1115 1116 
1115 1116 1117 
1116 1117 1118 
1117 1118 1119 
1118 1119 1120 
1119 1120 1121 
1120 1121 1122 
1121 1122 6 
1 6 1 100
1122 6 1123 
1123 1123 1124 
1124 1124 1125 
1125 1125 1126 
1126 1126 1127 
1127 1127 1128 
1128 1128 1129 
1129 1129 1130 
1130 1130 1131 
1131 1131 1132 
1132 1132 1133 
1133 1133 1134 
1134 1134 1135 
1135 1135 1136 
1136 1136 1137 
1137 1137 1138 
1138 1138 1139 
1139 1139 1140 
1140 1140 1141 
1141 1141 1142 
1142 1142 1143 
1143 1143 1144 
1144 1144 1145 
1145 1145 1146 
1146 1146 1147 
1147 1147 1148 
1148 1148 1149 
1149 1149 1150 
1150 1150 1151 
1151 1151 1152 
1152 1152 1153 
1153 1153 1154 
1154 1154 1155 
1155 1155 1156 
1156 1156 1157 
1157 1157 1158 
1158 1158 1159 
1159 1159 1160 
1160 1160 1161 
1161 1161 1162 
1162 1162 1163 
1163 1163 1164 
1164 1164 1165 
1165 1165 1166 
1166 1166 1167 
1167 1167 1168 
1168 1168 1169 
1169 1169 1170 
1170 1170 1171 
1171 1171 1172 
1172 1172 1173 
1173 1173 1174 
1174 1174 1175 
1175 1175 1176 
1176 1176 1177 
1177 1177 1178 
1178 1178 1179 
1179 1179 1180 
1180 1180 1181 
1181 1181 1182 
1182 1182 1183 
1183 1183 1184 
1184 1184 1185 
1185 1185 1186 
1186 1186 1187 
1187 1187 1188 
1188 1188 1189 
1189 1189 1190 
1190 1190 1191 
1191 1191 1192 
1192 1192 1193 
1193 1193 1194 
1194 1194 1195 
1195 1195 1196 
1196 1196 1197 
1197 1197 1198 
1198 1198 1199 
1199 1199 1200 
1200 1200 1201 
1201 1201 1202 
1202 1202 1203 
1203 1203 1204 
1204 1204 1205 
1205 1205 1206 
1206 1206 1207 
1207 1207 1208 
1208 1208 1209 
1209 1209 1210 
1210 1210 1211 
1211 1211 1212 
1212 1212 1213 
1213 1213 1214 
1214 1214 1215 
1215 1215 1216 
1216 1216 1217 
1217 1217 1218 
1218 1218 1219 
1219 1219 1220 
1220 1220 1221 
1221 1221 7 
$EndElements
