$MeshFormat
4.1 0 8
$EndMeshFormat
$PhysicalNames
7
0 4 "point1"
0 5 "point2"
0 6 "point3"
0 7 "point4"
1 1 "AIR1"
1 2 "Ag"
1 3 "AIR2"
$EndPhysicalNames
$Entities
4 3 0 0
1 0 0 0 1 4 
2 5 0 0 1 5 
3 25 0 0 1 6 
4 30 0 0 1 7 
1 0 0 0 5 0 0 1 1 2 1 -2 
2 5 0 0 25 0 0 1 2 2 2 -3 
3 25 0 0 30 0 0 1 3 2 3 -4 
$EndEntities
$Nodes
7 31 1 31
0 1 0 1
1
0 0 0
0 2 0 1
2
5 0 0
0 3 0 1
3
25 0 0
0 4 0 1
4
30 0 0
1 1 0 4
5
6
7
8
0.9999999999984134 0 0
1.999999999995513 0 0
2.999999999996966 0 0
3.999999999998489 0 0
1 2 0 19
9
10
11
12
13
14
15
16
17
18
19
20
21
22
23
24
25
26
27
5.999999999998354 0 0
6.999999999998374 0 0
7.99999999999645 0 0
8.999999999996401 0 0
9.999999999996628 0 0
10.99999999999686 0 0
11.99999999999708 0 0
12.99999999999731 0 0
13.99999999999754 0 0
14.99999999999777 0 0
15.99999999999799 0 0
16.99999999999822 0 0
17.99999999999845 0 0
18.99999999999868 0 0
19.99999999999891 0 0
20.99999999999913 0 0
21.99999999999935 0 0
22.99999999999957 0 0
23.99999999999978 0 0
1 3 0 4
28
29
30
31
26 0 0
27 0 0
28 0 0
29 0 0
$EndNodes
$Elements
7 34 1 34
0 1 15 1
1 1 
0 2 15 1
2 2 
0 3 15 1
3 3 
0 4 15 1
4 4 
1 1 1 5
5 1 5 
6 5 6 
7 6 7 
8 7 8 
9 8 2 
1 2 1 20
10 2 9 
11 9 10 
12 10 11 
13 11 12 
14 12 13 
15 13 14 
16 14 15 
17 15 16 
18 16 17 
19 17 18 
20 18 19 
21 19 20 
22 20 21 
23 21 22 
24 22 23 
25 23 24 
26 24 25 
27 25 26 
28 26 27 
29 27 3 
1 3 1 5
30 3 28 
31 28 29 
32 29 30 
33 30 31 
34 31 4 
$EndElements
